<svg width="18" height="10" viewBox="0 0 18 10" fill="none" xmlns="http://www.w3.org/2000/svg">
<path d="M5.72727 7.23913L6.048 7.62271L5.72727 7.23913ZM12.2727 7.23913L12.5935 6.85555L12.2727 7.23913ZM9 -1.30337e-06C8.5 -1.28151e-06 8.5 -0.000161499 8.5 -0.000305504C8.5 -0.000330299 8.5 -0.000457138 8.5 -0.000506729C8.5 -0.000607818 8.5 -0.000641197 8.5 -0.000606865C8.5 -0.000539154 8.5 -0.000201553 8.5 0.000402123C8.49999 0.00160947 8.49997 0.00388208 8.49993 0.00719514C8.49986 0.0138213 8.49969 0.0246073 8.49934 0.0393645C8.49864 0.0688826 8.4972 0.114257 8.49423 0.17397C8.48828 0.293446 8.47624 0.470027 8.45186 0.69163C8.40304 1.13543 8.30513 1.75644 8.10927 2.45915C7.71618 3.86947 6.93853 5.5746 5.40655 6.85555L6.048 7.62271C7.78874 6.16721 8.64746 4.25277 9.07255 2.72764C9.28578 1.96263 9.39241 1.28694 9.44587 0.800969C9.47263 0.55769 9.48615 0.36112 9.49299 0.223666C9.49641 0.154914 9.49816 0.100879 9.49906 0.0631043C9.49951 0.0442148 9.49974 0.0293833 9.49987 0.0188032C9.49993 0.0135132 9.49996 0.0092846 9.49998 0.0061432C9.49999 0.0045725 9.49999 0.00327264 9.5 0.00224744C9.5 0.00173532 9.5 0.0012909 9.5 0.000916109C9.5 0.000729189 9.5 0.000499354 9.5 0.000405894C9.5 0.000193224 9.5 -1.32522e-06 9 -1.30337e-06ZM5.40655 6.85555C4.55278 7.56941 3.45226 7.9856 2.53738 8.2218C2.08437 8.33875 1.68709 8.40901 1.40416 8.44989C1.26291 8.4703 1.15073 8.4833 1.07505 8.49112C1.03722 8.49502 1.00856 8.49763 0.989993 8.49922C0.98071 8.50001 0.973955 8.50055 0.969843 8.50086C0.967788 8.50102 0.966394 8.50113 0.965676 8.50118C0.965317 8.5012 0.965127 8.50122 0.965108 8.50122C0.965098 8.50122 0.965131 8.50122 0.965207 8.50121C0.965245 8.50121 0.965335 8.5012 0.965354 8.5012C0.965454 8.50119 0.965565 8.50119 1 9C1.03444 9.49881 1.03457 9.4988 1.03471 9.49879C1.03477 9.49879 1.03493 9.49878 1.03505 9.49877C1.0353 9.49875 1.0356 9.49873 1.03594 9.49871C1.03661 9.49866 1.03746 9.4986 1.03848 9.49852C1.04052 9.49838 1.04326 9.49817 1.04666 9.49791C1.05348 9.49738 1.063 9.49662 1.0751 9.49559C1.09929 9.49352 1.13384 9.49036 1.1778 9.48582C1.26567 9.47675 1.39133 9.46212 1.54716 9.43961C1.8584 9.39464 2.29229 9.31786 2.78735 9.19005C3.76859 8.93672 5.03171 8.47247 6.048 7.62271L5.40655 6.85555ZM9 -1.30337e-06C8.5 -1.28151e-06 8.5 0.000193268 8.5 0.000405937C8.5 0.000499398 8.5 0.000729233 8.5 0.000916153C8.5 0.00129095 8.5 0.00173536 8.5 0.00224748C8.50001 0.00327268 8.50001 0.00457254 8.50002 0.00614324C8.50004 0.00928465 8.50007 0.0135132 8.50013 0.0188033C8.50026 0.0293833 8.50049 0.0442149 8.50094 0.0631043C8.50184 0.100879 8.50359 0.154915 8.50701 0.223666C8.51385 0.36112 8.52737 0.55769 8.55413 0.800969C8.60759 1.28694 8.71422 1.96263 8.92745 2.72764C9.35254 4.25277 10.2113 6.16721 11.952 7.62271L12.5935 6.85555C11.0615 5.5746 10.2838 3.86947 9.89073 2.45915C9.69487 1.75644 9.59695 1.13543 9.54814 0.69163C9.52376 0.470027 9.51172 0.293446 9.50577 0.17397C9.5028 0.114256 9.50136 0.0688826 9.50066 0.0393644C9.50031 0.0246073 9.50014 0.0138212 9.50007 0.0071951C9.50003 0.00388204 9.50001 0.00160943 9.5 0.000402079C9.5 -0.000201597 9.5 -0.000539198 9.5 -0.000606908C9.5 -0.000641241 9.5 -0.000607862 9.5 -0.000506773C9.5 -0.000457182 9.5 -0.000330343 9.5 -0.000304594C9.5 -0.000161543 9.5 -1.32522e-06 9 -1.30337e-06ZM11.952 7.62271C12.9683 8.47247 14.2314 8.93672 15.2126 9.19005C15.7077 9.31786 16.1416 9.39464 16.4528 9.43961C16.6087 9.46212 16.7343 9.47675 16.8222 9.48582C16.8662 9.49036 16.9007 9.49352 16.9249 9.49559C16.937 9.49662 16.9465 9.49738 16.9533 9.49791C16.9567 9.49817 16.9595 9.49837 16.9615 9.49852C16.9625 9.4986 16.9634 9.49866 16.9641 9.49871C16.9644 9.49873 16.9647 9.49875 16.9649 9.49877C16.9651 9.49878 16.9652 9.49879 16.9653 9.49879C16.9654 9.4988 16.9656 9.49881 17 9C17.0344 8.50119 17.0345 8.50119 17.0346 8.5012C17.0347 8.5012 17.0348 8.50121 17.0348 8.50121C17.0349 8.50122 17.0349 8.50122 17.0349 8.50122C17.0349 8.50122 17.0347 8.5012 17.0343 8.50118C17.0336 8.50112 17.0322 8.50102 17.0302 8.50086C17.026 8.50055 17.0193 8.50001 17.01 8.49922C16.9914 8.49763 16.9628 8.49502 16.925 8.49112C16.8493 8.4833 16.7371 8.4703 16.5958 8.44989C16.3129 8.40901 15.9156 8.33875 15.4626 8.2218C14.5477 7.9856 13.4472 7.56941 12.5935 6.85555L11.952 7.62271Z" fill="black"/>
</svg>
