<svg width="18" height="10" viewBox="0 0 18 10" fill="none" xmlns="http://www.w3.org/2000/svg">
<path d="M5.72727 2.76087L6.048 2.37729L5.72727 2.76087ZM12.2727 2.76087L12.5935 3.14445L12.2727 2.76087ZM9 10C8.5 10 8.5 10.0002 8.5 10.0003C8.5 10.0003 8.5 10.0005 8.5 10.0005C8.5 10.0006 8.5 10.0006 8.5 10.0006C8.5 10.0005 8.5 10.0002 8.5 9.9996C8.49999 9.99839 8.49997 9.99612 8.49993 9.9928C8.49986 9.98618 8.49969 9.97539 8.49934 9.96064C8.49864 9.93112 8.4972 9.88574 8.49423 9.82603C8.48828 9.70655 8.47624 9.52997 8.45186 9.30837C8.40304 8.86457 8.30513 8.24356 8.10927 7.54085C7.71618 6.13053 6.93853 4.4254 5.40655 3.14445L6.048 2.37729C7.78874 3.83279 8.64746 5.74723 9.07255 7.27236C9.28578 8.03737 9.39241 8.71306 9.44587 9.19903C9.47263 9.44231 9.48615 9.63888 9.49299 9.77633C9.49641 9.84509 9.49816 9.89912 9.49906 9.9369C9.49951 9.95579 9.49974 9.97062 9.49987 9.9812C9.49993 9.98649 9.49996 9.99072 9.49998 9.99386C9.49999 9.99543 9.49999 9.99673 9.5 9.99775C9.5 9.99826 9.5 9.99871 9.5 9.99908C9.5 9.99927 9.5 9.9995 9.5 9.99959C9.5 9.99981 9.5 10 9 10ZM5.40655 3.14445C4.55278 2.43059 3.45226 2.0144 2.53738 1.7782C2.08437 1.66125 1.68709 1.59099 1.40416 1.55011C1.26291 1.5297 1.15073 1.5167 1.07505 1.50888C1.03722 1.50498 1.00856 1.50237 0.989993 1.50078C0.98071 1.49999 0.973955 1.49945 0.969843 1.49914C0.967788 1.49898 0.966394 1.49887 0.965676 1.49882C0.965317 1.4988 0.965127 1.49878 0.965108 1.49878C0.965098 1.49878 0.965131 1.49878 0.965207 1.49879C0.965245 1.49879 0.965335 1.4988 0.965354 1.4988C0.965454 1.49881 0.965565 1.49881 1 1C1.03444 0.501187 1.03457 0.501196 1.03471 0.501206C1.03477 0.501211 1.03493 0.501221 1.03505 0.50123C1.0353 0.501248 1.0356 0.501268 1.03594 0.501292C1.03661 0.50134 1.03746 0.501401 1.03848 0.501476C1.04052 0.501625 1.04326 0.501828 1.04666 0.502091C1.05348 0.502616 1.063 0.503377 1.0751 0.504411C1.09929 0.506478 1.13384 0.509635 1.1778 0.514176C1.26567 0.523253 1.39133 0.537875 1.54716 0.56039C1.8584 0.605359 2.29229 0.682139 2.78735 0.80995C3.76859 1.06328 5.03171 1.52753 6.048 2.37729L5.40655 3.14445ZM9 10C8.5 10 8.5 9.99981 8.5 9.99959C8.5 9.9995 8.5 9.99927 8.5 9.99908C8.5 9.99871 8.5 9.99826 8.5 9.99775C8.50001 9.99673 8.50001 9.99543 8.50002 9.99386C8.50004 9.99072 8.50007 9.98649 8.50013 9.9812C8.50026 9.97062 8.50049 9.95579 8.50094 9.9369C8.50184 9.89912 8.50359 9.84509 8.50701 9.77633C8.51385 9.63888 8.52737 9.44231 8.55413 9.19903C8.60759 8.71306 8.71422 8.03737 8.92745 7.27236C9.35254 5.74723 10.2113 3.83279 11.952 2.37729L12.5935 3.14445C11.0615 4.4254 10.2838 6.13053 9.89073 7.54085C9.69487 8.24356 9.59695 8.86457 9.54814 9.30837C9.52376 9.52997 9.51172 9.70655 9.50577 9.82603C9.5028 9.88574 9.50136 9.93112 9.50066 9.96064C9.50031 9.97539 9.50014 9.98618 9.50007 9.9928C9.50003 9.99612 9.50001 9.99839 9.5 9.9996C9.5 10.0002 9.5 10.0005 9.5 10.0006C9.5 10.0006 9.5 10.0006 9.5 10.0005C9.5 10.0005 9.5 10.0003 9.5 10.0003C9.5 10.0002 9.5 10 9 10ZM11.952 2.37729C12.9683 1.52753 14.2314 1.06328 15.2126 0.809951C15.7077 0.68214 16.1416 0.605359 16.4528 0.56039C16.6087 0.537876 16.7343 0.523254 16.8222 0.514176C16.8662 0.509636 16.9007 0.506478 16.9249 0.504412C16.937 0.503378 16.9465 0.502617 16.9533 0.502092C16.9567 0.501829 16.9595 0.501626 16.9615 0.501477C16.9625 0.501402 16.9634 0.501341 16.9641 0.501293C16.9644 0.501269 16.9647 0.501248 16.9649 0.501231C16.9651 0.501222 16.9652 0.501211 16.9653 0.501207C16.9654 0.501197 16.9656 0.501188 17 1C17.0344 1.49881 17.0345 1.49881 17.0346 1.4988C17.0347 1.4988 17.0348 1.49879 17.0348 1.49879C17.0349 1.49878 17.0349 1.49878 17.0349 1.49878C17.0349 1.49878 17.0347 1.4988 17.0343 1.49882C17.0336 1.49888 17.0322 1.49898 17.0302 1.49914C17.026 1.49945 17.0193 1.49999 17.01 1.50078C16.9914 1.50237 16.9628 1.50498 16.925 1.50888C16.8493 1.5167 16.7371 1.5297 16.5958 1.55011C16.3129 1.59099 15.9156 1.66125 15.4626 1.7782C14.5477 2.0144 13.4472 2.43059 12.5935 3.14445L11.952 2.37729Z" fill="#EE1623"/>
</svg>
