<svg width="30" height="23" viewBox="0 0 30 23" fill="none" xmlns="http://www.w3.org/2000/svg">
<path fill-rule="evenodd" clip-rule="evenodd" d="M15.8692 1.51345C15.7408 2.34816 15.4773 3.43541 14.916 4.27727C13.9059 5.79246 12.0315 6.2998 11.3671 6.44073C11.1453 6.48776 10.9295 6.49992 10.731 6.49992H5.04588C2.79016 6.49992 1.12349 8.60239 1.63822 10.7986L3.51322 18.7986C3.88411 20.381 5.29556 21.4999 6.92088 21.4999H23.0791C24.7044 21.4999 26.1159 20.381 26.4867 18.7986L28.3617 10.7986C28.8765 8.60239 27.2098 6.49992 24.9541 6.49992H19V5.49992H24.9541C27.8543 5.49992 29.9972 8.20309 29.3354 11.0268L27.4604 19.0268C26.9835 21.0613 25.1688 22.4999 23.0791 22.4999H6.92088C4.83118 22.4999 3.01646 21.0613 2.53961 19.0268L0.664606 11.0268C0.00280368 8.2031 2.14567 5.49992 5.04588 5.49992H10.731C10.8907 5.49992 11.0308 5.4898 11.1596 5.46249C11.796 5.32752 13.3102 4.88326 14.084 3.72257C14.5227 3.06444 14.7592 2.15169 14.8808 1.36139C14.9405 0.973584 14.9704 0.629915 14.9853 0.383738C14.9927 0.260879 14.9964 0.16291 14.9982 0.0965809C14.9991 0.0634318 14.9996 0.0382326 14.9998 0.0218298L15 0.00394544L15 0.000160787L15 -0.000244141C15 -0.000165398 15 -7.71449e-05 15.5 -7.71449e-05C16 -7.71449e-05 16 3.01818e-05 16 0.000147019V0.000428783L16 0.00116449L16 0.00332033L15.9999 0.0103351L15.9997 0.0349006C15.9994 0.0558514 15.9989 0.085828 15.9978 0.123968C15.9958 0.200217 15.9916 0.309279 15.9834 0.444233C15.9671 0.713681 15.9345 1.08876 15.8692 1.51345Z" fill="black"/>
<path fill-rule="evenodd" clip-rule="evenodd" d="M9.51159 18.1568L7.82523 11.0747L8.79803 10.8431L10.4844 17.9252L9.51159 18.1568Z" fill="black"/>
<path fill-rule="evenodd" clip-rule="evenodd" d="M20.7981 18.1568L22.4845 11.0747L21.5117 10.8431L19.8253 17.9252L20.7981 18.1568Z" fill="black"/>
<path fill-rule="evenodd" clip-rule="evenodd" d="M14.5 18V11H15.5V18H14.5Z" fill="black"/>
</svg>
