<svg width="45" height="29" viewBox="0 0 45 29" fill="none" xmlns="http://www.w3.org/2000/svg">
<path d="M44.5 14.5C44.5 22.2343 38.2613 28.5 30.5706 28.5C22.88 28.5 16.6413 22.2343 16.6413 14.5C16.6413 6.76571 22.88 0.5 30.5706 0.5C38.2613 0.5 44.5 6.76571 44.5 14.5Z" stroke="#262626"/>
<path d="M29.8086 11.5843L29.4114 11.8881L29.8086 11.5843ZM29.8086 17.4156L29.4114 17.1119L29.8086 17.4156ZM0 15H35.7065V14H0V15ZM35.7065 14.5C35.7065 14 35.7067 14 35.7069 14C35.7069 14 35.7071 14 35.7071 14C35.7073 14 35.7074 14 35.7074 14C35.7075 14 35.7073 14 35.707 14C35.7063 14 35.7047 14 35.7023 13.9999C35.6974 13.9999 35.6892 13.9997 35.6778 13.9994C35.6549 13.9988 35.6191 13.9976 35.5717 13.995C35.4769 13.9899 35.3358 13.9794 35.1582 13.958C34.8025 13.9152 34.3038 13.8293 33.7394 13.6572C32.608 13.3124 31.2376 12.6301 30.2058 11.2806L29.4114 11.8881C30.609 13.4542 32.1876 14.2297 33.4478 14.6138C34.0792 14.8062 34.637 14.9025 35.0388 14.9508C35.24 14.975 35.4029 14.9873 35.5174 14.9935C35.5746 14.9967 35.6199 14.9983 35.6518 14.9991C35.6678 14.9995 35.6804 14.9997 35.6896 14.9999C35.6942 14.9999 35.6979 14.9999 35.7007 15C35.7021 15 35.7033 15 35.7043 15C35.7048 15 35.7052 15 35.7056 15C35.7058 15 35.706 15 35.7061 15C35.7063 15 35.7065 15 35.7065 14.5ZM30.2058 11.2806C29.6307 10.5286 29.2926 9.55427 29.1001 8.73895C29.005 8.33615 28.9479 7.98281 28.9146 7.73113C28.898 7.60549 28.8875 7.50574 28.8811 7.43847C28.8779 7.40485 28.8758 7.37939 28.8745 7.36292C28.8739 7.35469 28.8735 7.3487 28.8732 7.34507C28.8731 7.34326 28.873 7.34203 28.8729 7.34141C28.8729 7.3411 28.8729 7.34094 28.8729 7.34093C28.8729 7.34092 28.8729 7.34096 28.8729 7.34103C28.8729 7.34107 28.8729 7.34115 28.8729 7.34117C28.8729 7.34126 28.8729 7.34136 28.3739 7.37286C27.8749 7.40437 27.8749 7.40449 27.8749 7.40462C27.8749 7.40468 27.875 7.40482 27.875 7.40493C27.875 7.40516 27.875 7.40542 27.875 7.40573C27.8751 7.40634 27.8751 7.4071 27.8752 7.40802C27.8753 7.40986 27.8755 7.41231 27.8757 7.41536C27.8761 7.42147 27.8767 7.42998 27.8776 7.44079C27.8793 7.46242 27.8818 7.49328 27.8855 7.53252C27.893 7.61096 27.9049 7.72309 27.9233 7.86212C27.9599 8.13978 28.0226 8.52693 28.1269 8.96874C28.3332 9.84266 28.7125 10.9741 29.4114 11.8881L30.2058 11.2806ZM35.7065 14.5C35.7065 14 35.7063 14 35.7061 14C35.706 14 35.7058 14 35.7056 14C35.7052 14 35.7048 14 35.7043 14C35.7033 14 35.7021 14 35.7007 14C35.6979 14 35.6942 14.0001 35.6896 14.0001C35.6804 14.0002 35.6678 14.0004 35.6518 14.0009C35.6199 14.0017 35.5746 14.0033 35.5174 14.0064C35.4029 14.0126 35.24 14.0249 35.0388 14.0491C34.637 14.0974 34.0792 14.1937 33.4478 14.3862C32.1876 14.7703 30.609 15.5457 29.4114 17.1119L30.2058 17.7193C31.2376 16.3699 32.608 15.6875 33.7394 15.3427C34.3038 15.1707 34.8025 15.0847 35.1582 15.042C35.3358 15.0206 35.4769 15.0101 35.5717 15.0049C35.6191 15.0024 35.6549 15.0011 35.6778 15.0005C35.6892 15.0002 35.6974 15.0001 35.7023 15C35.7047 15 35.7063 15 35.707 15C35.7073 15 35.7075 15 35.7074 15C35.7074 15 35.7073 15 35.7071 15C35.7071 15 35.7069 15 35.7069 15C35.7067 15 35.7065 15 35.7065 14.5ZM29.4114 17.1119C28.7125 18.0259 28.3332 19.1573 28.1269 20.0312C28.0226 20.473 27.9599 20.8602 27.9233 21.1378C27.9049 21.2769 27.893 21.389 27.8855 21.4674C27.8818 21.5067 27.8793 21.5375 27.8776 21.5592C27.8767 21.57 27.8761 21.5785 27.8757 21.5846C27.8755 21.5877 27.8753 21.5901 27.8752 21.5919C27.8751 21.5929 27.8751 21.5936 27.875 21.5942C27.875 21.5945 27.875 21.5948 27.875 21.595C27.875 21.5951 27.8749 21.5953 27.8749 21.5953C27.8749 21.5955 27.8749 21.5956 28.3739 21.6271C28.8729 21.6586 28.8729 21.6587 28.8729 21.6588C28.8729 21.6588 28.8729 21.6589 28.8729 21.6589C28.8729 21.659 28.8729 21.659 28.8729 21.659C28.8729 21.659 28.8729 21.6589 28.8729 21.6586C28.873 21.6579 28.8731 21.6567 28.8732 21.6549C28.8735 21.6513 28.8739 21.6453 28.8745 21.637C28.8758 21.6206 28.8779 21.5951 28.8811 21.5615C28.8875 21.4942 28.898 21.3945 28.9146 21.2688C28.9479 21.0172 29.005 20.6638 29.1001 20.261C29.2926 19.4457 29.6307 18.4714 30.2058 17.7193L29.4114 17.1119Z" fill="white"/>
</svg>
