<svg width="21" height="21" viewBox="0 0 21 21" fill="none" xmlns="http://www.w3.org/2000/svg">
<circle cx="10.5" cy="10.5" r="10.5" fill="#3A3A3A"/>
<path d="M13.1591 9.36957L12.8466 8.97921L13.1591 9.36957ZM7.84091 9.36957L7.52847 9.75992L7.52847 9.75992L7.84091 9.36957ZM10.5 15C11 15 11 15.0002 11 15.0003C11 15.0004 11 15.0005 11 15.0006C11 15.0007 11 15.0008 11 15.0009C11 15.0009 11 15.0008 11 15.0005C11 14.9998 11 14.9983 11 14.996C11.0001 14.9913 11.0002 14.9835 11.0005 14.9726C11.001 14.9507 11.0022 14.9166 11.0045 14.8713C11.0092 14.7808 11.0188 14.6461 11.0383 14.4766C11.0773 14.1371 11.1556 13.6612 11.3125 13.1227C11.6271 12.042 12.2485 10.7389 13.4715 9.75992L12.8466 8.97921C11.4106 10.1286 10.7024 11.6407 10.3523 12.8431C10.1767 13.4462 10.0889 13.9789 10.0448 14.3625C10.0227 14.5546 10.0115 14.7101 10.0059 14.8194C10.003 14.8741 10.0016 14.9173 10.0008 14.9478C10.0004 14.963 10.0002 14.9751 10.0001 14.9838C10.0001 14.9882 10 14.9918 10 14.9945C10 14.9958 10 14.9969 10 14.9979C10 14.9983 10 14.9987 10 14.9991C10 14.9993 10 14.9995 10 14.9996C10 14.9998 10 15 10.5 15ZM13.4715 9.75992C14.15 9.21685 15.0302 8.89678 15.7693 8.71412C16.1342 8.62395 16.4542 8.56977 16.682 8.53826C16.7957 8.52253 16.8859 8.51253 16.9465 8.50654C16.9768 8.50355 16.9996 8.50156 17.0143 8.50036C17.0216 8.49976 17.0269 8.49935 17.0301 8.49912C17.0316 8.49901 17.0327 8.49893 17.0332 8.4989C17.0334 8.49888 17.0335 8.49888 17.0335 8.49888C17.0335 8.49888 17.0334 8.49888 17.0333 8.49889C17.0333 8.49889 17.0332 8.4989 17.0332 8.4989C17.0331 8.4989 17.033 8.49891 17 8C16.967 7.50109 16.9669 7.5011 16.9668 7.50111C16.9667 7.50111 16.9666 7.50112 16.9665 7.50113C16.9662 7.50114 16.966 7.50116 16.9657 7.50118C16.9651 7.50122 16.9643 7.50127 16.9635 7.50133C16.9617 7.50145 16.9594 7.50162 16.9565 7.50183C16.9508 7.50225 16.9428 7.50286 16.9328 7.50368C16.9127 7.50532 16.8842 7.50782 16.8481 7.51139C16.7758 7.51854 16.6727 7.53003 16.545 7.54769C16.2901 7.58295 15.9348 7.64313 15.5294 7.74333C14.7278 7.94142 13.6876 8.30613 12.8466 8.97921L13.4715 9.75992ZM10.5 15C11 15 11 14.9998 11 14.9996C11 14.9995 11 14.9993 11 14.9991C11 14.9987 11 14.9983 11 14.9979C11 14.9969 11 14.9958 11 14.9945C11 14.9918 10.9999 14.9882 10.9999 14.9838C10.9998 14.9751 10.9996 14.963 10.9992 14.9478C10.9984 14.9173 10.997 14.8741 10.9941 14.8194C10.9885 14.7101 10.9773 14.5546 10.9552 14.3625C10.9111 13.9789 10.8233 13.4462 10.6477 12.8431C10.2976 11.6407 9.58937 10.1286 8.15335 8.97921L7.52847 9.75992C8.75154 10.7389 9.37287 12.042 9.68755 13.1227C9.84435 13.6612 9.9227 14.1371 9.96172 14.4766C9.9812 14.6461 9.99077 14.7808 9.99548 14.8713C9.99783 14.9166 9.99896 14.9507 9.9995 14.9726C9.99978 14.9835 9.9999 14.9913 9.99996 14.996C9.99998 14.9983 9.99999 14.9998 10 15.0005C10 15.0008 10 15.0009 10 15.0009C10 15.0008 10 15.0007 10 15.0006C10 15.0005 10 15.0004 10 15.0003C10 15.0002 10 15 10.5 15ZM8.15335 8.97921C7.31243 8.30613 6.27216 7.94142 5.47063 7.74333C5.06521 7.64313 4.70993 7.58295 4.45498 7.54769C4.32729 7.53003 4.22421 7.51854 4.15192 7.51139C4.11576 7.50782 4.08726 7.50532 4.06719 7.50368C4.05715 7.50286 4.04922 7.50225 4.04348 7.50183C4.04062 7.50162 4.0383 7.50145 4.03654 7.50133C4.03566 7.50127 4.03493 7.50122 4.03433 7.50118C4.03403 7.50116 4.03377 7.50114 4.03354 7.50113C4.03343 7.50112 4.03329 7.50111 4.03323 7.5011C4.0331 7.5011 4.03297 7.50109 4 8C3.96703 8.49891 3.96692 8.4989 3.96682 8.4989C3.9668 8.4989 3.96671 8.49889 3.96667 8.49889C3.96658 8.49888 3.96653 8.49888 3.96652 8.49888C3.96648 8.49887 3.96659 8.49888 3.96683 8.4989C3.96732 8.49893 3.96836 8.49901 3.96993 8.49912C3.97307 8.49935 3.97836 8.49976 3.9857 8.50036C4.00037 8.50156 4.02323 8.50355 4.05352 8.50654C4.11412 8.51253 4.20427 8.52253 4.31797 8.53826C4.54578 8.56977 4.86584 8.62395 5.23071 8.71412C5.96978 8.89677 6.84996 9.21685 7.52847 9.75992L8.15335 8.97921Z" fill="white"/>
</svg>
