<svg width="50" height="58" viewBox="0 0 50 58" fill="none" xmlns="http://www.w3.org/2000/svg">
<path fill-rule="evenodd" clip-rule="evenodd" d="M32.459 48.8683C42.623 45.6953 50 36.2092 50 25C50 11.1929 38.8071 0 25 0C11.1929 0 0 11.1929 0 25C0 36.6591 7.98114 46.4541 18.778 49.2196C19.9252 49.7328 21.3163 50.5904 22.4829 52C24.0843 53.9349 25 58 25 58C25 58 25.7427 53.7866 27.5171 52C29.1537 50.3521 31.2323 49.3559 32.459 48.8683Z" fill="#EE1623"/>
<path d="M25 34.8118C24.9335 34.5632 24.8602 34.3 24.7802 34.0267C24.3117 32.427 23.5983 30.4311 22.63 28.9818C22.1182 28.2158 21.4134 27.7859 20.701 27.4839C20.3472 27.334 19.9824 27.2119 19.6358 27.0981C19.6028 27.0873 19.57 27.0766 19.5374 27.0659C19.2212 26.9623 18.9221 26.8643 18.6344 26.7513C18.0034 26.5033 17.4906 26.2059 17.1254 25.7181C16.7628 25.2336 16.5 24.4989 16.5 23.2885C16.5 18.4197 20.3203 14.5 25 14.5C29.6797 14.5 33.5 18.4197 33.5 23.2885C33.5 24.4989 33.2372 25.2336 32.8746 25.7181C32.5094 26.2059 31.9966 26.5033 31.3656 26.7513C31.0779 26.8643 30.7788 26.9623 30.4626 27.0659C30.43 27.0766 30.3972 27.0873 30.3642 27.0981C30.0176 27.2119 29.6528 27.334 29.2991 27.4839C28.5866 27.7859 27.8818 28.2158 27.37 28.9818C26.4017 30.4311 25.6883 32.427 25.2198 34.0267C25.1398 34.3 25.0665 34.5632 25 34.8118Z" stroke="white"/>
</svg>
