<svg width="146" height="153" viewBox="0 0 146 153" fill="none" xmlns="http://www.w3.org/2000/svg">
<path d="M4.438 15.21C6.678 15.21 8.33 13.992 8.33 12.074C8.33 10.912 7.784 10.184 6.846 9.834C7.518 9.372 7.938 8.546 7.938 7.566C7.938 5.606 6.286 4.71 4.536 4.71C3.01 4.71 1.806 5.41 1.148 6.348L2.212 7.356C2.646 6.642 3.43 6.096 4.494 6.096C5.628 6.096 6.384 6.67 6.384 7.608C6.384 8.56 5.614 9.078 4.452 9.12C4.186 9.134 3.584 9.134 3.444 9.134V10.534L4.578 10.562C5.754 10.604 6.776 10.898 6.776 12.06C6.776 13.054 6.048 13.824 4.494 13.824C2.94 13.824 2.128 13.04 1.792 12.214L0.518 13.054C1.064 14.16 2.338 15.21 4.438 15.21ZM9.3077 16.68H10.7777V15H17.2877V16.68H18.7437V13.614H18.0017V4.92L11.5477 4.906C11.4217 7.034 11.3517 8.588 11.1837 10.352C11.0157 12.088 10.7077 13.614 9.3077 13.614V16.68ZM11.7157 13.614C12.3317 12.942 12.4437 12.2 12.5977 10.66C12.7517 9.05 12.8077 7.832 12.8917 6.292L16.5317 6.306V13.614H11.7157ZM20.2847 15H26.7247V13.614H21.7547V10.506H25.8847V9.12H21.7547V6.306H26.7247V4.92H20.2847V15ZM32.182 15.21C34.506 15.21 36.074 13.95 36.676 11.962L35.192 11.556C34.786 12.956 33.792 13.824 32.182 13.824C30.04 13.824 28.962 12.27 28.962 9.96C28.976 7.65 30.04 6.096 32.182 6.096C33.792 6.096 34.786 6.964 35.192 8.364L36.676 7.958C36.074 5.97 34.506 4.71 32.182 4.71C29.172 4.71 27.422 6.838 27.422 9.96C27.422 13.082 29.172 15.21 32.182 15.21ZM38.2082 15H42.2822C42.4782 15 42.8002 14.986 43.0662 14.944C44.7462 14.678 45.5862 13.404 45.5862 11.766C45.5862 10.142 44.7462 8.854 43.0662 8.602C42.8002 8.56 42.4782 8.546 42.2822 8.546H39.6782V4.92H38.2082V15ZM39.6782 13.614V9.918H42.2262C42.4082 9.918 42.6602 9.932 42.8702 9.988C43.7662 10.198 44.1022 11.024 44.1022 11.766C44.1022 12.508 43.7662 13.334 42.8702 13.558C42.6602 13.6 42.4082 13.614 42.2262 13.614H39.6782ZM49.9253 15H51.3953V6.306H56.4773V15H57.9473V4.92H49.9253V15ZM64.1058 15.21C67.1298 15.21 68.8798 13.082 68.8798 9.96C68.8798 6.838 67.1298 4.71 64.1058 4.71C61.0958 4.71 59.3458 6.838 59.3458 9.96C59.3458 13.082 61.0958 15.21 64.1058 15.21ZM64.1058 13.824C61.9638 13.796 60.8858 12.27 60.8998 9.96C60.9138 7.65 61.9638 6.082 64.1058 6.096C66.2478 6.124 67.3258 7.65 67.3258 9.96C67.3258 12.27 66.2478 13.838 64.1058 13.824ZM70.2827 15H71.7527V10.184L76.2327 15H78.1087L73.3347 9.834L77.7867 4.92H75.9667L71.7527 9.624V4.92H70.2827V15ZM85.5274 15H87.0394L83.7634 4.92H81.6634L78.3874 15H79.8994L80.6414 12.732H84.7854L85.5274 15ZM81.0894 11.36L82.6994 6.39L84.3374 11.36H81.0894ZM91.105 15H92.575V10.646H97.615V15H99.071V4.92H97.615V9.26H92.575V4.92H91.105V15ZM108.969 15V4.92H107.485L102.515 12.41V4.92H101.031V15H102.515L107.485 7.51V15H108.969ZM116.823 4.92V9.554C116.403 9.904 115.661 10.212 114.709 10.212C112.735 10.212 112.413 8.854 112.413 7.3V4.92H110.929V7.762C110.929 10.03 111.853 11.612 114.429 11.612C115.367 11.612 116.221 11.402 116.823 11.052V15H118.293V4.92H116.823ZM120.253 15H126.693V13.614H121.723V10.506H125.853V9.12H121.723V6.306H126.693V4.92H120.253V15ZM128.375 15H129.845V6.306H134.815V4.92H128.375V15ZM140.135 15.21C143.159 15.21 144.909 13.082 144.909 9.96C144.909 6.838 143.159 4.71 140.135 4.71C137.125 4.71 135.375 6.838 135.375 9.96C135.375 13.082 137.125 15.21 140.135 15.21ZM140.135 13.824C137.993 13.796 136.915 12.27 136.929 9.96C136.943 7.65 137.993 6.082 140.135 6.096C142.277 6.124 143.355 7.65 143.355 9.96C143.355 12.27 142.277 13.838 140.135 13.824Z" fill="#CDCDCD"/>
<path d="M113.896 86.0916H89.7852V83.0007H113.896C125.567 83.0007 134.178 93.7644 131.518 104.995L123.768 137.723C121.851 145.817 114.554 151.546 106.146 151.546H39.3582C30.9493 151.546 23.6523 145.817 21.7355 137.723L13.9855 104.995C11.326 93.7644 19.9368 83.0007 31.6082 83.0007H55.1065C55.786 83.0007 56.4026 82.9583 56.981 82.8369C58.3219 82.5554 60.5864 81.9521 62.9279 80.8117C65.2666 79.6726 67.7147 77.9819 69.3803 75.509C71.256 72.7245 72.2473 68.9026 72.7533 65.6471C73.0028 64.042 73.1278 62.6202 73.1901 61.6014C73.2181 61.1457 73.2334 60.7721 73.2417 60.5005C73.5435 60.5006 74.031 60.5007 74.8186 60.5007C75.5901 60.5007 76.0735 60.5007 76.3764 60.5008C76.3678 60.8075 76.351 61.2456 76.3178 61.7878C76.251 62.8783 76.1176 64.3968 75.8504 66.1156C75.3232 69.5076 74.2479 73.8677 71.9901 77.2196C67.9337 83.2417 60.3665 85.2863 57.6331 85.8601C56.7626 86.0428 55.908 86.0916 55.1065 86.0916H31.6082C21.9685 86.0916 14.8333 94.9873 17.0367 104.292L24.7867 137.02C26.3739 143.722 32.4118 148.455 39.3582 148.455H106.146C113.092 148.455 119.13 143.722 120.717 137.02L128.467 104.292C130.671 94.9873 123.535 86.0916 113.896 86.0916Z" fill="#E5E5E5" stroke="white"/>
<circle cx="73.252" cy="116.501" r="18.5" stroke="#E5E5E5" stroke-width="2"/>
<line x1="85.4591" y1="103.708" x2="59.4591" y2="129.708" stroke="#E5E5E5" stroke-width="2"/>
</svg>
