<svg width="20" height="20" viewBox="0 0 20 20" fill="none" xmlns="http://www.w3.org/2000/svg">
<circle cx="10" cy="10" r="10" fill="black"/>
<path d="M8.954 12.249H10.046C10.046 11.9457 10.0507 11.6937 10.06 11.493C10.0693 11.2877 10.137 11.073 10.263 10.849C10.3657 10.6623 10.508 10.4943 10.69 10.345C10.872 10.191 11.0633 10.0393 11.264 9.89C11.4647 9.74067 11.6443 9.57967 11.803 9.407C12.0643 9.141 12.2673 8.83767 12.412 8.497C12.5567 8.15167 12.629 7.78767 12.629 7.405C12.629 7.05967 12.5753 6.73533 12.468 6.432C12.3607 6.12867 12.1973 5.85567 11.978 5.613C11.698 5.29567 11.3527 5.067 10.942 4.927C10.5313 4.787 10.0973 4.717 9.64 4.717C9.26667 4.717 8.89567 4.77533 8.527 4.892C8.163 5.00867 7.84333 5.19067 7.568 5.438C7.29267 5.676 7.08267 5.97 6.938 6.32C6.798 6.67 6.71867 7.03167 6.7 7.405H7.764C7.75933 7.17167 7.79433 6.95 7.869 6.74C7.94367 6.53 8.06033 6.35033 8.219 6.201C8.38233 6.033 8.58767 5.90933 8.835 5.83C9.087 5.746 9.35767 5.704 9.647 5.704C9.93633 5.704 10.2163 5.74833 10.487 5.837C10.7623 5.921 10.9933 6.075 11.18 6.299C11.418 6.565 11.537 6.93833 11.537 7.419C11.537 7.657 11.5043 7.88567 11.439 8.105C11.3783 8.31967 11.2593 8.52967 11.082 8.735C10.8813 8.94967 10.669 9.13633 10.445 9.295C10.221 9.449 10.0063 9.61467 9.801 9.792C9.59567 9.96467 9.423 10.184 9.283 10.45C9.13367 10.73 9.04033 11.01 9.003 11.29C8.97033 11.5653 8.954 11.885 8.954 12.249ZM8.961 15H10.046V13.628H8.961V15Z" fill="white"/>
</svg>
