<svg width="77" height="78" viewBox="0 0 77 78" fill="none" xmlns="http://www.w3.org/2000/svg">
<ellipse cx="38.5" cy="38.6095" rx="38.5" ry="38.6095" fill="#1D1D1D"/>
<path d="M41.8651 34.3018L41.475 34.6145L41.8651 34.3018ZM41.8651 42.9171L41.475 42.6044L41.8651 42.9171ZM26 39.1095H51V38.1095H26V39.1095ZM51 38.6095C51 38.1095 51.0002 38.1095 51.0003 38.1095C51.0003 38.1095 51.0004 38.1095 51.0005 38.1095C51.0006 38.1095 51.0005 38.1095 51.0005 38.1095C51.0003 38.1095 50.9997 38.1095 50.9989 38.1095C50.9971 38.1094 50.994 38.1094 50.9896 38.1094C50.9809 38.1093 50.9668 38.109 50.9477 38.1086C50.9096 38.1076 50.8514 38.1057 50.775 38.1017C50.6223 38.0938 50.3973 38.0778 50.1153 38.0454C49.5506 37.9806 48.7609 37.8507 47.867 37.5909C46.0757 37.0701 43.8965 36.0365 42.2553 33.9891L41.475 34.6145C43.2868 36.8748 45.6751 37.995 47.5879 38.5511C48.5461 38.8297 49.3927 38.9691 50.0013 39.0389C50.3059 39.0738 50.5517 39.0915 50.7232 39.1004C50.809 39.1048 50.8762 39.1071 50.923 39.1083C50.9464 39.1088 50.9646 39.1091 50.9775 39.1093C50.984 39.1094 50.9891 39.1094 50.9929 39.1094C50.9948 39.1095 50.9963 39.1095 50.9975 39.1095C50.9981 39.1095 50.9986 39.1095 50.999 39.1095C50.9992 39.1095 50.9995 39.1095 50.9996 39.1095C50.9998 39.1095 51 39.1095 51 38.6095ZM42.2553 33.9891C41.3338 32.8396 40.8007 31.3641 40.4996 30.1475C40.3502 29.5439 40.2604 29.0145 40.2081 28.6371C40.182 28.4486 40.1653 28.2985 40.1552 28.1967C40.1502 28.1458 40.1468 28.1071 40.1447 28.0816C40.1437 28.0689 40.143 28.0595 40.1425 28.0536C40.1423 28.0507 40.1422 28.0486 40.1421 28.0474C40.1421 28.0468 40.142 28.0465 40.142 28.0463C40.142 28.0462 40.142 28.0462 40.142 28.0463C40.142 28.0463 40.142 28.0464 40.142 28.0464C40.142 28.0465 40.142 28.0466 39.6431 28.0796C39.1442 28.1126 39.1442 28.1127 39.1442 28.1129C39.1442 28.113 39.1443 28.1131 39.1443 28.1132C39.1443 28.1135 39.1443 28.1138 39.1443 28.1142C39.1444 28.115 39.1445 28.116 39.1445 28.1172C39.1447 28.1197 39.1449 28.123 39.1453 28.1273C39.1459 28.1358 39.1468 28.1478 39.1481 28.1632C39.1506 28.1941 39.1545 28.2385 39.1601 28.2953C39.1714 28.4088 39.1895 28.5718 39.2176 28.7743C39.2736 29.1789 39.3694 29.7435 39.5289 30.3878C39.8455 31.667 40.4233 33.3026 41.475 34.6145L42.2553 33.9891ZM51 38.6095C51 38.1095 50.9998 38.1095 50.9996 38.1095C50.9995 38.1095 50.9992 38.1095 50.999 38.1095C50.9986 38.1095 50.9981 38.1095 50.9975 38.1095C50.9963 38.1095 50.9948 38.1095 50.9929 38.1095C50.9891 38.1095 50.984 38.1096 50.9775 38.1096C50.9646 38.1098 50.9464 38.1101 50.923 38.1107C50.8762 38.1118 50.809 38.1141 50.7232 38.1186C50.5517 38.1275 50.3059 38.1451 50.0013 38.18C49.3927 38.2499 48.5461 38.3892 47.5879 38.6678C45.6751 39.2239 43.2868 40.3442 41.475 42.6044L42.2553 43.2299C43.8965 41.1824 46.0757 40.1489 47.867 39.628C48.7609 39.3682 49.5506 39.2383 50.1153 39.1735C50.3973 39.1412 50.6223 39.1251 50.775 39.1172C50.8514 39.1132 50.9096 39.1113 50.9477 39.1104C50.9668 39.1099 50.9809 39.1097 50.9896 39.1096C50.994 39.1095 50.9971 39.1095 50.9989 39.1095C50.9997 39.1095 51.0003 39.1095 51.0005 39.1095C51.0005 39.1095 51.0006 39.1095 51.0005 39.1095C51.0004 39.1095 51.0003 39.1095 51.0003 39.1095C51.0002 39.1095 51 39.1095 51 38.6095ZM41.475 42.6044C40.4233 43.9163 39.8455 45.552 39.5289 46.8312C39.3694 47.4754 39.2736 48.04 39.2176 48.4447C39.1895 48.6472 39.1714 48.8102 39.1601 48.9237C39.1545 48.9804 39.1506 49.0249 39.1481 49.0557C39.1468 49.0711 39.1459 49.0832 39.1453 49.0916C39.1449 49.0959 39.1447 49.0993 39.1445 49.1017C39.1445 49.1029 39.1444 49.1039 39.1443 49.1047C39.1443 49.1051 39.1443 49.1054 39.1443 49.1057C39.1443 49.1058 39.1442 49.106 39.1442 49.106C39.1442 49.1062 39.1442 49.1063 39.6431 49.1393C40.142 49.1724 40.142 49.1725 40.142 49.1726C40.142 49.1726 40.142 49.1726 40.142 49.1727C40.142 49.1727 40.142 49.1727 40.142 49.1726C40.142 49.1725 40.1421 49.1721 40.1421 49.1715C40.1422 49.1703 40.1423 49.1683 40.1425 49.1653C40.143 49.1594 40.1437 49.15 40.1447 49.1373C40.1468 49.1119 40.1502 49.0731 40.1552 49.0222C40.1653 48.9204 40.182 48.7704 40.2081 48.5819C40.2604 48.2044 40.3502 47.675 40.4996 47.0714C40.8007 45.8548 41.3338 44.3794 42.2553 43.2299L41.475 42.6044Z" fill="white"/>
</svg>
