<svg width="392" height="14" viewBox="0 0 392 14" fill="none" xmlns="http://www.w3.org/2000/svg">
<path d="M0.496 9.08L0.72 13.448H0.88L0.832 12.44C0.816 12.248 0.816 11.912 0.752 11.752L0.832 11.736C0.88 11.88 1.136 12.184 1.264 12.264C2.16 12.84 2.96 13.128 4.048 13.128C6.48 13.128 7.968 12.088 7.968 10.168C7.968 6.408 2.096 6.44 2.096 3.608C2.096 2.344 2.912 1.656 4.336 1.656C6.08 1.656 6.896 2.904 6.976 4.168L7.008 4.84L7.328 4.824L7.136 1.048H6.96L7.008 1.896C7.024 2.12 7.04 2.296 7.072 2.408L6.96 2.44C6.928 2.392 6.8 2.152 6.672 2.072C6.128 1.704 5.392 1.368 4.336 1.368C2.256 1.368 0.864 2.408 0.864 3.96C0.864 7.512 6.656 7.512 6.656 10.44C6.656 12.008 5.616 12.856 4.016 12.856C2.336 12.856 0.928 11.64 0.832 9.752L0.8 9.096L0.496 9.08ZM8.74188 13H13.2219V12.856H12.6139C11.7659 12.856 11.6539 12.792 11.6539 12.024V2.504C11.6539 1.736 11.7659 1.672 12.6139 1.672H13.2219V1.496H8.74188V1.64H9.34988C10.1979 1.64 10.2939 1.704 10.2939 2.472V12.024C10.2939 12.792 10.1979 12.856 9.34988 12.856H8.74188V13ZM16.9713 13V12.856H16.5073C15.6593 12.856 15.5633 12.776 15.5633 12.008V3.368C15.5633 3.096 15.5633 2.856 15.5312 2.68H15.6273C15.6273 2.744 15.8033 3 15.9793 3.304L21.4353 12.312C21.6593 12.696 21.9313 13.096 21.9313 13.304H22.0593V2.648C22.0593 1.88 22.3472 1.64 23.1953 1.64H23.4673V1.496H19.8513V1.64H20.6353C21.4833 1.64 21.7713 1.88 21.7713 2.648V9.48C21.7713 9.752 21.7713 9.976 21.7873 10.152H21.6753C21.6753 10.088 21.5633 9.864 21.3713 9.56L16.5393 1.496H13.8513V1.64H14.2993C15.1473 1.64 15.2593 1.72 15.2593 2.488V12.008C15.2593 12.776 15.1473 12.856 14.2993 12.856H13.8513V13H16.9713ZM24.233 7.208C24.233 10.76 26.713 13.128 30.409 13.128C32.249 13.128 33.961 12.36 34.649 10.76L34.345 10.648C33.721 11.992 32.089 12.824 30.425 12.824C27.417 12.824 25.785 10.76 25.785 6.936C25.785 3.48 27.337 1.624 30.233 1.624C31.961 1.624 33.673 2.744 33.769 4.184L33.817 5.672L34.137 5.656L33.977 1.032H33.817L33.849 2.2C33.849 2.36 33.865 2.536 33.897 2.664L33.785 2.696C33.737 2.584 33.673 2.456 33.593 2.376C32.681 1.688 31.545 1.352 30.361 1.352C26.681 1.352 24.217 3.688 24.217 7.192L24.233 7.208ZM41.0938 9.704V4.568H40.9338V5.128C40.9338 6.664 40.0218 6.824 39.0298 6.824H38.3258V2.632C38.3258 2.28 38.1498 1.992 37.9418 1.8V1.784H40.4218C42.1178 1.784 43.0298 2.376 43.1418 4.104L43.2058 5.224H43.5258L43.2058 0.888L43.0458 0.903999L43.1098 1.64H43.0778C42.9658 1.528 42.7098 1.496 42.4378 1.496H35.4138V1.64H36.0218C36.8698 1.64 36.9658 1.72 36.9658 2.488V12.008C36.9658 12.776 36.8698 12.856 36.0218 12.856H35.4138V13H43.3818C43.6698 13 43.9097 12.968 44.0378 12.856H44.0538L44.0058 13.592L44.1498 13.608L44.4538 9.272H44.1818L44.0698 10.552C43.9418 12.088 43.1418 12.712 41.4458 12.712H37.9418V12.696C38.1498 12.504 38.3258 12.216 38.3258 11.864V7.112H39.0298C40.0218 7.112 40.9338 7.288 40.9338 8.824V9.704H41.0938ZM54.908 13V12.856H53.932C53.084 12.856 53.004 12.76 53.004 11.864V1.368H52.78C52.78 1.704 52.028 2.696 50.684 4.28L49.996 5.064L50.108 5.16L51.292 3.944C51.548 3.72 51.66 3.544 51.74 3.448L51.804 3.48C51.772 3.704 51.756 4.04 51.756 4.408V11.896C51.756 12.792 51.644 12.888 50.796 12.888H49.676V13.032L54.908 13ZM56.3901 11.992C56.8061 12.296 57.6701 13.112 59.0621 13.128C61.4461 13.128 63.0461 10.584 63.0461 6.76C63.0461 3.528 61.5741 1.368 59.3661 1.368C57.1741 1.368 55.6861 2.728 55.6861 4.984C55.6861 7.24 57.0141 8.744 58.9821 8.744C60.0541 8.744 61.1101 8.136 61.6541 6.904H61.7341C61.7341 10.216 60.8061 12.84 59.0621 12.84C57.3981 12.84 56.7741 11.544 56.5501 10.568V10.344H56.3901V11.992ZM57.0301 4.984C57.0301 2.824 57.8621 1.656 59.3661 1.656C60.6781 1.656 61.4621 2.904 61.6541 5.08C61.6381 7.096 60.3101 8.456 59.0941 8.456C57.7501 8.456 57.0301 7.24 57.0301 4.984ZM64.9839 11.992C65.3999 12.296 66.2639 13.112 67.6559 13.128C70.0399 13.128 71.6399 10.584 71.6399 6.76C71.6399 3.528 70.1679 1.368 67.9599 1.368C65.7679 1.368 64.2799 2.728 64.2799 4.984C64.2799 7.24 65.6079 8.744 67.5759 8.744C68.6479 8.744 69.7039 8.136 70.2479 6.904H70.3279C70.3279 10.216 69.3999 12.84 67.6559 12.84C65.9919 12.84 65.3679 11.544 65.1439 10.568V10.344H64.9839V11.992ZM65.6239 4.984C65.6239 2.824 66.4559 1.656 67.9599 1.656C69.2719 1.656 70.0559 2.904 70.2479 5.08C70.2319 7.096 68.9039 8.456 67.6879 8.456C66.3439 8.456 65.6239 7.24 65.6239 4.984ZM77.6736 13V12.856H76.6976C75.8496 12.856 75.7696 12.76 75.7696 11.864V1.368H75.5456C75.5456 1.704 74.7936 2.696 73.4496 4.28L72.7616 5.064L72.8736 5.16L74.0576 3.944C74.3136 3.72 74.4256 3.544 74.5056 3.448L74.5696 3.48C74.5376 3.704 74.5216 4.04 74.5216 4.408V11.896C74.5216 12.792 74.4096 12.888 73.5616 12.888H72.4416V13.032L77.6736 13ZM98.2113 8.6V8.168H82.8513V8.6H98.2113ZM103.699 9.08L103.923 13.448H104.083L104.035 12.44C104.019 12.248 104.019 11.912 103.955 11.752L104.035 11.736C104.083 11.88 104.339 12.184 104.467 12.264C105.363 12.84 106.163 13.128 107.251 13.128C109.683 13.128 111.171 12.088 111.171 10.168C111.171 6.408 105.299 6.44 105.299 3.608C105.299 2.344 106.115 1.656 107.539 1.656C109.283 1.656 110.099 2.904 110.179 4.168L110.211 4.84L110.531 4.824L110.339 1.048H110.163L110.211 1.896C110.227 2.12 110.243 2.296 110.275 2.408L110.163 2.44C110.131 2.392 110.003 2.152 109.875 2.072C109.331 1.704 108.595 1.368 107.539 1.368C105.459 1.368 104.067 2.408 104.067 3.96C104.067 7.512 109.859 7.512 109.859 10.44C109.859 12.008 108.819 12.856 107.219 12.856C105.539 12.856 104.131 11.64 104.035 9.752L104.003 9.096L103.699 9.08ZM111.945 13H116.425V12.856H115.817C114.969 12.856 114.857 12.792 114.857 12.024V2.504C114.857 1.736 114.969 1.672 115.817 1.672H116.425V1.496H111.945V1.64H112.553C113.401 1.64 113.497 1.704 113.497 2.472V12.024C113.497 12.792 113.401 12.856 112.553 12.856H111.945V13ZM120.174 13V12.856H119.71C118.862 12.856 118.766 12.776 118.766 12.008V3.368C118.766 3.096 118.766 2.856 118.734 2.68H118.83C118.83 2.744 119.006 3 119.182 3.304L124.638 12.312C124.862 12.696 125.134 13.096 125.134 13.304H125.262V2.648C125.262 1.88 125.55 1.64 126.398 1.64H126.67V1.496H123.054V1.64H123.838C124.686 1.64 124.974 1.88 124.974 2.648V9.48C124.974 9.752 124.974 9.976 124.99 10.152H124.878C124.878 10.088 124.766 9.864 124.574 9.56L119.742 1.496H117.054V1.64H117.502C118.35 1.64 118.462 1.72 118.462 2.488V12.008C118.462 12.776 118.35 12.856 117.502 12.856H117.054V13H120.174ZM127.436 7.208C127.436 10.76 129.916 13.128 133.612 13.128C135.452 13.128 137.164 12.36 137.852 10.76L137.548 10.648C136.924 11.992 135.292 12.824 133.628 12.824C130.62 12.824 128.988 10.76 128.988 6.936C128.988 3.48 130.54 1.624 133.436 1.624C135.164 1.624 136.876 2.744 136.972 4.184L137.02 5.672L137.34 5.656L137.18 1.032H137.02L137.052 2.2C137.052 2.36 137.068 2.536 137.1 2.664L136.988 2.696C136.94 2.584 136.876 2.456 136.796 2.376C135.884 1.688 134.748 1.352 133.564 1.352C129.884 1.352 127.42 3.688 127.42 7.192L127.436 7.208ZM144.297 9.704V4.568H144.137V5.128C144.137 6.664 143.225 6.824 142.233 6.824H141.529V2.632C141.529 2.28 141.353 1.992 141.145 1.8V1.784H143.625C145.321 1.784 146.233 2.376 146.345 4.104L146.409 5.224H146.729L146.409 0.888L146.249 0.903999L146.313 1.64H146.281C146.169 1.528 145.913 1.496 145.641 1.496H138.617V1.64H139.225C140.073 1.64 140.169 1.72 140.169 2.488V12.008C140.169 12.776 140.073 12.856 139.225 12.856H138.617V13H146.585C146.873 13 147.113 12.968 147.241 12.856H147.257L147.209 13.592L147.353 13.608L147.657 9.272H147.385L147.273 10.552C147.145 12.088 146.345 12.712 144.649 12.712H141.145V12.696C141.353 12.504 141.529 12.216 141.529 11.864V7.112H142.233C143.225 7.112 144.137 7.288 144.137 8.824V9.704H144.297ZM158.111 13V12.856H157.135C156.287 12.856 156.207 12.76 156.207 11.864V1.368H155.983C155.983 1.704 155.231 2.696 153.887 4.28L153.199 5.064L153.311 5.16L154.495 3.944C154.751 3.72 154.863 3.544 154.943 3.448L155.007 3.48C154.975 3.704 154.959 4.04 154.959 4.408V11.896C154.959 12.792 154.847 12.888 153.999 12.888H152.879V13.032L158.111 13ZM159.593 11.992C160.009 12.296 160.873 13.112 162.265 13.128C164.649 13.128 166.249 10.584 166.249 6.76C166.249 3.528 164.777 1.368 162.569 1.368C160.377 1.368 158.889 2.728 158.889 4.984C158.889 7.24 160.217 8.744 162.185 8.744C163.257 8.744 164.313 8.136 164.857 6.904H164.937C164.937 10.216 164.009 12.84 162.265 12.84C160.601 12.84 159.977 11.544 159.753 10.568V10.344H159.593V11.992ZM160.233 4.984C160.233 2.824 161.065 1.656 162.569 1.656C163.881 1.656 164.665 2.904 164.857 5.08C164.841 7.096 163.513 8.456 162.297 8.456C160.953 8.456 160.233 7.24 160.233 4.984ZM168.187 11.992C168.603 12.296 169.467 13.112 170.859 13.128C173.243 13.128 174.843 10.584 174.843 6.76C174.843 3.528 173.371 1.368 171.163 1.368C168.971 1.368 167.483 2.728 167.483 4.984C167.483 7.24 168.811 8.744 170.779 8.744C171.851 8.744 172.907 8.136 173.451 6.904H173.531C173.531 10.216 172.603 12.84 170.859 12.84C169.195 12.84 168.571 11.544 168.347 10.568V10.344H168.187V11.992ZM168.827 4.984C168.827 2.824 169.659 1.656 171.163 1.656C172.475 1.656 173.259 2.904 173.451 5.08C173.435 7.096 172.107 8.456 170.891 8.456C169.547 8.456 168.827 7.24 168.827 4.984ZM180.877 13V12.856H179.901C179.053 12.856 178.973 12.76 178.973 11.864V1.368H178.749C178.749 1.704 177.997 2.696 176.653 4.28L175.965 5.064L176.077 5.16L177.261 3.944C177.517 3.72 177.629 3.544 177.709 3.448L177.773 3.48C177.741 3.704 177.725 4.04 177.725 4.408V11.896C177.725 12.792 177.613 12.888 176.765 12.888H175.645V13.032L180.877 13ZM201.414 8.6V8.168H186.054V8.6H201.414ZM206.902 9.08L207.126 13.448H207.286L207.238 12.44C207.222 12.248 207.222 11.912 207.158 11.752L207.238 11.736C207.286 11.88 207.542 12.184 207.67 12.264C208.566 12.84 209.366 13.128 210.454 13.128C212.886 13.128 214.374 12.088 214.374 10.168C214.374 6.408 208.502 6.44 208.502 3.608C208.502 2.344 209.318 1.656 210.742 1.656C212.486 1.656 213.302 2.904 213.382 4.168L213.414 4.84L213.734 4.824L213.542 1.048H213.366L213.414 1.896C213.43 2.12 213.446 2.296 213.478 2.408L213.366 2.44C213.334 2.392 213.206 2.152 213.078 2.072C212.534 1.704 211.798 1.368 210.742 1.368C208.662 1.368 207.27 2.408 207.27 3.96C207.27 7.512 213.062 7.512 213.062 10.44C213.062 12.008 212.022 12.856 210.422 12.856C208.742 12.856 207.334 11.64 207.238 9.752L207.206 9.096L206.902 9.08ZM215.148 13H219.628V12.856H219.02C218.172 12.856 218.06 12.792 218.06 12.024V2.504C218.06 1.736 218.172 1.672 219.02 1.672H219.628V1.496H215.148V1.64H215.756C216.604 1.64 216.7 1.704 216.7 2.472V12.024C216.7 12.792 216.604 12.856 215.756 12.856H215.148V13ZM223.378 13V12.856H222.914C222.066 12.856 221.97 12.776 221.97 12.008V3.368C221.97 3.096 221.97 2.856 221.938 2.68H222.034C222.034 2.744 222.21 3 222.386 3.304L227.842 12.312C228.066 12.696 228.338 13.096 228.338 13.304H228.466V2.648C228.466 1.88 228.753 1.64 229.602 1.64H229.874V1.496H226.258V1.64H227.042C227.89 1.64 228.178 1.88 228.178 2.648V9.48C228.178 9.752 228.178 9.976 228.194 10.152H228.082C228.082 10.088 227.97 9.864 227.778 9.56L222.946 1.496H220.258V1.64H220.706C221.554 1.64 221.666 1.72 221.666 2.488V12.008C221.666 12.776 221.554 12.856 220.706 12.856H220.258V13H223.378ZM230.639 7.208C230.639 10.76 233.119 13.128 236.815 13.128C238.655 13.128 240.367 12.36 241.055 10.76L240.751 10.648C240.127 11.992 238.495 12.824 236.831 12.824C233.823 12.824 232.191 10.76 232.191 6.936C232.191 3.48 233.743 1.624 236.639 1.624C238.367 1.624 240.079 2.744 240.175 4.184L240.223 5.672L240.543 5.656L240.383 1.032H240.223L240.255 2.2C240.255 2.36 240.271 2.536 240.303 2.664L240.191 2.696C240.143 2.584 240.079 2.456 239.999 2.376C239.087 1.688 237.951 1.352 236.767 1.352C233.087 1.352 230.623 3.688 230.623 7.192L230.639 7.208ZM247.5 9.704V4.568H247.34V5.128C247.34 6.664 246.428 6.824 245.436 6.824H244.732V2.632C244.732 2.28 244.556 1.992 244.348 1.8V1.784H246.828C248.524 1.784 249.436 2.376 249.548 4.104L249.612 5.224H249.932L249.612 0.888L249.452 0.903999L249.516 1.64H249.484C249.372 1.528 249.116 1.496 248.844 1.496H241.82V1.64H242.428C243.276 1.64 243.372 1.72 243.372 2.488V12.008C243.372 12.776 243.276 12.856 242.428 12.856H241.82V13H249.788C250.076 13 250.316 12.968 250.444 12.856H250.46L250.412 13.592L250.556 13.608L250.86 9.272H250.588L250.476 10.552C250.348 12.088 249.548 12.712 247.852 12.712H244.348V12.696C244.556 12.504 244.732 12.216 244.732 11.864V7.112H245.436C246.428 7.112 247.34 7.288 247.34 8.824V9.704H247.5ZM261.314 13V12.856H260.338C259.49 12.856 259.41 12.76 259.41 11.864V1.368H259.186C259.186 1.704 258.434 2.696 257.09 4.28L256.402 5.064L256.514 5.16L257.698 3.944C257.954 3.72 258.066 3.544 258.146 3.448L258.21 3.48C258.178 3.704 258.162 4.04 258.162 4.408V11.896C258.162 12.792 258.05 12.888 257.202 12.888H256.082V13.032L261.314 13ZM262.796 11.992C263.212 12.296 264.076 13.112 265.468 13.128C267.852 13.128 269.452 10.584 269.452 6.76C269.452 3.528 267.98 1.368 265.772 1.368C263.58 1.368 262.092 2.728 262.092 4.984C262.092 7.24 263.42 8.744 265.388 8.744C266.46 8.744 267.516 8.136 268.06 6.904H268.14C268.14 10.216 267.212 12.84 265.468 12.84C263.804 12.84 263.18 11.544 262.956 10.568V10.344H262.796V11.992ZM263.436 4.984C263.436 2.824 264.268 1.656 265.772 1.656C267.084 1.656 267.868 2.904 268.06 5.08C268.044 7.096 266.716 8.456 265.5 8.456C264.156 8.456 263.436 7.24 263.436 4.984ZM271.39 11.992C271.806 12.296 272.67 13.112 274.062 13.128C276.446 13.128 278.046 10.584 278.046 6.76C278.046 3.528 276.574 1.368 274.366 1.368C272.174 1.368 270.686 2.728 270.686 4.984C270.686 7.24 272.014 8.744 273.982 8.744C275.054 8.744 276.11 8.136 276.654 6.904H276.734C276.734 10.216 275.806 12.84 274.062 12.84C272.398 12.84 271.774 11.544 271.55 10.568V10.344H271.39V11.992ZM272.03 4.984C272.03 2.824 272.862 1.656 274.366 1.656C275.678 1.656 276.462 2.904 276.654 5.08C276.638 7.096 275.31 8.456 274.094 8.456C272.75 8.456 272.03 7.24 272.03 4.984ZM284.08 13V12.856H283.104C282.256 12.856 282.176 12.76 282.176 11.864V1.368H281.952C281.952 1.704 281.2 2.696 279.856 4.28L279.168 5.064L279.28 5.16L280.464 3.944C280.72 3.72 280.832 3.544 280.912 3.448L280.976 3.48C280.944 3.704 280.928 4.04 280.928 4.408V11.896C280.928 12.792 280.816 12.888 279.968 12.888H278.848V13.032L284.08 13ZM309.305 8.6V8.168H293.945V8.6H309.305ZM314.793 9.08L315.017 13.448H315.177L315.129 12.44C315.113 12.248 315.113 11.912 315.049 11.752L315.129 11.736C315.177 11.88 315.433 12.184 315.561 12.264C316.457 12.84 317.257 13.128 318.345 13.128C320.777 13.128 322.265 12.088 322.265 10.168C322.265 6.408 316.393 6.44 316.393 3.608C316.393 2.344 317.209 1.656 318.633 1.656C320.377 1.656 321.193 2.904 321.273 4.168L321.305 4.84L321.625 4.824L321.433 1.048H321.257L321.305 1.896C321.321 2.12 321.337 2.296 321.369 2.408L321.257 2.44C321.225 2.392 321.097 2.152 320.969 2.072C320.425 1.704 319.689 1.368 318.633 1.368C316.553 1.368 315.161 2.408 315.161 3.96C315.161 7.512 320.953 7.512 320.953 10.44C320.953 12.008 319.913 12.856 318.313 12.856C316.633 12.856 315.225 11.64 315.129 9.752L315.097 9.096L314.793 9.08ZM323.039 13H327.519V12.856H326.911C326.063 12.856 325.951 12.792 325.951 12.024V2.504C325.951 1.736 326.063 1.672 326.911 1.672H327.519V1.496H323.039V1.64H323.647C324.495 1.64 324.591 1.704 324.591 2.472V12.024C324.591 12.792 324.495 12.856 323.647 12.856H323.039V13ZM331.268 13V12.856H330.804C329.956 12.856 329.86 12.776 329.86 12.008V3.368C329.86 3.096 329.86 2.856 329.828 2.68H329.924C329.924 2.744 330.1 3 330.276 3.304L335.732 12.312C335.956 12.696 336.228 13.096 336.228 13.304H336.356V2.648C336.356 1.88 336.644 1.64 337.492 1.64H337.764V1.496H334.148V1.64H334.932C335.78 1.64 336.068 1.88 336.068 2.648V9.48C336.068 9.752 336.068 9.976 336.084 10.152H335.972C335.972 10.088 335.86 9.864 335.668 9.56L330.836 1.496H328.148V1.64H328.596C329.444 1.64 329.556 1.72 329.556 2.488V12.008C329.556 12.776 329.444 12.856 328.596 12.856H328.148V13H331.268ZM338.53 7.208C338.53 10.76 341.01 13.128 344.706 13.128C346.546 13.128 348.258 12.36 348.946 10.76L348.642 10.648C348.018 11.992 346.386 12.824 344.722 12.824C341.714 12.824 340.082 10.76 340.082 6.936C340.082 3.48 341.634 1.624 344.53 1.624C346.258 1.624 347.97 2.744 348.066 4.184L348.114 5.672L348.434 5.656L348.274 1.032H348.114L348.146 2.2C348.146 2.36 348.162 2.536 348.194 2.664L348.082 2.696C348.034 2.584 347.97 2.456 347.89 2.376C346.978 1.688 345.842 1.352 344.658 1.352C340.978 1.352 338.514 3.688 338.514 7.192L338.53 7.208ZM355.391 9.704V4.568H355.231V5.128C355.231 6.664 354.319 6.824 353.327 6.824H352.623V2.632C352.623 2.28 352.447 1.992 352.239 1.8V1.784H354.719C356.415 1.784 357.327 2.376 357.439 4.104L357.503 5.224H357.823L357.503 0.888L357.343 0.903999L357.407 1.64H357.375C357.263 1.528 357.007 1.496 356.735 1.496H349.711V1.64H350.319C351.167 1.64 351.263 1.72 351.263 2.488V12.008C351.263 12.776 351.167 12.856 350.319 12.856H349.711V13H357.679C357.967 13 358.207 12.968 358.335 12.856H358.351L358.303 13.592L358.447 13.608L358.751 9.272H358.479L358.367 10.552C358.239 12.088 357.439 12.712 355.743 12.712H352.239V12.696C352.447 12.504 352.623 12.216 352.623 11.864V7.112H353.327C354.319 7.112 355.231 7.288 355.231 8.824V9.704H355.391ZM369.205 13V12.856H368.229C367.381 12.856 367.301 12.76 367.301 11.864V1.368H367.077C367.077 1.704 366.325 2.696 364.981 4.28L364.293 5.064L364.405 5.16L365.589 3.944C365.845 3.72 365.957 3.544 366.037 3.448L366.101 3.48C366.069 3.704 366.053 4.04 366.053 4.408V11.896C366.053 12.792 365.941 12.888 365.093 12.888H363.973V13.032L369.205 13ZM370.687 11.992C371.103 12.296 371.967 13.112 373.359 13.128C375.743 13.128 377.343 10.584 377.343 6.76C377.343 3.528 375.871 1.368 373.663 1.368C371.471 1.368 369.983 2.728 369.983 4.984C369.983 7.24 371.311 8.744 373.279 8.744C374.351 8.744 375.407 8.136 375.951 6.904H376.031C376.031 10.216 375.103 12.84 373.359 12.84C371.695 12.84 371.071 11.544 370.847 10.568V10.344H370.687V11.992ZM371.327 4.984C371.327 2.824 372.159 1.656 373.663 1.656C374.975 1.656 375.759 2.904 375.951 5.08C375.935 7.096 374.607 8.456 373.391 8.456C372.047 8.456 371.327 7.24 371.327 4.984ZM379.281 11.992C379.697 12.296 380.561 13.112 381.953 13.128C384.337 13.128 385.937 10.584 385.937 6.76C385.937 3.528 384.465 1.368 382.257 1.368C380.065 1.368 378.577 2.728 378.577 4.984C378.577 7.24 379.905 8.744 381.873 8.744C382.945 8.744 384.001 8.136 384.545 6.904H384.625C384.625 10.216 383.697 12.84 381.953 12.84C380.289 12.84 379.665 11.544 379.441 10.568V10.344H379.281V11.992ZM379.921 4.984C379.921 2.824 380.753 1.656 382.257 1.656C383.569 1.656 384.353 2.904 384.545 5.08C384.529 7.096 383.201 8.456 381.985 8.456C380.641 8.456 379.921 7.24 379.921 4.984ZM391.971 13V12.856H390.995C390.147 12.856 390.067 12.76 390.067 11.864V1.368H389.843C389.843 1.704 389.091 2.696 387.747 4.28L387.059 5.064L387.171 5.16L388.355 3.944C388.611 3.72 388.723 3.544 388.803 3.448L388.867 3.48C388.835 3.704 388.819 4.04 388.819 4.408V11.896C388.819 12.792 388.707 12.888 387.859 12.888H386.739V13.032L391.971 13Z" fill="black"/>
</svg>
