<svg width="92" height="59" viewBox="0 0 92 59" fill="none" xmlns="http://www.w3.org/2000/svg">
<circle r="29" transform="matrix(-1 0 0 1 29.5 29.5)" stroke="#262626"/>
<path d="M31.058 23.5682L31.4545 23.8728L31.058 23.5682ZM31.058 35.4318L31.4545 35.1272L31.058 35.4318ZM92 30H19V29H92V30ZM19 29.5C19 29 18.9998 29 18.9997 29C18.9997 29 18.9996 29 18.9996 29C18.9995 29 18.9996 29 18.9998 29C19.0002 29 19.001 29 19.0023 29C19.0049 29 19.0092 28.9999 19.0153 28.9999C19.0275 28.9997 19.0467 28.9994 19.0724 28.9987C19.124 28.9974 19.2021 28.9947 19.3041 28.9891C19.5083 28.9781 19.8083 28.9558 20.1837 28.9109C20.9351 28.8209 21.9856 28.6407 23.1746 28.28C25.5553 27.558 28.4657 26.1213 30.6616 23.2635L31.4545 23.8728C29.0924 26.9469 25.9737 28.4761 23.4649 29.237C22.2092 29.6178 21.0998 29.8083 20.3025 29.9038C19.9036 29.9515 19.582 29.9756 19.3582 29.9877C19.2463 29.9937 19.1588 29.9968 19.0983 29.9984C19.068 29.9992 19.0444 29.9996 19.028 29.9998C19.0197 29.9999 19.0133 29.9999 19.0086 30C19.0062 30 19.0044 30 19.0029 30C19.0022 30 19.0016 30 19.0011 30C19.0009 30 19.0006 30 19.0005 30C19.0002 30 19 30 19 29.5ZM30.6616 23.2635C31.9016 21.6498 32.614 19.5865 33.0147 17.8976C33.2139 17.058 33.3336 16.3217 33.4034 15.7963C33.4382 15.5338 33.4606 15.3245 33.4741 15.1819C33.4809 15.1106 33.4854 15.056 33.4883 15.0199C33.4897 15.0018 33.4907 14.9883 33.4913 14.9796C33.4916 14.9753 33.4918 14.9722 33.4919 14.9703C33.492 14.9694 33.4921 14.9687 33.4921 14.9684C33.4921 14.9682 33.4921 14.9681 33.4921 14.9681C33.4921 14.9681 33.4921 14.9682 33.4921 14.9682C33.4921 14.9683 33.4921 14.9683 33.9911 15C34.4901 15.0317 34.4901 15.0318 34.49 15.0319C34.49 15.032 34.49 15.0322 34.49 15.0323C34.49 15.0327 34.49 15.033 34.4899 15.0335C34.4899 15.0344 34.4898 15.0357 34.4897 15.0372C34.4895 15.0403 34.4892 15.0447 34.4888 15.0503C34.488 15.0614 34.4868 15.0774 34.4852 15.0981C34.482 15.1395 34.4769 15.1995 34.4696 15.2764C34.455 15.4302 34.4313 15.652 34.3947 15.9279C34.3215 16.4795 34.1962 17.2497 33.9877 18.1285C33.573 19.8763 32.819 22.0971 31.4545 23.8728L30.6616 23.2635ZM19 29.5C19 29 19.0002 29 19.0005 29C19.0006 29 19.0009 29 19.0011 29C19.0016 29 19.0022 29 19.0029 29C19.0043 29 19.0062 29 19.0086 29C19.0133 29.0001 19.0197 29.0001 19.028 29.0002C19.0444 29.0004 19.068 29.0008 19.0983 29.0016C19.1588 29.0032 19.2463 29.0063 19.3582 29.0123C19.582 29.0244 19.9036 29.0485 20.3025 29.0962C21.0998 29.1917 22.2092 29.3822 23.4649 29.763C25.9737 30.5239 29.0924 32.0531 31.4545 35.1272L30.6616 35.7365C28.4657 32.8787 25.5553 31.442 23.1746 30.72C21.9856 30.3593 20.9351 30.1791 20.1837 30.0891C19.8083 30.0442 19.5083 30.0219 19.3041 30.0109C19.2021 30.0053 19.124 30.0026 19.0724 30.0013C19.0467 30.0006 19.0275 30.0003 19.0153 30.0001C19.0092 30.0001 19.0049 30 19.0023 30C19.001 30 19.0002 30 18.9998 30C18.9996 30 18.9995 30 18.9996 30C18.9996 30 18.9997 30 18.9997 30C18.9998 30 19 30 19 29.5ZM31.4545 35.1272C32.819 36.9029 33.573 39.1237 33.9877 40.8715C34.1962 41.7503 34.3215 42.5205 34.3947 43.0721C34.4313 43.348 34.455 43.5698 34.4696 43.7236C34.4769 43.8005 34.482 43.8605 34.4852 43.9019C34.4868 43.9226 34.488 43.9386 34.4888 43.9497C34.4892 43.9553 34.4895 43.9597 34.4897 43.9628C34.4898 43.9643 34.4899 43.9656 34.4899 43.9665C34.49 43.967 34.49 43.9674 34.49 43.9677C34.49 43.9678 34.49 43.968 34.49 43.9681C34.4901 43.9682 34.4901 43.9683 33.9911 44C33.4921 44.0317 33.4921 44.0318 33.4921 44.0318C33.4921 44.0318 33.4921 44.0319 33.4921 44.0319C33.4921 44.0319 33.4921 44.0318 33.4921 44.0316C33.4921 44.0313 33.492 44.0306 33.4919 44.0297C33.4918 44.0278 33.4916 44.0247 33.4913 44.0204C33.4907 44.0117 33.4897 43.9982 33.4883 43.9801C33.4854 43.944 33.4809 43.8894 33.4741 43.8181C33.4606 43.6755 33.4382 43.4662 33.4034 43.2037C33.3336 42.6783 33.2139 41.942 33.0147 41.1024C32.614 39.4135 31.9016 37.3502 30.6616 35.7365L31.4545 35.1272Z" fill="white"/>
</svg>
