<svg width="92" height="59" viewBox="0 0 92 59" fill="none" xmlns="http://www.w3.org/2000/svg">
<circle cx="62.5" cy="29.5" r="29" stroke="#262626"/>
<path d="M60.942 23.5682L60.5455 23.8728L60.942 23.5682ZM60.942 35.4318L60.5455 35.1272L60.942 35.4318ZM0 30H73V29H0V30ZM73 29.5C73 29 73.0002 29 73.0003 29C73.0003 29 73.0004 29 73.0004 29C73.0005 29 73.0004 29 73.0002 29C72.9998 29 72.999 29 72.9977 29C72.9951 29 72.9908 28.9999 72.9847 28.9999C72.9725 28.9997 72.9533 28.9994 72.9276 28.9987C72.876 28.9974 72.7979 28.9947 72.6959 28.9891C72.4917 28.9781 72.1917 28.9558 71.8163 28.9109C71.0649 28.8209 70.0144 28.6407 68.8254 28.28C66.4447 27.558 63.5343 26.1213 61.3384 23.2635L60.5455 23.8728C62.9076 26.9469 66.0263 28.4761 68.5351 29.237C69.7908 29.6178 70.9002 29.8083 71.6975 29.9038C72.0964 29.9515 72.418 29.9756 72.6418 29.9877C72.7537 29.9937 72.8412 29.9968 72.9017 29.9984C72.932 29.9992 72.9556 29.9996 72.972 29.9998C72.9803 29.9999 72.9867 29.9999 72.9914 30C72.9938 30 72.9956 30 72.9971 30C72.9978 30 72.9984 30 72.9989 30C72.9991 30 72.9994 30 72.9995 30C72.9998 30 73 30 73 29.5ZM61.3384 23.2635C60.0984 21.6498 59.386 19.5865 58.9853 17.8976C58.7861 17.058 58.6664 16.3217 58.5966 15.7963C58.5618 15.5338 58.5394 15.3245 58.5259 15.1819C58.5191 15.1106 58.5146 15.056 58.5117 15.0199C58.5103 15.0018 58.5093 14.9883 58.5087 14.9796C58.5084 14.9753 58.5082 14.9722 58.5081 14.9703C58.508 14.9694 58.5079 14.9687 58.5079 14.9684C58.5079 14.9682 58.5079 14.9681 58.5079 14.9681C58.5079 14.9681 58.5079 14.9682 58.5079 14.9682C58.5079 14.9683 58.5079 14.9683 58.0089 15C57.5099 15.0317 57.5099 15.0318 57.51 15.0319C57.51 15.032 57.51 15.0322 57.51 15.0323C57.51 15.0327 57.51 15.033 57.5101 15.0335C57.5101 15.0344 57.5102 15.0357 57.5103 15.0372C57.5105 15.0403 57.5108 15.0447 57.5112 15.0503C57.512 15.0614 57.5132 15.0774 57.5148 15.0981C57.518 15.1395 57.5231 15.1995 57.5304 15.2764C57.545 15.4302 57.5687 15.652 57.6053 15.9279C57.6785 16.4795 57.8038 17.2497 58.0123 18.1285C58.427 19.8763 59.181 22.0971 60.5455 23.8728L61.3384 23.2635ZM73 29.5C73 29 72.9998 29 72.9995 29C72.9994 29 72.9991 29 72.9989 29C72.9984 29 72.9978 29 72.9971 29C72.9957 29 72.9938 29 72.9914 29C72.9867 29.0001 72.9803 29.0001 72.972 29.0002C72.9556 29.0004 72.932 29.0008 72.9017 29.0016C72.8412 29.0032 72.7537 29.0063 72.6418 29.0123C72.418 29.0244 72.0964 29.0485 71.6975 29.0962C70.9002 29.1917 69.7908 29.3822 68.5351 29.763C66.0263 30.5239 62.9076 32.0531 60.5455 35.1272L61.3384 35.7365C63.5343 32.8787 66.4447 31.442 68.8254 30.72C70.0144 30.3593 71.0649 30.1791 71.8163 30.0891C72.1917 30.0442 72.4917 30.0219 72.6959 30.0109C72.7979 30.0053 72.876 30.0026 72.9276 30.0013C72.9533 30.0006 72.9725 30.0003 72.9847 30.0001C72.9908 30.0001 72.9951 30 72.9977 30C72.999 30 72.9998 30 73.0002 30C73.0004 30 73.0005 30 73.0004 30C73.0004 30 73.0003 30 73.0003 30C73.0002 30 73 30 73 29.5ZM60.5455 35.1272C59.181 36.9029 58.427 39.1237 58.0123 40.8715C57.8038 41.7503 57.6785 42.5205 57.6053 43.0721C57.5687 43.348 57.545 43.5698 57.5304 43.7236C57.5231 43.8005 57.518 43.8605 57.5148 43.9019C57.5132 43.9226 57.512 43.9386 57.5112 43.9497C57.5108 43.9553 57.5105 43.9597 57.5103 43.9628C57.5102 43.9643 57.5101 43.9656 57.5101 43.9665C57.51 43.967 57.51 43.9674 57.51 43.9677C57.51 43.9678 57.51 43.968 57.51 43.9681C57.5099 43.9682 57.5099 43.9683 58.0089 44C58.5079 44.0317 58.5079 44.0318 58.5079 44.0318C58.5079 44.0318 58.5079 44.0319 58.5079 44.0319C58.5079 44.0319 58.5079 44.0318 58.5079 44.0316C58.5079 44.0313 58.508 44.0306 58.5081 44.0297C58.5082 44.0278 58.5084 44.0247 58.5087 44.0204C58.5093 44.0117 58.5103 43.9982 58.5117 43.9801C58.5146 43.944 58.5191 43.8894 58.5259 43.8181C58.5394 43.6755 58.5618 43.4662 58.5966 43.2037C58.6664 42.6783 58.7861 41.942 58.9853 41.1024C59.386 39.4135 60.0984 37.3502 61.3384 35.7365L60.5455 35.1272Z" fill="white"/>
</svg>
