<svg width="228" height="44" viewBox="0 0 228 44" fill="none" xmlns="http://www.w3.org/2000/svg">
<path d="M4.48527 3C2.01487 3 0 5.01487 0 7.48527V36.6395C0 39.1099 2.01487 41.1248 4.48527 41.1248H49.338C51.8084 41.1248 53.8232 39.1099 53.8232 36.6395V7.48527C53.8232 5.01487 51.8084 3 49.338 3H4.48527ZM33.0789 14.8439C34.8309 14.8439 36.6531 15.5447 36.6531 15.5447L36.0223 18.6984C36.0223 18.6984 34.5856 17.7874 33.3592 17.7874C31.4757 17.7874 30.8362 18.3568 30.8362 19.189C30.8362 20.8097 36.0924 21.09 36.0924 24.7255C36.1012 27.7478 32.3605 29.8415 29.6448 29.8415C26.9291 29.8415 25.51 29.0006 25.51 29.0006L26.1407 25.987C26.1407 25.987 27.5949 26.828 29.785 26.828C31.9751 26.828 32.308 25.8906 32.308 25.4964C32.308 23.175 27.0518 23.8407 27.0518 19.3292C27.0518 16.8325 29.0929 14.8439 33.0789 14.8439ZM2.94346 15.1242H8.76029C10.2583 15.1242 10.8628 16.596 10.8628 16.596L12.1242 23.0436C10.3809 17.437 2.94346 15.1242 2.94346 15.1242ZM16.0489 15.1242H20.1136L14.3669 29.421H10.1619L7.1484 17.8575C7.1484 17.8575 10.3547 19.4518 12.3345 23.8845C12.4133 24.4189 12.6148 25.2862 12.6148 25.2862L16.0489 15.1242ZM21.6554 15.1242H25.4399L23.1973 29.421H19.3427L21.6554 15.1242ZM42.1896 15.1242H46.1843L49.1277 29.421H45.6937L45.2732 27.3887H40.5777L39.7367 29.421H36.0223L42.1896 15.1242ZM43.6613 19.2591L41.6289 24.6554H44.7125L43.6613 19.2591Z" fill="black"/>
<path d="M110.531 7.6658H93.1201V36.3291H110.531V7.6658Z" fill="#262626"/>
<path d="M94.9141 22C94.912 19.24 95.5327 16.5156 96.7293 14.0331C97.9259 11.5506 99.6671 9.37499 101.821 7.6709C99.1533 5.55759 95.9495 4.24345 92.5758 3.87867C89.2021 3.51389 85.7947 4.11319 82.7429 5.60808C79.6912 7.10296 77.1182 9.43312 75.3182 12.3322C73.5181 15.2313 72.5635 18.5825 72.5635 22.0025C72.5635 25.4226 73.5181 28.7738 75.3182 31.6729C77.1182 34.572 79.6912 36.9021 82.7429 38.397C85.7947 39.8919 89.2021 40.4912 92.5758 40.1264C95.9495 39.7616 99.1533 38.4475 101.821 36.3342C99.6664 34.6296 97.9248 32.4531 96.7282 29.9697C95.5315 27.4862 94.9112 24.7609 94.9141 22Z" fill="black"/>
<path d="M129.353 33.2962V32.7089H129.605V32.5873H129.007V32.7089H129.243V33.2962H129.353ZM130.514 33.2962V32.5873H130.333L130.122 33.0937L129.911 32.5873H129.73V33.2962H129.861V32.7595L130.057 33.2203H130.192L130.388 32.7595V33.2962H130.514Z" fill="#565656"/>
<path d="M131.081 22C131.08 25.4204 130.126 28.7717 128.325 31.6709C126.525 34.5701 123.951 36.9002 120.899 38.3949C117.847 39.8896 114.439 40.4885 111.066 40.1232C107.692 39.7579 104.488 38.4431 101.82 36.3291C103.973 34.6235 105.714 32.4473 106.911 29.9646C108.108 27.482 108.73 24.7578 108.73 21.9975C108.73 19.2372 108.108 16.513 106.911 14.0303C105.714 11.5477 103.973 9.37144 101.82 7.66584C104.488 5.55187 107.692 4.23709 111.066 3.87179C114.439 3.50648 117.847 4.1054 120.899 5.60007C123.951 7.09474 126.525 9.42485 128.325 12.3241C130.126 15.2233 131.08 18.5746 131.081 21.9949V22Z" fill="#565656"/>
<path fill-rule="evenodd" clip-rule="evenodd" d="M162.216 12.6033C162.829 12.5995 164.651 12.4312 165.423 15.1033C165.943 16.9033 166.771 19.8518 167.908 23.9488H168.371C169.59 19.6295 170.427 16.681 170.883 15.1033C171.663 12.4033 173.613 12.6033 174.393 12.6033L180.411 12.6033V31.8033H174.277V20.4884H173.866L170.447 31.8033H165.832L162.413 20.4801H162.002V31.8033H155.868V12.6033L162.216 12.6033ZM189.219 12.6033V23.9266H189.708L193.867 14.6156C194.675 12.7626 196.395 12.6033 196.395 12.6033H202.331V31.8033H196.069V20.4801H195.58L191.502 29.7911C190.695 31.6357 188.893 31.8033 188.893 31.8033H182.957V12.6033H189.219ZM223.974 21.7273C223.101 24.2659 220.358 26.084 217.321 26.084H210.754V31.8033H204.8V21.7273H223.974Z" fill="black"/>
<path fill-rule="evenodd" clip-rule="evenodd" d="M217.608 12.6034H204.487C204.8 16.8779 208.389 20.5372 212.104 20.5372H224.388C225.096 16.9846 222.656 12.6034 217.608 12.6034Z" fill="black"/>
</svg>
