<svg width="201" height="60" viewBox="0 0 201 60" fill="none" xmlns="http://www.w3.org/2000/svg">
<path d="M0.380371 0.665771H7.22664L20.4437 21.8702H20.5388V0.760857H27.0048V32.3298H20.0634L6.94138 11.1254H6.84629V32.3298H0.380371V0.665771Z" fill="black"/>
<path d="M47.2585 27.1949C53.5342 27.1949 55.8163 21.87 55.8163 16.6402C55.8163 11.1252 53.4391 5.80031 47.2585 5.80031C40.9827 5.80031 38.7006 11.1252 38.6055 16.6402C38.7006 21.87 41.0778 27.1949 47.2585 27.1949ZM47.2585 0C57.0524 0 62.7577 7.32171 62.7577 16.7353C62.7577 25.8637 56.9574 33.1854 47.2585 33.1854C37.4645 33.1854 31.7593 25.8637 31.7593 16.7353C31.7593 7.22662 37.5596 0 47.2585 0Z" fill="black"/>
<path d="M82.2501 32.3297H74.453L64.1836 0.760742H71.3151L78.3516 23.0111H78.4467L85.5782 0.760742H92.7097L82.2501 32.3297Z" fill="black"/>
<path d="M95.4678 0.760742H102.409V32.3297H95.4678V0.760742Z" fill="black"/>
<path d="M108.494 0.760742H115.435V13.8828L127.797 0.760742H136.45L124.184 13.2172L137.686 32.4247L128.938 32.3297L119.429 18.1617L115.435 22.1553V32.3297H108.494V0.760742Z" fill="black"/>
<path d="M154.612 27.29C160.888 27.29 163.17 21.9651 163.17 16.7353C163.17 11.2203 160.793 5.8954 154.612 5.8954C148.336 5.8954 146.054 11.2203 146.054 16.7353C146.054 21.9651 148.336 27.29 154.612 27.29ZM154.612 0C164.406 0 170.111 7.32171 170.111 16.7353C170.111 25.8637 164.311 33.1854 154.517 33.1854C144.723 33.1854 139.018 25.8637 139.018 16.7353C139.018 7.32171 144.818 0 154.612 0Z" fill="black"/>
<path d="M189.604 32.4247H181.711L171.442 0.760742L178.669 0.85583L185.705 23.0111H185.8L192.932 0.85583H200.063L189.604 32.4247Z" fill="black"/>
<path d="M200.064 39.1758L0.285645 39.0807V37.5593L200.064 37.7495V39.1758Z" fill="#EE1623"/>
<path d="M1.52139 59.6199H0V44.0256H1.52139V59.6199Z" fill="black"/>
<path d="M9.60366 44.0256L18.6369 57.7182V44.0256H20.1583V59.715H18.4468L9.41349 46.1175V59.715H7.89209V44.0256H9.60366Z" fill="black"/>
<path d="M31.6642 59.6199H30.1428V45.2618H25.1982V44.0256H36.6087V45.2618H31.6642V59.6199Z" fill="black"/>
<path d="M52.1074 44.0256V45.2618H43.1692V50.6817H51.2516V51.9179H43.1692V58.2887H52.2976V59.5248H41.7429V44.0256H52.1074Z" fill="black"/>
<path d="M59.4296 59.6199H57.9082V44.0256H63.9938C67.4169 44.0256 69.3187 45.2618 69.3187 48.1144C69.3187 50.1112 68.558 51.1572 66.7513 51.9179C68.558 52.4884 68.7481 54.4852 68.7481 56.1968C68.7481 58.1936 69.0334 59.3347 69.4137 59.5248V59.715H67.7973C67.512 59.1445 67.3218 57.6231 67.3218 56.387C67.3218 52.9638 66.0857 52.5835 63.9938 52.5835H59.4296V59.6199ZM59.4296 51.2523H63.9938C66.1808 51.2523 67.8924 50.3014 67.8924 48.1144C67.8924 45.7372 66.0857 45.1667 64.0889 45.1667H59.4296V51.2523Z" fill="black"/>
<path d="M77.401 44.0256L86.4343 57.7182V44.0256H87.9557V59.715H86.2441L77.2108 46.1175V59.715H75.6895V44.0256H77.401Z" fill="black"/>
<path d="M100.602 44.0256L106.593 59.715H105.071L103.265 54.7705H96.1331L94.3264 59.715H92.71L98.8906 44.0256H100.602ZM96.6085 53.4393H102.694L99.6513 45.2618L96.6085 53.4393Z" fill="black"/>
<path d="M116.482 59.6199H114.961V45.2618H110.016V44.0256H121.427V45.2618H116.482V59.6199Z" fill="black"/>
<path d="M127.987 59.6199H126.466V44.0256H127.987V59.6199Z" fill="black"/>
<path d="M141.109 43.55C145.959 43.55 148.431 47.2584 148.431 51.8226C148.431 56.2917 145.959 60.0001 141.109 60.0001C136.26 60.0001 133.788 56.2917 133.788 51.8226C133.883 47.2584 136.45 43.55 141.109 43.55ZM147.005 51.8226C147.005 47.4486 144.723 44.7862 141.204 44.7862C137.211 44.7862 135.404 48.1142 135.404 51.8226C135.404 55.531 137.116 58.764 141.204 58.764C145.293 58.764 147.005 55.4359 147.005 51.8226Z" fill="black"/>
<path d="M156.038 44.0256L165.072 57.7182V44.0256H166.593V59.715H164.881L155.848 46.1175V59.715H154.327V44.0256H156.038Z" fill="black"/>
<path d="M179.239 44.0256L185.23 59.715H183.708L181.901 54.7705H174.77L172.963 59.715H171.442L177.623 44.0256H179.239ZM175.245 53.4393H181.331L178.288 45.2618L175.245 53.4393Z" fill="black"/>
<path d="M191.601 58.3838H199.968V59.6199H190.079V44.0256H191.601V58.3838Z" fill="black"/>
</svg>
