<svg width="4739" height="117" viewBox="0 0 4739 117" fill="none" xmlns="http://www.w3.org/2000/svg">
<path d="M1375.8 109H1440.62C1443.14 109 1443.7 108.72 1444.82 107.74H1444.96L1444.26 116L1445.8 116.14L1448.88 76.3801H1445.8L1444.68 90.3801C1443.42 103.82 1433.48 106.48 1418.78 106.48H1397.92V106.34C1399.74 104.66 1401.28 102.14 1401.28 99.0601V16.8801C1401.28 10.1601 1402.26 9.60008 1409.68 9.60008H1415V8.34008H1375.8V9.60008H1381.12C1388.54 9.60008 1389.38 10.1601 1389.38 16.8801V99.3401C1389.38 106.06 1388.54 107.74 1381.12 107.74H1375.8V109Z" fill="black"/>
<path d="M1502.98 111.1C1533.08 111.1 1549.32 89.5401 1549.32 58.6001C1549.32 27.6601 1533.08 6.10008 1502.98 6.10008C1472.74 6.10008 1456.5 27.6601 1456.5 58.6001C1456.5 89.5401 1472.74 111.1 1502.98 111.1ZM1502.98 101.16C1479.32 101.16 1467.28 83.8001 1467.42 58.6001C1467.56 33.4001 1479.32 15.9001 1502.98 16.0401C1526.64 16.0401 1538.4 33.4001 1538.4 58.6001C1538.4 83.8001 1526.64 101.3 1502.98 101.16Z" fill="black"/>
<path d="M1571.25 109H1624.31V107.88H1612.97C1605.55 107.88 1604.71 107.18 1604.71 100.46V59.4401L1627.53 19.4001C1631.59 12.2601 1633.13 9.46008 1637.89 9.46008H1640.41V8.34008H1610.73V9.46008H1619.97C1624.87 9.46008 1626.55 11.0001 1626.55 13.3801C1626.55 15.0601 1625.71 17.1601 1624.31 19.4001L1605.83 51.8801C1605.13 53.2801 1604.01 55.5201 1603.87 56.3601H1602.75C1602.61 55.5201 1601.49 53.1401 1600.79 51.8801L1580.91 17.4401C1578.39 13.2401 1576.71 10.3001 1574.61 9.60008V9.32008H1584.13V8.20008H1555.01V9.32008H1558.23C1563.83 9.32008 1564.67 12.6801 1568.45 19.1201L1592.53 61.4001V100.32C1592.53 107.04 1591.83 107.74 1584.41 107.74H1571.25V109Z" fill="black"/>
<path d="M1632.25 109H1660.25V107.74H1652.69C1648.07 107.74 1645.27 105.5 1645.27 102.28C1645.27 101.3 1645.69 100.18 1646.11 99.0601L1654.37 81.7001H1715.41L1723.95 100.88C1725.07 103.26 1726.61 106.76 1728.71 107.46V107.74H1716.95V109H1746.35V107.74H1745.09C1739.63 107.74 1739.07 105.78 1735.99 99.0601L1699.73 18.1401C1698.89 16.4601 1698.33 12.8201 1698.33 10.0201V8.34008H1686.43L1643.17 99.0601C1640.79 103.82 1638.55 107.74 1634.63 107.74H1632.25V109ZM1655.63 79.1801L1683.63 20.8001C1685.03 17.8601 1685.45 16.0401 1685.45 15.2001H1686.85C1686.85 16.7401 1686.99 18.5601 1688.11 20.8001L1714.29 79.1801H1655.63Z" fill="black"/>
<path d="M1758.95 109H1817.05V99.2001H1769.17V8.20008H1758.95V109Z" fill="black"/>
<path d="M1834.8 109H1886.32V107.74H1874.84C1867.42 107.74 1866.72 107.04 1866.72 100.32V10.8601H1875.68C1890.38 10.8601 1895.28 13.5201 1896.4 26.9601L1896.82 32.7001L1899.62 32.5601L1897.38 0.220085L1895.7 0.360083L1896.4 8.34008H1824.72L1825.42 0.220085L1823.74 0.0800781L1821.36 32.5601L1824.16 32.7001L1824.72 26.9601C1825.42 13.5201 1830.6 10.8601 1845.44 10.8601H1854.68V100.32C1854.68 107.04 1853.98 107.74 1846.56 107.74H1834.8V109Z" fill="black"/>
<path d="M1919.75 109H1972.81V107.88H1961.47C1954.05 107.88 1953.21 107.18 1953.21 100.46V59.4401L1976.03 19.4001C1980.09 12.2601 1981.63 9.46008 1986.39 9.46008H1988.91V8.34008H1959.23V9.46008H1968.47C1973.37 9.46008 1975.05 11.0001 1975.05 13.3801C1975.05 15.0601 1974.21 17.1601 1972.81 19.4001L1954.33 51.8801C1953.63 53.2801 1952.51 55.5201 1952.37 56.3601H1951.25C1951.11 55.5201 1949.99 53.1401 1949.29 51.8801L1929.41 17.4401C1926.89 13.2401 1925.21 10.3001 1923.11 9.60008V9.32008H1932.63V8.20008H1903.51V9.32008H1906.73C1912.33 9.32008 1913.17 12.6801 1916.95 19.1201L1941.03 61.4001V100.32C1941.03 107.04 1940.33 107.74 1932.91 107.74H1919.75V109Z" fill="black"/>
<path d="M2057.77 70.5001V66.7201H1993.23V70.5001H2057.77Z" fill="black"/>
<path d="M2063.09 109H2127.91C2130.43 109 2130.99 108.72 2132.11 107.74H2132.25L2131.55 116L2133.09 116.14L2136.17 76.3801H2133.09L2131.97 90.3801C2130.71 103.82 2120.77 106.48 2106.07 106.48H2085.21V106.34C2087.03 104.66 2088.57 102.14 2088.57 99.0601V16.8801C2088.57 10.1601 2089.55 9.60008 2096.97 9.60008H2102.29V8.34008H2063.09V9.60008H2068.41C2075.83 9.60008 2076.67 10.1601 2076.67 16.8801V99.3401C2076.67 106.06 2075.83 107.74 2068.41 107.74H2063.09V109Z" fill="black"/>
<path d="M2190.27 111.1C2220.37 111.1 2236.61 89.5401 2236.61 58.6001C2236.61 27.6601 2220.37 6.10008 2190.27 6.10008C2160.03 6.10008 2143.79 27.6601 2143.79 58.6001C2143.79 89.5401 2160.03 111.1 2190.27 111.1ZM2190.27 101.16C2166.61 101.16 2154.57 83.8001 2154.71 58.6001C2154.85 33.4001 2166.61 15.9001 2190.27 16.0401C2213.93 16.0401 2225.69 33.4001 2225.69 58.6001C2225.69 83.8001 2213.93 101.3 2190.27 101.16Z" fill="black"/>
<path d="M2258.54 109H2311.6V107.88H2300.26C2292.84 107.88 2292 107.18 2292 100.46V59.4401L2314.82 19.4001C2318.88 12.2601 2320.42 9.46008 2325.18 9.46008H2327.7V8.34008H2298.02V9.46008H2307.26C2312.16 9.46008 2313.84 11.0001 2313.84 13.3801C2313.84 15.0601 2313 17.1601 2311.6 19.4001L2293.12 51.8801C2292.42 53.2801 2291.3 55.5201 2291.16 56.3601H2290.04C2289.9 55.5201 2288.78 53.1401 2288.08 51.8801L2268.2 17.4401C2265.68 13.2401 2264 10.3001 2261.9 9.60008V9.32008H2271.42V8.20008H2242.3V9.32008H2245.52C2251.12 9.32008 2251.96 12.6801 2255.74 19.1201L2279.82 61.4001V100.32C2279.82 107.04 2279.12 107.74 2271.7 107.74H2258.54V109Z" fill="black"/>
<path d="M2319.54 109H2347.54V107.74H2339.98C2335.36 107.74 2332.56 105.5 2332.56 102.28C2332.56 101.3 2332.98 100.18 2333.4 99.0601L2341.66 81.7001H2402.7L2411.24 100.88C2412.36 103.26 2413.9 106.76 2416 107.46V107.74H2404.24V109H2433.64V107.74H2432.38C2426.92 107.74 2426.36 105.78 2423.28 99.0601L2387.02 18.1401C2386.18 16.4601 2385.62 12.8201 2385.62 10.0201V8.34008H2373.72L2330.46 99.0601C2328.08 103.82 2325.84 107.74 2321.92 107.74H2319.54V109ZM2342.92 79.1801L2370.92 20.8001C2372.32 17.8601 2372.74 16.0401 2372.74 15.2001H2374.14C2374.14 16.7401 2374.28 18.5601 2375.4 20.8001L2401.58 79.1801H2342.92Z" fill="black"/>
<path d="M2446.23 109H2504.33V99.2001H2456.46V8.20008H2446.23V109Z" fill="black"/>
<path d="M2522.08 109H2573.6V107.74H2562.12C2554.7 107.74 2554 107.04 2554 100.32V10.8601H2562.96C2577.66 10.8601 2582.56 13.5201 2583.68 26.9601L2584.1 32.7001L2586.9 32.5601L2584.66 0.220085L2582.98 0.360083L2583.68 8.34008H2512L2512.7 0.220085L2511.02 0.0800781L2508.64 32.5601L2511.44 32.7001L2512 26.9601C2512.7 13.5201 2517.88 10.8601 2532.72 10.8601H2541.96V100.32C2541.96 107.04 2541.26 107.74 2533.84 107.74H2522.08V109Z" fill="black"/>
<path d="M2607.03 109H2660.09V107.88H2648.75C2641.33 107.88 2640.49 107.18 2640.49 100.46V59.4401L2663.31 19.4001C2667.37 12.2601 2668.91 9.46008 2673.67 9.46008H2676.19V8.34008H2646.51V9.46008H2655.75C2660.65 9.46008 2662.33 11.0001 2662.33 13.3801C2662.33 15.0601 2661.49 17.1601 2660.09 19.4001L2641.61 51.8801C2640.91 53.2801 2639.79 55.5201 2639.65 56.3601H2638.53C2638.39 55.5201 2637.27 53.1401 2636.57 51.8801L2616.69 17.4401C2614.17 13.2401 2612.49 10.3001 2610.39 9.60008V9.32008H2619.91V8.20008H2590.79V9.32008H2594.01C2599.61 9.32008 2600.45 12.6801 2604.23 19.1201L2628.31 61.4001V100.32C2628.31 107.04 2627.61 107.74 2620.19 107.74H2607.03V109Z" fill="black"/>
<path d="M2745.05 70.5001V66.7201H2680.51V70.5001H2745.05Z" fill="black"/>
<path d="M2750.37 109H2815.19C2817.71 109 2818.27 108.72 2819.39 107.74H2819.53L2818.83 116L2820.37 116.14L2823.45 76.3801H2820.37L2819.25 90.3801C2817.99 103.82 2808.05 106.48 2793.35 106.48H2772.49V106.34C2774.31 104.66 2775.85 102.14 2775.85 99.0601V16.8801C2775.85 10.1601 2776.83 9.60008 2784.25 9.60008H2789.57V8.34008H2750.37V9.60008H2755.69C2763.11 9.60008 2763.95 10.1601 2763.95 16.8801V99.3401C2763.95 106.06 2763.11 107.74 2755.69 107.74H2750.37V109Z" fill="black"/>
<path d="M2877.55 111.1C2907.65 111.1 2923.89 89.5401 2923.89 58.6001C2923.89 27.6601 2907.65 6.10008 2877.55 6.10008C2847.31 6.10008 2831.07 27.6601 2831.07 58.6001C2831.07 89.5401 2847.31 111.1 2877.55 111.1ZM2877.55 101.16C2853.89 101.16 2841.85 83.8001 2841.99 58.6001C2842.13 33.4001 2853.89 15.9001 2877.55 16.0401C2901.21 16.0401 2912.97 33.4001 2912.97 58.6001C2912.97 83.8001 2901.21 101.3 2877.55 101.16Z" fill="black"/>
<path d="M2945.82 109H2998.88V107.88H2987.54C2980.12 107.88 2979.28 107.18 2979.28 100.46V59.4401L3002.1 19.4001C3006.16 12.2601 3007.7 9.46008 3012.46 9.46008H3014.98V8.34008H2985.3V9.46008H2994.54C2999.44 9.46008 3001.12 11.0001 3001.12 13.3801C3001.12 15.0601 3000.28 17.1601 2998.88 19.4001L2980.4 51.8801C2979.7 53.2801 2978.58 55.5201 2978.44 56.3601H2977.32C2977.18 55.5201 2976.06 53.1401 2975.36 51.8801L2955.48 17.4401C2952.96 13.2401 2951.28 10.3001 2949.18 9.60008V9.32008H2958.7V8.20008H2929.58V9.32008H2932.8C2938.4 9.32008 2939.24 12.6801 2943.02 19.1201L2967.1 61.4001V100.32C2967.1 107.04 2966.4 107.74 2958.98 107.74H2945.82V109Z" fill="black"/>
<path d="M3006.82 109H3034.82V107.74H3027.26C3022.64 107.74 3019.84 105.5 3019.84 102.28C3019.84 101.3 3020.26 100.18 3020.68 99.0601L3028.94 81.7001H3089.98L3098.52 100.88C3099.64 103.26 3101.18 106.76 3103.28 107.46V107.74H3091.52V109H3120.92V107.74H3119.66C3114.2 107.74 3113.64 105.78 3110.56 99.0601L3074.3 18.1401C3073.46 16.4601 3072.9 12.8201 3072.9 10.0201V8.34008H3061L3017.74 99.0601C3015.36 103.82 3013.12 107.74 3009.2 107.74H3006.82V109ZM3030.2 79.1801L3058.2 20.8001C3059.6 17.8601 3060.02 16.0401 3060.02 15.2001H3061.42C3061.42 16.7401 3061.56 18.5601 3062.68 20.8001L3088.86 79.1801H3030.2Z" fill="black"/>
<path d="M3133.52 109H3191.62V99.2001H3143.74V8.20008H3133.52V109Z" fill="black"/>
<path d="M3209.37 109H3260.89V107.74H3249.41C3241.99 107.74 3241.29 107.04 3241.29 100.32V10.8601H3250.25C3264.95 10.8601 3269.85 13.5201 3270.97 26.9601L3271.39 32.7001L3274.19 32.5601L3271.95 0.220085L3270.27 0.360083L3270.97 8.34008H3199.29L3199.99 0.220085L3198.31 0.0800781L3195.93 32.5601L3198.73 32.7001L3199.29 26.9601C3199.99 13.5201 3205.17 10.8601 3220.01 10.8601H3229.25V100.32C3229.25 107.04 3228.55 107.74 3221.13 107.74H3209.37V109Z" fill="black"/>
<path d="M3294.32 109H3347.38V107.88H3336.04C3328.62 107.88 3327.78 107.18 3327.78 100.46V59.4401L3350.6 19.4001C3354.66 12.2601 3356.2 9.46008 3360.96 9.46008H3363.48V8.34008H3333.8V9.46008H3343.04C3347.94 9.46008 3349.62 11.0001 3349.62 13.3801C3349.62 15.0601 3348.78 17.1601 3347.38 19.4001L3328.9 51.8801C3328.2 53.2801 3327.08 55.5201 3326.94 56.3601H3325.82C3325.68 55.5201 3324.56 53.1401 3323.86 51.8801L3303.98 17.4401C3301.46 13.2401 3299.78 10.3001 3297.68 9.60008V9.32008H3307.2V8.20008H3278.08V9.32008H3281.3C3286.9 9.32008 3287.74 12.6801 3291.52 19.1201L3315.6 61.4001V100.32C3315.6 107.04 3314.9 107.74 3307.48 107.74H3294.32V109Z" fill="black"/>
<path d="M2750.8 109H2815.62C2818.14 109 2818.7 108.72 2819.82 107.74H2819.96L2819.26 116L2820.8 116.14L2823.88 76.3801H2820.8L2819.68 90.3801C2818.42 103.82 2808.48 106.48 2793.78 106.48H2772.92V106.34C2774.74 104.66 2776.28 102.14 2776.28 99.0601V16.8801C2776.28 10.1601 2777.26 9.60008 2784.68 9.60008H2790V8.34008H2750.8V9.60008H2756.12C2763.54 9.60008 2764.38 10.1601 2764.38 16.8801V99.3401C2764.38 106.06 2763.54 107.74 2756.12 107.74H2750.8V109Z" fill="black"/>
<path d="M2877.98 111.1C2908.08 111.1 2924.32 89.5401 2924.32 58.6001C2924.32 27.6601 2908.08 6.10008 2877.98 6.10008C2847.74 6.10008 2831.5 27.6601 2831.5 58.6001C2831.5 89.5401 2847.74 111.1 2877.98 111.1ZM2877.98 101.16C2854.32 101.16 2842.28 83.8001 2842.42 58.6001C2842.56 33.4001 2854.32 15.9001 2877.98 16.0401C2901.64 16.0401 2913.4 33.4001 2913.4 58.6001C2913.4 83.8001 2901.64 101.3 2877.98 101.16Z" fill="black"/>
<path d="M2946.25 109H2999.31V107.88H2987.97C2980.55 107.88 2979.71 107.18 2979.71 100.46V59.4401L3002.53 19.4001C3006.59 12.2601 3008.13 9.46008 3012.89 9.46008H3015.41V8.34008H2985.73V9.46008H2994.97C2999.87 9.46008 3001.55 11.0001 3001.55 13.3801C3001.55 15.0601 3000.71 17.1601 2999.31 19.4001L2980.83 51.8801C2980.13 53.2801 2979.01 55.5201 2978.87 56.3601H2977.75C2977.61 55.5201 2976.49 53.1401 2975.79 51.8801L2955.91 17.4401C2953.39 13.2401 2951.71 10.3001 2949.61 9.60008V9.32008H2959.13V8.20008H2930.01V9.32008H2933.23C2938.83 9.32008 2939.67 12.6801 2943.45 19.1201L2967.53 61.4001V100.32C2967.53 107.04 2966.83 107.74 2959.41 107.74H2946.25V109Z" fill="black"/>
<path d="M3007.25 109H3035.25V107.74H3027.69C3023.07 107.74 3020.27 105.5 3020.27 102.28C3020.27 101.3 3020.69 100.18 3021.11 99.0601L3029.37 81.7001H3090.41L3098.95 100.88C3100.07 103.26 3101.61 106.76 3103.71 107.46V107.74H3091.95V109H3121.35V107.74H3120.09C3114.63 107.74 3114.07 105.78 3110.99 99.0601L3074.73 18.1401C3073.89 16.4601 3073.33 12.8201 3073.33 10.0201V8.34008H3061.43L3018.17 99.0601C3015.79 103.82 3013.55 107.74 3009.63 107.74H3007.25V109ZM3030.63 79.1801L3058.63 20.8001C3060.03 17.8601 3060.45 16.0401 3060.45 15.2001H3061.85C3061.85 16.7401 3061.99 18.5601 3063.11 20.8001L3089.29 79.1801H3030.63Z" fill="black"/>
<path d="M3133.95 109H3192.05V99.2001H3144.17V8.20008H3133.95V109Z" fill="black"/>
<path d="M3209.8 109H3261.32V107.74H3249.84C3242.42 107.74 3241.72 107.04 3241.72 100.32V10.8601H3250.68C3265.38 10.8601 3270.28 13.5201 3271.4 26.9601L3271.82 32.7001L3274.62 32.5601L3272.38 0.220085L3270.7 0.360083L3271.4 8.34008H3199.72L3200.42 0.220085L3198.74 0.0800781L3196.36 32.5601L3199.16 32.7001L3199.72 26.9601C3200.42 13.5201 3205.6 10.8601 3220.44 10.8601H3229.68V100.32C3229.68 107.04 3228.98 107.74 3221.56 107.74H3209.8V109Z" fill="black"/>
<path d="M3294.75 109H3347.81V107.88H3336.47C3329.05 107.88 3328.21 107.18 3328.21 100.46V59.4401L3351.03 19.4001C3355.09 12.2601 3356.63 9.46008 3361.39 9.46008H3363.91V8.34008H3334.23V9.46008H3343.47C3348.37 9.46008 3350.05 11.0001 3350.05 13.3801C3350.05 15.0601 3349.21 17.1601 3347.81 19.4001L3329.33 51.8801C3328.63 53.2801 3327.51 55.5201 3327.37 56.3601H3326.25C3326.11 55.5201 3324.99 53.1401 3324.29 51.8801L3304.41 17.4401C3301.89 13.2401 3300.21 10.3001 3298.11 9.60008V9.32008H3307.63V8.20008H3278.51V9.32008H3281.73C3287.33 9.32008 3288.17 12.6801 3291.95 19.1201L3316.03 61.4001V100.32C3316.03 107.04 3315.33 107.74 3307.91 107.74H3294.75V109Z" fill="black"/>
<path d="M3432.77 70.5001V66.7201H3368.23V70.5001H3432.77Z" fill="black"/>
<path d="M3438.09 109H3502.91C3505.43 109 3505.99 108.72 3507.11 107.74H3507.25L3506.55 116L3508.09 116.14L3511.17 76.3801H3508.09L3506.97 90.3801C3505.71 103.82 3495.77 106.48 3481.07 106.48H3460.21V106.34C3462.03 104.66 3463.57 102.14 3463.57 99.0601V16.8801C3463.57 10.1601 3464.55 9.60008 3471.97 9.60008H3477.29V8.34008H3438.09V9.60008H3443.41C3450.83 9.60008 3451.67 10.1601 3451.67 16.8801V99.3401C3451.67 106.06 3450.83 107.74 3443.41 107.74H3438.09V109Z" fill="black"/>
<path d="M3565.27 111.1C3595.37 111.1 3611.61 89.5401 3611.61 58.6001C3611.61 27.6601 3595.37 6.10008 3565.27 6.10008C3535.03 6.10008 3518.79 27.6601 3518.79 58.6001C3518.79 89.5401 3535.03 111.1 3565.27 111.1ZM3565.27 101.16C3541.61 101.16 3529.57 83.8001 3529.71 58.6001C3529.85 33.4001 3541.61 15.9001 3565.27 16.0401C3588.93 16.0401 3600.69 33.4001 3600.69 58.6001C3600.69 83.8001 3588.93 101.3 3565.27 101.16Z" fill="black"/>
<path d="M3633.54 109H3686.6V107.88H3675.26C3667.84 107.88 3667 107.18 3667 100.46V59.4401L3689.82 19.4001C3693.88 12.2601 3695.42 9.46008 3700.18 9.46008H3702.7V8.34008H3673.02V9.46008H3682.26C3687.16 9.46008 3688.84 11.0001 3688.84 13.3801C3688.84 15.0601 3688 17.1601 3686.6 19.4001L3668.12 51.8801C3667.42 53.2801 3666.3 55.5201 3666.16 56.3601H3665.04C3664.9 55.5201 3663.78 53.1401 3663.08 51.8801L3643.2 17.4401C3640.68 13.2401 3639 10.3001 3636.9 9.60008V9.32008H3646.42V8.20008H3617.3V9.32008H3620.52C3626.12 9.32008 3626.96 12.6801 3630.74 19.1201L3654.82 61.4001V100.32C3654.82 107.04 3654.12 107.74 3646.7 107.74H3633.54V109Z" fill="black"/>
<path d="M3694.54 109H3722.54V107.74H3714.98C3710.36 107.74 3707.56 105.5 3707.56 102.28C3707.56 101.3 3707.98 100.18 3708.4 99.0601L3716.66 81.7001H3777.7L3786.24 100.88C3787.36 103.26 3788.9 106.76 3791 107.46V107.74H3779.24V109H3808.64V107.74H3807.38C3801.92 107.74 3801.36 105.78 3798.28 99.0601L3762.02 18.1401C3761.18 16.4601 3760.62 12.8201 3760.62 10.0201V8.34008H3748.72L3705.46 99.0601C3703.08 103.82 3700.84 107.74 3696.92 107.74H3694.54V109ZM3717.92 79.1801L3745.92 20.8001C3747.32 17.8601 3747.74 16.0401 3747.74 15.2001H3749.14C3749.14 16.7401 3749.28 18.5601 3750.4 20.8001L3776.58 79.1801H3717.92Z" fill="black"/>
<path d="M3821.23 109H3879.33V99.2001H3831.46V8.20008H3821.23V109Z" fill="black"/>
<path d="M3897.08 109H3948.6V107.74H3937.12C3929.7 107.74 3929 107.04 3929 100.32V10.8601H3937.96C3952.66 10.8601 3957.56 13.5201 3958.68 26.9601L3959.1 32.7001L3961.9 32.5601L3959.66 0.220085L3957.98 0.360083L3958.68 8.34008H3887L3887.7 0.220085L3886.02 0.0800781L3883.64 32.5601L3886.44 32.7001L3887 26.9601C3887.7 13.5201 3892.88 10.8601 3907.72 10.8601H3916.96V100.32C3916.96 107.04 3916.26 107.74 3908.84 107.74H3897.08V109Z" fill="black"/>
<path d="M3982.03 109H4035.09V107.88H4023.75C4016.33 107.88 4015.49 107.18 4015.49 100.46V59.4401L4038.31 19.4001C4042.37 12.2601 4043.91 9.46008 4048.67 9.46008H4051.19V8.34008H4021.51V9.46008H4030.75C4035.65 9.46008 4037.33 11.0001 4037.33 13.3801C4037.33 15.0601 4036.49 17.1601 4035.09 19.4001L4016.61 51.8801C4015.91 53.2801 4014.79 55.5201 4014.65 56.3601H4013.53C4013.39 55.5201 4012.27 53.1401 4011.57 51.8801L3991.69 17.4401C3989.17 13.2401 3987.49 10.3001 3985.39 9.60008V9.32008H3994.91V8.20008H3965.79V9.32008H3969.01C3974.61 9.32008 3975.45 12.6801 3979.23 19.1201L4003.31 61.4001V100.32C4003.31 107.04 4002.61 107.74 3995.19 107.74H3982.03V109Z" fill="black"/>
<path d="M4120.05 70.5001V66.7201H4055.51V70.5001H4120.05Z" fill="black"/>
<path d="M4125.37 109H4190.19C4192.71 109 4193.27 108.72 4194.39 107.74H4194.53L4193.83 116L4195.37 116.14L4198.45 76.3801H4195.37L4194.25 90.3801C4192.99 103.82 4183.05 106.48 4168.35 106.48H4147.49V106.34C4149.31 104.66 4150.85 102.14 4150.85 99.0601V16.8801C4150.85 10.1601 4151.83 9.60008 4159.25 9.60008H4164.57V8.34008H4125.37V9.60008H4130.69C4138.11 9.60008 4138.95 10.1601 4138.95 16.8801V99.3401C4138.95 106.06 4138.11 107.74 4130.69 107.74H4125.37V109Z" fill="black"/>
<path d="M4252.55 111.1C4282.65 111.1 4298.89 89.5401 4298.89 58.6001C4298.89 27.6601 4282.65 6.10008 4252.55 6.10008C4222.31 6.10008 4206.07 27.6601 4206.07 58.6001C4206.07 89.5401 4222.31 111.1 4252.55 111.1ZM4252.55 101.16C4228.89 101.16 4216.85 83.8001 4216.99 58.6001C4217.13 33.4001 4228.89 15.9001 4252.55 16.0401C4276.21 16.0401 4287.97 33.4001 4287.97 58.6001C4287.97 83.8001 4276.21 101.3 4252.55 101.16Z" fill="black"/>
<path d="M4320.82 109H4373.88V107.88H4362.54C4355.12 107.88 4354.28 107.18 4354.28 100.46V59.4401L4377.1 19.4001C4381.16 12.2601 4382.7 9.46008 4387.46 9.46008H4389.98V8.34008H4360.3V9.46008H4369.54C4374.44 9.46008 4376.12 11.0001 4376.12 13.3801C4376.12 15.0601 4375.28 17.1601 4373.88 19.4001L4355.4 51.8801C4354.7 53.2801 4353.58 55.5201 4353.44 56.3601H4352.32C4352.18 55.5201 4351.06 53.1401 4350.36 51.8801L4330.48 17.4401C4327.96 13.2401 4326.28 10.3001 4324.18 9.60008V9.32008H4333.7V8.20008H4304.58V9.32008H4307.8C4313.4 9.32008 4314.24 12.6801 4318.02 19.1201L4342.1 61.4001V100.32C4342.1 107.04 4341.4 107.74 4333.98 107.74H4320.82V109Z" fill="black"/>
<path d="M4381.82 109H4409.82V107.74H4402.26C4397.64 107.74 4394.84 105.5 4394.84 102.28C4394.84 101.3 4395.26 100.18 4395.68 99.0601L4403.94 81.7001H4464.98L4473.52 100.88C4474.64 103.26 4476.18 106.76 4478.28 107.46V107.74H4466.52V109H4495.92V107.74H4494.66C4489.2 107.74 4488.64 105.78 4485.56 99.0601L4449.3 18.1401C4448.46 16.4601 4447.9 12.8201 4447.9 10.0201V8.34008H4436L4392.74 99.0601C4390.36 103.82 4388.12 107.74 4384.2 107.74H4381.82V109ZM4405.2 79.1801L4433.2 20.8001C4434.6 17.8601 4435.02 16.0401 4435.02 15.2001H4436.42C4436.42 16.7401 4436.56 18.5601 4437.68 20.8001L4463.86 79.1801H4405.2Z" fill="black"/>
<path d="M4508.52 109H4566.62V99.2001H4518.74V8.20008H4508.52V109Z" fill="black"/>
<path d="M4584.37 109H4635.89V107.74H4624.41C4616.99 107.74 4616.29 107.04 4616.29 100.32V10.8601H4625.25C4639.95 10.8601 4644.85 13.5201 4645.97 26.9601L4646.39 32.7001L4649.19 32.5601L4646.95 0.220085L4645.27 0.360083L4645.97 8.34008H4574.29L4574.99 0.220085L4573.31 0.0800781L4570.93 32.5601L4573.73 32.7001L4574.29 26.9601C4574.99 13.5201 4580.17 10.8601 4595.01 10.8601H4604.25V100.32C4604.25 107.04 4603.55 107.74 4596.13 107.74H4584.37V109Z" fill="black"/>
<path d="M4669.32 109H4722.38V107.88H4711.04C4703.62 107.88 4702.78 107.18 4702.78 100.46V59.4401L4725.6 19.4001C4729.66 12.2601 4731.2 9.46008 4735.96 9.46008H4738.48V8.34008H4708.8V9.46008H4718.04C4722.94 9.46008 4724.62 11.0001 4724.62 13.3801C4724.62 15.0601 4723.78 17.1601 4722.38 19.4001L4703.9 51.8801C4703.2 53.2801 4702.08 55.5201 4701.94 56.3601H4700.82C4700.68 55.5201 4699.56 53.1401 4698.86 51.8801L4678.98 17.4401C4676.46 13.2401 4674.78 10.3001 4672.68 9.60008V9.32008H4682.2V8.20008H4653.08V9.32008H4656.3C4661.9 9.32008 4662.74 12.6801 4666.52 19.1201L4690.6 61.4001V100.32C4690.6 107.04 4689.9 107.74 4682.48 107.74H4669.32V109Z" fill="black"/>
<path d="M0.803711 109H65.6237C68.1437 109 68.7037 108.72 69.8237 107.74H69.9637L69.2637 116L70.8037 116.14L73.8837 76.3801H70.8037L69.6837 90.3801C68.4237 103.82 58.4837 106.48 43.7837 106.48H22.9237V106.34C24.7437 104.66 26.2837 102.14 26.2837 99.0601V16.8801C26.2837 10.1601 27.2637 9.60008 34.6837 9.60008H40.0037V8.34008H0.803711V9.60008H6.12371C13.5437 9.60008 14.3837 10.1601 14.3837 16.8801V99.3401C14.3837 106.06 13.5437 107.74 6.12371 107.74H0.803711V109Z" fill="black"/>
<path d="M127.981 111.1C158.081 111.1 174.321 89.5401 174.321 58.6001C174.321 27.6601 158.081 6.10008 127.981 6.10008C97.7406 6.10008 81.5006 27.6601 81.5006 58.6001C81.5006 89.5401 97.7406 111.1 127.981 111.1ZM127.981 101.16C104.321 101.16 92.2806 83.8001 92.4206 58.6001C92.5606 33.4001 104.321 15.9001 127.981 16.0401C151.641 16.0401 163.401 33.4001 163.401 58.6001C163.401 83.8001 151.641 101.3 127.981 101.16Z" fill="black"/>
<path d="M196.252 109H249.312V107.88H237.972C230.552 107.88 229.712 107.18 229.712 100.46V59.4401L252.532 19.4001C256.592 12.2601 258.132 9.46008 262.892 9.46008H265.412V8.34008H235.732V9.46008H244.972C249.872 9.46008 251.552 11.0001 251.552 13.3801C251.552 15.0601 250.712 17.1601 249.312 19.4001L230.832 51.8801C230.132 53.2801 229.012 55.5201 228.872 56.3601H227.752C227.612 55.5201 226.492 53.1401 225.792 51.8801L205.912 17.4401C203.392 13.2401 201.712 10.3001 199.612 9.60008V9.32008H209.132V8.20008H180.012V9.32008H183.232C188.832 9.32008 189.672 12.6801 193.452 19.1201L217.532 61.4001V100.32C217.532 107.04 216.832 107.74 209.412 107.74H196.252V109Z" fill="black"/>
<path d="M257.252 109H285.252V107.74H277.692C273.072 107.74 270.272 105.5 270.272 102.28C270.272 101.3 270.692 100.18 271.112 99.0601L279.372 81.7001H340.412L348.952 100.88C350.072 103.26 351.612 106.76 353.712 107.46V107.74H341.952V109H371.352V107.74H370.092C364.632 107.74 364.072 105.78 360.992 99.0601L324.732 18.1401C323.892 16.4601 323.332 12.8201 323.332 10.0201V8.34008H311.432L268.172 99.0601C265.792 103.82 263.552 107.74 259.632 107.74H257.252V109ZM280.632 79.1801L308.632 20.8001C310.032 17.8601 310.452 16.0401 310.452 15.2001H311.852C311.852 16.7401 311.992 18.5601 313.112 20.8001L339.292 79.1801H280.632Z" fill="black"/>
<path d="M383.95 109H442.05V99.2001H394.17V8.20008H383.95V109Z" fill="black"/>
<path d="M459.797 109H511.317V107.74H499.837C492.417 107.74 491.717 107.04 491.717 100.32V10.8601H500.677C515.377 10.8601 520.277 13.5201 521.397 26.9601L521.817 32.7001L524.617 32.5601L522.377 0.220085L520.697 0.360083L521.397 8.34008H449.717L450.417 0.220085L448.737 0.0800781L446.357 32.5601L449.157 32.7001L449.717 26.9601C450.417 13.5201 455.597 10.8601 470.437 10.8601H479.677V100.32C479.677 107.04 478.977 107.74 471.557 107.74H459.797V109Z" fill="black"/>
<path d="M544.749 109H597.809V107.88H586.469C579.049 107.88 578.209 107.18 578.209 100.46V59.4401L601.029 19.4001C605.089 12.2601 606.629 9.46008 611.389 9.46008H613.909V8.34008H584.229V9.46008H593.469C598.369 9.46008 600.049 11.0001 600.049 13.3801C600.049 15.0601 599.209 17.1601 597.809 19.4001L579.329 51.8801C578.629 53.2801 577.509 55.5201 577.369 56.3601H576.249C576.109 55.5201 574.989 53.1401 574.289 51.8801L554.409 17.4401C551.889 13.2401 550.209 10.3001 548.109 9.60008V9.32008H557.629V8.20008H528.509V9.32008H531.729C537.329 9.32008 538.169 12.6801 541.949 19.1201L566.029 61.4001V100.32C566.029 107.04 565.329 107.74 557.909 107.74H544.749V109Z" fill="black"/>
<path d="M682.766 70.5001V66.7201H618.226V70.5001H682.766Z" fill="black"/>
<path d="M688.089 109H752.909C755.429 109 755.989 108.72 757.109 107.74H757.249L756.549 116L758.089 116.14L761.169 76.3801H758.089L756.969 90.3801C755.709 103.82 745.769 106.48 731.069 106.48H710.209V106.34C712.029 104.66 713.569 102.14 713.569 99.0601V16.8801C713.569 10.1601 714.549 9.60008 721.969 9.60008H727.289V8.34008H688.089V9.60008H693.409C700.829 9.60008 701.669 10.1601 701.669 16.8801V99.3401C701.669 106.06 700.829 107.74 693.409 107.74H688.089V109Z" fill="black"/>
<path d="M815.266 111.1C845.366 111.1 861.606 89.5401 861.606 58.6001C861.606 27.6601 845.366 6.10008 815.266 6.10008C785.026 6.10008 768.786 27.6601 768.786 58.6001C768.786 89.5401 785.026 111.1 815.266 111.1ZM815.266 101.16C791.606 101.16 779.566 83.8001 779.706 58.6001C779.846 33.4001 791.606 15.9001 815.266 16.0401C838.926 16.0401 850.686 33.4001 850.686 58.6001C850.686 83.8001 838.926 101.3 815.266 101.16Z" fill="black"/>
<path d="M883.538 109H936.598V107.88H925.258C917.838 107.88 916.998 107.18 916.998 100.46V59.4401L939.818 19.4001C943.878 12.2601 945.418 9.46008 950.178 9.46008H952.698V8.34008H923.018V9.46008H932.258C937.158 9.46008 938.838 11.0001 938.838 13.3801C938.838 15.0601 937.998 17.1601 936.598 19.4001L918.118 51.8801C917.418 53.2801 916.298 55.5201 916.158 56.3601H915.038C914.898 55.5201 913.778 53.1401 913.078 51.8801L893.198 17.4401C890.678 13.2401 888.998 10.3001 886.898 9.60008V9.32008H896.418V8.20008H867.298V9.32008H870.518C876.118 9.32008 876.958 12.6801 880.738 19.1201L904.818 61.4001V100.32C904.818 107.04 904.118 107.74 896.698 107.74H883.538V109Z" fill="black"/>
<path d="M944.537 109H972.537V107.74H964.977C960.357 107.74 957.557 105.5 957.557 102.28C957.557 101.3 957.977 100.18 958.397 99.0601L966.657 81.7001H1027.7L1036.24 100.88C1037.36 103.26 1038.9 106.76 1041 107.46V107.74H1029.24V109H1058.64V107.74H1057.38C1051.92 107.74 1051.36 105.78 1048.28 99.0601L1012.02 18.1401C1011.18 16.4601 1010.62 12.8201 1010.62 10.0201V8.34008H998.717L955.457 99.0601C953.077 103.82 950.837 107.74 946.917 107.74H944.537V109ZM967.917 79.1801L995.917 20.8001C997.317 17.8601 997.737 16.0401 997.737 15.2001H999.137C999.137 16.7401 999.277 18.5601 1000.4 20.8001L1026.58 79.1801H967.917Z" fill="black"/>
<path d="M1071.23 109H1129.33V99.2001H1081.45V8.20008H1071.23V109Z" fill="black"/>
<path d="M1147.08 109H1198.6V107.74H1187.12C1179.7 107.74 1179 107.04 1179 100.32V10.8601H1187.96C1202.66 10.8601 1207.56 13.5201 1208.68 26.9601L1209.1 32.7001L1211.9 32.5601L1209.66 0.220085L1207.98 0.360083L1208.68 8.34008H1137L1137.7 0.220085L1136.02 0.0800781L1133.64 32.5601L1136.44 32.7001L1137 26.9601C1137.7 13.5201 1142.88 10.8601 1157.72 10.8601H1166.96V100.32C1166.96 107.04 1166.26 107.74 1158.84 107.74H1147.08V109Z" fill="black"/>
<path d="M1232.03 109H1285.09V107.88H1273.75C1266.33 107.88 1265.49 107.18 1265.49 100.46V59.4401L1288.31 19.4001C1292.37 12.2601 1293.91 9.46008 1298.67 9.46008H1301.19V8.34008H1271.51V9.46008H1280.75C1285.65 9.46008 1287.33 11.0001 1287.33 13.3801C1287.33 15.0601 1286.49 17.1601 1285.09 19.4001L1266.61 51.8801C1265.91 53.2801 1264.79 55.5201 1264.65 56.3601H1263.53C1263.39 55.5201 1262.27 53.1401 1261.57 51.8801L1241.69 17.4401C1239.17 13.2401 1237.49 10.3001 1235.39 9.60008V9.32008H1244.91V8.20008H1215.79V9.32008H1219.01C1224.61 9.32008 1225.45 12.6801 1229.23 19.1201L1253.31 61.4001V100.32C1253.31 107.04 1252.61 107.74 1245.19 107.74H1232.03V109Z" fill="black"/>
<path d="M1370.05 70.5001V66.7201H1305.51V70.5001H1370.05Z" fill="black"/>
<path d="M1375.37 109H1440.19C1442.71 109 1443.27 108.72 1444.39 107.74H1444.53L1443.83 116L1445.37 116.14L1448.45 76.3801H1445.37L1444.25 90.3801C1442.99 103.82 1433.05 106.48 1418.35 106.48H1397.49V106.34C1399.31 104.66 1400.85 102.14 1400.85 99.0601V16.8801C1400.85 10.1601 1401.83 9.60008 1409.25 9.60008H1414.57V8.34008H1375.37V9.60008H1380.69C1388.11 9.60008 1388.95 10.1601 1388.95 16.8801V99.3401C1388.95 106.06 1388.11 107.74 1380.69 107.74H1375.37V109Z" fill="black"/>
<path d="M1502.55 111.1C1532.65 111.1 1548.89 89.5401 1548.89 58.6001C1548.89 27.6601 1532.65 6.10008 1502.55 6.10008C1472.31 6.10008 1456.07 27.6601 1456.07 58.6001C1456.07 89.5401 1472.31 111.1 1502.55 111.1ZM1502.55 101.16C1478.89 101.16 1466.85 83.8001 1466.99 58.6001C1467.13 33.4001 1478.89 15.9001 1502.55 16.0401C1526.21 16.0401 1537.97 33.4001 1537.97 58.6001C1537.97 83.8001 1526.21 101.3 1502.55 101.16Z" fill="black"/>
<path d="M1570.82 109H1623.88V107.88H1612.54C1605.12 107.88 1604.28 107.18 1604.28 100.46V59.4401L1627.1 19.4001C1631.16 12.2601 1632.7 9.46008 1637.46 9.46008H1639.98V8.34008H1610.3V9.46008H1619.54C1624.44 9.46008 1626.12 11.0001 1626.12 13.3801C1626.12 15.0601 1625.28 17.1601 1623.88 19.4001L1605.4 51.8801C1604.7 53.2801 1603.58 55.5201 1603.44 56.3601H1602.32C1602.18 55.5201 1601.06 53.1401 1600.36 51.8801L1580.48 17.4401C1577.96 13.2401 1576.28 10.3001 1574.18 9.60008V9.32008H1583.7V8.20008H1554.58V9.32008H1557.8C1563.4 9.32008 1564.24 12.6801 1568.02 19.1201L1592.1 61.4001V100.32C1592.1 107.04 1591.4 107.74 1583.98 107.74H1570.82V109Z" fill="black"/>
<path d="M1631.82 109H1659.82V107.74H1652.26C1647.64 107.74 1644.84 105.5 1644.84 102.28C1644.84 101.3 1645.26 100.18 1645.68 99.0601L1653.94 81.7001H1714.98L1723.52 100.88C1724.64 103.26 1726.18 106.76 1728.28 107.46V107.74H1716.52V109H1745.92V107.74H1744.66C1739.2 107.74 1738.64 105.78 1735.56 99.0601L1699.3 18.1401C1698.46 16.4601 1697.9 12.8201 1697.9 10.0201V8.34008H1686L1642.74 99.0601C1640.36 103.82 1638.12 107.74 1634.2 107.74H1631.82V109ZM1655.2 79.1801L1683.2 20.8001C1684.6 17.8601 1685.02 16.0401 1685.02 15.2001H1686.42C1686.42 16.7401 1686.56 18.5601 1687.68 20.8001L1713.86 79.1801H1655.2Z" fill="black"/>
<path d="M1758.52 109H1816.62V99.2001H1768.74V8.20008H1758.52V109Z" fill="black"/>
<path d="M1834.37 109H1885.89V107.74H1874.41C1866.99 107.74 1866.29 107.04 1866.29 100.32V10.8601H1875.25C1889.95 10.8601 1894.85 13.5201 1895.97 26.9601L1896.39 32.7001L1899.19 32.5601L1896.95 0.220085L1895.27 0.360083L1895.97 8.34008H1824.29L1824.99 0.220085L1823.31 0.0800781L1820.93 32.5601L1823.73 32.7001L1824.29 26.9601C1824.99 13.5201 1830.17 10.8601 1845.01 10.8601H1854.25V100.32C1854.25 107.04 1853.55 107.74 1846.13 107.74H1834.37V109Z" fill="black"/>
<path d="M1919.32 109H1972.38V107.88H1961.04C1953.62 107.88 1952.78 107.18 1952.78 100.46V59.4401L1975.6 19.4001C1979.66 12.2601 1981.2 9.46008 1985.96 9.46008H1988.48V8.34008H1958.8V9.46008H1968.04C1972.94 9.46008 1974.62 11.0001 1974.62 13.3801C1974.62 15.0601 1973.78 17.1601 1972.38 19.4001L1953.9 51.8801C1953.2 53.2801 1952.08 55.5201 1951.94 56.3601H1950.82C1950.68 55.5201 1949.56 53.1401 1948.86 51.8801L1928.98 17.4401C1926.46 13.2401 1924.78 10.3001 1922.68 9.60008V9.32008H1932.2V8.20008H1903.08V9.32008H1906.3C1911.9 9.32008 1912.74 12.6801 1916.52 19.1201L1940.6 61.4001V100.32C1940.6 107.04 1939.9 107.74 1932.48 107.74H1919.32V109Z" fill="black"/>
<path d="M1375.8 109H1440.62C1443.14 109 1443.7 108.72 1444.82 107.74H1444.96L1444.26 116L1445.8 116.14L1448.88 76.3801H1445.8L1444.68 90.3801C1443.42 103.82 1433.48 106.48 1418.78 106.48H1397.92V106.34C1399.74 104.66 1401.28 102.14 1401.28 99.0601V16.8801C1401.28 10.1601 1402.26 9.60008 1409.68 9.60008H1415V8.34008H1375.8V9.60008H1381.12C1388.54 9.60008 1389.38 10.1601 1389.38 16.8801V99.3401C1389.38 106.06 1388.54 107.74 1381.12 107.74H1375.8V109Z" fill="black"/>
<path d="M1502.98 111.1C1533.08 111.1 1549.32 89.5401 1549.32 58.6001C1549.32 27.6601 1533.08 6.10008 1502.98 6.10008C1472.74 6.10008 1456.5 27.6601 1456.5 58.6001C1456.5 89.5401 1472.74 111.1 1502.98 111.1ZM1502.98 101.16C1479.32 101.16 1467.28 83.8001 1467.42 58.6001C1467.56 33.4001 1479.32 15.9001 1502.98 16.0401C1526.64 16.0401 1538.4 33.4001 1538.4 58.6001C1538.4 83.8001 1526.64 101.3 1502.98 101.16Z" fill="black"/>
<path d="M1571.25 109H1624.31V107.88H1612.97C1605.55 107.88 1604.71 107.18 1604.71 100.46V59.4401L1627.53 19.4001C1631.59 12.2601 1633.13 9.46008 1637.89 9.46008H1640.41V8.34008H1610.73V9.46008H1619.97C1624.87 9.46008 1626.55 11.0001 1626.55 13.3801C1626.55 15.0601 1625.71 17.1601 1624.31 19.4001L1605.83 51.8801C1605.13 53.2801 1604.01 55.5201 1603.87 56.3601H1602.75C1602.61 55.5201 1601.49 53.1401 1600.79 51.8801L1580.91 17.4401C1578.39 13.2401 1576.71 10.3001 1574.61 9.60008V9.32008H1584.13V8.20008H1555.01V9.32008H1558.23C1563.83 9.32008 1564.67 12.6801 1568.45 19.1201L1592.53 61.4001V100.32C1592.53 107.04 1591.83 107.74 1584.41 107.74H1571.25V109Z" fill="black"/>
<path d="M1632.25 109H1660.25V107.74H1652.69C1648.07 107.74 1645.27 105.5 1645.27 102.28C1645.27 101.3 1645.69 100.18 1646.11 99.0601L1654.37 81.7001H1715.41L1723.95 100.88C1725.07 103.26 1726.61 106.76 1728.71 107.46V107.74H1716.95V109H1746.35V107.74H1745.09C1739.63 107.74 1739.07 105.78 1735.99 99.0601L1699.73 18.1401C1698.89 16.4601 1698.33 12.8201 1698.33 10.0201V8.34008H1686.43L1643.17 99.0601C1640.79 103.82 1638.55 107.74 1634.63 107.74H1632.25V109ZM1655.63 79.1801L1683.63 20.8001C1685.03 17.8601 1685.45 16.0401 1685.45 15.2001H1686.85C1686.85 16.7401 1686.99 18.5601 1688.11 20.8001L1714.29 79.1801H1655.63Z" fill="black"/>
<path d="M1758.95 109H1817.05V99.2001H1769.17V8.20008H1758.95V109Z" fill="black"/>
<path d="M1834.8 109H1886.32V107.74H1874.84C1867.42 107.74 1866.72 107.04 1866.72 100.32V10.8601H1875.68C1890.38 10.8601 1895.28 13.5201 1896.4 26.9601L1896.82 32.7001L1899.62 32.5601L1897.38 0.220085L1895.7 0.360083L1896.4 8.34008H1824.72L1825.42 0.220085L1823.74 0.0800781L1821.36 32.5601L1824.16 32.7001L1824.72 26.9601C1825.42 13.5201 1830.6 10.8601 1845.44 10.8601H1854.68V100.32C1854.68 107.04 1853.98 107.74 1846.56 107.74H1834.8V109Z" fill="black"/>
<path d="M1919.75 109H1972.81V107.88H1961.47C1954.05 107.88 1953.21 107.18 1953.21 100.46V59.4401L1976.03 19.4001C1980.09 12.2601 1981.63 9.46008 1986.39 9.46008H1988.91V8.34008H1959.23V9.46008H1968.47C1973.37 9.46008 1975.05 11.0001 1975.05 13.3801C1975.05 15.0601 1974.21 17.1601 1972.81 19.4001L1954.33 51.8801C1953.63 53.2801 1952.51 55.5201 1952.37 56.3601H1951.25C1951.11 55.5201 1949.99 53.1401 1949.29 51.8801L1929.41 17.4401C1926.89 13.2401 1925.21 10.3001 1923.11 9.60008V9.32008H1932.63V8.20008H1903.51V9.32008H1906.73C1912.33 9.32008 1913.17 12.6801 1916.95 19.1201L1941.03 61.4001V100.32C1941.03 107.04 1940.33 107.74 1932.91 107.74H1919.75V109Z" fill="black"/>
<path d="M2057.77 70.5001V66.7201H1993.23V70.5001H2057.77Z" fill="black"/>
<path d="M2063.09 109H2127.91C2130.43 109 2130.99 108.72 2132.11 107.74H2132.25L2131.55 116L2133.09 116.14L2136.17 76.3801H2133.09L2131.97 90.3801C2130.71 103.82 2120.77 106.48 2106.07 106.48H2085.21V106.34C2087.03 104.66 2088.57 102.14 2088.57 99.0601V16.8801C2088.57 10.1601 2089.55 9.60008 2096.97 9.60008H2102.29V8.34008H2063.09V9.60008H2068.41C2075.83 9.60008 2076.67 10.1601 2076.67 16.8801V99.3401C2076.67 106.06 2075.83 107.74 2068.41 107.74H2063.09V109Z" fill="black"/>
<path d="M2190.27 111.1C2220.37 111.1 2236.61 89.5401 2236.61 58.6001C2236.61 27.6601 2220.37 6.10008 2190.27 6.10008C2160.03 6.10008 2143.79 27.6601 2143.79 58.6001C2143.79 89.5401 2160.03 111.1 2190.27 111.1ZM2190.27 101.16C2166.61 101.16 2154.57 83.8001 2154.71 58.6001C2154.85 33.4001 2166.61 15.9001 2190.27 16.0401C2213.93 16.0401 2225.69 33.4001 2225.69 58.6001C2225.69 83.8001 2213.93 101.3 2190.27 101.16Z" fill="black"/>
<path d="M2258.54 109H2311.6V107.88H2300.26C2292.84 107.88 2292 107.18 2292 100.46V59.4401L2314.82 19.4001C2318.88 12.2601 2320.42 9.46008 2325.18 9.46008H2327.7V8.34008H2298.02V9.46008H2307.26C2312.16 9.46008 2313.84 11.0001 2313.84 13.3801C2313.84 15.0601 2313 17.1601 2311.6 19.4001L2293.12 51.8801C2292.42 53.2801 2291.3 55.5201 2291.16 56.3601H2290.04C2289.9 55.5201 2288.78 53.1401 2288.08 51.8801L2268.2 17.4401C2265.68 13.2401 2264 10.3001 2261.9 9.60008V9.32008H2271.42V8.20008H2242.3V9.32008H2245.52C2251.12 9.32008 2251.96 12.6801 2255.74 19.1201L2279.82 61.4001V100.32C2279.82 107.04 2279.12 107.74 2271.7 107.74H2258.54V109Z" fill="black"/>
<path d="M2319.54 109H2347.54V107.74H2339.98C2335.36 107.74 2332.56 105.5 2332.56 102.28C2332.56 101.3 2332.98 100.18 2333.4 99.0601L2341.66 81.7001H2402.7L2411.24 100.88C2412.36 103.26 2413.9 106.76 2416 107.46V107.74H2404.24V109H2433.64V107.74H2432.38C2426.92 107.74 2426.36 105.78 2423.28 99.0601L2387.02 18.1401C2386.18 16.4601 2385.62 12.8201 2385.62 10.0201V8.34008H2373.72L2330.46 99.0601C2328.08 103.82 2325.84 107.74 2321.92 107.74H2319.54V109ZM2342.92 79.1801L2370.92 20.8001C2372.32 17.8601 2372.74 16.0401 2372.74 15.2001H2374.14C2374.14 16.7401 2374.28 18.5601 2375.4 20.8001L2401.58 79.1801H2342.92Z" fill="black"/>
<path d="M2446.23 109H2504.33V99.2001H2456.46V8.20008H2446.23V109Z" fill="black"/>
<path d="M2522.08 109H2573.6V107.74H2562.12C2554.7 107.74 2554 107.04 2554 100.32V10.8601H2562.96C2577.66 10.8601 2582.56 13.5201 2583.68 26.9601L2584.1 32.7001L2586.9 32.5601L2584.66 0.220085L2582.98 0.360083L2583.68 8.34008H2512L2512.7 0.220085L2511.02 0.0800781L2508.64 32.5601L2511.44 32.7001L2512 26.9601C2512.7 13.5201 2517.88 10.8601 2532.72 10.8601H2541.96V100.32C2541.96 107.04 2541.26 107.74 2533.84 107.74H2522.08V109Z" fill="black"/>
<path d="M2607.03 109H2660.09V107.88H2648.75C2641.33 107.88 2640.49 107.18 2640.49 100.46V59.4401L2663.31 19.4001C2667.37 12.2601 2668.91 9.46008 2673.67 9.46008H2676.19V8.34008H2646.51V9.46008H2655.75C2660.65 9.46008 2662.33 11.0001 2662.33 13.3801C2662.33 15.0601 2661.49 17.1601 2660.09 19.4001L2641.61 51.8801C2640.91 53.2801 2639.79 55.5201 2639.65 56.3601H2638.53C2638.39 55.5201 2637.27 53.1401 2636.57 51.8801L2616.69 17.4401C2614.17 13.2401 2612.49 10.3001 2610.39 9.60008V9.32008H2619.91V8.20008H2590.79V9.32008H2594.01C2599.61 9.32008 2600.45 12.6801 2604.23 19.1201L2628.31 61.4001V100.32C2628.31 107.04 2627.61 107.74 2620.19 107.74H2607.03V109Z" fill="black"/>
<path d="M2745.05 70.5001V66.7201H2680.51V70.5001H2745.05Z" fill="black"/>
<path d="M2750.37 109H2815.19C2817.71 109 2818.27 108.72 2819.39 107.74H2819.53L2818.83 116L2820.37 116.14L2823.45 76.3801H2820.37L2819.25 90.3801C2817.99 103.82 2808.05 106.48 2793.35 106.48H2772.49V106.34C2774.31 104.66 2775.85 102.14 2775.85 99.0601V16.8801C2775.85 10.1601 2776.83 9.60008 2784.25 9.60008H2789.57V8.34008H2750.37V9.60008H2755.69C2763.11 9.60008 2763.95 10.1601 2763.95 16.8801V99.3401C2763.95 106.06 2763.11 107.74 2755.69 107.74H2750.37V109Z" fill="black"/>
<path d="M2877.55 111.1C2907.65 111.1 2923.89 89.5401 2923.89 58.6001C2923.89 27.6601 2907.65 6.10008 2877.55 6.10008C2847.31 6.10008 2831.07 27.6601 2831.07 58.6001C2831.07 89.5401 2847.31 111.1 2877.55 111.1ZM2877.55 101.16C2853.89 101.16 2841.85 83.8001 2841.99 58.6001C2842.13 33.4001 2853.89 15.9001 2877.55 16.0401C2901.21 16.0401 2912.97 33.4001 2912.97 58.6001C2912.97 83.8001 2901.21 101.3 2877.55 101.16Z" fill="black"/>
<path d="M2945.82 109H2998.88V107.88H2987.54C2980.12 107.88 2979.28 107.18 2979.28 100.46V59.4401L3002.1 19.4001C3006.16 12.2601 3007.7 9.46008 3012.46 9.46008H3014.98V8.34008H2985.3V9.46008H2994.54C2999.44 9.46008 3001.12 11.0001 3001.12 13.3801C3001.12 15.0601 3000.28 17.1601 2998.88 19.4001L2980.4 51.8801C2979.7 53.2801 2978.58 55.5201 2978.44 56.3601H2977.32C2977.18 55.5201 2976.06 53.1401 2975.36 51.8801L2955.48 17.4401C2952.96 13.2401 2951.28 10.3001 2949.18 9.60008V9.32008H2958.7V8.20008H2929.58V9.32008H2932.8C2938.4 9.32008 2939.24 12.6801 2943.02 19.1201L2967.1 61.4001V100.32C2967.1 107.04 2966.4 107.74 2958.98 107.74H2945.82V109Z" fill="black"/>
<path d="M3006.82 109H3034.82V107.74H3027.26C3022.64 107.74 3019.84 105.5 3019.84 102.28C3019.84 101.3 3020.26 100.18 3020.68 99.0601L3028.94 81.7001H3089.98L3098.52 100.88C3099.64 103.26 3101.18 106.76 3103.28 107.46V107.74H3091.52V109H3120.92V107.74H3119.66C3114.2 107.74 3113.64 105.78 3110.56 99.0601L3074.3 18.1401C3073.46 16.4601 3072.9 12.8201 3072.9 10.0201V8.34008H3061L3017.74 99.0601C3015.36 103.82 3013.12 107.74 3009.2 107.74H3006.82V109ZM3030.2 79.1801L3058.2 20.8001C3059.6 17.8601 3060.02 16.0401 3060.02 15.2001H3061.42C3061.42 16.7401 3061.56 18.5601 3062.68 20.8001L3088.86 79.1801H3030.2Z" fill="black"/>
<path d="M3133.52 109H3191.62V99.2001H3143.74V8.20008H3133.52V109Z" fill="black"/>
<path d="M3209.37 109H3260.89V107.74H3249.41C3241.99 107.74 3241.29 107.04 3241.29 100.32V10.8601H3250.25C3264.95 10.8601 3269.85 13.5201 3270.97 26.9601L3271.39 32.7001L3274.19 32.5601L3271.95 0.220085L3270.27 0.360083L3270.97 8.34008H3199.29L3199.99 0.220085L3198.31 0.0800781L3195.93 32.5601L3198.73 32.7001L3199.29 26.9601C3199.99 13.5201 3205.17 10.8601 3220.01 10.8601H3229.25V100.32C3229.25 107.04 3228.55 107.74 3221.13 107.74H3209.37V109Z" fill="black"/>
<path d="M3294.32 109H3347.38V107.88H3336.04C3328.62 107.88 3327.78 107.18 3327.78 100.46V59.4401L3350.6 19.4001C3354.66 12.2601 3356.2 9.46008 3360.96 9.46008H3363.48V8.34008H3333.8V9.46008H3343.04C3347.94 9.46008 3349.62 11.0001 3349.62 13.3801C3349.62 15.0601 3348.78 17.1601 3347.38 19.4001L3328.9 51.8801C3328.2 53.2801 3327.08 55.5201 3326.94 56.3601H3325.82C3325.68 55.5201 3324.56 53.1401 3323.86 51.8801L3303.98 17.4401C3301.46 13.2401 3299.78 10.3001 3297.68 9.60008V9.32008H3307.2V8.20008H3278.08V9.32008H3281.3C3286.9 9.32008 3287.74 12.6801 3291.52 19.1201L3315.6 61.4001V100.32C3315.6 107.04 3314.9 107.74 3307.48 107.74H3294.32V109Z" fill="black"/>
</svg>
