<svg width="21" height="21" viewBox="0 0 21 21" fill="none" xmlns="http://www.w3.org/2000/svg">
<circle cx="10.5" cy="10.5" r="10.5" fill="#EE1623"/>
<path d="M13.1591 11.6304L12.8466 12.0208L13.1591 11.6304ZM7.84091 11.6304L7.52847 11.2401L7.52847 11.2401L7.84091 11.6304ZM10.5 6C11 6 11 5.99983 11 5.99967C11 5.99963 11 5.99949 11 5.99942C11 5.99927 11 5.99918 11 5.99915C11 5.99907 11 5.99921 11 5.99955C11 6.00023 11 6.00173 11 6.00405C11.0001 6.00867 11.0002 6.01652 11.0005 6.02745C11.001 6.04931 11.0022 6.08344 11.0045 6.12868C11.0092 6.21921 11.0188 6.35389 11.0383 6.52338C11.0773 6.86293 11.1556 7.33878 11.3125 7.87731C11.6271 8.95805 12.2485 10.2611 13.4715 11.2401L12.8466 12.0208C11.4106 10.8714 10.7024 9.35926 10.3523 8.15686C10.1767 7.55382 10.0889 7.02113 10.0448 6.63753C10.0227 6.44544 10.0115 6.2899 10.0059 6.18059C10.003 6.12591 10.0016 6.08273 10.0008 6.05225C10.0004 6.03701 10.0002 6.02493 10.0001 6.01617C10.0001 6.0118 10 6.00825 10 6.00554C10 6.00419 10 6.00305 10 6.00213C10 6.00167 10 6.00126 10 6.0009C10 6.00073 10 6.0005 10 6.00041C10 6.0002 10 6 10.5 6ZM13.4715 11.2401C14.15 11.7832 15.0302 12.1032 15.7693 12.2859C16.1342 12.3761 16.4542 12.4302 16.682 12.4617C16.7957 12.4775 16.8859 12.4875 16.9465 12.4935C16.9768 12.4965 16.9996 12.4984 17.0143 12.4996C17.0216 12.5002 17.0269 12.5006 17.0301 12.5009C17.0316 12.501 17.0327 12.5011 17.0332 12.5011C17.0334 12.5011 17.0335 12.5011 17.0335 12.5011C17.0335 12.5011 17.0334 12.5011 17.0333 12.5011C17.0333 12.5011 17.0332 12.5011 17.0332 12.5011C17.0331 12.5011 17.033 12.5011 17 13C16.967 13.4989 16.9669 13.4989 16.9668 13.4989C16.9667 13.4989 16.9666 13.4989 16.9665 13.4989C16.9662 13.4989 16.966 13.4988 16.9657 13.4988C16.9651 13.4988 16.9643 13.4987 16.9635 13.4987C16.9617 13.4985 16.9594 13.4984 16.9565 13.4982C16.9508 13.4977 16.9428 13.4971 16.9328 13.4963C16.9127 13.4947 16.8842 13.4922 16.8481 13.4886C16.7758 13.4815 16.6727 13.47 16.545 13.4523C16.2901 13.417 15.9348 13.3569 15.5294 13.2567C14.7278 13.0586 13.6876 12.6939 12.8466 12.0208L13.4715 11.2401ZM10.5 6C11 6 11 6.0002 11 6.00041C11 6.0005 11 6.00073 11 6.0009C11 6.00126 11 6.00167 11 6.00213C11 6.00305 11 6.00419 11 6.00554C11 6.00825 10.9999 6.0118 10.9999 6.01617C10.9998 6.02493 10.9996 6.03701 10.9992 6.05225C10.9984 6.08273 10.997 6.12591 10.9941 6.18059C10.9885 6.2899 10.9773 6.44544 10.9552 6.63753C10.9111 7.02113 10.8233 7.55382 10.6477 8.15686C10.2976 9.35926 9.58937 10.8714 8.15335 12.0208L7.52847 11.2401C8.75154 10.2611 9.37287 8.95805 9.68755 7.87731C9.84435 7.33878 9.9227 6.86293 9.96172 6.52338C9.9812 6.35389 9.99077 6.21921 9.99548 6.12868C9.99783 6.08344 9.99896 6.04931 9.9995 6.02745C9.99978 6.01652 9.9999 6.00867 9.99996 6.00405C9.99998 6.00173 9.99999 6.00023 10 5.99955C10 5.99921 10 5.99907 10 5.99915C10 5.99918 10 5.99927 10 5.99942C10 5.99949 10 5.99963 10 5.99967C10 5.99983 10 6 10.5 6ZM8.15335 12.0208C7.31243 12.6939 6.27216 13.0586 5.47063 13.2567C5.06521 13.3569 4.70993 13.4171 4.45498 13.4523C4.32729 13.47 4.22421 13.4815 4.15192 13.4886C4.11576 13.4922 4.08726 13.4947 4.06719 13.4963C4.05715 13.4971 4.04922 13.4977 4.04348 13.4982C4.04062 13.4984 4.0383 13.4985 4.03654 13.4987C4.03566 13.4987 4.03493 13.4988 4.03433 13.4988C4.03403 13.4988 4.03377 13.4989 4.03354 13.4989C4.03343 13.4989 4.03329 13.4989 4.03323 13.4989C4.0331 13.4989 4.03297 13.4989 4 13C3.96703 12.5011 3.96692 12.5011 3.96682 12.5011C3.9668 12.5011 3.96671 12.5011 3.96667 12.5011C3.96658 12.5011 3.96653 12.5011 3.96652 12.5011C3.96648 12.5011 3.96659 12.5011 3.96683 12.5011C3.96732 12.5011 3.96836 12.501 3.96993 12.5009C3.97307 12.5006 3.97836 12.5002 3.9857 12.4996C4.00037 12.4984 4.02323 12.4965 4.05352 12.4935C4.11412 12.4875 4.20427 12.4775 4.31797 12.4617C4.54578 12.4302 4.86584 12.3761 5.23071 12.2859C5.96978 12.1032 6.84996 11.7832 7.52847 11.2401L8.15335 12.0208Z" fill="white"/>
</svg>
