<svg width="442" height="442" viewBox="0 0 442 442" fill="none" xmlns="http://www.w3.org/2000/svg">
<path d="M389.468 18.0457H436.712C438.474 17.9269 439.885 17.0959 440.707 15.3151C441.647 13.653 442 11.516 442 9.02283C442 6.52968 441.647 4.39269 440.707 2.73059C439.767 1.06849 438.474 0.118721 436.712 0H325.653C323.89 0.118721 322.598 1.06849 321.775 2.84931C320.835 4.74886 320.365 6.76712 320.365 8.90411C320.365 11.3973 320.835 13.5342 321.775 15.1963C322.715 16.8584 323.89 17.8082 325.653 17.9269H371.722V262.731L135.973 0.118721H5.28849C3.52566 0.237443 2.23292 1.18721 1.41026 2.84931C0.470088 4.51142 0 6.6484 0 9.14155C0 11.6347 0.470088 13.7717 1.41026 15.4338C2.23292 17.0959 3.52566 17.9269 5.28849 18.0457H51.9447V423.954H5.28849C3.52566 424.073 2.23292 424.904 1.41026 426.685C0.470088 428.347 0 430.484 0 432.977C0 435.47 0.470088 437.489 1.41026 439.269C2.35044 440.932 3.52566 441.881 5.28849 442H116.347C118.11 441.881 119.52 441.05 120.342 439.269C121.283 437.607 121.635 435.47 121.635 432.977C121.635 430.484 121.283 428.466 120.342 426.685C119.402 425.023 118.11 424.073 116.347 423.954H69.6905V105.187L371.722 441.881H389.468V18.0457Z" fill="#0F0F0F"/>
</svg>
