<svg width="38" height="43" viewBox="0 0 38 43" fill="none" xmlns="http://www.w3.org/2000/svg">
<path d="M26.3636 27.288L26.0497 26.8988L26.3636 27.288ZM11.6364 27.288L11.9503 26.8988L11.6364 27.288ZM18.5 -8.08661e-07L18.5 43L19.5 43L19.5 -7.64949e-07L18.5 -8.08661e-07ZM19 43C19.5 43 19.5 43.0001 19.5 43.0003C19.5 43.0002 19.5 43.0003 19.5 43.0003C19.5 43.0002 19.5 43 19.5 42.9997C19.5 42.999 19.5 42.9977 19.5 42.9959C19.5 42.9921 19.5001 42.9861 19.5002 42.9778C19.5004 42.9612 19.5008 42.9355 19.5016 42.9011C19.5033 42.8324 19.5068 42.729 19.5137 42.5942C19.5276 42.3247 19.5556 41.9301 19.6118 41.4369C19.7244 40.4497 19.9498 39.0708 20.4008 37.51C21.3039 34.3847 23.1018 30.5612 26.6775 27.6772L26.0497 26.8988C22.2618 29.9541 20.378 33.9866 19.4401 37.2324C18.9706 38.8573 18.7358 40.2927 18.6183 41.3236C18.5595 41.8393 18.5299 42.2546 18.515 42.5427C18.5076 42.6868 18.5038 42.7992 18.5019 42.8765C18.501 42.9151 18.5005 42.945 18.5003 42.9658C18.5001 42.9761 18.5001 42.9842 18.5 42.9899C18.5 42.9928 18.5 42.9951 18.5 42.9967C18.5 42.9976 18.5 42.9983 18.5 42.9988C18.5 42.9991 18.5 42.9994 18.5 42.9995C18.5 42.9998 18.5 43 19 43ZM26.6775 27.6772C28.7001 26.0459 31.2789 25.113 33.3805 24.5896C34.4267 24.3291 35.344 24.1726 35.9988 24.0813C36.326 24.0357 36.587 24.0065 36.7651 23.9887C36.8542 23.9799 36.9224 23.9739 36.9678 23.9701C36.9905 23.9683 37.0075 23.967 37.0185 23.9661C37.024 23.9657 37.028 23.9654 37.0304 23.9653C37.0317 23.9652 37.0325 23.9651 37.033 23.9651C37.0332 23.9651 37.0334 23.9651 37.0334 23.9651C37.0334 23.9651 37.0334 23.9651 37.0334 23.9651C37.0333 23.9651 37.0332 23.9651 37 23.4662C36.9668 22.9673 36.9666 22.9673 36.9665 22.9673C36.9664 22.9673 36.9662 22.9673 36.966 22.9673C36.9657 22.9674 36.9652 22.9674 36.9647 22.9674C36.9636 22.9675 36.9621 22.9676 36.9602 22.9677C36.9565 22.968 36.9512 22.9684 36.9444 22.9689C36.9308 22.9699 36.9111 22.9714 36.8857 22.9735C36.8349 22.9777 36.7609 22.9842 36.666 22.9937C36.4761 23.0126 36.202 23.0433 35.8607 23.0909C35.1786 23.186 34.2258 23.3486 33.1388 23.6193C30.9741 24.1584 28.2348 25.1364 26.0497 26.8988L26.6775 27.6772ZM19 43C19.5 43 19.5 42.9998 19.5 42.9995C19.5 42.9994 19.5 42.9991 19.5 42.9988C19.5 42.9983 19.5 42.9976 19.5 42.9967C19.5 42.9951 19.5 42.9928 19.5 42.9899C19.4999 42.9842 19.4999 42.9761 19.4997 42.9658C19.4995 42.945 19.499 42.9151 19.498 42.8765C19.4961 42.7992 19.4924 42.6868 19.485 42.5427C19.4701 42.2546 19.4405 41.8393 19.3817 41.3236C19.2642 40.2927 19.0294 38.8573 18.5599 37.2324C17.622 33.9866 15.7382 29.9541 11.9503 26.8988L11.3225 27.6772C14.8981 30.5612 16.6961 34.3847 17.5992 37.51C18.0502 39.0708 18.2756 40.4497 18.3882 41.4369C18.4444 41.9301 18.4724 42.3247 18.4863 42.5942C18.4932 42.729 18.4967 42.8324 18.4984 42.9011C18.4992 42.9355 18.4996 42.9612 18.4998 42.9778C18.4999 42.9861 18.5 42.9921 18.5 42.9959C18.5 42.9977 18.5 42.999 18.5 42.9997C18.5 43 18.5 43.0002 18.5 43.0003C18.5 43.0003 18.5 43.0002 18.5 43.0003C18.5 43.0001 18.5 43 19 43ZM11.9503 26.8988C9.76522 25.1364 7.02585 24.1584 4.86115 23.6193C3.77417 23.3486 2.82136 23.186 2.13925 23.0909C1.79799 23.0433 1.52392 23.0126 1.33403 22.9937C1.23907 22.9842 1.16511 22.9777 1.11428 22.9735C1.08886 22.9714 1.06922 22.9699 1.05563 22.9689C1.04883 22.9684 1.04354 22.968 1.03979 22.9677C1.03792 22.9676 1.03644 22.9675 1.03534 22.9674C1.03479 22.9674 1.03434 22.9674 1.03398 22.9673C1.03381 22.9673 1.03362 22.9673 1.03353 22.9673C1.03336 22.9673 1.03322 22.9673 0.999999 23.4662C0.966777 23.9651 0.966681 23.9651 0.966613 23.9651C0.966624 23.9651 0.966578 23.9651 0.966597 23.9651C0.966636 23.9651 0.966773 23.9651 0.967006 23.9651C0.967467 23.9651 0.968318 23.9652 0.969554 23.9653C0.972018 23.9654 0.976016 23.9657 0.981509 23.9661C0.992495 23.967 1.00947 23.9683 1.03216 23.9701C1.07756 23.9739 1.14583 23.9799 1.23487 23.9887C1.41299 24.0065 1.67404 24.0357 2.00121 24.0813C2.65597 24.1726 3.57333 24.3291 4.61949 24.5896C6.72106 25.113 9.29988 26.0459 11.3225 27.6772L11.9503 26.8988Z" fill="black"/>
</svg>
