<svg width="2571" height="117" viewBox="0 0 2571 117" fill="none" xmlns="http://www.w3.org/2000/svg">
<path d="M44.661 86.6H78.541V85.34H77.001C69.721 85.34 68.741 84.78 68.741 78.06V17.16C68.741 10.44 69.721 9.88 77.001 9.88H80.081V8.33999H46.201V9.59999H48.581C56.001 9.59999 56.701 10.16 56.701 16.88V78.06C56.701 84.78 56.001 85.34 48.581 85.34H44.661V86.6ZM0.841016 109H82.601C84.981 109 85.681 108.72 86.801 107.74H86.941L86.241 116L87.781 116.14L90.861 76.38H87.781L86.521 90.38C85.401 103.82 75.461 106.48 60.761 106.48H22.961V106.34C24.781 104.66 26.321 102.14 26.321 99.06V16.88C26.321 10.16 27.301 9.59999 34.721 9.59999H36.961V8.33999H0.841016V9.59999H6.16102C13.581 9.59999 14.421 10.16 14.421 16.88V99.34C14.421 106.06 13.581 107.74 6.16102 107.74H0.841016V109ZM98.6234 109H150.143V107.74H138.663C131.243 107.74 130.543 107.04 130.543 100.32V10.86H139.503C154.203 10.86 159.103 13.52 160.223 26.96L160.643 32.7L163.443 32.56L161.203 0.219999L159.523 0.359997L160.223 8.33999H88.5434L89.2434 0.219999L87.5634 0.0799921L85.1834 32.56L87.9834 32.7L88.5434 26.96C89.2434 13.52 94.4234 10.86 109.263 10.86H118.503V100.32C118.503 107.04 117.803 107.74 110.383 107.74H98.6234V109ZM218.295 80.16V35.22H216.895V40.12C216.895 53.56 208.915 54.96 200.235 54.96H194.075V18.28C194.075 15.2 192.535 12.68 190.715 11V10.86H212.415C227.255 10.86 235.235 16.04 236.215 31.16L236.775 40.96H239.575L236.775 3.02L235.375 3.15999L235.935 9.59999H235.655C234.675 8.62 232.435 8.33999 230.055 8.33999H168.595V9.59999H173.915C181.335 9.59999 182.175 10.3 182.175 17.02V100.32C182.175 107.04 181.335 107.74 173.915 107.74H168.595V109H238.315C240.835 109 242.935 108.72 244.055 107.74H244.195L243.775 114.18L245.035 114.32L247.695 76.38H245.315L244.335 87.58C243.215 101.02 236.215 106.48 221.375 106.48H190.715V106.34C192.535 104.66 194.075 102.14 194.075 99.06V57.48H200.235C208.915 57.48 216.895 59.02 216.895 72.46V80.16H218.295ZM318.174 70.5V66.72H253.634V70.5H318.174ZM365.497 111.1C386.497 111.1 402.317 100.32 402.317 81.42C402.317 62.38 386.077 57.48 377.817 55.1L358.077 49.36C350.237 47.12 340.157 43.62 340.157 33.4C340.157 23.32 350.097 15.9 363.677 16.04C377.677 16.04 388.877 24.44 390.977 37.46L401.757 35.64C398.397 17.44 383.837 6.24 363.817 6.1C343.937 6.1 329.237 16.74 329.237 33.82C329.237 47.26 338.477 54.4 350.797 58.04L376.277 65.6C383.277 67.7 391.817 71.48 391.817 81.98C391.817 93.74 380.757 101.3 365.917 101.3C350.937 101.3 339.317 93.46 335.957 80.3L325.317 81.98C328.817 99.9 344.357 111.1 365.497 111.1ZM422.647 109H474.167V107.74H462.687C455.267 107.74 454.567 107.04 454.567 100.32V10.86H463.527C478.227 10.86 483.127 13.52 484.247 26.96L484.667 32.7L487.467 32.56L485.227 0.219999L483.547 0.359997L484.247 8.33999H412.567L413.267 0.219999L411.587 0.0799921L409.207 32.56L412.007 32.7L412.567 26.96C413.267 13.52 418.447 10.86 433.287 10.86H442.527V100.32C442.527 107.04 441.827 107.74 434.407 107.74H422.647V109ZM480.141 109H508.141V107.74H500.581C495.961 107.74 493.161 105.5 493.161 102.28C493.161 101.3 493.581 100.18 494.001 99.06L502.261 81.7H563.301L571.841 100.88C572.961 103.26 574.501 106.76 576.601 107.46V107.74H564.841V109H594.241V107.74H592.981C587.521 107.74 586.961 105.78 583.881 99.06L547.621 18.14C546.781 16.46 546.221 12.82 546.221 10.02V8.33999H534.321L491.061 99.06C488.681 103.82 486.441 107.74 482.521 107.74H480.141V109ZM503.521 79.18L531.521 20.8C532.921 17.86 533.341 16.04 533.341 15.2H534.741C534.741 16.74 534.881 18.56 536.001 20.8L562.181 79.18H503.521ZM625.739 109V107.74H621.679C614.259 107.74 613.419 107.04 613.419 100.32V24.72C613.419 22.34 613.419 20.24 613.139 18.7H613.979C613.979 19.26 615.519 21.5 617.059 24.16L664.799 102.98C666.759 106.34 669.139 109.84 669.139 111.66H670.259V18.42C670.259 11.7 672.779 9.59999 680.199 9.59999H682.579V8.33999H650.939V9.59999H657.799C665.219 9.59999 667.739 11.7 667.739 18.42V78.2C667.739 80.58 667.739 82.54 667.879 84.08H666.899C666.899 83.52 665.919 81.56 664.239 78.9L621.959 8.33999H598.439V9.59999H602.359C609.779 9.59999 610.759 10.3 610.759 17.02V100.32C610.759 107.04 609.779 107.74 602.359 107.74H598.439V109H625.739ZM694.989 109H725.509C727.609 109 733.769 109 738.529 108.3C761.489 105.22 773.109 84.36 773.109 58.6C773.109 32.84 761.489 11.98 738.529 8.9C733.769 8.2 727.609 8.2 725.509 8.2H694.989V109ZM705.629 99.06V18.14H725.509C729.149 18.14 734.329 18.28 737.549 18.84C755.049 21.92 762.189 38.3 762.189 58.6C762.189 78.76 755.189 95.14 737.549 98.36C734.329 98.92 729.429 99.06 725.509 99.06H705.629ZM780.375 109H808.375V107.74H800.815C796.195 107.74 793.395 105.5 793.395 102.28C793.395 101.3 793.815 100.18 794.235 99.06L802.495 81.7H863.535L872.075 100.88C873.195 103.26 874.735 106.76 876.835 107.46V107.74H865.075V109H894.475V107.74H893.215C887.755 107.74 887.195 105.78 884.115 99.06L847.855 18.14C847.015 16.46 846.455 12.82 846.455 10.02V8.33999H834.555L791.295 99.06C788.915 103.82 786.675 107.74 782.755 107.74H780.375V109ZM803.755 79.18L831.755 20.8C833.155 17.86 833.575 16.04 833.575 15.2H834.975C834.975 16.74 835.115 18.56 836.235 20.8L862.415 79.18H803.755ZM898.673 109H941.513V107.74H932.553C925.133 107.74 924.153 107.04 924.153 100.32V18.28C924.153 15.06 923.453 12.68 921.633 11V10.86H937.593C956.353 10.86 966.433 20.8 966.433 39.42C966.433 58.04 956.353 68.12 937.593 68.12H930.593V70.5H932.413C939.273 70.5 942.493 74.14 947.673 81.28L958.453 96.4C963.213 103.26 968.533 110.54 976.373 110.54C980.153 110.54 984.213 109 989.253 105.22L992.613 102.56L991.773 101.58L988.413 104.24C986.873 105.36 985.333 105.92 983.933 105.92C977.913 105.92 972.733 97.24 968.673 91.5L960.973 80.44C957.613 75.54 951.173 71.48 943.893 70.78V69.94L946.973 69.8C965.453 68.26 979.593 56.64 979.593 39.56C979.593 20.94 963.353 8.47999 938.713 8.47999H898.533V9.73999H903.853C911.273 9.73999 912.113 10.44 912.113 17.16V100.46C912.113 107.18 911.273 107.88 903.853 107.88H898.533L898.673 109ZM1016.52 106.48V106.34C1018.34 104.66 1019.04 102.98 1019.04 99.76V17.58C1019.04 14.36 1018.34 12.68 1016.52 11V10.86H1032.76C1066.08 10.86 1083.86 27.52 1083.86 58.6C1083.86 89.68 1066.08 106.48 1032.76 106.48H1016.52ZM993.556 109H1036.96C1073.08 109 1097.16 88.84 1097.16 58.6C1097.16 28.5 1073.08 8.33999 1036.96 8.33999H993.556V9.59999H998.876C1006.3 9.59999 1007.14 11.56 1007.14 18.28V100.32C1007.14 107.04 1006.3 107.74 998.876 107.74H993.556V109ZM1169.38 70.5V66.72H1104.84V70.5H1169.38ZM1177.23 58.32C1177.23 89.4 1198.93 110.12 1231.27 110.12C1247.37 110.12 1262.35 103.4 1268.37 89.4L1265.71 88.42C1260.25 100.18 1245.97 107.46 1231.41 107.46C1205.09 107.46 1190.81 89.4 1190.81 55.94C1190.81 25.7 1204.39 9.46 1229.73 9.46C1244.85 9.46 1259.83 19.26 1260.67 31.86L1261.09 44.88L1263.89 44.74L1262.49 4.28H1261.09L1261.37 14.5C1261.37 15.9 1261.51 17.44 1261.79 18.56L1260.81 18.84C1260.39 17.86 1259.83 16.74 1259.13 16.04C1251.15 10.02 1241.21 7.07999 1230.85 7.07999C1198.65 7.07999 1177.09 27.52 1177.09 58.18L1177.23 58.32ZM1364.8 20.8L1387.34 70.92H1341.42L1340.44 73.3H1342.4C1350.24 73.86 1354.86 78.34 1354.86 85.06V86.74L1354.3 90.52C1352.76 103.96 1343.24 106.62 1328.54 106.62H1297.18V106.48C1299 104.8 1300.54 102.28 1300.54 99.2V17.02C1300.54 10.3 1301.52 9.73999 1308.94 9.73999H1314.26V8.47999H1275.06V9.73999H1280.38C1287.8 9.73999 1288.64 10.3 1288.64 17.02V99.48C1288.64 106.2 1287.8 107.88 1280.38 107.88H1275.06V109.14H1350.38C1352.76 109.14 1353.46 108.86 1354.44 107.88H1354.58L1354.02 116.14L1355.56 116.28L1358.08 89.12V87.86C1358.08 81.84 1354.3 75.54 1348.28 73.3H1388.32L1400.64 100.88C1401.76 103.26 1403.3 106.76 1405.54 107.46V107.74H1393.64V109H1423.04V107.74H1421.78C1416.18 107.74 1415.76 105.78 1412.68 99.06L1376.42 18.14C1375.58 16.46 1375.02 12.82 1375.02 10.02V8.33999H1363.12L1319.86 99.06H1322.8L1360.32 20.8C1361.72 17.86 1362.14 16.04 1362.14 15.2H1363.54C1363.54 16.74 1363.68 18.56 1364.8 20.8ZM1469.23 111.1C1490.23 111.1 1506.05 100.32 1506.05 81.42C1506.05 62.38 1489.81 57.48 1481.55 55.1L1461.81 49.36C1453.97 47.12 1443.89 43.62 1443.89 33.4C1443.89 23.32 1453.83 15.9 1467.41 16.04C1481.41 16.04 1492.61 24.44 1494.71 37.46L1505.49 35.64C1502.13 17.44 1487.57 6.24 1467.55 6.1C1447.67 6.1 1432.97 16.74 1432.97 33.82C1432.97 47.26 1442.21 54.4 1454.53 58.04L1480.01 65.6C1487.01 67.7 1495.55 71.48 1495.55 81.98C1495.55 93.74 1484.49 101.3 1469.65 101.3C1454.67 101.3 1443.05 93.46 1439.69 80.3L1429.05 81.98C1432.55 99.9 1448.09 111.1 1469.23 111.1ZM1557.55 111.1C1578.55 111.1 1594.37 100.32 1594.37 81.42C1594.37 62.38 1578.13 57.48 1569.87 55.1L1550.13 49.36C1542.29 47.12 1532.21 43.62 1532.21 33.4C1532.21 23.32 1542.15 15.9 1555.73 16.04C1569.73 16.04 1580.93 24.44 1583.03 37.46L1593.81 35.64C1590.45 17.44 1575.89 6.24 1555.87 6.1C1535.99 6.1 1521.29 16.74 1521.29 33.82C1521.29 47.26 1530.53 54.4 1542.85 58.04L1568.33 65.6C1575.33 67.7 1583.87 71.48 1583.87 81.98C1583.87 93.74 1572.81 101.3 1557.97 101.3C1542.99 101.3 1531.37 93.46 1528.01 80.3L1517.37 81.98C1520.87 99.9 1536.41 111.1 1557.55 111.1ZM1601.82 109H1641.02V107.74H1635.7C1628.28 107.74 1627.3 107.18 1627.3 100.46V17.16C1627.3 10.44 1628.28 9.88 1635.7 9.88H1641.02V8.33999H1601.82V9.59999H1607.14C1614.56 9.59999 1615.4 10.16 1615.4 16.88V100.46C1615.4 107.18 1614.56 107.74 1607.14 107.74H1601.82V109ZM1649.04 58.32C1649.04 89.4 1670.74 110.12 1703.08 110.12C1719.18 110.12 1734.16 103.4 1740.18 89.4L1737.52 88.42C1732.06 100.18 1717.78 107.46 1703.22 107.46C1676.9 107.46 1662.62 89.4 1662.62 55.94C1662.62 25.7 1676.2 9.46 1701.54 9.46C1716.66 9.46 1731.64 19.26 1732.48 31.86L1732.9 44.88L1735.7 44.74L1734.3 4.28H1732.9L1733.18 14.5C1733.18 15.9 1733.32 17.44 1733.6 18.56L1732.62 18.84C1732.2 17.86 1731.64 16.74 1730.94 16.04C1722.96 10.02 1713.02 7.07999 1702.66 7.07999C1670.46 7.07999 1648.9 27.52 1648.9 58.18L1649.04 58.32ZM1811.42 70.5V66.72H1746.88V70.5H1811.42ZM1823.74 109H1886.74V99.2H1833.96V62.8H1878.34V53H1833.96V18H1886.74V8.2H1823.74V109ZM1896.58 109H1924.16V107.88H1918.84C1913.8 107.88 1911.7 107.04 1911.7 104.8C1911.7 103.12 1912.82 100.6 1914.92 96.96L1934.24 62.38L1952.3 97.52C1954.12 100.46 1955.24 102.7 1955.24 104.38C1955.24 106.76 1952.86 107.88 1947.12 107.88H1943.9V109.14H1979.6V107.88H1976.94C1972.04 107.88 1970.78 105.22 1965.74 96.96L1943.48 53.7L1963.08 20.66C1968.4 11.7 1970.5 9.73999 1975.12 9.73999H1976.94V8.47999H1951.18V9.73999H1956.64C1961.54 9.73999 1963.5 10.58 1963.5 12.68C1963.5 14.36 1962.38 16.88 1960.14 20.38L1941.94 50.9L1925 17.86C1923.18 14.36 1919.4 10.86 1917.16 10.16V9.88H1925.56V8.62H1899.1V9.88H1900.92C1905.12 9.88 1908.2 11.84 1912.82 20.8L1932.84 59.72L1911.84 97.1C1906.66 106.06 1904.28 108.16 1897.98 108.16H1896.58V109ZM1983.6 58.32C1983.6 89.4 2005.3 110.12 2037.64 110.12C2053.74 110.12 2068.72 103.4 2074.74 89.4L2072.08 88.42C2066.62 100.18 2052.34 107.46 2037.78 107.46C2011.46 107.46 1997.18 89.4 1997.18 55.94C1997.18 25.7 2010.76 9.46 2036.1 9.46C2051.22 9.46 2066.2 19.26 2067.04 31.86L2067.46 44.88L2070.26 44.74L2068.86 4.28H2067.46L2067.74 14.5C2067.74 15.9 2067.88 17.44 2068.16 18.56L2067.18 18.84C2066.76 17.86 2066.2 16.74 2065.5 16.04C2057.52 10.02 2047.58 7.07999 2037.22 7.07999C2005.02 7.07999 1983.46 27.52 1983.46 58.18L1983.6 58.32ZM2081.43 109H2146.25C2148.77 109 2149.33 108.72 2150.45 107.74H2150.59L2149.89 116L2151.43 116.14L2154.51 76.38H2151.43L2150.31 90.38C2149.05 103.82 2139.11 106.48 2124.41 106.48H2103.55V106.34C2105.37 104.66 2106.91 102.14 2106.91 99.06V16.88C2106.91 10.16 2107.89 9.59999 2115.31 9.59999H2120.63V8.33999H2081.43V9.59999H2086.75C2094.17 9.59999 2095.01 10.16 2095.01 16.88V99.34C2095.01 106.06 2094.17 107.74 2086.75 107.74H2081.43V109ZM2156.9 8.33999V9.59999H2160.82C2168.24 9.59999 2169.22 10.3 2169.22 17.02V86.04C2169.22 100.46 2181.54 110.12 2199.88 110.12C2218.22 110.12 2228.02 101.72 2228.02 86.04V19.54C2228.02 12.82 2229.42 9.59999 2236.84 9.59999H2240.76V8.33999H2210.8V9.59999H2216.54C2223.82 9.59999 2225.22 12.82 2225.22 19.54V86.04C2225.22 100.04 2216.26 107.6 2199.88 107.6C2187.7 107.6 2181.26 101.86 2181.26 91.08V17.02C2181.26 10.3 2181.96 9.59999 2189.38 9.59999H2196.1V8.33999H2156.9ZM2288.17 111.1C2309.17 111.1 2324.99 100.32 2324.99 81.42C2324.99 62.38 2308.75 57.48 2300.49 55.1L2280.75 49.36C2272.91 47.12 2262.83 43.62 2262.83 33.4C2262.83 23.32 2272.77 15.9 2286.35 16.04C2300.35 16.04 2311.55 24.44 2313.65 37.46L2324.43 35.64C2321.07 17.44 2306.51 6.24 2286.49 6.1C2266.61 6.1 2251.91 16.74 2251.91 33.82C2251.91 47.26 2261.15 54.4 2273.47 58.04L2298.95 65.6C2305.95 67.7 2314.49 71.48 2314.49 81.98C2314.49 93.74 2303.43 101.3 2288.59 101.3C2273.61 101.3 2261.99 93.46 2258.63 80.3L2247.99 81.98C2251.49 99.9 2267.03 111.1 2288.17 111.1ZM2332.44 109H2371.64V107.74H2366.32C2358.9 107.74 2357.92 107.18 2357.92 100.46V17.16C2357.92 10.44 2358.9 9.88 2366.32 9.88H2371.64V8.33999H2332.44V9.59999H2337.76C2345.18 9.59999 2346.02 10.16 2346.02 16.88V100.46C2346.02 107.18 2345.18 107.74 2337.76 107.74H2332.44V109ZM2375.75 8.33999V9.59999H2377.99C2383.59 9.59999 2384.29 11.98 2387.09 18.28L2427.97 110.26L2436.23 109.7L2476.97 18.28C2479.63 12.12 2480.33 9.59999 2485.79 9.59999H2487.75V8.33999H2454.15V9.59999H2467.31C2472.63 9.59999 2474.73 11.56 2474.73 14.5C2474.73 15.62 2474.45 16.88 2473.89 18.28L2439.31 93.74C2437.91 96.68 2437.77 98.64 2437.77 99.34H2435.81C2435.81 97.38 2434.69 94.72 2434.55 94.3L2399.13 16.32C2398.15 13.94 2396.47 10.58 2394.37 9.88V9.59999H2406.27V8.33999H2375.75ZM2541.42 80.16V35.22H2540.02V40.12C2540.02 53.56 2532.04 54.96 2523.36 54.96H2517.2V18.28C2517.2 15.2 2515.66 12.68 2513.84 11V10.86H2535.54C2550.38 10.86 2558.36 16.04 2559.34 31.16L2559.9 40.96H2562.7L2559.9 3.02L2558.5 3.15999L2559.06 9.59999H2558.78C2557.8 8.62 2555.56 8.33999 2553.18 8.33999H2491.72V9.59999H2497.04C2504.46 9.59999 2505.3 10.3 2505.3 17.02V100.32C2505.3 107.04 2504.46 107.74 2497.04 107.74H2491.72V109H2561.44C2563.96 109 2566.06 108.72 2567.18 107.74H2567.32L2566.9 114.18L2568.16 114.32L2570.82 76.38H2568.44L2567.46 87.58C2566.34 101.02 2559.34 106.48 2544.5 106.48H2513.84V106.34C2515.66 104.66 2517.2 102.14 2517.2 99.06V57.48H2523.36C2532.04 57.48 2540.02 59.02 2540.02 72.46V80.16H2541.42Z" fill="black"/>
</svg>
