<svg width="4460" height="115" viewBox="0 0 4460 115" fill="none" xmlns="http://www.w3.org/2000/svg">
<path d="M23.1429 11.0001H34.3429C53.8029 11.0001 64.1629 20.8001 64.1629 39.1401C64.1629 57.4801 53.8029 67.2801 34.3429 67.2801H25.6629V20.3801C25.6629 17.1601 24.9629 13.9401 23.1429 11.7001V11.0001ZM0.182861 109H37.8429V107.74H34.0629C26.6429 107.74 25.6629 107.04 25.6629 100.32V69.8001H38.9629C62.2029 69.8001 77.6029 57.4801 77.6029 39.1401C77.6029 20.6601 62.2029 8.34008 38.9629 8.34008H0.182861L0.182861 9.60008H5.50286C12.9229 9.60008 13.7629 10.3001 13.7629 17.0201L13.7629 100.32C13.7629 107.04 12.9229 107.74 5.50286 107.74H0.182861V109Z" fill="black"/>
<path d="M134.102 80.1601V35.2201H132.702V40.1201C132.702 53.5601 124.722 54.9601 116.042 54.9601H109.882V18.2801C109.882 15.2001 108.342 12.6801 106.522 11.0001V10.8601H128.222C143.062 10.8601 151.042 16.0401 152.022 31.1601L152.582 40.9601H155.382L152.582 3.02008L151.182 3.16008L151.742 9.60008H151.462C150.482 8.62008 148.242 8.34008 145.862 8.34008H84.4016V9.60008H89.7216C97.1416 9.60008 97.9816 10.3001 97.9816 17.0201V100.32C97.9816 107.04 97.1416 107.74 89.7216 107.74H84.4016V109H154.122C156.642 109 158.742 108.72 159.862 107.74H160.002L159.582 114.18L160.842 114.32L163.502 76.3801H161.122L160.142 87.5801C159.022 101.02 152.022 106.48 137.182 106.48H106.522V106.34C108.342 104.66 109.882 102.14 109.882 99.0601V57.4801H116.042C124.722 57.4801 132.702 59.0201 132.702 72.4601V80.1601H134.102Z" fill="black"/>
<path d="M171.961 58.3201C171.961 89.4001 193.661 110.12 226.001 110.12C242.101 110.12 257.081 103.4 263.101 89.4001L260.441 88.4201C254.981 100.18 240.701 107.46 226.141 107.46C199.821 107.46 185.541 89.4001 185.541 55.9401C185.541 25.7001 199.121 9.46008 224.461 9.46008C239.581 9.46008 254.561 19.2601 255.401 31.8601L255.821 44.8801L258.621 44.7401L257.221 4.28008H255.821L256.101 14.5001C256.101 15.9001 256.241 17.4401 256.521 18.5601L255.541 18.8401C255.121 17.8601 254.561 16.7401 253.861 16.0401C245.881 10.0201 235.941 7.08008 225.581 7.08008C193.381 7.08008 171.821 27.5201 171.821 58.1801L171.961 58.3201Z" fill="black"/>
<path d="M281.168 109H332.688V107.74H321.208C313.788 107.74 313.088 107.04 313.088 100.32V10.8601L322.048 10.8601C336.748 10.8601 341.648 13.5201 342.768 26.9601L343.188 32.7001L345.988 32.5601L343.748 0.220085L342.068 0.360083L342.768 8.34008L271.088 8.34008L271.788 0.220085L270.108 0.0800781L267.728 32.5601L270.528 32.7001L271.088 26.9601C271.788 13.5201 276.968 10.8601 291.808 10.8601H301.048V100.32C301.048 107.04 300.348 107.74 292.928 107.74H281.168V109Z" fill="black"/>
<path d="M409.126 110.12C443.146 110.12 465.966 89.5401 465.966 58.6001C465.966 27.8001 443.146 7.22008 409.126 7.22008C374.826 7.22008 352.006 27.8001 352.006 58.6001C352.006 89.5401 374.826 110.12 409.126 110.12ZM409.686 107.6C380.846 107.6 365.446 89.5401 365.446 56.0801C365.446 25.9801 380.566 9.74008 408.566 9.74008C437.126 9.74008 452.526 27.8001 452.526 61.2601C452.526 91.3601 437.546 107.6 409.686 107.6Z" fill="black"/>
<path d="M496.463 11.0001H507.663C527.123 11.0001 537.483 20.8001 537.483 39.1401C537.483 57.4801 527.123 67.2801 507.663 67.2801H498.983V20.3801C498.983 17.1601 498.283 13.9401 496.463 11.7001V11.0001ZM473.503 109H511.163V107.74H507.383C499.963 107.74 498.983 107.04 498.983 100.32V69.8001L512.283 69.8001C535.523 69.8001 550.923 57.4801 550.923 39.1401C550.923 20.6601 535.523 8.34008 512.283 8.34008H473.503V9.60008H478.823C486.243 9.60008 487.083 10.3001 487.083 17.0201V100.32C487.083 107.04 486.243 107.74 478.823 107.74H473.503V109Z" fill="black"/>
<path d="M542.1 109H570.1V107.74H562.54C557.92 107.74 555.12 105.5 555.12 102.28C555.12 101.3 555.54 100.18 555.96 99.0601L564.22 81.7001H625.26L633.8 100.88C634.92 103.26 636.46 106.76 638.56 107.46V107.74H626.8V109H656.2V107.74H654.94C649.48 107.74 648.92 105.78 645.84 99.0601L609.58 18.1401C608.74 16.4601 608.18 12.8201 608.18 10.0201V8.34008H596.28L553.02 99.0601C550.64 103.82 548.4 107.74 544.48 107.74H542.1V109ZM565.48 79.1801L593.48 20.8001C594.88 17.8601 595.3 16.0401 595.3 15.2001H596.7C596.7 16.7401 596.84 18.5601 597.96 20.8001L624.14 79.1801H565.48Z" fill="black"/>
<path d="M660.398 109H698.198V107.74H694.278C686.858 107.74 685.878 105.78 685.878 99.0601V57.3401H728.158V99.0601C728.158 105.78 727.318 107.74 720.038 107.74H715.838V109H753.778V107.74H748.318C740.898 107.74 740.198 105.78 740.198 99.0601V18.2801C740.198 11.5601 740.898 9.60008 748.318 9.60008H753.778V8.34008H715.838V9.60008H719.758C727.178 9.60008 728.158 11.5601 728.158 18.2801V54.8201H685.878V18.2801C685.878 11.5601 686.858 9.60008 694.278 9.60008H698.198V8.34008H660.398V9.60008H665.718C673.138 9.60008 673.978 11.5601 673.978 18.2801V99.0601C673.978 105.78 673.138 107.74 665.718 107.74H660.398V109Z" fill="black"/>
<path d="M837.645 109H876.845V107.74H871.525C864.105 107.74 863.125 107.18 863.125 100.46V17.1601C863.125 10.4401 864.105 9.88009 871.525 9.88009H876.845V8.34008H837.645V9.60008H842.965C850.385 9.60008 851.085 10.1601 851.085 16.8801V100.46C851.085 107.18 850.385 107.74 842.965 107.74H837.645V109ZM759.245 109H796.485C820.005 109 835.685 98.6401 835.685 83.1001C835.685 67.5601 820.005 57.2001 796.485 57.2001H784.725V17.1601C784.725 10.4401 785.705 9.60008 793.125 9.60008H798.445V8.34008H759.245V9.60008H764.565C771.985 9.60008 772.825 10.1601 772.825 16.8801V100.18C772.825 106.9 771.985 107.6 764.565 107.6H759.245V109ZM784.725 59.5801H793.545C812.305 59.5801 822.385 67.8401 822.385 83.1001C822.385 98.3601 812.305 106.48 793.545 106.48H782.205V106.2C784.025 104.52 784.725 102.28 784.725 99.0601V59.5801Z" fill="black"/>
<path d="M930.308 109H940.668V26.2601L996.108 109H1006.47V8.20008H996.108V90.8001L940.668 8.20008H930.308V109Z" fill="black"/>
<path d="M1078.09 110.12C1112.11 110.12 1134.93 89.5401 1134.93 58.6001C1134.93 27.8001 1112.11 7.22008 1078.09 7.22008C1043.79 7.22008 1020.97 27.8001 1020.97 58.6001C1020.97 89.5401 1043.79 110.12 1078.09 110.12ZM1078.65 107.6C1049.81 107.6 1034.41 89.5401 1034.41 56.0801C1034.41 25.9801 1049.53 9.74008 1077.53 9.74008C1106.09 9.74008 1121.49 27.8001 1121.49 61.2601C1121.49 91.3601 1106.51 107.6 1078.65 107.6Z" fill="black"/>
<path d="M1175.09 109H1188.81L1223.53 8.20008L1212.75 8.20008L1181.81 97.3801L1151.15 8.20008H1140.37L1175.09 109Z" fill="black"/>
<path d="M1235.36 109H1245.58V8.20008H1235.36V109Z" fill="black"/>
<path d="M1266.64 109H1276.86V58.6001L1326.56 109H1340L1289.04 56.9201L1336.08 8.20008H1322.92L1276.86 55.8001V8.20008H1266.64V109Z" fill="black"/>
<path d="M1401.84 110.12C1435.86 110.12 1458.68 89.5401 1458.68 58.6001C1458.68 27.8001 1435.86 7.22008 1401.84 7.22008C1367.54 7.22008 1344.72 27.8001 1344.72 58.6001C1344.72 89.5401 1367.54 110.12 1401.84 110.12ZM1402.4 107.6C1373.56 107.6 1358.16 89.5401 1358.16 56.0801C1358.16 25.9801 1373.28 9.74008 1401.28 9.74008C1429.84 9.74008 1445.24 27.8001 1445.24 61.2601C1445.24 91.3601 1430.26 107.6 1402.4 107.6Z" fill="black"/>
<path d="M1498.84 109H1512.56L1547.28 8.20008H1536.5L1505.56 97.3801L1474.9 8.20008L1464.12 8.20008L1498.84 109Z" fill="black"/>
<path d="M1687.21 114.6V64.7601H1700.23V62.2401H1642.83V64.7601H1660.75C1669.29 64.7601 1675.03 69.9401 1675.03 77.7801V96.1201C1668.73 103.82 1658.51 107.46 1648.43 107.6C1621.69 107.6 1607.41 89.5401 1607.41 56.0801C1607.41 25.8401 1620.71 9.74008 1645.35 9.74008C1661.03 9.74008 1675.73 19.2601 1676.85 35.6401L1677.41 44.8801L1680.07 44.7401L1677.69 1.62008L1676.15 1.76008L1676.85 15.3401C1676.85 16.6001 1676.99 17.4401 1677.27 18.5601L1676.71 18.7001C1676.43 17.7201 1675.73 16.7401 1675.03 16.0401C1667.33 10.1601 1657.25 7.22008 1646.89 7.22008C1615.11 7.22008 1593.97 27.6601 1593.97 58.3201C1593.97 89.4001 1615.53 110.12 1647.73 110.12C1658.23 110.12 1668.17 106.62 1675.17 99.9001C1676.71 98.5001 1678.25 97.9401 1679.65 97.9401C1683.01 97.9401 1685.67 101.3 1685.81 104.8V114.6H1687.21Z" fill="black"/>
<path d="M1703.56 109H1746.4V107.74H1737.44C1730.02 107.74 1729.04 107.04 1729.04 100.32V18.2801C1729.04 15.0601 1728.34 12.6801 1726.52 11.0001V10.8601L1742.48 10.8601C1761.24 10.8601 1771.32 20.8001 1771.32 39.4201C1771.32 58.0401 1761.24 68.1201 1742.48 68.1201H1735.48V70.5001H1737.3C1744.16 70.5001 1747.38 74.1401 1752.56 81.2801L1763.34 96.4001C1768.1 103.26 1773.42 110.54 1781.26 110.54C1785.04 110.54 1789.1 109 1794.14 105.22L1797.5 102.56L1796.66 101.58L1793.3 104.24C1791.76 105.36 1790.22 105.92 1788.82 105.92C1782.8 105.92 1777.62 97.2401 1773.56 91.5001L1765.86 80.4401C1762.5 75.5401 1756.06 71.4801 1748.78 70.7801V69.9401L1751.86 69.8001C1770.34 68.2601 1784.48 56.6401 1784.48 39.5601C1784.48 20.9401 1768.24 8.48008 1743.6 8.48008L1703.42 8.48008V9.74008H1708.74C1716.16 9.74008 1717 10.4401 1717 17.1601V100.46C1717 107.18 1716.16 107.88 1708.74 107.88H1703.42L1703.56 109Z" fill="black"/>
<path d="M1857.52 110.12C1891.54 110.12 1914.36 89.5401 1914.36 58.6001C1914.36 27.8001 1891.54 7.22008 1857.52 7.22008C1823.22 7.22008 1800.4 27.8001 1800.4 58.6001C1800.4 89.5401 1823.22 110.12 1857.52 110.12ZM1858.08 107.6C1829.24 107.6 1813.84 89.5401 1813.84 56.0801C1813.84 25.9801 1828.96 9.74008 1856.96 9.74008C1885.52 9.74008 1900.92 27.8001 1900.92 61.2601C1900.92 91.3601 1885.94 107.6 1858.08 107.6Z" fill="black"/>
<path d="M1919.44 8.34008V9.60008H1923.36C1930.78 9.60008 1931.76 10.3001 1931.76 17.0201V86.0401C1931.76 100.46 1944.08 110.12 1962.42 110.12C1980.76 110.12 1990.56 101.72 1990.56 86.0401V19.5401C1990.56 12.8201 1991.96 9.60008 1999.38 9.60008H2003.3V8.34008L1973.34 8.34008V9.60008H1979.08C1986.36 9.60008 1987.76 12.8201 1987.76 19.5401V86.0401C1987.76 100.04 1978.8 107.6 1962.42 107.6C1950.24 107.6 1943.8 101.86 1943.8 91.0801V17.0201C1943.8 10.3001 1944.5 9.60008 1951.92 9.60008H1958.64V8.34008H1919.44Z" fill="black"/>
<path d="M2031.68 11.0001H2042.88C2062.34 11.0001 2072.7 20.8001 2072.7 39.1401C2072.7 57.4801 2062.34 67.2801 2042.88 67.2801H2034.2V20.3801C2034.2 17.1601 2033.5 13.9401 2031.68 11.7001V11.0001ZM2008.72 109H2046.38V107.74H2042.6C2035.18 107.74 2034.2 107.04 2034.2 100.32V69.8001H2047.5C2070.74 69.8001 2086.14 57.4801 2086.14 39.1401C2086.14 20.6601 2070.74 8.34008 2047.5 8.34008H2008.72V9.60008H2014.04C2021.46 9.60008 2022.3 10.3001 2022.3 17.0201V100.32C2022.3 107.04 2021.46 107.74 2014.04 107.74H2008.72V109Z" fill="black"/>
<path d="M2227.34 70.5001V66.7201H2092.94V70.5001H2227.34Z" fill="black"/>
<path d="M2255.76 11.0001H2266.96C2286.42 11.0001 2296.78 20.8001 2296.78 39.1401C2296.78 57.4801 2286.42 67.2801 2266.96 67.2801H2258.28V20.3801C2258.28 17.1601 2257.58 13.9401 2255.76 11.7001V11.0001ZM2232.8 109H2270.46V107.74H2266.68C2259.26 107.74 2258.28 107.04 2258.28 100.32V69.8001H2271.58C2294.82 69.8001 2310.22 57.4801 2310.22 39.1401C2310.22 20.6601 2294.82 8.34008 2271.58 8.34008L2232.8 8.34008V9.60008H2238.12C2245.54 9.60008 2246.38 10.3001 2246.38 17.0201V100.32C2246.38 107.04 2245.54 107.74 2238.12 107.74H2232.8V109Z" fill="black"/>
<path d="M2366.72 80.1601V35.2201H2365.32V40.1201C2365.32 53.5601 2357.34 54.9601 2348.66 54.9601H2342.5V18.2801C2342.5 15.2001 2340.96 12.6801 2339.14 11.0001V10.8601H2360.84C2375.68 10.8601 2383.66 16.0401 2384.64 31.1601L2385.2 40.9601H2388L2385.2 3.02008L2383.8 3.16008L2384.36 9.60008H2384.08C2383.1 8.62008 2380.86 8.34008 2378.48 8.34008L2317.02 8.34008V9.60008H2322.34C2329.76 9.60008 2330.6 10.3001 2330.6 17.0201V100.32C2330.6 107.04 2329.76 107.74 2322.34 107.74H2317.02V109H2386.74C2389.26 109 2391.36 108.72 2392.48 107.74H2392.62L2392.2 114.18L2393.46 114.32L2396.12 76.3801H2393.74L2392.76 87.5801C2391.64 101.02 2384.64 106.48 2369.8 106.48H2339.14V106.34C2340.96 104.66 2342.5 102.14 2342.5 99.0601V57.4801H2348.66C2357.34 57.4801 2365.32 59.0201 2365.32 72.4601V80.1601H2366.72Z" fill="black"/>
<path d="M2404.58 58.3201C2404.58 89.4001 2426.28 110.12 2458.62 110.12C2474.72 110.12 2489.7 103.4 2495.72 89.4001L2493.06 88.4201C2487.6 100.18 2473.32 107.46 2458.76 107.46C2432.44 107.46 2418.16 89.4001 2418.16 55.9401C2418.16 25.7001 2431.74 9.46008 2457.08 9.46008C2472.2 9.46008 2487.18 19.2601 2488.02 31.8601L2488.44 44.8801L2491.24 44.7401L2489.84 4.28008H2488.44L2488.72 14.5001C2488.72 15.9001 2488.86 17.4401 2489.14 18.5601L2488.16 18.8401C2487.74 17.8601 2487.18 16.7401 2486.48 16.0401C2478.5 10.0201 2468.56 7.08008 2458.2 7.08008C2426 7.08008 2404.44 27.5201 2404.44 58.1801L2404.58 58.3201Z" fill="black"/>
<path d="M2513.79 109L2565.31 109V107.74L2553.83 107.74C2546.41 107.74 2545.71 107.04 2545.71 100.32V10.8601H2554.67C2569.37 10.8601 2574.27 13.5201 2575.39 26.9601L2575.81 32.7001L2578.61 32.5601L2576.37 0.220085L2574.69 0.360083L2575.39 8.34008H2503.71L2504.41 0.220085L2502.73 0.0800781L2500.35 32.5601L2503.15 32.7001L2503.71 26.9601C2504.41 13.5201 2509.59 10.8601 2524.43 10.8601H2533.67V100.32C2533.67 107.04 2532.97 107.74 2525.55 107.74H2513.79V109Z" fill="black"/>
<path d="M2641.74 110.12C2675.76 110.12 2698.58 89.5401 2698.58 58.6001C2698.58 27.8001 2675.76 7.22008 2641.74 7.22008C2607.44 7.22008 2584.62 27.8001 2584.62 58.6001C2584.62 89.5401 2607.44 110.12 2641.74 110.12ZM2642.3 107.6C2613.46 107.6 2598.06 89.5401 2598.06 56.0801C2598.06 25.9801 2613.18 9.74008 2641.18 9.74008C2669.74 9.74008 2685.14 27.8001 2685.14 61.2601C2685.14 91.3601 2670.16 107.6 2642.3 107.6Z" fill="black"/>
<path d="M2729.08 11.0001H2740.28C2759.74 11.0001 2770.1 20.8001 2770.1 39.1401C2770.1 57.4801 2759.74 67.2801 2740.28 67.2801H2731.6V20.3801C2731.6 17.1601 2730.9 13.9401 2729.08 11.7001V11.0001ZM2706.12 109H2743.78V107.74H2740C2732.58 107.74 2731.6 107.04 2731.6 100.32V69.8001H2744.9C2768.14 69.8001 2783.54 57.4801 2783.54 39.1401C2783.54 20.6601 2768.14 8.34008 2744.9 8.34008H2706.12V9.60008H2711.44C2718.86 9.60008 2719.7 10.3001 2719.7 17.0201V100.32C2719.7 107.04 2718.86 107.74 2711.44 107.74H2706.12V109Z" fill="black"/>
<path d="M2774.72 109H2802.72V107.74H2795.16C2790.54 107.74 2787.74 105.5 2787.74 102.28C2787.74 101.3 2788.16 100.18 2788.58 99.0601L2796.84 81.7001H2857.88L2866.42 100.88C2867.54 103.26 2869.08 106.76 2871.18 107.46V107.74H2859.42V109H2888.82V107.74H2887.56C2882.1 107.74 2881.54 105.78 2878.46 99.0601L2842.2 18.1401C2841.36 16.4601 2840.8 12.8201 2840.8 10.0201V8.34008H2828.9L2785.64 99.0601C2783.26 103.82 2781.02 107.74 2777.1 107.74H2774.72V109ZM2798.1 79.1801L2826.1 20.8001C2827.5 17.8601 2827.92 16.0401 2827.92 15.2001H2829.32C2829.32 16.7401 2829.46 18.5601 2830.58 20.8001L2856.76 79.1801H2798.1Z" fill="black"/>
<path d="M2893.01 109H2930.81V107.74H2926.89C2919.47 107.74 2918.49 105.78 2918.49 99.0601V57.3401H2960.77V99.0601C2960.77 105.78 2959.93 107.74 2952.65 107.74H2948.45V109H2986.39V107.74H2980.93C2973.51 107.74 2972.81 105.78 2972.81 99.0601V18.2801C2972.81 11.5601 2973.51 9.60008 2980.93 9.60008H2986.39V8.34008H2948.45V9.60008H2952.37C2959.79 9.60008 2960.77 11.5601 2960.77 18.2801V54.8201H2918.49V18.2801C2918.49 11.5601 2919.47 9.60008 2926.89 9.60008H2930.81V8.34008H2893.01V9.60008H2898.33C2905.75 9.60008 2906.59 11.5601 2906.59 18.2801V99.0601C2906.59 105.78 2905.75 107.74 2898.33 107.74H2893.01V109Z" fill="black"/>
<path d="M3070.26 109H3109.46V107.74H3104.14C3096.72 107.74 3095.74 107.18 3095.74 100.46V17.1601C3095.74 10.4401 3096.72 9.88009 3104.14 9.88009H3109.46V8.34008H3070.26V9.60008H3075.58C3083 9.60008 3083.7 10.1601 3083.7 16.8801V100.46C3083.7 107.18 3083 107.74 3075.58 107.74H3070.26V109ZM2991.86 109H3029.1C3052.62 109 3068.3 98.6401 3068.3 83.1001C3068.3 67.5601 3052.62 57.2001 3029.1 57.2001H3017.34V17.1601C3017.34 10.4401 3018.32 9.60008 3025.74 9.60008H3031.06V8.34008L2991.86 8.34008V9.60008H2997.18C3004.6 9.60008 3005.44 10.1601 3005.44 16.8801V100.18C3005.44 106.9 3004.6 107.6 2997.18 107.6H2991.86V109ZM3017.34 59.5801H3026.16C3044.92 59.5801 3055 67.8401 3055 83.1001C3055 98.3601 3044.92 106.48 3026.16 106.48H3014.82V106.2C3016.64 104.52 3017.34 102.28 3017.34 99.0601V59.5801Z" fill="black"/>
<path d="M3162.93 109H3173.28V26.2601L3228.73 109H3239.08V8.20008H3228.73V90.8001L3173.28 8.20008H3162.93V109Z" fill="black"/>
<path d="M3310.71 110.12C3344.73 110.12 3367.55 89.5401 3367.55 58.6001C3367.55 27.8001 3344.73 7.22008 3310.71 7.22008C3276.41 7.22008 3253.59 27.8001 3253.59 58.6001C3253.59 89.5401 3276.41 110.12 3310.71 110.12ZM3311.27 107.6C3282.43 107.6 3267.03 89.5401 3267.03 56.0801C3267.03 25.9801 3282.15 9.74008 3310.15 9.74008C3338.71 9.74008 3354.11 27.8001 3354.11 61.2601C3354.11 91.3601 3339.13 107.6 3311.27 107.6Z" fill="black"/>
<path d="M3407.71 109H3421.43L3456.15 8.20008H3445.37L3414.43 97.3801L3383.77 8.20008H3372.99L3407.71 109Z" fill="black"/>
<path d="M3467.98 109H3478.2V8.20008H3467.98V109Z" fill="black"/>
<path d="M3499.25 109H3509.47V58.6001L3559.17 109H3572.61L3521.65 56.9201L3568.69 8.20008H3555.53L3509.47 55.8001V8.20008H3499.25V109Z" fill="black"/>
<path d="M3634.46 110.12C3668.48 110.12 3691.3 89.5401 3691.3 58.6001C3691.3 27.8001 3668.48 7.22008 3634.46 7.22008C3600.16 7.22008 3577.34 27.8001 3577.34 58.6001C3577.34 89.5401 3600.16 110.12 3634.46 110.12ZM3635.02 107.6C3606.18 107.6 3590.78 89.5401 3590.78 56.0801C3590.78 25.9801 3605.9 9.74008 3633.9 9.74008C3662.46 9.74008 3677.86 27.8001 3677.86 61.2601C3677.86 91.3601 3662.88 107.6 3635.02 107.6Z" fill="black"/>
<path d="M3731.46 109H3745.18L3779.9 8.20008L3769.12 8.20008L3738.18 97.3801L3707.52 8.20008H3696.74L3731.46 109Z" fill="black"/>
<path d="M3919.82 114.6V64.7601H3932.84V62.2401H3875.44V64.7601H3893.36C3901.9 64.7601 3907.64 69.9401 3907.64 77.7801V96.1201C3901.34 103.82 3891.12 107.46 3881.04 107.6C3854.3 107.6 3840.02 89.5401 3840.02 56.0801C3840.02 25.8401 3853.32 9.74008 3877.96 9.74008C3893.64 9.74008 3908.34 19.2601 3909.46 35.6401L3910.02 44.8801L3912.68 44.7401L3910.3 1.62008L3908.76 1.76008L3909.46 15.3401C3909.46 16.6001 3909.6 17.4401 3909.88 18.5601L3909.32 18.7001C3909.04 17.7201 3908.34 16.7401 3907.64 16.0401C3899.94 10.1601 3889.86 7.22008 3879.5 7.22008C3847.72 7.22008 3826.58 27.6601 3826.58 58.3201C3826.58 89.4001 3848.14 110.12 3880.34 110.12C3890.84 110.12 3900.78 106.62 3907.78 99.9001C3909.32 98.5001 3910.86 97.9401 3912.26 97.9401C3915.62 97.9401 3918.28 101.3 3918.42 104.8V114.6H3919.82Z" fill="black"/>
<path d="M3936.18 109H3979.02V107.74H3970.06C3962.64 107.74 3961.66 107.04 3961.66 100.32V18.2801C3961.66 15.0601 3960.96 12.6801 3959.14 11.0001V10.8601H3975.1C3993.86 10.8601 4003.94 20.8001 4003.94 39.4201C4003.94 58.0401 3993.86 68.1201 3975.1 68.1201H3968.1V70.5001H3969.92C3976.78 70.5001 3980 74.1401 3985.18 81.2801L3995.96 96.4001C4000.72 103.26 4006.04 110.54 4013.88 110.54C4017.66 110.54 4021.72 109 4026.76 105.22L4030.12 102.56L4029.28 101.58L4025.92 104.24C4024.38 105.36 4022.84 105.92 4021.44 105.92C4015.42 105.92 4010.24 97.2401 4006.18 91.5001L3998.48 80.4401C3995.12 75.5401 3988.68 71.4801 3981.4 70.7801V69.9401L3984.48 69.8001C4002.96 68.2601 4017.1 56.6401 4017.1 39.5601C4017.1 20.9401 4000.86 8.48008 3976.22 8.48008H3936.04V9.74008H3941.36C3948.78 9.74008 3949.62 10.4401 3949.62 17.1601V100.46C3949.62 107.18 3948.78 107.88 3941.36 107.88H3936.04L3936.18 109Z" fill="black"/>
<path d="M4090.14 110.12C4124.16 110.12 4146.98 89.5401 4146.98 58.6001C4146.98 27.8001 4124.16 7.22008 4090.14 7.22008C4055.84 7.22008 4033.02 27.8001 4033.02 58.6001C4033.02 89.5401 4055.84 110.12 4090.14 110.12ZM4090.7 107.6C4061.86 107.6 4046.46 89.5401 4046.46 56.0801C4046.46 25.9801 4061.58 9.74008 4089.58 9.74008C4118.14 9.74008 4133.54 27.8001 4133.54 61.2601C4133.54 91.3601 4118.56 107.6 4090.7 107.6Z" fill="black"/>
<path d="M4152.06 8.34008V9.60008H4155.98C4163.4 9.60008 4164.38 10.3001 4164.38 17.0201V86.0401C4164.38 100.46 4176.7 110.12 4195.04 110.12C4213.38 110.12 4223.18 101.72 4223.18 86.0401V19.5401C4223.18 12.8201 4224.58 9.60008 4232 9.60008H4235.92V8.34008H4205.96V9.60008H4211.7C4218.98 9.60008 4220.38 12.8201 4220.38 19.5401V86.0401C4220.38 100.04 4211.42 107.6 4195.04 107.6C4182.86 107.6 4176.42 101.86 4176.42 91.0801V17.0201C4176.42 10.3001 4177.12 9.60008 4184.54 9.60008H4191.26V8.34008L4152.06 8.34008Z" fill="black"/>
<path d="M4264.3 11.0001H4275.5C4294.96 11.0001 4305.32 20.8001 4305.32 39.1401C4305.32 57.4801 4294.96 67.2801 4275.5 67.2801H4266.82V20.3801C4266.82 17.1601 4266.12 13.9401 4264.3 11.7001V11.0001ZM4241.34 109H4279V107.74H4275.22C4267.8 107.74 4266.82 107.04 4266.82 100.32V69.8001H4280.12C4303.36 69.8001 4318.76 57.4801 4318.76 39.1401C4318.76 20.6601 4303.36 8.34008 4280.12 8.34008H4241.34V9.60008H4246.66C4254.08 9.60008 4254.92 10.3001 4254.92 17.0201V100.32C4254.92 107.04 4254.08 107.74 4246.66 107.74H4241.34V109Z" fill="black"/>
<path d="M4459.95 70.5001V66.7201H4325.55V70.5001H4459.95Z" fill="black"/>
</svg>
