<svg width="3014" height="82" viewBox="0 0 3014 82" fill="none" xmlns="http://www.w3.org/2000/svg">
<path d="M16.6309 7.98047V8.51758C17.8353 9.98242 18.4375 12.0495 18.4375 14.7188V48.2148H24.6387C31.5723 48.2148 36.8457 46.5059 40.459 43.0879C44.1048 39.6374 45.9277 34.6406 45.9277 28.0977C45.9277 21.5547 44.1048 16.5742 40.459 13.1562C36.8457 9.70573 31.5723 7.98047 24.6387 7.98047H16.6309ZM0.224609 78V77.1211H4.0332C6.70247 77.1211 8.34635 76.8444 8.96484 76.291C9.61589 75.7051 9.94141 74.2077 9.94141 71.7988L9.94141 12.2773C9.94141 9.90104 9.61589 8.4362 8.96484 7.88281C8.34635 7.29688 6.70247 7.00391 4.0332 7.00391H0.224609V6.07617H27.9102C36.2109 6.07617 42.8841 8.0944 47.9297 12.1309C53.0078 16.1673 55.5469 21.4896 55.5469 28.0977C55.5469 34.6406 53.0078 39.9303 47.9297 43.9668C42.8841 48.0033 36.2109 50.0215 27.9102 50.0215H18.4375V71.7988C18.4375 74.1751 18.763 75.6562 19.4141 76.2422C20.0977 76.8281 21.7741 77.1211 24.4434 77.1211H27.1289V78H0.224609ZM95.8789 57.3945H94.9023V51.877C94.9023 50.0215 94.6745 48.4264 94.2188 47.0918C93.763 45.7572 93.1934 44.7155 92.5098 43.9668C91.8262 43.2181 90.931 42.6322 89.8242 42.209C88.7174 41.7533 87.6432 41.4766 86.6016 41.3789C85.5924 41.2487 84.388 41.1836 82.9883 41.1836H78.5938V70.9199C78.5938 72.9056 77.7962 74.6309 76.2012 76.0957V76.1934H98.0762C103.415 76.1934 107.386 75.1517 109.99 73.0684C112.594 70.9525 114.092 67.502 114.482 62.7168L115.166 54.709H116.875L114.971 81.8086L114.092 81.7109L114.385 77.1211H114.287C113.604 77.707 112.236 78 110.186 78H60.3809V77.1211H64.1895C66.8587 77.1211 68.5026 76.8444 69.1211 76.291C69.7721 75.7051 70.0977 74.2077 70.0977 71.7988V12.2773C70.0977 9.90104 69.7721 8.4362 69.1211 7.88281C68.5026 7.29688 66.8587 7.00391 64.1895 7.00391H60.3809V6.07617H104.277C106.328 6.07617 107.663 6.38542 108.281 7.00391H108.477L108.086 2.41406L109.062 2.31641L111.064 29.416H109.062L108.672 22.3848C108.346 17.1439 106.8 13.4167 104.033 11.2031C101.266 8.98958 97.1484 7.88281 91.6797 7.88281H76.2012V7.98047C77.7962 9.44531 78.5938 11.1868 78.5938 13.2051V39.377H82.9883C84.4206 39.377 85.6413 39.3281 86.6504 39.2305C87.6595 39.1003 88.7174 38.8236 89.8242 38.4004C90.931 37.9772 91.8262 37.4076 92.5098 36.6914C93.1934 35.9427 93.763 34.901 94.2188 33.5664C94.6745 32.2318 94.9023 30.6367 94.9023 28.7812V25.3145H95.8789V57.3945ZM122.93 41.8184L122.832 41.7207C122.832 34.4941 124.427 28.1139 127.617 22.5801C130.807 17.0462 135.299 12.7656 141.094 9.73828C146.921 6.71094 153.626 5.19727 161.211 5.19727C169.023 5.19727 175.762 7.32943 181.426 11.5937C181.784 11.9518 182.174 12.6191 182.598 13.5957L183.33 13.4004C183.135 12.6191 183.037 11.6589 183.037 10.5195L182.842 3.19531H183.818L184.844 32.1016L182.842 32.1992L182.5 22.9219C182.207 18.5273 179.831 14.7676 175.371 11.6426C170.911 8.48503 165.931 6.90625 160.43 6.90625C151.38 6.90625 144.479 9.73828 139.727 15.4023C134.974 21.0664 132.598 29.3021 132.598 40.1094C132.598 52.056 135.072 61.1706 140.02 67.4531C145 73.7357 152.194 76.877 161.602 76.877C166.908 76.877 171.839 75.6562 176.396 73.2148C180.954 70.7409 184.193 67.4368 186.113 63.3027L188.018 63.9863C185.934 68.804 182.5 72.4824 177.715 75.0215C172.93 77.528 167.526 78.7812 161.504 78.7812C153.887 78.7812 147.148 77.2513 141.289 74.1914C135.462 71.1315 130.938 66.8021 127.715 61.2031C124.525 55.6042 122.93 49.1426 122.93 41.8184ZM200.811 78V77.1211H209.209C211.846 77.1211 213.473 76.8444 214.092 76.291C214.71 75.7051 215.02 74.2077 215.02 71.7988V7.88281H208.428C205.628 7.88281 203.382 8.0293 201.689 8.32227C199.997 8.61523 198.532 9.1849 197.295 10.0312C196.058 10.8776 195.163 12.0495 194.609 13.5469C194.089 15.0117 193.763 16.9648 193.633 19.4062L193.242 23.5078L191.24 23.4102L192.949 0.216797L194.121 0.314453L193.633 6.07617H244.805L244.316 0.412109L245.537 0.314453L247.148 23.4102L245.146 23.5078L244.805 19.4062C244.609 16.9648 244.235 15.0117 243.682 13.5469C243.128 12.082 242.233 10.9264 240.996 10.0801C239.792 9.20117 238.343 8.61523 236.65 8.32227C234.99 8.0293 232.777 7.88281 230.01 7.88281H223.613V71.7988C223.613 74.2077 223.923 75.7051 224.541 76.291C225.16 76.8444 226.787 77.1211 229.424 77.1211H237.627V78H200.811ZM292.217 78.7812C284.111 78.7812 276.966 77.2676 270.781 74.2402C264.629 71.1803 259.86 66.8672 256.475 61.3008C253.122 55.7344 251.445 49.3053 251.445 42.0137C251.445 31.0111 255.173 22.1406 262.627 15.4023C270.114 8.66406 279.977 5.29492 292.217 5.29492C300.257 5.29492 307.354 6.82487 313.506 9.88477C319.658 12.9121 324.411 17.209 327.764 22.7754C331.149 28.3418 332.842 34.7546 332.842 42.0137C332.842 49.3053 331.149 55.7344 327.764 61.3008C324.411 66.8672 319.658 71.1803 313.506 74.2402C307.354 77.2676 300.257 78.7812 292.217 78.7812ZM292.607 77.0234C302.568 77.0234 310.153 74.1914 315.361 68.5273C320.602 62.8633 323.223 54.6602 323.223 43.918C323.223 31.9714 320.537 22.8568 315.166 16.5742C309.795 10.2591 302.015 7.10156 291.826 7.10156C281.833 7.10156 274.199 9.93359 268.926 15.5977C263.652 21.2617 261.016 29.4648 261.016 40.207C261.016 52.1536 263.701 61.2845 269.072 67.5996C274.476 73.8822 282.321 77.0234 292.607 77.0234ZM354.619 7.98047V8.51758C355.824 9.98242 356.426 12.0495 356.426 14.7187V48.2148H362.627C369.561 48.2148 374.834 46.5059 378.447 43.0879C382.093 39.6374 383.916 34.6406 383.916 28.0977C383.916 21.5547 382.093 16.5742 378.447 13.1562C374.834 9.70573 369.561 7.98047 362.627 7.98047H354.619ZM338.213 78V77.1211H342.021C344.691 77.1211 346.335 76.8444 346.953 76.291C347.604 75.7051 347.93 74.2077 347.93 71.7988V12.2773C347.93 9.90104 347.604 8.4362 346.953 7.88281C346.335 7.29687 344.691 7.00391 342.021 7.00391H338.213V6.07617H365.898C374.199 6.07617 380.872 8.0944 385.918 12.1309C390.996 16.1673 393.535 21.4896 393.535 28.0977C393.535 34.6406 390.996 39.9303 385.918 43.9668C380.872 48.0033 374.199 50.0215 365.898 50.0215H356.426V71.7988C356.426 74.1751 356.751 75.6562 357.402 76.2422C358.086 76.8281 359.762 77.1211 362.432 77.1211H365.117V78H338.213ZM387.09 78V77.1211H388.799C390.068 77.1211 391.143 76.6165 392.021 75.6074C392.9 74.5658 393.861 73.0033 394.902 70.9199L425.811 6.07617H434.307V7.29687C434.307 9.73828 434.648 11.6751 435.332 13.1074L461.211 70.9199C462.415 73.5892 463.245 75.1842 463.701 75.7051C464.515 76.6491 465.85 77.1211 467.705 77.1211H468.633V78H447.588V77.1211H456.035V76.877C455.026 76.5514 453.887 74.9889 452.617 72.1895L446.514 58.5176H402.91L397.002 70.9199C396.611 71.9616 396.416 72.7266 396.416 73.2148C396.416 74.3867 396.888 75.3307 397.832 76.0469C398.776 76.763 400.062 77.1211 401.689 77.1211H407.109V78H387.09ZM403.789 56.7109H445.732L427.031 15.0117C426.413 13.7422 426.104 12.4076 426.104 11.0078H425.127C425.127 11.7891 424.688 13.1237 423.809 15.0117L403.789 56.7109ZM471.611 78V77.1211H475.42C477.992 77.1211 479.619 76.7142 480.303 75.9004C480.986 75.0866 481.328 73.4264 481.328 70.9199V13.2051C481.328 10.6986 480.986 9.03841 480.303 8.22461C479.619 7.41081 477.992 7.00391 475.42 7.00391H471.611V6.07617H498.613V7.00391H495.83C493.258 7.00391 491.615 7.41081 490.898 8.22461C490.182 9.03841 489.824 10.6986 489.824 13.2051V39.2793H520V13.2051C520 10.6986 519.642 9.03841 518.926 8.22461C518.21 7.41081 516.566 7.00391 513.994 7.00391H511.211V6.07617H538.311V7.00391H534.404C531.865 7.00391 530.254 7.41081 529.57 8.22461C528.919 9.00586 528.594 10.666 528.594 13.2051V70.9199C528.594 73.459 528.919 75.1354 529.57 75.9492C530.254 76.7305 531.865 77.1211 534.404 77.1211H538.311V78H511.211V77.1211H514.189C516.696 77.1211 518.291 76.7142 518.975 75.9004C519.658 75.0866 520 73.4264 520 70.9199V41.0859H489.824V70.9199C489.824 73.4264 490.182 75.0866 490.898 75.9004C491.615 76.7142 493.258 77.1211 495.83 77.1211H498.613V78H471.611ZM598.223 78V77.1211H602.031C604.701 77.1211 606.328 76.8607 606.914 76.3398C607.5 75.7865 607.793 74.3053 607.793 71.8965V12.1797C607.793 9.80339 607.5 8.35482 606.914 7.83398C606.328 7.2806 604.701 7.00391 602.031 7.00391H598.223V6.07617H626.201V7.19922H622.393C619.723 7.19922 618.063 7.47591 617.412 8.0293C616.761 8.58268 616.436 10.0475 616.436 12.4238V71.8965C616.436 74.2728 616.761 75.7376 617.412 76.291C618.063 76.8444 619.723 77.1211 622.393 77.1211H626.201V78H598.223ZM542.217 78V77.0234H546.025C548.695 77.0234 550.339 76.7467 550.957 76.1934C551.608 75.6074 551.934 74.11 551.934 71.7012V12.1797C551.934 9.80339 551.608 8.35482 550.957 7.83398C550.339 7.2806 548.695 7.00391 546.025 7.00391H542.217V6.07617H570.195V7.00391H566.436C563.766 7.00391 562.09 7.31315 561.406 7.93164C560.755 8.51758 560.43 10.015 560.43 12.4238V40.9883H568.828C577.227 40.9883 583.981 42.6973 589.092 46.1152C594.235 49.5007 596.807 53.9603 596.807 59.4941C596.807 65.028 594.235 69.5039 589.092 72.9219C583.981 76.3073 577.227 78 568.828 78H542.217ZM560.43 42.6973V70.9199C560.43 73.1986 559.827 74.8913 558.623 75.998V76.1934H566.729C573.434 76.1934 578.545 74.7773 582.061 71.9453C585.576 69.0807 587.334 64.9303 587.334 59.4941C587.334 54.0579 585.56 49.9076 582.012 47.043C578.496 44.1458 573.402 42.6973 566.729 42.6973H560.43ZM664.402 78V6H671.802L711.452 65V6H718.852V78H711.452L671.802 18.95V78H664.402ZM770.049 78.7812C761.943 78.7812 754.798 77.2676 748.613 74.2402C742.461 71.1803 737.692 66.8672 734.307 61.3008C730.954 55.7344 729.277 49.3053 729.277 42.0137C729.277 31.0111 733.005 22.1406 740.459 15.4023C747.946 8.66406 757.809 5.29492 770.049 5.29492C778.089 5.29492 785.186 6.82487 791.338 9.88477C797.49 12.9121 802.243 17.209 805.596 22.7754C808.981 28.3418 810.674 34.7546 810.674 42.0137C810.674 49.3053 808.981 55.7344 805.596 61.3008C802.243 66.8672 797.49 71.1803 791.338 74.2402C785.186 77.2676 778.089 78.7812 770.049 78.7812ZM770.439 77.0234C780.4 77.0234 787.985 74.1914 793.193 68.5273C798.434 62.8633 801.055 54.6602 801.055 43.918C801.055 31.9714 798.369 22.8568 792.998 16.5742C787.627 10.2591 779.847 7.10156 769.658 7.10156C759.665 7.10156 752.031 9.93359 746.758 15.5977C741.484 21.2617 738.848 29.4648 738.848 40.207C738.848 52.1536 741.533 61.2845 746.904 67.5996C752.308 73.8822 760.153 77.0234 770.439 77.0234ZM839.343 78L814.543 6H822.193L844.143 69.65L866.243 6H873.893L849.093 78H839.343ZM882.395 78V6H889.745V78H882.395ZM904.734 78V6H912.084V40L944.934 6H954.334L920.784 40.75L957.084 78H947.484L912.084 42V78H904.734ZM1001.3 78.7812C993.193 78.7812 986.048 77.2676 979.863 74.2402C973.711 71.1803 968.942 66.8672 965.557 61.3008C962.204 55.7344 960.527 49.3053 960.527 42.0137C960.527 31.0111 964.255 22.1406 971.709 15.4023C979.196 8.66406 989.059 5.29492 1001.3 5.29492C1009.34 5.29492 1016.44 6.82487 1022.59 9.88477C1028.74 12.9121 1033.49 17.209 1036.85 22.7754C1040.23 28.3418 1041.92 34.7546 1041.92 42.0137C1041.92 49.3053 1040.23 55.7344 1036.85 61.3008C1033.49 66.8672 1028.74 71.1803 1022.59 74.2402C1016.44 77.2676 1009.34 78.7812 1001.3 78.7812ZM1001.69 77.0234C1011.65 77.0234 1019.24 74.1914 1024.44 68.5273C1029.68 62.8633 1032.3 54.6602 1032.3 43.918C1032.3 31.9714 1029.62 22.8568 1024.25 16.5742C1018.88 10.2591 1011.1 7.10156 1000.91 7.10156C990.915 7.10156 983.281 9.93359 978.008 15.5977C972.734 21.2617 970.098 29.4648 970.098 40.207C970.098 52.1536 972.783 61.2845 978.154 67.5996C983.558 73.8822 991.403 77.0234 1001.69 77.0234ZM1070.59 78L1045.79 6H1053.44L1075.39 69.65L1097.49 6H1105.14L1080.34 78H1070.59ZM1205.16 82.0039H1204.13V75.0215C1204.07 73.752 1203.61 72.6126 1202.76 71.6035C1201.92 70.5944 1200.91 70.0898 1199.74 70.0898C1198.69 70.0898 1197.64 70.5618 1196.56 71.5059C1194.09 73.8822 1191.14 75.6888 1187.72 76.9258C1184.34 78.1628 1180.74 78.7812 1176.93 78.7812C1169.35 78.7812 1162.64 77.2513 1156.82 74.1914C1151.02 71.1315 1146.53 66.8021 1143.34 61.2031C1140.15 55.6042 1138.55 49.1426 1138.55 41.8184C1138.55 34.5918 1140.12 28.2116 1143.24 22.6777C1146.37 17.1439 1150.79 12.8633 1156.52 9.83594C1162.25 6.80859 1168.86 5.29492 1176.35 5.29492C1184.23 5.29492 1190.93 7.39453 1196.46 11.5937C1197.05 12.1797 1197.44 12.8145 1197.64 13.498L1198.03 13.4004C1197.83 12.6191 1197.73 11.8542 1197.73 11.1055L1197.25 1.38867L1198.32 1.29102L1200.03 32.1016L1198.12 32.1992L1197.73 25.6074C1197.34 19.9759 1194.95 15.4837 1190.56 12.1309C1186.19 8.77799 1181.08 7.10156 1175.22 7.10156C1166.44 7.10156 1159.71 9.93359 1155.06 15.5977C1150.44 21.2292 1148.12 29.4323 1148.12 40.207C1148.12 52.1536 1150.62 61.2845 1155.6 67.5996C1160.61 73.8822 1167.88 77.0234 1177.42 77.0234C1181.2 76.9583 1184.78 76.2422 1188.16 74.875C1191.55 73.4753 1194.32 71.457 1196.46 68.8203V55.6855C1196.46 52.8861 1195.52 50.64 1193.63 48.9473C1191.78 47.2546 1189.32 46.4082 1186.26 46.4082H1173.42V44.6016H1214.43V46.4082H1205.16V82.0039ZM1216.83 78L1216.73 77.2187H1220.54C1223.21 77.2187 1224.85 76.9421 1225.47 76.3887C1226.12 75.8027 1226.45 74.3053 1226.45 71.8965V12.4238C1226.45 10.015 1226.12 8.53385 1225.47 7.98047C1224.85 7.39453 1223.21 7.10156 1220.54 7.10156H1216.73V6.22266H1245.44C1254.23 6.22266 1261.29 8.25716 1266.63 12.3262C1271.97 16.3952 1274.64 21.75 1274.64 28.3906C1274.64 34.3802 1272.44 39.3444 1268.05 43.2832C1263.65 47.1895 1258.09 49.4355 1251.35 50.0215L1249.1 50.1191V50.7051C1251.61 50.9329 1253.95 51.6816 1256.13 52.9512C1258.35 54.2207 1260.07 55.7669 1261.31 57.5898L1266.83 65.5C1266.99 65.7279 1267.4 66.3301 1268.05 67.3066C1268.73 68.2832 1269.22 68.9831 1269.51 69.4062C1269.84 69.7969 1270.31 70.4154 1270.93 71.2617C1271.58 72.0755 1272.12 72.694 1272.54 73.1172C1272.99 73.5078 1273.53 73.9473 1274.15 74.4355C1274.77 74.9238 1275.37 75.2819 1275.96 75.5098C1276.54 75.7051 1277.13 75.8027 1277.71 75.8027C1278.69 75.8027 1279.77 75.3958 1280.94 74.582L1283.33 72.6777L1283.92 73.4102L1281.52 75.3145C1278.11 77.8535 1275.05 79.123 1272.34 79.123C1271.01 79.123 1269.74 78.8464 1268.54 78.293C1267.33 77.7721 1266.16 76.9421 1265.02 75.8027C1263.88 74.6634 1262.95 73.638 1262.24 72.7266C1261.52 71.8151 1260.61 70.5781 1259.5 69.0156L1251.84 58.1758C1249.75 55.3112 1247.98 53.3255 1246.51 52.2187C1245.08 51.0794 1243.23 50.5098 1240.95 50.5098H1239.63V48.8008H1244.61C1251.28 48.8008 1256.38 47.043 1259.89 43.5273C1263.44 40.0117 1265.21 34.9336 1265.21 28.293C1265.21 21.6523 1263.46 16.5905 1259.94 13.1074C1256.43 9.62435 1251.32 7.88281 1244.61 7.88281H1233.23V7.98047C1234.44 9.08724 1235.04 10.8288 1235.04 13.2051V71.7988C1235.04 74.1751 1235.36 75.6562 1236.02 76.2422C1236.7 76.8281 1238.38 77.1211 1241.04 77.1211H1247.44V78H1216.83ZM1326.79 78.7812C1318.68 78.7812 1311.54 77.2676 1305.35 74.2402C1299.2 71.1803 1294.43 66.8672 1291.04 61.3008C1287.69 55.7344 1286.02 49.3053 1286.02 42.0137C1286.02 31.0111 1289.74 22.1406 1297.2 15.4023C1304.68 8.66406 1314.55 5.29492 1326.79 5.29492C1334.83 5.29492 1341.92 6.82487 1348.08 9.88477C1354.23 12.9121 1358.98 17.209 1362.33 22.7754C1365.72 28.3418 1367.41 34.7546 1367.41 42.0137C1367.41 49.3053 1365.72 55.7344 1362.33 61.3008C1358.98 66.8672 1354.23 71.1803 1348.08 74.2402C1341.92 77.2676 1334.83 78.7812 1326.79 78.7812ZM1327.18 77.0234C1337.14 77.0234 1344.72 74.1914 1349.93 68.5273C1355.17 62.8633 1357.79 54.6602 1357.79 43.918C1357.79 31.9714 1355.11 22.8568 1349.74 16.5742C1344.37 10.2591 1336.59 7.10156 1326.4 7.10156C1316.4 7.10156 1308.77 9.93359 1303.5 15.5977C1298.22 21.2617 1295.59 29.4648 1295.59 40.207C1295.59 52.1536 1298.27 61.2845 1303.64 67.5996C1309.05 73.8822 1316.89 77.0234 1327.18 77.0234ZM1370.93 6.07617H1398.91V7.00391H1394.12C1391.45 7.00391 1389.81 7.2806 1389.19 7.83398C1388.6 8.38737 1388.31 9.86849 1388.31 12.2773V65.207C1388.31 69.0482 1389.43 71.9779 1391.68 73.9961C1393.96 76.0143 1397.28 77.0234 1401.64 77.0234C1407.5 77.0234 1411.98 75.7051 1415.07 73.0684C1418.16 70.4316 1419.71 66.6068 1419.71 61.5937V14.084C1419.71 11.5449 1419.28 9.73828 1418.44 8.66406C1417.62 7.55729 1415.98 7.00391 1413.51 7.00391H1409.4V6.07617H1430.84V7.00391H1428.01C1425.47 7.00391 1423.78 7.54102 1422.93 8.61523C1422.12 9.68945 1421.71 11.5124 1421.71 14.084V61.5937C1421.71 67.1927 1420 71.457 1416.58 74.3867C1413.16 77.3164 1408.18 78.7812 1401.64 78.7812C1395.1 78.7812 1389.81 77.2025 1385.77 74.0449C1381.74 70.8874 1379.72 66.737 1379.72 61.5937V12.2773C1379.72 9.90104 1379.38 8.4362 1378.69 7.88281C1378.04 7.29687 1376.38 7.00391 1373.71 7.00391H1370.93V6.07617ZM1451.1 7.98047V8.51758C1452.31 9.98242 1452.91 12.0495 1452.91 14.7187V48.2148H1459.11C1466.04 48.2148 1471.32 46.5059 1474.93 43.0879C1478.58 39.6374 1480.4 34.6406 1480.4 28.0977C1480.4 21.5547 1478.58 16.5742 1474.93 13.1562C1471.32 9.70573 1466.04 7.98047 1459.11 7.98047H1451.1ZM1434.7 78V77.1211H1438.51C1441.18 77.1211 1442.82 76.8444 1443.44 76.291C1444.09 75.7051 1444.41 74.2077 1444.41 71.7988V12.2773C1444.41 9.90104 1444.09 8.4362 1443.44 7.88281C1442.82 7.29687 1441.18 7.00391 1438.51 7.00391H1434.7V6.07617H1462.38C1470.68 6.07617 1477.36 8.0944 1482.4 12.1309C1487.48 16.1673 1490.02 21.4896 1490.02 28.0977C1490.02 34.6406 1487.48 39.9303 1482.4 43.9668C1477.36 48.0033 1470.68 50.0215 1462.38 50.0215H1452.91V71.7988C1452.91 74.1751 1453.24 75.6562 1453.89 76.2422C1454.57 76.8281 1456.25 77.1211 1458.92 77.1211H1461.6V78H1434.7ZM1540.56 7.98047V8.51758C1541.76 9.98242 1542.36 12.0495 1542.36 14.7187V48.2148H1548.56C1555.5 48.2148 1560.77 46.5059 1564.38 43.0879C1568.03 39.6374 1569.85 34.6406 1569.85 28.0977C1569.85 21.5547 1568.03 16.5742 1564.38 13.1562C1560.77 9.70573 1555.5 7.98047 1548.56 7.98047H1540.56ZM1524.15 78V77.1211H1527.96C1530.63 77.1211 1532.27 76.8444 1532.89 76.291C1533.54 75.7051 1533.87 74.2077 1533.87 71.7988V12.2773C1533.87 9.90104 1533.54 8.4362 1532.89 7.88281C1532.27 7.29687 1530.63 7.00391 1527.96 7.00391H1524.15V6.07617H1551.84C1560.14 6.07617 1566.81 8.0944 1571.86 12.1309C1576.93 16.1673 1579.47 21.4896 1579.47 28.0977C1579.47 34.6406 1576.93 39.9303 1571.86 43.9668C1566.81 48.0033 1560.14 50.0215 1551.84 50.0215H1542.36V71.7988C1542.36 74.1751 1542.69 75.6562 1543.34 76.2422C1544.02 76.8281 1545.7 77.1211 1548.37 77.1211H1551.05V78L1524.15 78ZM1619.8 57.3945H1618.83V51.877C1618.83 50.0215 1618.6 48.4264 1618.14 47.0918C1617.69 45.7572 1617.12 44.7155 1616.44 43.9668C1615.75 43.2181 1614.86 42.6322 1613.75 42.209C1612.64 41.7533 1611.57 41.4766 1610.53 41.3789C1609.52 41.2487 1608.31 41.1836 1606.91 41.1836H1602.52V70.9199C1602.52 72.9056 1601.72 74.6309 1600.13 76.0957V76.1934H1622C1627.34 76.1934 1631.31 75.1517 1633.92 73.0684C1636.52 70.9525 1638.02 67.502 1638.41 62.7168L1639.09 54.709H1640.8L1638.9 81.8086L1638.02 81.7109L1638.31 77.1211H1638.21C1637.53 77.707 1636.16 78 1634.11 78H1584.31V77.1211H1588.12C1590.78 77.1211 1592.43 76.8444 1593.05 76.291C1593.7 75.7051 1594.02 74.2077 1594.02 71.7988V12.2773C1594.02 9.90104 1593.7 8.4362 1593.05 7.88281C1592.43 7.29687 1590.78 7.00391 1588.12 7.00391H1584.31V6.07617H1628.2C1630.25 6.07617 1631.59 6.38542 1632.21 7.00391H1632.4L1632.01 2.41406L1632.99 2.31641L1634.99 29.416H1632.99L1632.6 22.3848C1632.27 17.1439 1630.73 13.4167 1627.96 11.2031C1625.19 8.98958 1621.07 7.88281 1615.61 7.88281H1600.13V7.98047C1601.72 9.44531 1602.52 11.1868 1602.52 13.2051V39.377H1606.91C1608.35 39.377 1609.57 39.3281 1610.58 39.2305C1611.59 39.1003 1612.64 38.8236 1613.75 38.4004C1614.86 37.9772 1615.75 37.4076 1616.44 36.6914C1617.12 35.9427 1617.69 34.901 1618.14 33.5664C1618.6 32.2318 1618.83 30.6367 1618.83 28.7812V25.3145H1619.8V57.3945ZM1646.86 41.8184L1646.76 41.7207C1646.76 34.4941 1648.35 28.1139 1651.54 22.5801C1654.73 17.0462 1659.23 12.7656 1665.02 9.73828C1670.85 6.71094 1677.55 5.19727 1685.14 5.19727C1692.95 5.19727 1699.69 7.32943 1705.35 11.5937C1705.71 11.9518 1706.1 12.6191 1706.52 13.5957L1707.26 13.4004C1707.06 12.6191 1706.96 11.6589 1706.96 10.5195L1706.77 3.19531H1707.74L1708.77 32.1016L1706.77 32.1992L1706.43 22.9219C1706.13 18.5273 1703.76 14.7676 1699.3 11.6426C1694.84 8.48503 1689.86 6.90625 1684.36 6.90625C1675.31 6.90625 1668.4 9.73828 1663.65 15.4023C1658.9 21.0664 1656.52 29.3021 1656.52 40.1094C1656.52 52.056 1659 61.1706 1663.95 67.4531C1668.93 73.7357 1676.12 76.877 1685.53 76.877C1690.83 76.877 1695.76 75.6562 1700.32 73.2148C1704.88 70.7409 1708.12 67.4368 1710.04 63.3027L1711.94 63.9863C1709.86 68.804 1706.43 72.4824 1701.64 75.0215C1696.86 77.528 1691.45 78.7812 1685.43 78.7812C1677.81 78.7812 1671.07 77.2513 1665.21 74.1914C1659.39 71.1315 1654.86 66.8021 1651.64 61.2031C1648.45 55.6042 1646.86 49.1426 1646.86 41.8184ZM1724.74 78V77.1211H1733.13C1735.77 77.1211 1737.4 76.8444 1738.02 76.291C1738.64 75.7051 1738.95 74.2077 1738.95 71.7988V7.88281H1732.35C1729.55 7.88281 1727.31 8.0293 1725.62 8.32227C1723.92 8.61523 1722.46 9.1849 1721.22 10.0312C1719.98 10.8776 1719.09 12.0495 1718.54 13.5469C1718.01 15.0117 1717.69 16.9648 1717.56 19.4062L1717.17 23.5078L1715.17 23.4102L1716.88 0.216797L1718.05 0.314453L1717.56 6.07617H1768.73L1768.24 0.412109L1769.46 0.314453L1771.07 23.4102L1769.07 23.5078L1768.73 19.4062C1768.54 16.9648 1768.16 15.0117 1767.61 13.5469C1767.05 12.082 1766.16 10.9264 1764.92 10.0801C1763.72 9.20117 1762.27 8.61523 1760.58 8.32227C1758.92 8.0293 1756.7 7.88281 1753.94 7.88281H1747.54V71.7988C1747.54 74.2077 1747.85 75.7051 1748.47 76.291C1749.09 76.8444 1750.71 77.1211 1753.35 77.1211H1761.55V78H1724.74ZM1816.14 78.7812C1808.04 78.7812 1800.89 77.2676 1794.71 74.2402C1788.55 71.1803 1783.79 66.8672 1780.4 61.3008C1777.05 55.7344 1775.37 49.3053 1775.37 42.0137C1775.37 31.0111 1779.1 22.1406 1786.55 15.4023C1794.04 8.66406 1803.9 5.29492 1816.14 5.29492C1824.18 5.29492 1831.28 6.82487 1837.43 9.88477C1843.58 12.9121 1848.34 17.209 1851.69 22.7754C1855.07 28.3418 1856.77 34.7546 1856.77 42.0137C1856.77 49.3053 1855.07 55.7344 1851.69 61.3008C1848.34 66.8672 1843.58 71.1803 1837.43 74.2402C1831.28 77.2676 1824.18 78.7812 1816.14 78.7812ZM1816.53 77.0234C1826.49 77.0234 1834.08 74.1914 1839.29 68.5273C1844.53 62.8633 1847.15 54.6602 1847.15 43.918C1847.15 31.9714 1844.46 22.8568 1839.09 16.5742C1833.72 10.2591 1825.94 7.10156 1815.75 7.10156C1805.76 7.10156 1798.12 9.93359 1792.85 15.5977C1787.58 21.2617 1784.94 29.4648 1784.94 40.207C1784.94 52.1536 1787.63 61.2845 1793 67.5996C1798.4 73.8822 1806.25 77.0234 1816.53 77.0234ZM1878.54 7.98047V8.51758C1879.75 9.98242 1880.35 12.0495 1880.35 14.7187V48.2148H1886.55C1893.49 48.2148 1898.76 46.5059 1902.37 43.0879C1906.02 39.6374 1907.84 34.6406 1907.84 28.0977C1907.84 21.5547 1906.02 16.5742 1902.37 13.1562C1898.76 9.70573 1893.49 7.98047 1886.55 7.98047H1878.54ZM1862.14 78V77.1211H1865.95C1868.62 77.1211 1870.26 76.8444 1870.88 76.291C1871.53 75.7051 1871.86 74.2077 1871.86 71.7988V12.2773C1871.86 9.90104 1871.53 8.4362 1870.88 7.88281C1870.26 7.29687 1868.62 7.00391 1865.95 7.00391H1862.14V6.07617H1889.82C1898.12 6.07617 1904.8 8.0944 1909.84 12.1309C1914.92 16.1673 1917.46 21.4896 1917.46 28.0977C1917.46 34.6406 1914.92 39.9303 1909.84 43.9668C1904.8 48.0033 1898.12 50.0215 1889.82 50.0215H1880.35V71.7988C1880.35 74.1751 1880.68 75.6562 1881.33 76.2422C1882.01 76.8281 1883.69 77.1211 1886.36 77.1211H1889.04V78H1862.14ZM1911.02 78V77.1211H1912.72C1913.99 77.1211 1915.07 76.6165 1915.95 75.6074C1916.83 74.5658 1917.79 73.0033 1918.83 70.9199L1949.74 6.07617H1958.23V7.29687C1958.23 9.73828 1958.57 11.6751 1959.26 13.1074L1985.14 70.9199C1986.34 73.5892 1987.17 75.1842 1987.63 75.7051C1988.44 76.6491 1989.78 77.1211 1991.63 77.1211H1992.56V78H1971.51V77.1211H1979.96V76.877C1978.95 76.5514 1977.81 74.9889 1976.54 72.1895L1970.44 58.5176H1926.84L1920.93 70.9199C1920.54 71.9616 1920.34 72.7266 1920.34 73.2148C1920.34 74.3867 1920.81 75.3307 1921.76 76.0469C1922.7 76.763 1923.99 77.1211 1925.62 77.1211H1931.04V78H1911.02ZM1927.71 56.7109H1969.66L1950.96 15.0117C1950.34 13.7422 1950.03 12.4076 1950.03 11.0078H1949.05C1949.05 11.7891 1948.61 13.1237 1947.73 15.0117L1927.71 56.7109ZM1995.54 78V77.1211H1999.35C2001.92 77.1211 2003.54 76.7142 2004.23 75.9004C2004.91 75.0866 2005.25 73.4264 2005.25 70.9199V13.2051C2005.25 10.6986 2004.91 9.03841 2004.23 8.22461C2003.54 7.41081 2001.92 7.00391 1999.35 7.00391H1995.54V6.07617H2022.54V7.00391H2019.76C2017.18 7.00391 2015.54 7.41081 2014.82 8.22461C2014.11 9.03841 2013.75 10.6986 2013.75 13.2051V39.2793H2043.93V13.2051C2043.93 10.6986 2043.57 9.03841 2042.85 8.22461C2042.14 7.41081 2040.49 7.00391 2037.92 7.00391H2035.14V6.07617H2062.24V7.00391H2058.33C2055.79 7.00391 2054.18 7.41081 2053.5 8.22461C2052.85 9.00586 2052.52 10.666 2052.52 13.2051V70.9199C2052.52 73.459 2052.85 75.1354 2053.5 75.9492C2054.18 76.7305 2055.79 77.1211 2058.33 77.1211H2062.24V78H2035.14V77.1211H2038.12C2040.62 77.1211 2042.22 76.7142 2042.9 75.9004C2043.58 75.0866 2043.93 73.4264 2043.93 70.9199V41.0859H2013.75V70.9199C2013.75 73.4264 2014.11 75.0866 2014.82 75.9004C2015.54 76.7142 2017.18 77.1211 2019.76 77.1211H2022.54V78H1995.54ZM2122.15 78V77.1211H2125.96C2128.63 77.1211 2130.25 76.8607 2130.84 76.3398C2131.43 75.7865 2131.72 74.3053 2131.72 71.8965V12.1797C2131.72 9.80339 2131.43 8.35482 2130.84 7.83398C2130.25 7.2806 2128.63 7.00391 2125.96 7.00391H2122.15V6.07617H2150.13V7.19922H2146.32C2143.65 7.19922 2141.99 7.47591 2141.34 8.0293C2140.69 8.58268 2140.36 10.0475 2140.36 12.4238V71.8965C2140.36 74.2728 2140.69 75.7376 2141.34 76.291C2141.99 76.8444 2143.65 77.1211 2146.32 77.1211H2150.13V78H2122.15ZM2066.14 78V77.0234H2069.95C2072.62 77.0234 2074.26 76.7467 2074.88 76.1934C2075.53 75.6074 2075.86 74.11 2075.86 71.7012V12.1797C2075.86 9.80339 2075.53 8.35482 2074.88 7.83398C2074.26 7.2806 2072.62 7.00391 2069.95 7.00391H2066.14V6.07617H2094.12V7.00391H2090.36C2087.69 7.00391 2086.02 7.31315 2085.33 7.93164C2084.68 8.51758 2084.36 10.015 2084.36 12.4238V40.9883H2092.75C2101.15 40.9883 2107.91 42.6973 2113.02 46.1152C2118.16 49.5007 2120.73 53.9603 2120.73 59.4941C2120.73 65.028 2118.16 69.5039 2113.02 72.9219C2107.91 76.3073 2101.15 78 2092.75 78H2066.14ZM2084.36 42.6973V70.9199C2084.36 73.1986 2083.75 74.8913 2082.55 75.998V76.1934H2090.65C2097.36 76.1934 2102.47 74.7773 2105.99 71.9453C2109.5 69.0807 2111.26 64.9303 2111.26 59.4941C2111.26 54.0579 2109.49 49.9076 2105.94 47.043C2102.42 44.1458 2097.33 42.6973 2090.65 42.6973H2084.36ZM2188.33 78V6H2195.73L2235.38 65V6H2242.78V78H2235.38L2195.73 18.95V78H2188.33ZM2293.97 78.7812C2285.87 78.7812 2278.72 77.2676 2272.54 74.2402C2266.39 71.1803 2261.62 66.8672 2258.23 61.3008C2254.88 55.7344 2253.2 49.3053 2253.2 42.0137C2253.2 31.0111 2256.93 22.1406 2264.38 15.4023C2271.87 8.66406 2281.74 5.29492 2293.97 5.29492C2302.01 5.29492 2309.11 6.82487 2315.26 9.88477C2321.42 12.9121 2326.17 17.209 2329.52 22.7754C2332.91 28.3418 2334.6 34.7546 2334.6 42.0137C2334.6 49.3053 2332.91 55.7344 2329.52 61.3008C2326.17 66.8672 2321.42 71.1803 2315.26 74.2402C2309.11 77.2676 2302.01 78.7812 2293.97 78.7812ZM2294.37 77.0234C2304.33 77.0234 2311.91 74.1914 2317.12 68.5273C2322.36 62.8633 2324.98 54.6602 2324.98 43.918C2324.98 31.9714 2322.29 22.8568 2316.92 16.5742C2311.55 10.2591 2303.77 7.10156 2293.58 7.10156C2283.59 7.10156 2275.96 9.93359 2270.68 15.5977C2265.41 21.2617 2262.77 29.4648 2262.77 40.207C2262.77 52.1536 2265.46 61.2845 2270.83 67.5996C2276.23 73.8822 2284.08 77.0234 2294.37 77.0234ZM2363.27 78L2338.47 6H2346.12L2368.07 69.65L2390.17 6H2397.82L2373.02 78H2363.27ZM2406.32 78V6H2413.67V78H2406.32ZM2428.66 78V6L2436.01 6V40L2468.86 6H2478.26L2444.71 40.75L2481.01 78H2471.41L2436.01 42V78H2428.66ZM2525.22 78.7812C2517.12 78.7812 2509.97 77.2676 2503.79 74.2402C2497.64 71.1803 2492.87 66.8672 2489.48 61.3008C2486.13 55.7344 2484.45 49.3053 2484.45 42.0137C2484.45 31.0111 2488.18 22.1406 2495.63 15.4023C2503.12 8.66406 2512.99 5.29492 2525.22 5.29492C2533.26 5.29492 2540.36 6.82487 2546.51 9.88477C2552.67 12.9121 2557.42 17.209 2560.77 22.7754C2564.16 28.3418 2565.85 34.7546 2565.85 42.0137C2565.85 49.3053 2564.16 55.7344 2560.77 61.3008C2557.42 66.8672 2552.67 71.1803 2546.51 74.2402C2540.36 77.2676 2533.26 78.7812 2525.22 78.7812ZM2525.62 77.0234C2535.58 77.0234 2543.16 74.1914 2548.37 68.5273C2553.61 62.8633 2556.23 54.6602 2556.23 43.918C2556.23 31.9714 2553.54 22.8568 2548.17 16.5742C2542.8 10.2591 2535.02 7.10156 2524.83 7.10156C2514.84 7.10156 2507.21 9.93359 2501.93 15.5977C2496.66 21.2617 2494.02 29.4648 2494.02 40.207C2494.02 52.1536 2496.71 61.2845 2502.08 67.5996C2507.48 73.8822 2515.33 77.0234 2525.62 77.0234ZM2594.52 78L2569.72 6H2577.37L2599.32 69.65L2621.42 6H2629.07L2604.27 78H2594.52ZM2729.08 82.0039H2728.06V75.0215C2727.99 73.752 2727.54 72.6126 2726.69 71.6035C2725.84 70.5944 2724.83 70.0898 2723.66 70.0898C2722.62 70.0898 2721.56 70.5618 2720.49 71.5059C2718.01 73.8822 2715.07 75.6888 2711.65 76.9258C2708.26 78.1628 2704.67 78.7812 2700.86 78.7812C2693.27 78.7812 2686.57 77.2513 2680.74 74.1914C2674.95 71.1315 2670.46 66.8021 2667.27 61.2031C2664.08 55.6042 2662.48 49.1426 2662.48 41.8184C2662.48 34.5918 2664.04 28.2116 2667.17 22.6777C2670.29 17.1439 2674.72 12.8633 2680.45 9.83594C2686.18 6.80859 2692.79 5.29492 2700.27 5.29492C2708.15 5.29492 2714.86 7.39453 2720.39 11.5937C2720.98 12.1797 2721.37 12.8145 2721.56 13.498L2721.95 13.4004C2721.76 12.6191 2721.66 11.8542 2721.66 11.1055L2721.17 1.38867L2722.25 1.29102L2723.96 32.1016L2722.05 32.1992L2721.66 25.6074C2721.27 19.9759 2718.88 15.4837 2714.48 12.1309C2710.12 8.77799 2705.01 7.10156 2699.15 7.10156C2690.36 7.10156 2683.64 9.93359 2678.98 15.5977C2674.36 21.2292 2672.05 29.4323 2672.05 40.207C2672.05 52.1536 2674.54 61.2845 2679.52 67.5996C2684.53 73.8822 2691.81 77.0234 2701.35 77.0234C2705.12 76.9583 2708.7 76.2422 2712.09 74.875C2715.48 73.4753 2718.24 71.457 2720.39 68.8203V55.6855C2720.39 52.8861 2719.45 50.64 2717.56 48.9473C2715.7 47.2546 2713.25 46.4082 2710.19 46.4082H2697.34V44.6016H2738.36V46.4082H2729.08V82.0039ZM2740.75 78L2740.65 77.2187H2744.46C2747.13 77.2187 2748.78 76.9421 2749.39 76.3887C2750.05 75.8027 2750.37 74.3053 2750.37 71.8965V12.4238C2750.37 10.015 2750.05 8.53385 2749.39 7.98047C2748.78 7.39453 2747.13 7.10156 2744.46 7.10156H2740.65V6.22266H2769.37C2778.15 6.22266 2785.22 8.25716 2790.56 12.3262C2795.9 16.3952 2798.56 21.75 2798.56 28.3906C2798.56 34.3802 2796.37 39.3444 2791.97 43.2832C2787.58 47.1895 2782.01 49.4355 2775.27 50.0215L2773.03 50.1191V50.7051C2775.53 50.9329 2777.88 51.6816 2780.06 52.9512C2782.27 54.2207 2784 55.7669 2785.23 57.5898L2790.75 65.5C2790.91 65.7279 2791.32 66.3301 2791.97 67.3066C2792.66 68.2832 2793.14 68.9831 2793.44 69.4062C2793.76 69.7969 2794.24 70.4154 2794.85 71.2617C2795.5 72.0755 2796.04 72.694 2796.46 73.1172C2796.92 73.5078 2797.46 73.9473 2798.08 74.4355C2798.69 74.9238 2799.3 75.2819 2799.88 75.5098C2800.47 75.7051 2801.05 75.8027 2801.64 75.8027C2802.62 75.8027 2803.69 75.3958 2804.86 74.582L2807.26 72.6777L2807.84 73.4102L2805.45 75.3145C2802.03 77.8535 2798.97 79.123 2796.27 79.123C2794.93 79.123 2793.67 78.8464 2792.46 78.293C2791.26 77.7721 2790.08 76.9421 2788.95 75.8027C2787.81 74.6634 2786.88 73.638 2786.16 72.7266C2785.45 71.8151 2784.53 70.5781 2783.43 69.0156L2775.76 58.1758C2773.68 55.3112 2771.9 53.3255 2770.44 52.2187C2769.01 51.0794 2767.15 50.5098 2764.87 50.5098H2763.55V48.8008H2768.54C2775.21 48.8008 2780.3 47.043 2783.82 43.5273C2787.37 40.0117 2789.14 34.9336 2789.14 28.293C2789.14 21.6523 2787.38 16.5905 2783.87 13.1074C2780.35 9.62435 2775.24 7.88281 2768.54 7.88281H2757.16V7.98047C2758.36 9.08724 2758.96 10.8288 2758.96 13.2051V71.7988C2758.96 74.1751 2759.29 75.6562 2759.94 76.2422C2760.62 76.8281 2762.3 77.1211 2764.97 77.1211H2771.37V78H2740.75ZM2850.71 78.7812C2842.61 78.7812 2835.46 77.2676 2829.28 74.2402C2823.12 71.1803 2818.36 66.8672 2814.97 61.3008C2811.62 55.7344 2809.94 49.3053 2809.94 42.0137C2809.94 31.0111 2813.67 22.1406 2821.12 15.4023C2828.61 8.66406 2838.47 5.29492 2850.71 5.29492C2858.75 5.29492 2865.85 6.82487 2872 9.88477C2878.15 12.9121 2882.91 17.209 2886.26 22.7754C2889.65 28.3418 2891.34 34.7546 2891.34 42.0137C2891.34 49.3053 2889.65 55.7344 2886.26 61.3008C2882.91 66.8672 2878.15 71.1803 2872 74.2402C2865.85 77.2676 2858.75 78.7812 2850.71 78.7812ZM2851.1 77.0234C2861.06 77.0234 2868.65 74.1914 2873.86 68.5273C2879.1 62.8633 2881.72 54.6602 2881.72 43.918C2881.72 31.9714 2879.03 22.8568 2873.66 16.5742C2868.29 10.2591 2860.51 7.10156 2850.32 7.10156C2840.33 7.10156 2832.7 9.93359 2827.42 15.5977C2822.15 21.2617 2819.51 29.4648 2819.51 40.207C2819.51 52.1536 2822.2 61.2845 2827.57 67.5996C2832.97 73.8822 2840.82 77.0234 2851.1 77.0234ZM2894.85 6.07617H2922.83V7.00391H2918.05C2915.38 7.00391 2913.73 7.2806 2913.12 7.83398C2912.53 8.38737 2912.24 9.86849 2912.24 12.2773V65.207C2912.24 69.0482 2913.36 71.9779 2915.61 73.9961C2917.88 76.0143 2921.2 77.0234 2925.57 77.0234C2931.43 77.0234 2935.9 75.7051 2938.99 73.0684C2942.09 70.4316 2943.63 66.6068 2943.63 61.5937V14.084C2943.63 11.5449 2943.21 9.73828 2942.36 8.66406C2941.55 7.55729 2939.91 7.00391 2937.43 7.00391H2933.33V6.07617L2954.77 6.07617V7.00391H2951.93C2949.39 7.00391 2947.7 7.54102 2946.86 8.61523C2946.04 9.68945 2945.63 11.5124 2945.63 14.084V61.5937C2945.63 67.1927 2943.93 71.457 2940.51 74.3867C2937.09 77.3164 2932.11 78.7812 2925.57 78.7812C2919.02 78.7812 2913.73 77.2025 2909.7 74.0449C2905.66 70.8874 2903.64 66.737 2903.64 61.5937V12.2773C2903.64 9.90104 2903.3 8.4362 2902.62 7.88281C2901.97 7.29687 2900.31 7.00391 2897.64 7.00391H2894.85V6.07617ZM2975.03 7.98047V8.51758C2976.23 9.98242 2976.84 12.0495 2976.84 14.7187V48.2148H2983.04C2989.97 48.2148 2995.24 46.5059 2998.86 43.0879C3002.5 39.6374 3004.33 34.6406 3004.33 28.0977C3004.33 21.5547 3002.5 16.5742 2998.86 13.1562C2995.24 9.70573 2989.97 7.98047 2983.04 7.98047H2975.03ZM2958.62 78V77.1211H2962.43C2965.1 77.1211 2966.74 76.8444 2967.36 76.291C2968.01 75.7051 2968.34 74.2077 2968.34 71.7988V12.2773C2968.34 9.90104 2968.01 8.4362 2967.36 7.88281C2966.74 7.29687 2965.1 7.00391 2962.43 7.00391H2958.62V6.07617H2986.31C2994.61 6.07617 3001.28 8.0944 3006.33 12.1309C3011.41 16.1673 3013.95 21.4896 3013.95 28.0977C3013.95 34.6406 3011.41 39.9303 3006.33 43.9668C3001.28 48.0033 2994.61 50.0215 2986.31 50.0215H2976.84V71.7988C2976.84 74.1751 2977.16 75.6562 2977.81 76.2422C2978.5 76.8281 2980.17 77.1211 2982.84 77.1211H2985.53V78H2958.62Z" fill="black"/>
</svg>
