<svg width="3325" height="82" viewBox="0 0 3325 82" fill="none" xmlns="http://www.w3.org/2000/svg">
    <path d="M0.144531 78L0.0445314 77.2H3.84453C9.14453 77.2 9.74453 76.7 9.74453 71.9L9.74453 12.4C9.74453 7.59999 9.14453 7.09999 3.84453 7.09999H0.0445314V6.19999H28.7445C46.3445 6.19999 57.9445 15.1 57.9445 28.4C57.9445 40.6 47.8445 48.9 34.6445 50L32.4445 50.1V50.7C37.6445 51.2 42.2445 54.1 44.6445 57.6L50.1445 65.5C53.0445 69.6 56.7445 75.8 61.0445 75.8C62.0445 75.8 63.1445 75.4 64.2445 74.6L66.6445 72.7L67.2445 73.4L64.8445 75.3C61.2445 78 58.3445 79.1 55.6445 79.1C50.0445 79.1 46.2445 73.9 42.8445 69L35.1445 58.2C31.4445 53.1 29.1445 50.5 24.2445 50.5H22.9445V48.8H27.9445C41.3445 48.8 48.5445 41.6 48.5445 28.3C48.5445 15 41.3445 7.9 27.9445 7.9H16.5445V8C17.8445 9.2 18.3445 10.9 18.3445 13.2V71.8C18.3445 76.6 19.0445 77.1 24.3445 77.1H30.7445V78H0.144531ZM103.418 57.4H102.418V51.9C102.418 42.3 96.718 41.2 90.518 41.2H86.118V70.9C86.118 73.1 85.018 74.9 83.718 76.1V76.2H105.618C116.218 76.2 121.218 72.3 122.018 62.7L122.718 54.7H124.418L122.518 81.8L121.618 81.7L121.918 77.1H121.818C121.018 77.8 119.518 78 117.718 78H67.918V77.1H71.718C77.018 77.1 77.618 76.6 77.618 71.8V12.3C77.618 7.5 77.018 7 71.718 7H67.918V6.1H111.818C113.518 6.1 115.118 6.3 115.818 7H116.018L115.618 2.4L116.618 2.3L118.618 29.4H116.618L116.218 22.4C115.518 11.6 109.818 7.9 99.218 7.9H83.718V8C85.018 9.2 86.118 11 86.118 13.2V39.4H90.518C96.718 39.4 102.418 38.4 102.418 28.8V25.3H103.418V57.4ZM129.76 53.5L131.66 53.6L131.86 57.7C132.46 69.5 141.26 77.1 151.76 77.1C161.76 77.1 168.26 71.8 168.26 62C168.26 43.7 132.06 43.7 132.06 21.5C132.06 11.8 140.76 5.29999 153.76 5.29999C160.36 5.29999 164.96 7.4 168.36 9.7C169.16 10.2 169.96 11.7 170.16 12L170.86 11.8C170.66 11.1 170.56 10 170.46 8.6L170.16 3.3H171.26L172.46 26.9L170.46 27L170.26 22.8C169.76 14.9 164.66 7.09999 153.76 7.09999C144.86 7.09999 139.76 11.4 139.76 19.3C139.76 37 176.46 36.8 176.46 60.3C176.46 72.3 167.16 78.8 151.96 78.8C145.16 78.8 140.16 77 134.56 73.4C133.76 72.9 132.16 71 131.86 70.1L131.36 70.2C131.76 71.2 131.76 73.3 131.86 74.5L132.16 80.8H131.16L129.76 53.5ZM189.716 78V77.1H198.116C203.416 77.1 203.916 76.6 203.916 71.8V7.9H197.316C186.716 7.9 183.016 9.8 182.516 19.4L182.116 23.5L180.116 23.4L181.816 0.199994L183.016 0.299999L182.516 6.1H233.716L233.216 0.399998L234.416 0.299999L236.016 23.4L234.016 23.5L233.716 19.4C232.916 9.8 229.416 7.9 218.916 7.9H212.516V71.8C212.516 76.6 213.016 77.1 218.316 77.1H226.516V78H189.716ZM230.783 78V77.1H232.483C235.283 77.1 236.883 74.3 238.583 70.9L269.483 6.1H277.983V7.3C277.983 9.3 278.383 11.9 278.983 13.1L304.883 70.9C307.083 75.7 307.483 77.1 311.383 77.1H312.283V78H291.283V77.1H299.683V76.9C298.183 76.4 297.083 73.9 296.283 72.2L290.183 58.5H246.583L240.683 70.9C240.383 71.7 240.083 72.5 240.083 73.2C240.083 75.5 242.083 77.1 245.383 77.1H250.783V78H230.783ZM247.483 56.7H289.383L270.683 15C269.883 13.4 269.783 12.1 269.783 11H268.783C268.783 11.6 268.483 12.9 267.483 15L247.483 56.7ZM309.91 6.1H337.91V7H333.11C327.81 7 327.31 7.5 327.31 12.3V65.2C327.31 72.9 331.91 77 340.61 77C352.31 77 358.71 71.6 358.71 61.6V14.1C358.71 9.3 357.71 7 352.51 7H348.41V6.1H369.81V7H367.01C361.71 7 360.71 9.3 360.71 14.1V61.6C360.71 72.8 353.71 78.8 340.61 78.8C327.51 78.8 318.71 71.9 318.71 61.6V12.3C318.71 7.5 318.01 7 312.71 7H309.91V6.1ZM373.68 78L373.58 77.2H377.38C382.68 77.2 383.28 76.7 383.28 71.9V12.4C383.28 7.59999 382.68 7.09999 377.38 7.09999H373.58V6.19999L402.28 6.19999C419.88 6.19999 431.48 15.1 431.48 28.4C431.48 40.6 421.38 48.9 408.18 50L405.98 50.1V50.7C411.18 51.2 415.78 54.1 418.18 57.6L423.68 65.5C426.58 69.6 430.28 75.8 434.58 75.8C435.58 75.8 436.68 75.4 437.78 74.6L440.18 72.7L440.78 73.4L438.38 75.3C434.78 78 431.88 79.1 429.18 79.1C423.58 79.1 419.78 73.9 416.38 69L408.68 58.2C404.98 53.1 402.68 50.5 397.78 50.5H396.48V48.8H401.48C414.88 48.8 422.08 41.6 422.08 28.3C422.08 15 414.88 7.9 401.48 7.9H390.08V8C391.38 9.2 391.88 10.9 391.88 13.2V71.8C391.88 76.6 392.58 77.1 397.88 77.1H404.28V78H373.68ZM440.353 78V77.1H442.053C444.853 77.1 446.453 74.3 448.153 70.9L479.053 6.1H487.553V7.3C487.553 9.3 487.953 11.9 488.553 13.1L514.453 70.9C516.653 75.7 517.053 77.1 520.953 77.1H521.853V78L500.853 78V77.1H509.253V76.9C507.753 76.4 506.653 73.9 505.853 72.2L499.753 58.5H456.153L450.253 70.9C449.953 71.7 449.653 72.5 449.653 73.2C449.653 75.5 451.653 77.1 454.953 77.1H460.353V78H440.353ZM457.053 56.7H498.953L480.253 15C479.453 13.4 479.353 12.1 479.353 11H478.353C478.353 11.6 478.053 12.9 477.053 15L457.053 56.7ZM544.352 78H524.852V77.1H527.652C532.952 77.1 533.652 76.6 533.652 71.8V12.3C533.652 7.5 532.952 7 527.652 7H524.852V6.1H541.652L571.852 56.5C573.052 58.4 573.752 59.8 573.752 60.2H574.452C574.352 59.1 574.352 57.7 574.352 56V13.3C574.352 8.49999 572.552 7 567.252 7H562.352V6.1H584.952V7H583.252C577.952 7 576.152 8.49999 576.152 13.3V79.9H575.352C575.352 78.6 573.652 76.1 572.252 73.7L538.152 17.4C537.052 15.5 535.952 13.9 535.952 13.5H535.352C535.552 14.6 535.552 16.1 535.552 17.8V71.8C535.552 76.6 536.152 77.1 541.452 77.1H544.352V78ZM598.016 78V77.1H606.416C611.716 77.1 612.216 76.6 612.216 71.8V7.9H605.616C595.016 7.9 591.316 9.8 590.816 19.4L590.416 23.5L588.416 23.4L590.116 0.199994L591.316 0.299999L590.816 6.1L642.016 6.1L641.516 0.399998L642.716 0.299999L644.316 23.4L642.316 23.5L642.016 19.4C641.216 9.8 637.716 7.9 627.216 7.9H620.816V71.8C620.816 76.6 621.316 77.1 626.616 77.1H634.816V78H598.016ZM648.315 53.5L650.215 53.6L650.415 57.7C651.015 69.5 659.815 77.1 670.315 77.1C680.315 77.1 686.815 71.8 686.815 62C686.815 43.7 650.615 43.7 650.615 21.5C650.615 11.8 659.315 5.29999 672.315 5.29999C678.915 5.29999 683.515 7.4 686.915 9.7C687.715 10.2 688.515 11.7 688.715 12L689.415 11.8C689.215 11.1 689.115 10 689.015 8.6L688.715 3.3H689.815L691.015 26.9L689.015 27L688.815 22.8C688.315 14.9 683.215 7.09999 672.315 7.09999C663.415 7.09999 658.315 11.4 658.315 19.3C658.315 37 695.015 36.8 695.015 60.3C695.015 72.3 685.715 78.8 670.515 78.8C663.715 78.8 658.715 77 653.115 73.4C652.315 72.9 650.715 71 650.415 70.1L649.915 70.2C650.315 71.2 650.315 73.3 650.415 74.5L650.715 80.8H649.715L648.315 53.5ZM734.148 78V6H741.548L781.148 65V6H788.548V78H781.148L741.548 18.9V78H734.148ZM839.708 78.8C815.208 78.8 798.908 64.1 798.908 42C798.908 20 815.208 5.29999 839.708 5.29999C864.008 5.29999 880.308 20 880.308 42C880.308 64.1 864.008 78.8 839.708 78.8ZM840.108 77C860.008 77 870.708 65.4 870.708 43.9C870.708 20 859.708 7.09999 839.308 7.09999C819.308 7.09999 808.508 18.7 808.508 40.2C808.508 64.1 819.508 77 840.108 77ZM908.991 78L884.191 6H891.891L913.791 69.7L935.891 6H943.591L918.791 78H908.991ZM952.043 78V6H959.343V78H952.043ZM974.383 78V6H981.683V40L1014.58 6H1023.98L990.383 40.8L1026.78 78H1017.18L981.683 42V78H974.383ZM1070.96 78.8C1046.46 78.8 1030.16 64.1 1030.16 42C1030.16 20 1046.46 5.29999 1070.96 5.29999C1095.26 5.29999 1111.56 20 1111.56 42C1111.56 64.1 1095.26 78.8 1070.96 78.8ZM1071.36 77C1091.26 77 1101.96 65.4 1101.96 43.9C1101.96 20 1090.96 7.09999 1070.56 7.09999C1050.56 7.09999 1039.76 18.7 1039.76 40.2C1039.76 64.1 1050.76 77 1071.36 77ZM1140.24 78L1115.44 6H1123.14L1145.04 69.7L1167.14 6H1174.84L1150.04 78H1140.24ZM1274.79 82H1273.79V75C1273.69 72.5 1271.79 70.1 1269.39 70.1C1268.39 70.1 1267.29 70.5 1266.19 71.5C1261.19 76.3 1254.09 78.8 1246.59 78.8C1223.59 78.8 1208.19 64 1208.19 41.8C1208.19 19.9 1223.29 5.29999 1245.99 5.29999C1253.39 5.29999 1260.59 7.4 1266.09 11.6C1266.59 12.1 1267.09 12.8 1267.29 13.5L1267.69 13.4C1267.49 12.6 1267.39 12 1267.39 11.1L1266.89 1.4L1267.99 1.3L1269.69 32.1L1267.79 32.2L1267.39 25.6C1266.59 13.9 1256.09 7.09999 1244.89 7.09999C1227.29 7.09999 1217.79 18.6 1217.79 40.2C1217.79 64.1 1227.99 77 1247.09 77C1254.29 76.9 1261.59 74.3 1266.09 68.8V55.7C1266.09 50.1 1261.99 46.4 1255.89 46.4H1243.09V44.6L1284.09 44.6V46.4H1274.79V82ZM1286.47 78L1286.37 77.2H1290.17C1295.47 77.2 1296.07 76.7 1296.07 71.9V12.4C1296.07 7.59999 1295.47 7.09999 1290.17 7.09999H1286.37V6.19999H1315.07C1332.67 6.19999 1344.27 15.1 1344.27 28.4C1344.27 40.6 1334.17 48.9 1320.97 50L1318.77 50.1V50.7C1323.97 51.2 1328.57 54.1 1330.97 57.6L1336.47 65.5C1339.37 69.6 1343.07 75.8 1347.37 75.8C1348.37 75.8 1349.47 75.4 1350.57 74.6L1352.97 72.7L1353.57 73.4L1351.17 75.3C1347.57 78 1344.67 79.1 1341.97 79.1C1336.37 79.1 1332.57 73.9 1329.17 69L1321.47 58.2C1317.77 53.1 1315.47 50.5 1310.57 50.5H1309.27V48.8H1314.27C1327.67 48.8 1334.87 41.6 1334.87 28.3C1334.87 15 1327.67 7.9 1314.27 7.9H1302.87V8C1304.17 9.2 1304.67 10.9 1304.67 13.2V71.8C1304.67 76.6 1305.37 77.1 1310.67 77.1H1317.07V78H1286.47ZM1396.45 78.8C1371.95 78.8 1355.65 64.1 1355.65 42C1355.65 20 1371.95 5.29999 1396.45 5.29999C1420.75 5.29999 1437.05 20 1437.05 42C1437.05 64.1 1420.75 78.8 1396.45 78.8ZM1396.85 77C1416.75 77 1427.45 65.4 1427.45 43.9C1427.45 20 1416.45 7.09999 1396.05 7.09999C1376.05 7.09999 1365.25 18.7 1365.25 40.2C1365.25 64.1 1376.25 77 1396.85 77ZM1440.67 6.1H1468.67V7H1463.87C1458.57 7 1458.07 7.5 1458.07 12.3V65.2C1458.07 72.9 1462.67 77 1471.37 77C1483.07 77 1489.47 71.6 1489.47 61.6V14.1C1489.47 9.3 1488.47 7 1483.27 7H1479.17V6.1H1500.57V7H1497.77C1492.47 7 1491.47 9.3 1491.47 14.1V61.6C1491.47 72.8 1484.47 78.8 1471.37 78.8C1458.27 78.8 1449.47 71.9 1449.47 61.6V12.3C1449.47 7.5 1448.77 7 1443.47 7H1440.67V6.1ZM1520.84 8V8.49999C1522.14 10.1 1522.64 12.4 1522.64 14.7V48.2H1528.84C1542.74 48.2 1550.14 41.2 1550.14 28.1C1550.14 15 1542.74 8 1528.84 8H1520.84ZM1504.44 78V77.1H1508.24C1513.54 77.1 1514.14 76.6 1514.14 71.8V12.3C1514.14 7.5 1513.54 7 1508.24 7H1504.44V6.1H1532.14C1548.74 6.1 1559.74 14.9 1559.74 28.1C1559.74 41.2 1548.74 50 1532.14 50H1522.64V71.8C1522.64 76.6 1523.34 77.1 1528.64 77.1H1531.34V78H1504.44ZM1660.6 50.5H1564.6V47.8H1660.6V50.5ZM1664.5 78L1664.4 77.2H1668.2C1673.5 77.2 1674.1 76.7 1674.1 71.9V12.4C1674.1 7.59999 1673.5 7.09999 1668.2 7.09999H1664.4V6.19999H1693.1C1710.7 6.19999 1722.3 15.1 1722.3 28.4C1722.3 40.6 1712.2 48.9 1699 50L1696.8 50.1V50.7C1702 51.2 1706.6 54.1 1709 57.6L1714.5 65.5C1717.4 69.6 1721.1 75.8 1725.4 75.8C1726.4 75.8 1727.5 75.4 1728.6 74.6L1731 72.7L1731.6 73.4L1729.2 75.3C1725.6 78 1722.7 79.1 1720 79.1C1714.4 79.1 1710.6 73.9 1707.2 69L1699.5 58.2C1695.8 53.1 1693.5 50.5 1688.6 50.5H1687.3V48.8H1692.3C1705.7 48.8 1712.9 41.6 1712.9 28.3C1712.9 15 1705.7 7.9 1692.3 7.9H1680.9V8C1682.2 9.2 1682.7 10.9 1682.7 13.2V71.8C1682.7 76.6 1683.4 77.1 1688.7 77.1H1695.1V78H1664.5ZM1767.77 57.4H1766.77V51.9C1766.77 42.3 1761.07 41.2 1754.87 41.2H1750.47V70.9C1750.47 73.1 1749.37 74.9 1748.07 76.1V76.2H1769.97C1780.57 76.2 1785.57 72.3 1786.37 62.7L1787.07 54.7H1788.77L1786.87 81.8L1785.97 81.7L1786.27 77.1H1786.17C1785.37 77.8 1783.87 78 1782.07 78H1732.27V77.1H1736.07C1741.37 77.1 1741.97 76.6 1741.97 71.8V12.3C1741.97 7.5 1741.37 7 1736.07 7H1732.27V6.1H1776.17C1777.87 6.1 1779.47 6.3 1780.17 7H1780.37L1779.97 2.4L1780.97 2.3L1782.97 29.4H1780.97L1780.57 22.4C1779.87 11.6 1774.17 7.9 1763.57 7.9H1748.07V8C1749.37 9.2 1750.47 11 1750.47 13.2V39.4H1754.87C1761.07 39.4 1766.77 38.4 1766.77 28.8V25.3H1767.77V57.4ZM1794.12 53.5L1796.02 53.6L1796.22 57.7C1796.82 69.5 1805.62 77.1 1816.12 77.1C1826.12 77.1 1832.62 71.8 1832.62 62C1832.62 43.7 1796.42 43.7 1796.42 21.5C1796.42 11.8 1805.12 5.29999 1818.12 5.29999C1824.72 5.29999 1829.32 7.4 1832.72 9.7C1833.52 10.2 1834.32 11.7 1834.52 12L1835.22 11.8C1835.02 11.1 1834.92 10 1834.82 8.6L1834.52 3.3H1835.62L1836.82 26.9L1834.82 27L1834.62 22.8C1834.12 14.9 1829.02 7.09999 1818.12 7.09999C1809.22 7.09999 1804.12 11.4 1804.12 19.3C1804.12 37 1840.82 36.8 1840.82 60.3C1840.82 72.3 1831.52 78.8 1816.32 78.8C1809.52 78.8 1804.52 77 1798.92 73.4C1798.12 72.9 1796.52 71 1796.22 70.1L1795.72 70.2C1796.12 71.2 1796.12 73.3 1796.22 74.5L1796.52 80.8H1795.52L1794.12 53.5ZM1854.07 78V77.1H1862.47C1867.77 77.1 1868.27 76.6 1868.27 71.8V7.9H1861.67C1851.07 7.9 1847.37 9.8 1846.87 19.4L1846.47 23.5L1844.47 23.4L1846.17 0.199994L1847.37 0.299999L1846.87 6.1H1898.07L1897.57 0.399998L1898.77 0.299999L1900.37 23.4L1898.37 23.5L1898.07 19.4C1897.27 9.8 1893.77 7.9 1883.27 7.9H1876.87V71.8C1876.87 76.6 1877.37 77.1 1882.67 77.1H1890.87V78H1854.07ZM1895.14 78V77.1H1896.84C1899.64 77.1 1901.24 74.3 1902.94 70.9L1933.84 6.1H1942.34V7.3C1942.34 9.3 1942.74 11.9 1943.34 13.1L1969.24 70.9C1971.44 75.7 1971.84 77.1 1975.74 77.1H1976.64V78H1955.64V77.1H1964.04V76.9C1962.54 76.4 1961.44 73.9 1960.64 72.2L1954.54 58.5H1910.94L1905.04 70.9C1904.74 71.7 1904.44 72.5 1904.44 73.2C1904.44 75.5 1906.44 77.1 1909.74 77.1H1915.14V78H1895.14ZM1911.84 56.7H1953.74L1935.04 15C1934.24 13.4 1934.14 12.1 1934.14 11H1933.14C1933.14 11.6 1932.84 12.9 1931.84 15L1911.84 56.7ZM1974.27 6.1H2002.27V7H1997.47C1992.17 7 1991.67 7.5 1991.67 12.3V65.2C1991.67 72.9 1996.27 77 2004.97 77C2016.67 77 2023.07 71.6 2023.07 61.6V14.1C2023.07 9.3 2022.07 7 2016.87 7H2012.77V6.1H2034.17V7H2031.37C2026.07 7 2025.07 9.3 2025.07 14.1V61.6C2025.07 72.8 2018.07 78.8 2004.97 78.8C1991.87 78.8 1983.07 71.9 1983.07 61.6V12.3C1983.07 7.5 1982.37 7 1977.07 7H1974.27V6.1ZM2038.04 78L2037.94 77.2H2041.74C2047.04 77.2 2047.64 76.7 2047.64 71.9V12.4C2047.64 7.59999 2047.04 7.09999 2041.74 7.09999H2037.94V6.19999H2066.64C2084.24 6.19999 2095.84 15.1 2095.84 28.4C2095.84 40.6 2085.74 48.9 2072.54 50L2070.34 50.1V50.7C2075.54 51.2 2080.14 54.1 2082.54 57.6L2088.04 65.5C2090.94 69.6 2094.64 75.8 2098.94 75.8C2099.94 75.8 2101.04 75.4 2102.14 74.6L2104.54 72.7L2105.14 73.4L2102.74 75.3C2099.14 78 2096.24 79.1 2093.54 79.1C2087.94 79.1 2084.14 73.9 2080.74 69L2073.04 58.2C2069.34 53.1 2067.04 50.5 2062.14 50.5H2060.84V48.8H2065.84C2079.24 48.8 2086.44 41.6 2086.44 28.3C2086.44 15 2079.24 7.9 2065.84 7.9H2054.44V8C2055.74 9.2 2056.24 10.9 2056.24 13.2V71.8C2056.24 76.6 2056.94 77.1 2062.24 77.1H2068.64V78H2038.04ZM2104.71 78V77.1H2106.41C2109.21 77.1 2110.81 74.3 2112.51 70.9L2143.41 6.1H2151.91V7.3C2151.91 9.3 2152.31 11.9 2152.91 13.1L2178.81 70.9C2181.01 75.7 2181.41 77.1 2185.31 77.1H2186.21V78H2165.21V77.1H2173.61V76.9C2172.11 76.4 2171.01 73.9 2170.21 72.2L2164.11 58.5H2120.51L2114.61 70.9C2114.31 71.7 2114.01 72.5 2114.01 73.2C2114.01 75.5 2116.01 77.1 2119.31 77.1H2124.71V78H2104.71ZM2121.41 56.7H2163.31L2144.61 15C2143.81 13.4 2143.71 12.1 2143.71 11H2142.71C2142.71 11.6 2142.41 12.9 2141.41 15L2121.41 56.7ZM2208.71 78H2189.21V77.1H2192.01C2197.31 77.1 2198.01 76.6 2198.01 71.8V12.3C2198.01 7.5 2197.31 7 2192.01 7H2189.21V6.1H2206.01L2236.21 56.5C2237.41 58.4 2238.11 59.8 2238.11 60.2H2238.81C2238.71 59.1 2238.71 57.7 2238.71 56V13.3C2238.71 8.49999 2236.91 7 2231.61 7H2226.71V6.1H2249.31V7H2247.61C2242.31 7 2240.51 8.49999 2240.51 13.3V79.9H2239.71C2239.71 78.6 2238.01 76.1 2236.61 73.7L2202.51 17.4C2201.41 15.5 2200.31 13.9 2200.31 13.5H2199.71C2199.91 14.6 2199.91 16.1 2199.91 17.8V71.8C2199.91 76.6 2200.51 77.1 2205.81 77.1H2208.71V78ZM2262.37 78V77.1H2270.77C2276.07 77.1 2276.57 76.6 2276.57 71.8V7.9H2269.97C2259.37 7.9 2255.67 9.8 2255.17 19.4L2254.77 23.5L2252.77 23.4L2254.47 0.199994L2255.67 0.299999L2255.17 6.1H2306.37L2305.87 0.399998L2307.07 0.299999L2308.67 23.4L2306.67 23.5L2306.37 19.4C2305.57 9.8 2302.07 7.9 2291.57 7.9H2285.17V71.8C2285.17 76.6 2285.67 77.1 2290.97 77.1H2299.17V78H2262.37ZM2312.67 53.5L2314.57 53.6L2314.77 57.7C2315.37 69.5 2324.17 77.1 2334.67 77.1C2344.67 77.1 2351.17 71.8 2351.17 62C2351.17 43.7 2314.97 43.7 2314.97 21.5C2314.97 11.8 2323.67 5.29999 2336.67 5.29999C2343.27 5.29999 2347.87 7.4 2351.27 9.7C2352.07 10.2 2352.87 11.7 2353.07 12L2353.77 11.8C2353.57 11.1 2353.47 10 2353.37 8.6L2353.07 3.3H2354.17L2355.37 26.9L2353.37 27L2353.17 22.8C2352.67 14.9 2347.57 7.09999 2336.67 7.09999C2327.77 7.09999 2322.67 11.4 2322.67 19.3C2322.67 37 2359.37 36.8 2359.37 60.3C2359.37 72.3 2350.07 78.8 2334.87 78.8C2328.07 78.8 2323.07 77 2317.47 73.4C2316.67 72.9 2315.07 71 2314.77 70.1L2314.27 70.2C2314.67 71.2 2314.67 73.3 2314.77 74.5L2315.07 80.8H2314.07L2312.67 53.5ZM2398.5 78V6H2405.9L2445.5 65V6H2452.9V78H2445.5L2405.9 18.9V78H2398.5ZM2504.06 78.8C2479.56 78.8 2463.26 64.1 2463.26 42C2463.26 20 2479.56 5.29999 2504.06 5.29999C2528.36 5.29999 2544.66 20 2544.66 42C2544.66 64.1 2528.36 78.8 2504.06 78.8ZM2504.46 77C2524.36 77 2535.06 65.4 2535.06 43.9C2535.06 20 2524.06 7.09999 2503.66 7.09999C2483.66 7.09999 2472.86 18.7 2472.86 40.2C2472.86 64.1 2483.86 77 2504.46 77ZM2573.35 78L2548.55 6H2556.25L2578.15 69.7L2600.25 6H2607.95L2583.15 78H2573.35ZM2616.4 78V6H2623.7V78H2616.4ZM2638.74 78V6H2646.04V40L2678.94 6L2688.34 6L2654.74 40.8L2691.14 78H2681.54L2646.04 42V78H2638.74ZM2735.31 78.8C2710.81 78.8 2694.51 64.1 2694.51 42C2694.51 20 2710.81 5.29999 2735.31 5.29999C2759.61 5.29999 2775.91 20 2775.91 42C2775.91 64.1 2759.61 78.8 2735.31 78.8ZM2735.71 77C2755.61 77 2766.31 65.4 2766.31 43.9C2766.31 20 2755.31 7.09999 2734.91 7.09999C2714.91 7.09999 2704.11 18.7 2704.11 40.2C2704.11 64.1 2715.11 77 2735.71 77ZM2804.6 78L2779.8 6H2787.5L2809.4 69.7L2831.5 6H2839.2L2814.4 78H2804.6ZM2939.15 82H2938.15V75C2938.05 72.5 2936.15 70.1 2933.75 70.1C2932.75 70.1 2931.65 70.5 2930.55 71.5C2925.55 76.3 2918.45 78.8 2910.95 78.8C2887.95 78.8 2872.55 64 2872.55 41.8C2872.55 19.9 2887.65 5.29999 2910.35 5.29999C2917.75 5.29999 2924.95 7.4 2930.45 11.6C2930.95 12.1 2931.45 12.8 2931.65 13.5L2932.05 13.4C2931.85 12.6 2931.75 12 2931.75 11.1L2931.25 1.4L2932.35 1.3L2934.05 32.1L2932.15 32.2L2931.75 25.6C2930.95 13.9 2920.45 7.09999 2909.25 7.09999C2891.65 7.09999 2882.15 18.6 2882.15 40.2C2882.15 64.1 2892.35 77 2911.45 77C2918.65 76.9 2925.95 74.3 2930.45 68.8V55.7C2930.45 50.1 2926.35 46.4 2920.25 46.4H2907.45V44.6H2948.45V46.4H2939.15V82ZM2950.83 78L2950.73 77.2H2954.53C2959.83 77.2 2960.43 76.7 2960.43 71.9V12.4C2960.43 7.59999 2959.83 7.09999 2954.53 7.09999H2950.73V6.19999H2979.43C2997.03 6.19999 3008.63 15.1 3008.63 28.4C3008.63 40.6 2998.53 48.9 2985.33 50L2983.13 50.1V50.7C2988.33 51.2 2992.93 54.1 2995.33 57.6L3000.83 65.5C3003.73 69.6 3007.43 75.8 3011.73 75.8C3012.73 75.8 3013.83 75.4 3014.93 74.6L3017.33 72.7L3017.93 73.4L3015.53 75.3C3011.93 78 3009.03 79.1 3006.33 79.1C3000.73 79.1 2996.93 73.9 2993.53 69L2985.83 58.2C2982.13 53.1 2979.83 50.5 2974.93 50.5H2973.63V48.8H2978.63C2992.03 48.8 2999.23 41.6 2999.23 28.3C2999.23 15 2992.03 7.9 2978.63 7.9H2967.23V8C2968.53 9.2 2969.03 10.9 2969.03 13.2V71.8C2969.03 76.6 2969.73 77.1 2975.03 77.1H2981.43V78H2950.83ZM3060.8 78.8C3036.3 78.8 3020 64.1 3020 42C3020 20 3036.3 5.29999 3060.8 5.29999C3085.1 5.29999 3101.4 20 3101.4 42C3101.4 64.1 3085.1 78.8 3060.8 78.8ZM3061.2 77C3081.1 77 3091.8 65.4 3091.8 43.9C3091.8 20 3080.8 7.09999 3060.4 7.09999C3040.4 7.09999 3029.6 18.7 3029.6 40.2C3029.6 64.1 3040.6 77 3061.2 77ZM3105.03 6.1H3133.03V7H3128.23C3122.93 7 3122.43 7.5 3122.43 12.3V65.2C3122.43 72.9 3127.03 77 3135.73 77C3147.43 77 3153.83 71.6 3153.83 61.6V14.1C3153.83 9.3 3152.83 7 3147.63 7H3143.53V6.1H3164.93V7H3162.13C3156.83 7 3155.83 9.3 3155.83 14.1V61.6C3155.83 72.8 3148.83 78.8 3135.73 78.8C3122.63 78.8 3113.83 71.9 3113.83 61.6V12.3C3113.83 7.5 3113.13 7 3107.83 7H3105.03V6.1ZM3185.2 8V8.49999C3186.5 10.1 3187 12.4 3187 14.7V48.2H3193.2C3207.1 48.2 3214.5 41.2 3214.5 28.1C3214.5 15 3207.1 8 3193.2 8H3185.2ZM3168.8 78V77.1H3172.6C3177.9 77.1 3178.5 76.6 3178.5 71.8V12.3C3178.5 7.5 3177.9 7 3172.6 7H3168.8V6.1H3196.5C3213.1 6.1 3224.1 14.9 3224.1 28.1C3224.1 41.2 3213.1 50 3196.5 50H3187V71.8C3187 76.6 3187.7 77.1 3193 77.1H3195.7V78H3168.8ZM3324.95 50.5H3228.95V47.8H3324.95V50.5Z" fill="black"/>
</svg>
