<svg width="461" height="566" viewBox="0 0 461 566" fill="none" xmlns="http://www.w3.org/2000/svg">
<path d="M149.576 551.428V544.526H127.331C86.6772 544.526 82.0749 540.691 82.0749 503.878V89.7317C82.0749 76.6938 82.0749 65.1897 80.5408 56.7534H85.1431C85.1431 59.8211 93.5807 72.0922 102.018 86.664L363.584 518.45C374.323 536.856 387.363 556.03 387.363 566H393.499V55.2195C393.499 18.4065 407.306 6.90245 447.96 6.90245H461V0L287.646 0V6.90245L325.231 6.90245C365.885 6.90245 379.692 18.4065 379.692 55.2195V382.702C379.692 395.74 379.692 406.477 380.459 414.913H375.09C375.09 411.846 369.72 401.108 360.516 386.537L128.865 0L0 0L0 6.90245H21.4775C62.1314 6.90245 67.5008 10.7371 67.5008 47.5502V503.878C67.5008 540.691 62.1314 544.526 21.4775 544.526H0L0 551.428H149.576Z" fill="white"/>
</svg>
