<svg width="164" height="22" viewBox="0 0 164 22" fill="none" xmlns="http://www.w3.org/2000/svg">
<mask id="mask0" mask-type="alpha" maskUnits="userSpaceOnUse" x="0" y="0" width="164" height="22">
<path d="M0 0H164V22H0V0Z" fill="#F6F6F6"/>
</mask>
<g mask="url(#mask0)">
<path d="M-14.531 17.68H-13.068V16H-6.565V17.68H-5.095V14.621H-5.844V5.92L-12.298 5.913C-12.34 6.62233 -12.3797 7.278 -12.417 7.88C-12.4497 8.482 -12.487 9.063 -12.529 9.623C-12.5663 10.183 -12.613 10.7593 -12.669 11.352C-12.725 11.9307 -12.809 12.4697 -12.921 12.969C-13.033 13.4637 -13.215 13.8627 -13.467 14.166C-13.7143 14.4693 -14.069 14.621 -14.531 14.621V17.68ZM-12.13 14.621C-11.9247 14.397 -11.7683 14.1543 -11.661 13.893C-11.5537 13.6317 -11.4697 13.3237 -11.409 12.969C-11.3483 12.6097 -11.2947 12.1733 -11.248 11.66C-11.192 11.1187 -11.15 10.6147 -11.122 10.148C-11.0893 9.68133 -11.0613 9.217 -11.038 8.755C-11.01 8.293 -10.9797 7.80533 -10.947 7.292L-7.307 7.299V14.621H-12.13ZM0.645985 16.21C1.65398 16.21 2.51265 15.9883 3.22198 15.545C3.93132 15.1017 4.47265 14.488 4.84598 13.704C5.21932 12.9153 5.40599 12.0007 5.40599 10.96C5.40599 9.91933 5.21932 9.007 4.84598 8.223C4.47265 7.43433 3.93132 6.81833 3.22198 6.375C2.51265 5.93167 1.65398 5.71 0.645985 5.71C-0.362015 5.71 -1.22068 5.93167 -1.93002 6.375C-2.63935 6.81833 -3.18302 7.43433 -3.56102 8.223C-3.93435 9.007 -4.12102 9.91933 -4.12102 10.96C-4.12102 12.0007 -3.93435 12.9153 -3.56102 13.704C-3.18302 14.488 -2.63935 15.1017 -1.93002 15.545C-1.22068 15.9883 -0.362015 16.21 0.645985 16.21ZM0.645985 14.817C-0.422682 14.8077 -1.22768 14.4507 -1.76902 13.746C-2.30568 13.0413 -2.57168 12.1127 -2.56702 10.96C-2.56235 10.19 -2.44335 9.51567 -2.21002 8.937C-1.97202 8.35367 -1.61502 7.901 -1.13902 7.579C-0.663016 7.25233 -0.0680155 7.09367 0.645985 7.103C1.71932 7.10767 2.52198 7.46233 3.05398 8.167C3.58598 8.87167 3.85198 9.80267 3.85198 10.96C3.85198 11.73 3.73298 12.4067 3.49498 12.99C3.26165 13.5687 2.90698 14.019 2.43098 14.341C1.95498 14.663 1.35998 14.8217 0.645985 14.817ZM11.0093 16.21C12.1713 16.21 13.1326 15.916 13.8933 15.328C14.6586 14.74 15.1906 13.949 15.4893 12.955L14.0053 12.556C13.8046 13.2607 13.4546 13.8137 12.9553 14.215C12.4559 14.6163 11.8073 14.817 11.0093 14.817C10.2953 14.817 9.69793 14.656 9.21727 14.334C8.74127 14.012 8.38193 13.5617 8.13927 12.983C7.90127 12.4043 7.7846 11.73 7.78927 10.96C7.79393 10.19 7.91527 9.51567 8.15327 8.937C8.39127 8.35833 8.74827 7.908 9.22427 7.586C9.70027 7.264 10.2953 7.103 11.0093 7.103C11.8073 7.103 12.4559 7.30367 12.9553 7.705C13.4546 8.10633 13.8046 8.65933 14.0053 9.364L15.4893 8.965C15.1906 7.971 14.6586 7.18 13.8933 6.592C13.1326 6.004 12.1713 5.71 11.0093 5.71C10.0013 5.71 9.1426 5.93167 8.43327 6.375C7.72393 6.81833 7.18027 7.43433 6.80227 8.223C6.42893 9.007 6.24227 9.91933 6.24227 10.96C6.24227 12.0007 6.42893 12.9153 6.80227 13.704C7.18027 14.488 7.72393 15.1017 8.43327 15.545C9.1426 15.9883 10.0013 16.21 11.0093 16.21ZM19.5418 16H21.0048V7.299H24.3578V5.92H16.1888V7.299H19.5418V16ZM26.927 16H28.509L33.227 5.92H31.666L28.964 11.835L26.332 5.92H24.687L28.201 13.389L26.927 16ZM34.3238 16H35.7868V7.299H40.8758V16H42.3388V5.92H34.3238V16ZM44.3042 16H45.7672V11.646H50.8072V16H52.2772V5.92H50.8072V10.267H45.7672V5.92H44.3042V16ZM58.4507 16.21C59.4587 16.21 60.3173 15.9883 61.0267 15.545C61.736 15.1017 62.2773 14.488 62.6507 13.704C63.024 12.9153 63.2107 12.0007 63.2107 10.96C63.2107 9.91933 63.024 9.007 62.6507 8.223C62.2773 7.43433 61.736 6.81833 61.0267 6.375C60.3173 5.93167 59.4587 5.71 58.4507 5.71C57.4427 5.71 56.584 5.93167 55.8747 6.375C55.1653 6.81833 54.6217 7.43433 54.2437 8.223C53.8703 9.007 53.6837 9.91933 53.6837 10.96C53.6837 12.0007 53.8703 12.9153 54.2437 13.704C54.6217 14.488 55.1653 15.1017 55.8747 15.545C56.584 15.9883 57.4427 16.21 58.4507 16.21ZM58.4507 14.817C57.382 14.8077 56.577 14.4507 56.0357 13.746C55.499 13.0413 55.233 12.1127 55.2377 10.96C55.2423 10.19 55.3613 9.51567 55.5947 8.937C55.8327 8.35367 56.1897 7.901 56.6657 7.579C57.1417 7.25233 57.7367 7.09367 58.4507 7.103C59.524 7.10767 60.3267 7.46233 60.8587 8.167C61.3907 8.87167 61.6567 9.80267 61.6567 10.96C61.6567 11.73 61.5377 12.4067 61.2997 12.99C61.0663 13.5687 60.7117 14.019 60.2357 14.341C59.7597 14.663 59.1647 14.8217 58.4507 14.817ZM69.9227 16H71.3857V7.299H74.7387V5.92H66.5697V7.299H69.9227V16ZM80.0659 16.21C81.0739 16.21 81.9326 15.9883 82.6419 15.545C83.3512 15.1017 83.8926 14.488 84.2659 13.704C84.6392 12.9153 84.8259 12.0007 84.8259 10.96C84.8259 9.91933 84.6392 9.007 84.2659 8.223C83.8926 7.43433 83.3512 6.81833 82.6419 6.375C81.9326 5.93167 81.0739 5.71 80.0659 5.71C79.0579 5.71 78.1992 5.93167 77.4899 6.375C76.7806 6.81833 76.2369 7.43433 75.8589 8.223C75.4856 9.007 75.2989 9.91933 75.2989 10.96C75.2989 12.0007 75.4856 12.9153 75.8589 13.704C76.2369 14.488 76.7806 15.1017 77.4899 15.545C78.1992 15.9883 79.0579 16.21 80.0659 16.21ZM80.0659 14.817C78.9972 14.8077 78.1922 14.4507 77.6509 13.746C77.1142 13.0413 76.8482 12.1127 76.8529 10.96C76.8576 10.19 76.9766 9.51567 77.2099 8.937C77.4479 8.35367 77.8049 7.901 78.2809 7.579C78.7569 7.25233 79.3519 7.09367 80.0659 7.103C81.1392 7.10767 81.9419 7.46233 82.4739 8.167C83.0059 8.87167 83.2719 9.80267 83.2719 10.96C83.2719 11.73 83.1529 12.4067 82.9149 12.99C82.6816 13.5687 82.3269 14.019 81.8509 14.341C81.3749 14.663 80.7799 14.8217 80.0659 14.817ZM85.2488 16C85.7621 16.112 86.1844 16.1237 86.5158 16.035C86.8471 15.9463 87.1154 15.776 87.3208 15.524C87.5261 15.272 87.6894 14.9547 87.8108 14.572C87.9321 14.1893 88.0348 13.76 88.1188 13.284C88.2541 12.542 88.3614 11.8093 88.4408 11.086C88.5201 10.358 88.5831 9.66967 88.6298 9.021C88.6764 8.37233 88.7161 7.79833 88.7488 7.299H92.5288V16H93.9918V5.92H87.3768C87.3488 6.54533 87.3114 7.24067 87.2648 8.006C87.2181 8.76667 87.1528 9.55067 87.0688 10.358C86.9848 11.1607 86.8751 11.9377 86.7398 12.689C86.6418 13.277 86.5368 13.725 86.4248 14.033C86.3174 14.3363 86.1728 14.5393 85.9908 14.642C85.8134 14.74 85.5661 14.775 85.2488 14.747V16ZM95.9496 16H100.024C100.122 16 100.241 15.9953 100.381 15.986C100.525 15.9767 100.663 15.9627 100.794 15.944C101.643 15.8133 102.278 15.4563 102.698 14.873C103.118 14.2897 103.328 13.5897 103.328 12.773C103.328 11.9517 103.115 11.2493 102.691 10.666C102.266 10.0827 101.634 9.72567 100.794 9.595C100.663 9.57167 100.525 9.55767 100.381 9.553C100.236 9.54367 100.117 9.539 100.024 9.539H97.4126V5.92H95.9496V16ZM97.4126 14.621V10.925H99.9676C100.061 10.925 100.164 10.9297 100.276 10.939C100.388 10.9483 100.495 10.9647 100.598 10.988C101.05 11.0953 101.37 11.3263 101.557 11.681C101.743 12.0357 101.837 12.3997 101.837 12.773C101.837 13.1417 101.743 13.5033 101.557 13.858C101.37 14.2127 101.05 14.4437 100.598 14.551C100.495 14.579 100.388 14.5977 100.276 14.607C100.164 14.6163 100.061 14.621 99.9676 14.621H97.4126ZM104.871 16H106.334V11.184L110.828 16H112.704L107.916 10.841L112.375 5.92H110.555L106.334 10.624V5.92H104.871V16ZM117.39 16.21C118.398 16.21 119.257 15.9883 119.966 15.545C120.675 15.1017 121.217 14.488 121.59 13.704C121.963 12.9153 122.15 12.0007 122.15 10.96C122.15 9.91933 121.963 9.007 121.59 8.223C121.217 7.43433 120.675 6.81833 119.966 6.375C119.257 5.93167 118.398 5.71 117.39 5.71C116.382 5.71 115.523 5.93167 114.814 6.375C114.105 6.81833 113.561 7.43433 113.183 8.223C112.81 9.007 112.623 9.91933 112.623 10.96C112.623 12.0007 112.81 12.9153 113.183 13.704C113.561 14.488 114.105 15.1017 114.814 15.545C115.523 15.9883 116.382 16.21 117.39 16.21ZM117.39 14.817C116.321 14.8077 115.516 14.4507 114.975 13.746C114.438 13.0413 114.172 12.1127 114.177 10.96C114.182 10.19 114.301 9.51567 114.534 8.937C114.772 8.35367 115.129 7.901 115.605 7.579C116.081 7.25233 116.676 7.09367 117.39 7.103C118.463 7.10767 119.266 7.46233 119.798 8.167C120.33 8.87167 120.596 9.80267 120.596 10.96C120.596 11.73 120.477 12.4067 120.239 12.99C120.006 13.5687 119.651 14.019 119.175 14.341C118.699 14.663 118.104 14.8217 117.39 14.817ZM126.349 16H130.689C131.65 16 132.392 15.7317 132.915 15.195C133.442 14.6583 133.706 13.9467 133.706 13.06C133.706 12.5233 133.573 12.045 133.307 11.625C133.041 11.205 132.658 10.8877 132.159 10.673C132.49 10.4817 132.752 10.2087 132.943 9.854C133.134 9.49933 133.23 9.091 133.23 8.629C133.23 8.17167 133.12 7.73767 132.901 7.327C132.682 6.91167 132.355 6.57333 131.921 6.312C131.492 6.05067 130.955 5.92 130.311 5.92H126.349V16ZM127.833 10.036V7.299H130.29C130.729 7.299 131.079 7.425 131.34 7.677C131.601 7.929 131.732 8.251 131.732 8.643C131.732 9.08167 131.592 9.42467 131.312 9.672C131.037 9.91467 130.696 10.036 130.29 10.036H127.833ZM127.833 14.607V11.415H130.556C131.06 11.415 131.461 11.5713 131.76 11.884C132.059 12.192 132.208 12.5747 132.208 13.032C132.208 13.522 132.042 13.907 131.711 14.187C131.38 14.467 130.964 14.607 130.465 14.607H127.833ZM137.902 16H139.365V12.381H141.976C142.069 12.381 142.188 12.3763 142.333 12.367C142.482 12.3577 142.622 12.3437 142.753 12.325C143.593 12.1897 144.223 11.8303 144.643 11.247C145.068 10.6637 145.28 9.96367 145.28 9.147C145.28 8.33033 145.07 7.63033 144.65 7.047C144.23 6.46367 143.598 6.10667 142.753 5.976C142.622 5.95267 142.485 5.93867 142.34 5.934C142.195 5.92467 142.074 5.92 141.976 5.92H137.902V16ZM139.365 10.995V7.299H141.92C142.013 7.299 142.116 7.30367 142.228 7.313C142.345 7.32233 142.454 7.341 142.557 7.369C143.005 7.47167 143.322 7.70033 143.509 8.055C143.696 8.40967 143.789 8.77367 143.789 9.147C143.789 9.51567 143.696 9.87967 143.509 10.239C143.322 10.5937 143.005 10.8247 142.557 10.932C142.454 10.9553 142.345 10.9717 142.228 10.981C142.116 10.9903 142.013 10.995 141.92 10.995H139.365ZM146.679 16H153.119V14.621H148.142V11.506H152.279V10.127H148.142V7.299H153.119V5.92H146.679V16ZM158.583 16.21C159.745 16.21 160.707 15.916 161.467 15.328C162.233 14.74 162.765 13.949 163.063 12.955L161.579 12.556C161.379 13.2607 161.029 13.8137 160.529 14.215C160.03 14.6163 159.381 14.817 158.583 14.817C157.869 14.817 157.272 14.656 156.791 14.334C156.315 14.012 155.956 13.5617 155.713 12.983C155.475 12.4043 155.359 11.73 155.363 10.96C155.368 10.19 155.489 9.51567 155.727 8.937C155.965 8.35833 156.322 7.908 156.798 7.586C157.274 7.264 157.869 7.103 158.583 7.103C159.381 7.103 160.03 7.30367 160.529 7.705C161.029 8.10633 161.379 8.65933 161.579 9.364L163.063 8.965C162.765 7.971 162.233 7.18 161.467 6.592C160.707 6.004 159.745 5.71 158.583 5.71C157.575 5.71 156.717 5.93167 156.007 6.375C155.298 6.81833 154.754 7.43433 154.376 8.223C154.003 9.007 153.816 9.91933 153.816 10.96C153.816 12.0007 154.003 12.9153 154.376 13.704C154.754 14.488 155.298 15.1017 156.007 15.545C156.717 15.9883 157.575 16.21 158.583 16.21ZM167.116 16H168.579V7.299H171.932V5.92H163.763V7.299H167.116V16ZM177.259 16.21C178.267 16.21 179.126 15.9883 179.835 15.545C180.545 15.1017 181.086 14.488 181.459 13.704C181.833 12.9153 182.019 12.0007 182.019 10.96C182.019 9.91933 181.833 9.007 181.459 8.223C181.086 7.43433 180.545 6.81833 179.835 6.375C179.126 5.93167 178.267 5.71 177.259 5.71C176.251 5.71 175.393 5.93167 174.683 6.375C173.974 6.81833 173.43 7.43433 173.052 8.223C172.679 9.007 172.492 9.91933 172.492 10.96C172.492 12.0007 172.679 12.9153 173.052 13.704C173.43 14.488 173.974 15.1017 174.683 15.545C175.393 15.9883 176.251 16.21 177.259 16.21ZM177.259 14.817C176.191 14.8077 175.386 14.4507 174.844 13.746C174.308 13.0413 174.042 12.1127 174.046 10.96C174.051 10.19 174.17 9.51567 174.403 8.937C174.641 8.35367 174.998 7.901 175.474 7.579C175.95 7.25233 176.545 7.09367 177.259 7.103C178.333 7.10767 179.135 7.46233 179.667 8.167C180.199 8.87167 180.465 9.80267 180.465 10.96C180.465 11.73 180.346 12.4067 180.108 12.99C179.875 13.5687 179.52 14.019 179.044 14.341C178.568 14.663 177.973 14.8217 177.259 14.817ZM183.416 16H184.879V12.381H187.49C187.583 12.381 187.702 12.3763 187.847 12.367C187.996 12.3577 188.136 12.3437 188.267 12.325C189.107 12.1897 189.737 11.8303 190.157 11.247C190.581 10.6637 190.794 9.96367 190.794 9.147C190.794 8.33033 190.584 7.63033 190.164 7.047C189.744 6.46367 189.111 6.10667 188.267 5.976C188.136 5.95267 187.998 5.93867 187.854 5.934C187.709 5.92467 187.588 5.92 187.49 5.92H183.416V16ZM184.879 10.995V7.299H187.434C187.527 7.299 187.63 7.30367 187.742 7.313C187.858 7.32233 187.968 7.341 188.071 7.369C188.519 7.47167 188.836 7.70033 189.023 8.055C189.209 8.40967 189.303 8.77367 189.303 9.147C189.303 9.51567 189.209 9.87967 189.023 10.239C188.836 10.5937 188.519 10.8247 188.071 10.932C187.968 10.9553 187.858 10.9717 187.742 10.981C187.63 10.9903 187.527 10.995 187.434 10.995H184.879ZM190.932 16H192.451L193.186 13.725H197.323L198.072 16H199.591L196.315 5.92H194.208L190.932 16ZM193.634 12.353L195.244 7.383L196.875 12.353H193.634ZM200.847 16H202.31V11.646H207.35V16H208.82V5.92H207.35V10.267H202.31V5.92H200.847V16ZM210.787 16H217.227V14.621H212.25V11.506H216.387V10.127H212.25V7.299H217.227V5.92H210.787V16ZM221.57 12.171H230.81V10.995H221.57V12.171ZM234.926 17.68H236.389V16H242.892V17.68H244.362V14.621H243.613V5.92L237.159 5.913C237.117 6.62233 237.077 7.278 237.04 7.88C237.007 8.482 236.97 9.063 236.928 9.623C236.891 10.183 236.844 10.7593 236.788 11.352C236.732 11.9307 236.648 12.4697 236.536 12.969C236.424 13.4637 236.242 13.8627 235.99 14.166C235.743 14.4693 235.388 14.621 234.926 14.621V17.68ZM237.327 14.621C237.532 14.397 237.689 14.1543 237.796 13.893C237.903 13.6317 237.987 13.3237 238.048 12.969C238.109 12.6097 238.162 12.1733 238.209 11.66C238.265 11.1187 238.307 10.6147 238.335 10.148C238.368 9.68133 238.396 9.217 238.419 8.755C238.447 8.293 238.477 7.80533 238.51 7.292L242.15 7.299V14.621H237.327ZM250.103 16.21C251.111 16.21 251.97 15.9883 252.679 15.545C253.388 15.1017 253.93 14.488 254.303 13.704C254.676 12.9153 254.863 12.0007 254.863 10.96C254.863 9.91933 254.676 9.007 254.303 8.223C253.93 7.43433 253.388 6.81833 252.679 6.375C251.97 5.93167 251.111 5.71 250.103 5.71C249.095 5.71 248.236 5.93167 247.527 6.375C246.818 6.81833 246.274 7.43433 245.896 8.223C245.523 9.007 245.336 9.91933 245.336 10.96C245.336 12.0007 245.523 12.9153 245.896 13.704C246.274 14.488 246.818 15.1017 247.527 15.545C248.236 15.9883 249.095 16.21 250.103 16.21ZM250.103 14.817C249.034 14.8077 248.229 14.4507 247.688 13.746C247.151 13.0413 246.885 12.1127 246.89 10.96C246.895 10.19 247.014 9.51567 247.247 8.937C247.485 8.35367 247.842 7.901 248.318 7.579C248.794 7.25233 249.389 7.09367 250.103 7.103C251.176 7.10767 251.979 7.46233 252.511 8.167C253.043 8.87167 253.309 9.80267 253.309 10.96C253.309 11.73 253.19 12.4067 252.952 12.99C252.719 13.5687 252.364 14.019 251.888 14.341C251.412 14.663 250.817 14.8217 250.103 14.817ZM260.466 16.21C261.628 16.21 262.59 15.916 263.35 15.328C264.116 14.74 264.648 13.949 264.946 12.955L263.462 12.556C263.262 13.2607 262.912 13.8137 262.412 14.215C261.913 14.6163 261.264 14.817 260.466 14.817C259.752 14.817 259.155 14.656 258.674 14.334C258.198 14.012 257.839 13.5617 257.596 12.983C257.358 12.4043 257.242 11.73 257.246 10.96C257.251 10.19 257.372 9.51567 257.61 8.937C257.848 8.35833 258.205 7.908 258.681 7.586C259.157 7.264 259.752 7.103 260.466 7.103C261.264 7.103 261.913 7.30367 262.412 7.705C262.912 8.10633 263.262 8.65933 263.462 9.364L264.946 8.965C264.648 7.971 264.116 7.18 263.35 6.592C262.59 6.004 261.628 5.71 260.466 5.71C259.458 5.71 258.6 5.93167 257.89 6.375C257.181 6.81833 256.637 7.43433 256.259 8.223C255.886 9.007 255.699 9.91933 255.699 10.96C255.699 12.0007 255.886 12.9153 256.259 13.704C256.637 14.488 257.181 15.1017 257.89 15.545C258.6 15.9883 259.458 16.21 260.466 16.21ZM268.999 16H270.462V7.299H273.815V5.92H265.646V7.299H268.999V16ZM276.384 16H277.966L282.684 5.92H281.123L278.421 11.835L275.789 5.92H274.144L277.658 13.389L276.384 16ZM283.781 16H285.244V7.299H290.333V16H291.796V5.92H283.781V16ZM293.761 16H295.224V11.646H300.264V16H301.734V5.92H300.264V10.267H295.224V5.92H293.761V16ZM307.908 16.21C308.916 16.21 309.774 15.9883 310.484 15.545C311.193 15.1017 311.734 14.488 312.108 13.704C312.481 12.9153 312.668 12.0007 312.668 10.96C312.668 9.91933 312.481 9.007 312.108 8.223C311.734 7.43433 311.193 6.81833 310.484 6.375C309.774 5.93167 308.916 5.71 307.908 5.71C306.9 5.71 306.041 5.93167 305.332 6.375C304.622 6.81833 304.079 7.43433 303.701 8.223C303.327 9.007 303.141 9.91933 303.141 10.96C303.141 12.0007 303.327 12.9153 303.701 13.704C304.079 14.488 304.622 15.1017 305.332 15.545C306.041 15.9883 306.9 16.21 307.908 16.21ZM307.908 14.817C306.839 14.8077 306.034 14.4507 305.493 13.746C304.956 13.0413 304.69 12.1127 304.695 10.96C304.699 10.19 304.818 9.51567 305.052 8.937C305.29 8.35367 305.647 7.901 306.123 7.579C306.599 7.25233 307.194 7.09367 307.908 7.103C308.981 7.10767 309.784 7.46233 310.316 8.167C310.848 8.87167 311.114 9.80267 311.114 10.96C311.114 11.73 310.995 12.4067 310.757 12.99C310.523 13.5687 310.169 14.019 309.693 14.341C309.217 14.663 308.622 14.8217 307.908 14.817ZM319.38 16H320.843V7.299H324.196V5.92H316.027V7.299H319.38V16ZM329.523 16.21C330.531 16.21 331.39 15.9883 332.099 15.545C332.808 15.1017 333.35 14.488 333.723 13.704C334.096 12.9153 334.283 12.0007 334.283 10.96C334.283 9.91933 334.096 9.007 333.723 8.223C333.35 7.43433 332.808 6.81833 332.099 6.375C331.39 5.93167 330.531 5.71 329.523 5.71C328.515 5.71 327.656 5.93167 326.947 6.375C326.238 6.81833 325.694 7.43433 325.316 8.223C324.943 9.007 324.756 9.91933 324.756 10.96C324.756 12.0007 324.943 12.9153 325.316 13.704C325.694 14.488 326.238 15.1017 326.947 15.545C327.656 15.9883 328.515 16.21 329.523 16.21ZM329.523 14.817C328.454 14.8077 327.649 14.4507 327.108 13.746C326.571 13.0413 326.305 12.1127 326.31 10.96C326.315 10.19 326.434 9.51567 326.667 8.937C326.905 8.35367 327.262 7.901 327.738 7.579C328.214 7.25233 328.809 7.09367 329.523 7.103C330.596 7.10767 331.399 7.46233 331.931 8.167C332.463 8.87167 332.729 9.80267 332.729 10.96C332.729 11.73 332.61 12.4067 332.372 12.99C332.139 13.5687 331.784 14.019 331.308 14.341C330.832 14.663 330.237 14.8217 329.523 14.817ZM334.706 16C335.219 16.112 335.641 16.1237 335.973 16.035C336.304 15.9463 336.572 15.776 336.778 15.524C336.983 15.272 337.146 14.9547 337.268 14.572C337.389 14.1893 337.492 13.76 337.576 13.284C337.711 12.542 337.818 11.8093 337.898 11.086C337.977 10.358 338.04 9.66967 338.087 9.021C338.133 8.37233 338.173 7.79833 338.206 7.299H341.986V16H343.449V5.92H336.834C336.806 6.54533 336.768 7.24067 336.722 8.006C336.675 8.76667 336.61 9.55067 336.526 10.358C336.442 11.1607 336.332 11.9377 336.197 12.689C336.099 13.277 335.994 13.725 335.882 14.033C335.774 14.3363 335.63 14.5393 335.448 14.642C335.27 14.74 335.023 14.775 334.706 14.747V16ZM345.407 16H349.481C349.579 16 349.698 15.9953 349.838 15.986C349.982 15.9767 350.12 15.9627 350.251 15.944C351.1 15.8133 351.735 15.4563 352.155 14.873C352.575 14.2897 352.785 13.5897 352.785 12.773C352.785 11.9517 352.572 11.2493 352.148 10.666C351.723 10.0827 351.091 9.72567 350.251 9.595C350.12 9.57167 349.982 9.55767 349.838 9.553C349.693 9.54367 349.574 9.539 349.481 9.539H346.87V5.92H345.407V16ZM346.87 14.621V10.925H349.425C349.518 10.925 349.621 10.9297 349.733 10.939C349.845 10.9483 349.952 10.9647 350.055 10.988C350.507 11.0953 350.827 11.3263 351.014 11.681C351.2 12.0357 351.294 12.3997 351.294 12.773C351.294 13.1417 351.2 13.5033 351.014 13.858C350.827 14.2127 350.507 14.4437 350.055 14.551C349.952 14.579 349.845 14.5977 349.733 14.607C349.621 14.6163 349.518 14.621 349.425 14.621H346.87ZM354.328 16H355.791V11.184L360.285 16H362.161L357.373 10.841L361.832 5.92H360.012L355.791 10.624V5.92H354.328V16ZM366.847 16.21C367.855 16.21 368.714 15.9883 369.423 15.545C370.132 15.1017 370.674 14.488 371.047 13.704C371.42 12.9153 371.607 12.0007 371.607 10.96C371.607 9.91933 371.42 9.007 371.047 8.223C370.674 7.43433 370.132 6.81833 369.423 6.375C368.714 5.93167 367.855 5.71 366.847 5.71C365.839 5.71 364.98 5.93167 364.271 6.375C363.562 6.81833 363.018 7.43433 362.64 8.223C362.267 9.007 362.08 9.91933 362.08 10.96C362.08 12.0007 362.267 12.9153 362.64 13.704C363.018 14.488 363.562 15.1017 364.271 15.545C364.98 15.9883 365.839 16.21 366.847 16.21ZM366.847 14.817C365.778 14.8077 364.973 14.4507 364.432 13.746C363.895 13.0413 363.629 12.1127 363.634 10.96C363.639 10.19 363.758 9.51567 363.991 8.937C364.229 8.35367 364.586 7.901 365.062 7.579C365.538 7.25233 366.133 7.09367 366.847 7.103C367.92 7.10767 368.723 7.46233 369.255 8.167C369.787 8.87167 370.053 9.80267 370.053 10.96C370.053 11.73 369.934 12.4067 369.696 12.99C369.463 13.5687 369.108 14.019 368.632 14.341C368.156 14.663 367.561 14.8217 366.847 14.817ZM375.806 16H380.146C381.108 16 381.85 15.7317 382.372 15.195C382.9 14.6583 383.163 13.9467 383.163 13.06C383.163 12.5233 383.03 12.045 382.764 11.625C382.498 11.205 382.116 10.8877 381.616 10.673C381.948 10.4817 382.209 10.2087 382.4 9.854C382.592 9.49933 382.687 9.091 382.687 8.629C382.687 8.17167 382.578 7.73767 382.358 7.327C382.139 6.91167 381.812 6.57333 381.378 6.312C380.949 6.05067 380.412 5.92 379.768 5.92H375.806V16ZM377.29 10.036V7.299H379.747C380.186 7.299 380.536 7.425 380.797 7.677C381.059 7.929 381.189 8.251 381.189 8.643C381.189 9.08167 381.049 9.42467 380.769 9.672C380.494 9.91467 380.153 10.036 379.747 10.036H377.29ZM377.29 14.607V11.415H380.013C380.517 11.415 380.919 11.5713 381.217 11.884C381.516 12.192 381.665 12.5747 381.665 13.032C381.665 13.522 381.5 13.907 381.168 14.187C380.837 14.467 380.422 14.607 379.922 14.607H377.29ZM387.359 16H388.822V12.381H391.433C391.526 12.381 391.645 12.3763 391.79 12.367C391.939 12.3577 392.079 12.3437 392.21 12.325C393.05 12.1897 393.68 11.8303 394.1 11.247C394.525 10.6637 394.737 9.96367 394.737 9.147C394.737 8.33033 394.527 7.63033 394.107 7.047C393.687 6.46367 393.055 6.10667 392.21 5.976C392.079 5.95267 391.942 5.93867 391.797 5.934C391.652 5.92467 391.531 5.92 391.433 5.92H387.359V16ZM388.822 10.995V7.299H391.377C391.47 7.299 391.573 7.30367 391.685 7.313C391.802 7.32233 391.911 7.341 392.014 7.369C392.462 7.47167 392.779 7.70033 392.966 8.055C393.153 8.40967 393.246 8.77367 393.246 9.147C393.246 9.51567 393.153 9.87967 392.966 10.239C392.779 10.5937 392.462 10.8247 392.014 10.932C391.911 10.9553 391.802 10.9717 391.685 10.981C391.573 10.9903 391.47 10.995 391.377 10.995H388.822ZM396.136 16H402.576V14.621H397.599V11.506H401.736V10.127H397.599V7.299H402.576V5.92H396.136V16ZM408.041 16.21C409.203 16.21 410.164 15.916 410.925 15.328C411.69 14.74 412.222 13.949 412.521 12.955L411.037 12.556C410.836 13.2607 410.486 13.8137 409.987 14.215C409.487 14.6163 408.839 14.817 408.041 14.817C407.327 14.817 406.729 14.656 406.249 14.334C405.773 14.012 405.413 13.5617 405.171 12.983C404.933 12.4043 404.816 11.73 404.821 10.96C404.825 10.19 404.947 9.51567 405.185 8.937C405.423 8.35833 405.78 7.908 406.256 7.586C406.732 7.264 407.327 7.103 408.041 7.103C408.839 7.103 409.487 7.30367 409.987 7.705C410.486 8.10633 410.836 8.65933 411.037 9.364L412.521 8.965C412.222 7.971 411.69 7.18 410.925 6.592C410.164 6.004 409.203 5.71 408.041 5.71C407.033 5.71 406.174 5.93167 405.465 6.375C404.755 6.81833 404.212 7.43433 403.834 8.223C403.46 9.007 403.274 9.91933 403.274 10.96C403.274 12.0007 403.46 12.9153 403.834 13.704C404.212 14.488 404.755 15.1017 405.465 15.545C406.174 15.9883 407.033 16.21 408.041 16.21ZM416.573 16H418.036V7.299H421.389V5.92H413.22V7.299H416.573V16ZM426.716 16.21C427.724 16.21 428.583 15.9883 429.292 15.545C430.002 15.1017 430.543 14.488 430.916 13.704C431.29 12.9153 431.476 12.0007 431.476 10.96C431.476 9.91933 431.29 9.007 430.916 8.223C430.543 7.43433 430.002 6.81833 429.292 6.375C428.583 5.93167 427.724 5.71 426.716 5.71C425.708 5.71 424.85 5.93167 424.14 6.375C423.431 6.81833 422.887 7.43433 422.509 8.223C422.136 9.007 421.949 9.91933 421.949 10.96C421.949 12.0007 422.136 12.9153 422.509 13.704C422.887 14.488 423.431 15.1017 424.14 15.545C424.85 15.9883 425.708 16.21 426.716 16.21ZM426.716 14.817C425.648 14.8077 424.843 14.4507 424.301 13.746C423.765 13.0413 423.499 12.1127 423.503 10.96C423.508 10.19 423.627 9.51567 423.86 8.937C424.098 8.35367 424.455 7.901 424.931 7.579C425.407 7.25233 426.002 7.09367 426.716 7.103C427.79 7.10767 428.592 7.46233 429.124 8.167C429.656 8.87167 429.922 9.80267 429.922 10.96C429.922 11.73 429.803 12.4067 429.565 12.99C429.332 13.5687 428.977 14.019 428.501 14.341C428.025 14.663 427.43 14.8217 426.716 14.817ZM432.873 16H434.336V12.381H436.947C437.04 12.381 437.159 12.3763 437.304 12.367C437.453 12.3577 437.593 12.3437 437.724 12.325C438.564 12.1897 439.194 11.8303 439.614 11.247C440.038 10.6637 440.251 9.96367 440.251 9.147C440.251 8.33033 440.041 7.63033 439.621 7.047C439.201 6.46367 438.568 6.10667 437.724 5.976C437.593 5.95267 437.455 5.93867 437.311 5.934C437.166 5.92467 437.045 5.92 436.947 5.92H432.873V16ZM434.336 10.995V7.299H436.891C436.984 7.299 437.087 7.30367 437.199 7.313C437.315 7.32233 437.425 7.341 437.528 7.369C437.976 7.47167 438.293 7.70033 438.48 8.055C438.666 8.40967 438.76 8.77367 438.76 9.147C438.76 9.51567 438.666 9.87967 438.48 10.239C438.293 10.5937 437.976 10.8247 437.528 10.932C437.425 10.9553 437.315 10.9717 437.199 10.981C437.087 10.9903 436.984 10.995 436.891 10.995H434.336ZM440.389 16H441.908L442.643 13.725H446.78L447.529 16H449.048L445.772 5.92H443.665L440.389 16ZM443.091 12.353L444.701 7.383L446.332 12.353H443.091ZM450.304 16H451.767V11.646H456.807V16H458.277V5.92H456.807V10.267H451.767V5.92H450.304V16ZM460.244 16H466.684V14.621H461.707V11.506H465.844V10.127H461.707V7.299H466.684V5.92H460.244V16Z" fill="black"/>
</g>
</svg>
