<svg width="15" height="541" viewBox="0 0 15 541" fill="none" xmlns="http://www.w3.org/2000/svg">
<path d="M15 22.5L3.75 41.9856L3.75 3.01443L15 22.5Z" fill="black"/>
<path d="M15 61L3.75 80.9186L3.75 41.0814L15 61Z" fill="black"/>
<path d="M15 99L3.75 118.919L3.75 79.0814L15 99Z" fill="black"/>
<path d="M15 137.5L3.75 156.986L3.75 118.014L15 137.5Z" fill="black"/>
<path d="M15 175.5L3.75 194.986L3.75 156.014L15 175.5Z" fill="black"/>
<path d="M15 213.5L3.75 232.986L3.75 194.014L15 213.5Z" fill="black"/>
<path d="M15 251.5L3.75 270.986L3.75 232.014L15 251.5Z" fill="black"/>
<path d="M15 289.5L3.75 308.986L3.75 270.014L15 289.5Z" fill="black"/>
<path d="M15 327.5L3.75 346.986L3.75 308.014L15 327.5Z" fill="black"/>
<path d="M15 365.5L3.75 384.986L3.75 346.014L15 365.5Z" fill="black"/>
<path d="M15 403.5L3.75 422.986L3.75 384.014L15 403.5Z" fill="black"/>
<path d="M15 442L3.75 461.919L3.75 422.081L15 442Z" fill="black"/>
<path d="M15 480L3.75 499.919L3.75 460.081L15 480Z" fill="black"/>
<path d="M15 518.5L3.75 537.986L3.75 499.014L15 518.5Z" fill="black"/>
</svg>
