<svg width="164" height="22" viewBox="0 0 164 22" fill="none" xmlns="http://www.w3.org/2000/svg">
<path d="M0 0H164V22H0V0Z" fill="#F6F6F6"/>
<mask id="mask0" mask-type="alpha" maskUnits="userSpaceOnUse" x="0" y="0" width="164" height="22">
<path d="M0 0H164V22H0V0Z" fill="#F6F6F6"/>
</mask>
<g mask="url(#mask0)">
<path d="M-14.02 16H-12.55V7.306H-7.468V16H-5.998V5.92H-14.02V16ZM-4.03953 16H-2.56953V12.374H0.0344692C0.216469 12.374 0.552469 12.36 0.804469 12.318C2.48447 12.066 3.33847 10.778 3.33847 9.154C3.33847 7.516 2.49847 6.242 0.804469 5.976C0.552469 5.934 0.230469 5.92 0.0344692 5.92H-4.03953V16ZM-2.56953 11.002V7.306H-0.0215309C0.160469 7.306 0.412469 7.32 0.608469 7.362C1.51847 7.586 1.85447 8.412 1.85447 9.154C1.85447 9.896 1.51847 10.722 0.608469 10.932C0.412469 10.988 0.160469 11.002 -0.0215309 11.002H-2.56953ZM4.73781 16H11.1778V14.614H6.20781V11.506H10.3378V10.12H6.20781V7.306H11.1778V5.92H4.73781V16ZM12.8589 16H14.2449V9.098L17.4929 16H18.1649L21.4269 9.098V16H22.7989V5.92H21.4689L17.8289 13.508L14.1889 5.92H12.8589V16ZM24.7394 16H28.8134C29.0094 16 29.3314 15.986 29.5974 15.944C31.2774 15.678 32.1174 14.404 32.1174 12.766C32.1174 11.142 31.2774 9.854 29.5974 9.602C29.3314 9.56 29.0094 9.546 28.8134 9.546H26.2094V5.92H24.7394V16ZM26.2094 14.614V10.918H28.7574C28.9394 10.918 29.1914 10.932 29.4014 10.988C30.2974 11.198 30.6334 12.024 30.6334 12.766C30.6334 13.508 30.2974 14.334 29.4014 14.558C29.1914 14.6 28.9394 14.614 28.7574 14.614H26.2094ZM33.6538 16H40.0938V14.614H35.1238V11.506H39.2538V10.12H35.1238V7.306H40.0938V5.92H33.6538V16ZM41.7749 16H43.2449V12.374H45.8489C46.0309 12.374 46.3669 12.36 46.6189 12.318C48.2989 12.066 49.1529 10.778 49.1529 9.154C49.1529 7.516 48.3129 6.242 46.6189 5.976C46.3669 5.934 46.0449 5.92 45.8489 5.92H41.7749V16ZM43.2449 11.002V7.306H45.7929C45.9749 7.306 46.2269 7.32 46.4229 7.362C47.3329 7.586 47.6689 8.412 47.6689 9.154C47.6689 9.896 47.3329 10.722 46.4229 10.932C46.2269 10.988 45.9749 11.002 45.7929 11.002H43.2449ZM56.4317 16H57.9437L54.6677 5.92H52.5677L49.2917 16H50.8037L51.5457 13.732H55.6897L56.4317 16ZM51.9937 12.36L53.6037 7.39L55.2417 12.36H51.9937ZM62.0093 16H66.0833C66.2793 16 66.6013 15.986 66.8533 15.958C68.5053 15.762 69.3873 14.446 69.3873 12.864C69.3873 11.282 68.5053 9.966 66.8533 9.77C66.6013 9.742 66.2653 9.728 66.0833 9.728H63.4793V7.306H68.5753V5.92H62.0093V16ZM63.4793 14.614V11.114H66.0273C66.2093 11.114 66.4613 11.128 66.6573 11.17C67.5673 11.352 67.9033 12.122 67.9033 12.864C67.9033 13.606 67.5673 14.376 66.6573 14.558C66.4613 14.6 66.2093 14.614 66.0273 14.614H63.4793ZM69.5261 16C71.5701 16.462 72.0601 15.188 72.3961 13.284C72.7881 11.072 72.9281 8.79 73.0261 7.306H76.8061V16H78.2761V5.92H71.6541C71.5701 7.796 71.4161 10.428 71.0241 12.696C70.7161 14.46 70.4641 14.824 69.5261 14.754V16ZM87.7659 5.71C85.3019 5.71 83.8459 7.558 83.6219 10.232H81.7039V5.92H80.2339V16H81.7039V11.688H83.6219C83.8459 14.362 85.3019 16.21 87.7659 16.21C90.4539 16.21 91.9519 14.082 91.9519 10.96C91.9519 7.894 90.4539 5.71 87.7659 5.71ZM87.7659 14.824C86.0019 14.824 85.1339 13.144 85.1479 10.96C85.1619 8.776 86.0019 7.11 87.7659 7.11C89.5439 7.11 90.3979 8.776 90.3979 10.96C90.3839 13.144 89.5439 14.824 87.7659 14.824ZM92.5538 17.68H94.0238V16H100.534V17.68H101.99V14.614H101.248V5.92L94.7938 5.906C94.6678 8.034 94.5978 9.588 94.4298 11.352C94.2618 13.088 93.9538 14.614 92.5538 14.614V17.68ZM94.9618 14.614C95.5778 13.942 95.6898 13.2 95.8438 11.66C95.9978 10.05 96.0538 8.832 96.1378 7.292L99.7778 7.306V14.614H94.9618ZM106.194 12.178H115.434V11.002H106.194V12.178ZM120.06 16H121.53V7.306H126.612V16H128.082V5.92H120.06V16ZM130.041 16H131.511V12.374H134.115C134.297 12.374 134.633 12.36 134.885 12.318C136.565 12.066 137.419 10.778 137.419 9.154C137.419 7.516 136.579 6.242 134.885 5.976C134.633 5.934 134.311 5.92 134.115 5.92H130.041V16ZM131.511 11.002V7.306H134.059C134.241 7.306 134.493 7.32 134.689 7.362C135.599 7.586 135.935 8.412 135.935 9.154C135.935 9.896 135.599 10.722 134.689 10.932C134.493 10.988 134.241 11.002 134.059 11.002H131.511ZM138.818 16H145.258V14.614H140.288V11.506H144.418V10.12H140.288V7.306H145.258V5.92H138.818V16ZM146.939 16H148.325V9.098L151.573 16H152.245L155.507 9.098V16H156.879V5.92H155.549L151.909 13.508L148.269 5.92H146.939V16ZM158.82 16H162.894C163.09 16 163.412 15.986 163.678 15.944C165.358 15.678 166.198 14.404 166.198 12.766C166.198 11.142 165.358 9.854 163.678 9.602C163.412 9.56 163.09 9.546 162.894 9.546H160.29V5.92H158.82V16ZM160.29 14.614V10.918H162.838C163.02 10.918 163.272 10.932 163.482 10.988C164.378 11.198 164.714 12.024 164.714 12.766C164.714 13.508 164.378 14.334 163.482 14.558C163.272 14.6 163.02 14.614 162.838 14.614H160.29ZM167.734 16H174.174V14.614H169.204V11.506H173.334V10.12H169.204V7.306H174.174V5.92H167.734V16ZM175.855 16H177.325V12.374H179.929C180.111 12.374 180.447 12.36 180.699 12.318C182.379 12.066 183.233 10.778 183.233 9.154C183.233 7.516 182.393 6.242 180.699 5.976C180.447 5.934 180.125 5.92 179.929 5.92H175.855V16ZM177.325 11.002V7.306H179.873C180.055 7.306 180.307 7.32 180.503 7.362C181.413 7.586 181.749 8.412 181.749 9.154C181.749 9.896 181.413 10.722 180.503 10.932C180.307 10.988 180.055 11.002 179.873 11.002H177.325ZM190.512 16H192.024L188.748 5.92H186.648L183.372 16H184.884L185.626 13.732H189.77L190.512 16ZM186.074 12.36L187.684 7.39L189.322 12.36H186.074ZM196.089 16H200.163C200.359 16 200.681 15.986 200.933 15.958C202.585 15.762 203.467 14.446 203.467 12.864C203.467 11.282 202.585 9.966 200.933 9.77C200.681 9.742 200.345 9.728 200.163 9.728H197.559V7.306H202.655V5.92H196.089V16ZM197.559 14.614V11.114H200.107C200.289 11.114 200.541 11.128 200.737 11.17C201.647 11.352 201.983 12.122 201.983 12.864C201.983 13.606 201.647 14.376 200.737 14.558C200.541 14.6 200.289 14.614 200.107 14.614H197.559ZM203.606 16C205.65 16.462 206.14 15.188 206.476 13.284C206.868 11.072 207.008 8.79 207.106 7.306H210.886V16H212.356V5.92H205.734C205.65 7.796 205.496 10.428 205.104 12.696C204.796 14.46 204.544 14.824 203.606 14.754V16ZM221.846 5.71C219.382 5.71 217.926 7.558 217.702 10.232H215.784V5.92H214.314V16H215.784V11.688H217.702C217.926 14.362 219.382 16.21 221.846 16.21C224.534 16.21 226.032 14.082 226.032 10.96C226.032 7.894 224.534 5.71 221.846 5.71ZM221.846 14.824C220.082 14.824 219.214 13.144 219.228 10.96C219.242 8.776 220.082 7.11 221.846 7.11C223.624 7.11 224.478 8.776 224.478 10.96C224.464 13.144 223.624 14.824 221.846 14.824ZM226.634 17.68H228.104V16H234.614V17.68H236.07V14.614H235.328V5.92L228.874 5.906C228.748 8.034 228.678 9.588 228.51 11.352C228.342 13.088 228.034 14.614 226.634 14.614V17.68ZM229.042 14.614C229.658 13.942 229.77 13.2 229.924 11.66C230.078 10.05 230.134 8.832 230.218 7.292L233.858 7.306V14.614H229.042ZM240.274 12.178H249.514V11.002H240.274V12.178Z" fill="black"/>
</g>
</svg>
