<svg width="164" height="22" viewBox="0 0 164 22" fill="none" xmlns="http://www.w3.org/2000/svg">
<path d="M0 0H164V22H0V0Z" fill="#F6F6F6"/>
<mask id="mask0" mask-type="alpha" maskUnits="userSpaceOnUse" x="0" y="0" width="164" height="22">
<path d="M0 0H164V22H0V0Z" fill="#F6F6F6"/>
</mask>
<g mask="url(#mask0)">
<path d="M-14.02 16H-12.55V11.646H-7.51V16H-6.054V5.92H-7.51V10.26H-12.55V5.92H-14.02V16ZM0.105781 16.21C3.12978 16.21 4.87978 14.082 4.87978 10.96C4.87978 7.838 3.12978 5.71 0.105781 5.71C-2.90422 5.71 -4.65422 7.838 -4.65422 10.96C-4.65422 14.082 -2.90422 16.21 0.105781 16.21ZM0.105781 14.824C-2.03622 14.796 -3.11422 13.27 -3.10022 10.96C-3.08622 8.65 -2.03622 7.082 0.105781 7.096C2.24778 7.124 3.32578 8.65 3.32578 10.96C3.32578 13.27 2.24778 14.838 0.105781 14.824ZM12.0927 10.68C12.7507 10.288 13.1567 9.546 13.1567 8.636C13.1567 7.25 12.1627 5.92 10.2447 5.92H6.28273V16H10.6227C12.5407 16 13.6327 14.838 13.6327 13.06C13.6327 11.996 13.0867 11.1 12.0927 10.68ZM7.76673 7.292H10.2307C11.0987 7.292 11.6587 7.866 11.6587 8.65C11.6587 9.518 11.0287 10.036 10.2307 10.036H7.76673V7.292ZM10.3987 14.614H7.76673V11.408H10.4967C11.5047 11.408 12.1487 12.122 12.1487 13.032C12.1487 14.012 11.3927 14.614 10.3987 14.614ZM19.2327 16.21C22.2567 16.21 24.0067 14.082 24.0067 10.96C24.0067 7.838 22.2567 5.71 19.2327 5.71C16.2227 5.71 14.4727 7.838 14.4727 10.96C14.4727 14.082 16.2227 16.21 19.2327 16.21ZM19.2327 14.824C17.0907 14.796 16.0127 13.27 16.0267 10.96C16.0407 8.65 17.0907 7.082 19.2327 7.096C21.3747 7.124 22.4527 8.65 22.4527 10.96C22.4527 13.27 21.3747 14.838 19.2327 14.824ZM29.6097 16.21C31.9337 16.21 33.5017 14.95 34.1037 12.962L32.6197 12.556C32.2137 13.956 31.2197 14.824 29.6097 14.824C27.4677 14.824 26.3897 13.27 26.3897 10.96C26.4037 8.65 27.4677 7.096 29.6097 7.096C31.2197 7.096 32.2137 7.964 32.6197 9.364L34.1037 8.958C33.5017 6.97 31.9337 5.71 29.6097 5.71C26.5997 5.71 24.8497 7.838 24.8497 10.96C24.8497 14.082 26.5997 16.21 29.6097 16.21ZM38.1559 16H39.6259V7.306H42.9719V5.92H34.8099V7.306H38.1559V16ZM52.0235 16V5.92H50.5395L45.5695 13.41V5.92H44.0855V16H45.5695L50.5395 8.51V16H52.0235ZM56.6466 12.178H65.8866V11.002H56.6466V12.178ZM70.5132 16H71.9832V11.646H77.0232V16H78.4792V5.92H77.0232V10.26H71.9832V5.92H70.5132V16ZM84.639 16.21C87.663 16.21 89.413 14.082 89.413 10.96C89.413 7.838 87.663 5.71 84.639 5.71C81.629 5.71 79.879 7.838 79.879 10.96C79.879 14.082 81.629 16.21 84.639 16.21ZM84.639 14.824C82.497 14.796 81.419 13.27 81.433 10.96C81.447 8.65 82.497 7.082 84.639 7.096C86.781 7.124 87.859 8.65 87.859 10.96C87.859 13.27 86.781 14.838 84.639 14.824ZM96.6259 10.68C97.2839 10.288 97.6899 9.546 97.6899 8.636C97.6899 7.25 96.6959 5.92 94.7779 5.92H90.8159V16H95.1559C97.0739 16 98.1659 14.838 98.1659 13.06C98.1659 11.996 97.6199 11.1 96.6259 10.68ZM92.2999 7.292H94.7639C95.6319 7.292 96.1919 7.866 96.1919 8.65C96.1919 9.518 95.5619 10.036 94.7639 10.036H92.2999V7.292ZM94.9319 14.614H92.2999V11.408H95.0299C96.0379 11.408 96.6819 12.122 96.6819 13.032C96.6819 14.012 95.9259 14.614 94.9319 14.614ZM103.766 16.21C106.79 16.21 108.54 14.082 108.54 10.96C108.54 7.838 106.79 5.71 103.766 5.71C100.756 5.71 99.0059 7.838 99.0059 10.96C99.0059 14.082 100.756 16.21 103.766 16.21ZM103.766 14.824C101.624 14.796 100.546 13.27 100.56 10.96C100.574 8.65 101.624 7.082 103.766 7.096C105.908 7.124 106.986 8.65 106.986 10.96C106.986 13.27 105.908 14.838 103.766 14.824ZM114.143 16.21C116.467 16.21 118.035 14.95 118.637 12.962L117.153 12.556C116.747 13.956 115.753 14.824 114.143 14.824C112.001 14.824 110.923 13.27 110.923 10.96C110.937 8.65 112.001 7.096 114.143 7.096C115.753 7.096 116.747 7.964 117.153 9.364L118.637 8.958C118.035 6.97 116.467 5.71 114.143 5.71C111.133 5.71 109.383 7.838 109.383 10.96C109.383 14.082 111.133 16.21 114.143 16.21ZM122.689 16H124.159V7.306H127.505V5.92H119.343V7.306H122.689V16ZM136.557 16V5.92H135.073L130.103 13.41V5.92H128.619V16H130.103L135.073 8.51V16H136.557ZM141.18 12.178H150.42V11.002H141.18V12.178ZM155.046 16H156.516V11.646H161.556V16H163.012V5.92H161.556V10.26H156.516V5.92H155.046V16ZM169.172 16.21C172.196 16.21 173.946 14.082 173.946 10.96C173.946 7.838 172.196 5.71 169.172 5.71C166.162 5.71 164.412 7.838 164.412 10.96C164.412 14.082 166.162 16.21 169.172 16.21ZM169.172 14.824C167.03 14.796 165.952 13.27 165.966 10.96C165.98 8.65 167.03 7.082 169.172 7.096C171.314 7.124 172.392 8.65 172.392 10.96C172.392 13.27 171.314 14.838 169.172 14.824ZM181.159 10.68C181.817 10.288 182.223 9.546 182.223 8.636C182.223 7.25 181.229 5.92 179.311 5.92H175.349V16H179.689C181.607 16 182.699 14.838 182.699 13.06C182.699 11.996 182.153 11.1 181.159 10.68ZM176.833 7.292H179.297C180.165 7.292 180.725 7.866 180.725 8.65C180.725 9.518 180.095 10.036 179.297 10.036H176.833V7.292ZM179.465 14.614H176.833V11.408H179.563C180.571 11.408 181.215 12.122 181.215 13.032C181.215 14.012 180.459 14.614 179.465 14.614ZM188.299 16.21C191.323 16.21 193.073 14.082 193.073 10.96C193.073 7.838 191.323 5.71 188.299 5.71C185.289 5.71 183.539 7.838 183.539 10.96C183.539 14.082 185.289 16.21 188.299 16.21ZM188.299 14.824C186.157 14.796 185.079 13.27 185.093 10.96C185.107 8.65 186.157 7.082 188.299 7.096C190.441 7.124 191.519 8.65 191.519 10.96C191.519 13.27 190.441 14.838 188.299 14.824ZM198.676 16.21C201 16.21 202.568 14.95 203.17 12.962L201.686 12.556C201.28 13.956 200.286 14.824 198.676 14.824C196.534 14.824 195.456 13.27 195.456 10.96C195.47 8.65 196.534 7.096 198.676 7.096C200.286 7.096 201.28 7.964 201.686 9.364L203.17 8.958C202.568 6.97 201 5.71 198.676 5.71C195.666 5.71 193.916 7.838 193.916 10.96C193.916 14.082 195.666 16.21 198.676 16.21ZM207.222 16H208.692V7.306H212.038V5.92H203.876V7.306H207.222V16ZM221.09 16V5.92H219.606L214.636 13.41V5.92H213.152V16H214.636L219.606 8.51V16H221.09Z" fill="black"/>
</g>
</svg>
