<svg width="164" height="22" viewBox="0 0 164 22" fill="none" xmlns="http://www.w3.org/2000/svg">
<path d="M0 0H164V22H0V0Z" fill="#F6F6F6"/>
<mask id="mask0" mask-type="alpha" maskUnits="userSpaceOnUse" x="0" y="0" width="164" height="22">
<path d="M0 0H164V22H0V0Z" fill="#F6F6F6"/>
</mask>
<g mask="url(#mask0)">
<path d="M-14.538 17.68H-13.068V16H-6.558V17.68H-5.102V14.614H-5.844V5.92L-12.298 5.906C-12.424 8.034 -12.494 9.588 -12.662 11.352C-12.83 13.088 -13.138 14.614 -14.538 14.614V17.68ZM-12.13 14.614C-11.514 13.942 -11.402 13.2 -11.248 11.66C-11.094 10.05 -11.038 8.832 -10.954 7.292L-7.314 7.306V14.614H-12.13ZM-3.56102 16H2.87898V14.614H-2.09102V11.506H2.03898V10.12H-2.09102V7.306H2.87898V5.92H-3.56102V16ZM4.56008 16H6.03008V7.306H11.0001V5.92H4.56008V16ZM13.5766 16H15.1446L19.8766 5.92H18.3086L15.6066 11.842L12.9746 5.92H11.3226L14.8366 13.396L13.5766 16ZM24.6058 16.21C26.9298 16.21 28.4978 14.95 29.0998 12.962L27.6158 12.556C27.2098 13.956 26.2158 14.824 24.6058 14.824C22.4638 14.824 21.3858 13.27 21.3858 10.96C21.3998 8.65 22.4638 7.096 24.6058 7.096C26.2158 7.096 27.2098 7.964 27.6158 9.364L29.0998 8.958C28.4978 6.97 26.9298 5.71 24.6058 5.71C21.5958 5.71 19.8458 7.838 19.8458 10.96C19.8458 14.082 21.5958 16.21 24.6058 16.21ZM33.152 16H34.622V7.306H37.968V5.92H29.806V7.306H33.152V16ZM45.2481 16H46.7601L43.4841 5.92H41.3841L38.1081 16H39.6201L40.3621 13.732H44.5061L45.2481 16ZM40.8101 12.36L42.4201 7.39L44.0581 12.36H40.8101ZM55.779 17.498H57.249V14.684H56.143V6.102H54.673V14.684H49.493V5.92H48.023V16H55.779V17.498ZM59.8286 16H61.3966L66.1286 5.92H64.5606L61.8586 11.842L59.2266 5.92H57.5746L61.0886 13.396L59.8286 16ZM75.1563 16V5.92H73.6723L68.7023 13.41V5.92H67.2183V16H68.7023L73.6723 8.51V16H75.1563ZM85.0547 16V5.92H83.5707L78.6007 13.41V5.92H77.1167V16H78.6007L83.5707 8.51V16H85.0547ZM89.6779 12.178H98.9179V11.002H89.6779V12.178ZM103.026 17.68H104.496V16H111.006V17.68H112.462V14.614H111.72V5.92L105.266 5.906C105.14 8.034 105.07 9.588 104.902 11.352C104.734 13.088 104.426 14.614 103.026 14.614V17.68ZM105.434 14.614C106.05 13.942 106.162 13.2 106.316 11.66C106.47 10.05 106.526 8.832 106.61 7.292L110.25 7.306V14.614H105.434ZM114.003 16H120.443V14.614H115.473V11.506H119.603V10.12H115.473V7.306H120.443V5.92H114.003V16ZM122.125 16H123.595V7.306H128.565V5.92H122.125V16ZM131.141 16H132.709L137.441 5.92H135.873L133.171 11.842L130.539 5.92H128.887L132.401 13.396L131.141 16ZM142.17 16.21C144.494 16.21 146.062 14.95 146.664 12.962L145.18 12.556C144.774 13.956 143.78 14.824 142.17 14.824C140.028 14.824 138.95 13.27 138.95 10.96C138.964 8.65 140.028 7.096 142.17 7.096C143.78 7.096 144.774 7.964 145.18 9.364L146.664 8.958C146.062 6.97 144.494 5.71 142.17 5.71C139.16 5.71 137.41 7.838 137.41 10.96C137.41 14.082 139.16 16.21 142.17 16.21ZM150.716 16H152.186V7.306H155.532V5.92H147.37V7.306H150.716V16ZM162.813 16H164.325L161.049 5.92H158.949L155.673 16H157.185L157.927 13.732H162.071L162.813 16ZM158.375 12.36L159.985 7.39L161.623 12.36H158.375ZM173.343 17.498H174.813V14.684H173.707V6.102H172.237V14.684H167.057V5.92H165.587V16H173.343V17.498ZM177.393 16H178.961L183.693 5.92H182.125L179.423 11.842L176.791 5.92H175.139L178.653 13.396L177.393 16ZM192.721 16V5.92H191.237L186.267 13.41V5.92H184.783V16H186.267L191.237 8.51V16H192.721ZM202.619 16V5.92H201.135L196.165 13.41V5.92H194.681V16H196.165L201.135 8.51V16H202.619Z" fill="black"/>
</g>
</svg>
