<svg width="517" height="634" viewBox="0 0 517 634" fill="none" xmlns="http://www.w3.org/2000/svg">
<path d="M167.745 617.677V609.946H142.799C97.2063 609.946 92.0449 605.65 92.0449 564.415L92.0449 100.512C92.0449 85.9079 92.0449 73.0217 90.3245 63.5718H95.4859C95.4859 67.0081 104.948 80.7534 114.411 97.0759L407.75 580.737C419.794 601.355 434.418 622.832 434.418 634H441.3V61.8537C441.3 20.6179 456.784 7.73172 502.376 7.73172H517V0L322.587 0V7.73172L364.739 7.73172C410.331 7.73172 425.815 20.6179 425.815 61.8537V428.68C425.815 443.285 425.815 455.312 426.676 464.762H420.654C420.654 461.325 414.632 449.298 404.309 432.976L144.519 0L0 0L0 7.73172H24.0865C69.6789 7.73172 75.7005 12.0271 75.7005 53.2629L75.7005 564.415C75.7005 605.65 69.6789 609.946 24.0865 609.946H0L0 617.677H167.745Z" fill="white"/>
</svg>
