<svg width="257" height="19" viewBox="0 0 257 19" fill="none" xmlns="http://www.w3.org/2000/svg">
<mask id="mask0" mask-type="alpha" maskUnits="userSpaceOnUse" x="0" y="0" width="257" height="19">
<rect width="257" height="19" fill="#C4C4C4"/>
</mask>
<g mask="url(#mask0)">
<path d="M-16.504 11.08L-16.28 15.448H-16.12L-16.168 14.44C-16.184 14.248 -16.184 13.912 -16.248 13.752L-16.168 13.736C-16.12 13.88 -15.864 14.184 -15.736 14.264C-14.84 14.84 -14.04 15.128 -12.952 15.128C-10.52 15.128 -9.032 14.088 -9.032 12.168C-9.032 8.408 -14.904 8.44 -14.904 5.608C-14.904 4.344 -14.088 3.656 -12.664 3.656C-10.92 3.656 -10.104 4.904 -10.024 6.168L-9.992 6.84L-9.672 6.824L-9.864 3.048H-10.04L-9.992 3.896C-9.976 4.12 -9.96 4.296 -9.928 4.408L-10.04 4.44C-10.072 4.392 -10.2 4.152 -10.328 4.072C-10.872 3.704 -11.608 3.368 -12.664 3.368C-14.744 3.368 -16.136 4.408 -16.136 5.96C-16.136 9.512 -10.344 9.512 -10.344 12.44C-10.344 14.008 -11.384 14.856 -12.984 14.856C-14.664 14.856 -16.072 13.64 -16.168 11.752L-16.2 11.096L-16.504 11.08ZM-8.25812 15H-3.77812V14.856H-4.38612C-5.23412 14.856 -5.34612 14.792 -5.34612 14.024V4.504C-5.34612 3.736 -5.23412 3.672 -4.38612 3.672H-3.77812V3.496H-8.25812V3.64H-7.65012C-6.80212 3.64 -6.70612 3.704 -6.70612 4.472V14.024C-6.70612 14.792 -6.80212 14.856 -7.65012 14.856H-8.25812V15ZM-0.0287499 15V14.856H-0.49275C-1.34075 14.856 -1.43675 14.776 -1.43675 14.008V5.368C-1.43675 5.096 -1.43675 4.856 -1.46875 4.68H-1.37275C-1.37275 4.744 -1.19675 5 -1.02075 5.304L4.43525 14.312C4.65925 14.696 4.93125 15.096 4.93125 15.304H5.05925V4.648C5.05925 3.88 5.34725 3.64 6.19525 3.64H6.46725V3.496H2.85125V3.64H3.63525C4.48325 3.64 4.77125 3.88 4.77125 4.648V11.48C4.77125 11.752 4.77125 11.976 4.78725 12.152H4.67525C4.67525 12.088 4.56325 11.864 4.37125 11.56L-0.46075 3.496H-3.14875V3.64H-2.70075C-1.85275 3.64 -1.74075 3.72 -1.74075 4.488V14.008C-1.74075 14.776 -1.85275 14.856 -2.70075 14.856H-3.14875V15H-0.0287499ZM7.233 9.208C7.233 12.76 9.713 15.128 13.409 15.128C15.249 15.128 16.961 14.36 17.649 12.76L17.345 12.648C16.721 13.992 15.089 14.824 13.425 14.824C10.417 14.824 8.785 12.76 8.785 8.936C8.785 5.48 10.337 3.624 13.233 3.624C14.961 3.624 16.673 4.744 16.769 6.184L16.817 7.672L17.137 7.656L16.977 3.032H16.817L16.849 4.2C16.849 4.36 16.865 4.536 16.897 4.664L16.785 4.696C16.737 4.584 16.673 4.456 16.593 4.376C15.681 3.688 14.545 3.352 13.361 3.352C9.681 3.352 7.217 5.688 7.217 9.192L7.233 9.208ZM24.0938 11.704V6.568H23.9338V7.128C23.9338 8.664 23.0218 8.824 22.0298 8.824H21.3258V4.632C21.3258 4.28 21.1498 3.992 20.9418 3.8V3.784H23.4218C25.1178 3.784 26.0298 4.376 26.1418 6.104L26.2058 7.224H26.5258L26.2058 2.888L26.0458 2.904L26.1098 3.64H26.0778C25.9658 3.528 25.7098 3.496 25.4378 3.496H18.4138V3.64H19.0218C19.8698 3.64 19.9658 3.72 19.9658 4.488V14.008C19.9658 14.776 19.8698 14.856 19.0218 14.856H18.4138V15H26.3818C26.6698 15 26.9097 14.968 27.0378 14.856H27.0538L27.0058 15.592L27.1498 15.608L27.4538 11.272H27.1818L27.0698 12.552C26.9418 14.088 26.1418 14.712 24.4458 14.712H20.9418V14.696C21.1498 14.504 21.3258 14.216 21.3258 13.864V9.112H22.0298C23.0218 9.112 23.9338 9.288 23.9338 10.824V11.704H24.0938ZM37.908 15V14.856H36.932C36.084 14.856 36.004 14.76 36.004 13.864V3.368H35.78C35.78 3.704 35.028 4.696 33.684 6.28L32.996 7.064L33.108 7.16L34.292 5.944C34.548 5.72 34.66 5.544 34.74 5.448L34.804 5.48C34.772 5.704 34.756 6.04 34.756 6.408V13.896C34.756 14.792 34.644 14.888 33.796 14.888H32.676V15.032L37.908 15ZM39.3901 13.992C39.8061 14.296 40.6701 15.112 42.0621 15.128C44.4461 15.128 46.0461 12.584 46.0461 8.76C46.0461 5.528 44.5741 3.368 42.3661 3.368C40.1741 3.368 38.6861 4.728 38.6861 6.984C38.6861 9.24 40.0141 10.744 41.9821 10.744C43.0541 10.744 44.1101 10.136 44.6541 8.904H44.7341C44.7341 12.216 43.8061 14.84 42.0621 14.84C40.3981 14.84 39.7741 13.544 39.5501 12.568V12.344H39.3901V13.992ZM40.0301 6.984C40.0301 4.824 40.8621 3.656 42.3661 3.656C43.6781 3.656 44.4621 4.904 44.6541 7.08C44.6381 9.096 43.3101 10.456 42.0941 10.456C40.7501 10.456 40.0301 9.24 40.0301 6.984ZM47.9839 13.992C48.3999 14.296 49.2639 15.112 50.6559 15.128C53.0399 15.128 54.6399 12.584 54.6399 8.76C54.6399 5.528 53.1679 3.368 50.9599 3.368C48.7679 3.368 47.2799 4.728 47.2799 6.984C47.2799 9.24 48.6079 10.744 50.5759 10.744C51.6479 10.744 52.7039 10.136 53.2479 8.904H53.3279C53.3279 12.216 52.3999 14.84 50.6559 14.84C48.9919 14.84 48.3679 13.544 48.1439 12.568V12.344H47.9839V13.992ZM48.6239 6.984C48.6239 4.824 49.4559 3.656 50.9599 3.656C52.2719 3.656 53.0559 4.904 53.2479 7.08C53.2319 9.096 51.9039 10.456 50.6879 10.456C49.3439 10.456 48.6239 9.24 48.6239 6.984ZM60.6736 15V14.856H59.6976C58.8496 14.856 58.7696 14.76 58.7696 13.864V3.368H58.5456C58.5456 3.704 57.7936 4.696 56.4496 6.28L55.7616 7.064L55.8736 7.16L57.0576 5.944C57.3136 5.72 57.4256 5.544 57.5056 5.448L57.5696 5.48C57.5376 5.704 57.5216 6.04 57.5216 6.408V13.896C57.5216 14.792 57.4096 14.888 56.5616 14.888H55.4416V15.032L60.6736 15ZM81.2113 10.6V10.168H65.8513V10.6H81.2113ZM86.6991 11.08L86.9231 15.448H87.0831L87.0351 14.44C87.0191 14.248 87.0191 13.912 86.9551 13.752L87.0351 13.736C87.0831 13.88 87.3391 14.184 87.4671 14.264C88.3631 14.84 89.1631 15.128 90.2511 15.128C92.6831 15.128 94.1711 14.088 94.1711 12.168C94.1711 8.408 88.2991 8.44 88.2991 5.608C88.2991 4.344 89.1151 3.656 90.5391 3.656C92.2831 3.656 93.0991 4.904 93.1791 6.168L93.2111 6.84L93.5311 6.824L93.3391 3.048H93.1631L93.2111 3.896C93.2271 4.12 93.2431 4.296 93.2751 4.408L93.1631 4.44C93.1311 4.392 93.0031 4.152 92.8751 4.072C92.3311 3.704 91.5951 3.368 90.5391 3.368C88.4591 3.368 87.0671 4.408 87.0671 5.96C87.0671 9.512 92.8591 9.512 92.8591 12.44C92.8591 14.008 91.8191 14.856 90.2191 14.856C88.5391 14.856 87.1311 13.64 87.0351 11.752L87.0031 11.096L86.6991 11.08ZM94.945 15H99.425V14.856H98.817C97.969 14.856 97.857 14.792 97.857 14.024V4.504C97.857 3.736 97.969 3.672 98.817 3.672H99.425V3.496H94.945V3.64H95.553C96.401 3.64 96.497 3.704 96.497 4.472V14.024C96.497 14.792 96.401 14.856 95.553 14.856H94.945V15ZM103.174 15V14.856H102.71C101.862 14.856 101.766 14.776 101.766 14.008V5.368C101.766 5.096 101.766 4.856 101.734 4.68H101.83C101.83 4.744 102.006 5 102.182 5.304L107.638 14.312C107.862 14.696 108.134 15.096 108.134 15.304H108.262V4.648C108.262 3.88 108.55 3.64 109.398 3.64H109.67V3.496H106.054V3.64H106.838C107.686 3.64 107.974 3.88 107.974 4.648V11.48C107.974 11.752 107.974 11.976 107.99 12.152H107.878C107.878 12.088 107.766 11.864 107.574 11.56L102.742 3.496H100.054V3.64H100.502C101.35 3.64 101.462 3.72 101.462 4.488V14.008C101.462 14.776 101.35 14.856 100.502 14.856H100.054V15H103.174ZM110.436 9.208C110.436 12.76 112.916 15.128 116.612 15.128C118.452 15.128 120.164 14.36 120.852 12.76L120.548 12.648C119.924 13.992 118.292 14.824 116.628 14.824C113.62 14.824 111.988 12.76 111.988 8.936C111.988 5.48 113.54 3.624 116.436 3.624C118.164 3.624 119.876 4.744 119.972 6.184L120.02 7.672L120.34 7.656L120.18 3.032H120.02L120.052 4.2C120.052 4.36 120.068 4.536 120.1 4.664L119.988 4.696C119.94 4.584 119.876 4.456 119.796 4.376C118.884 3.688 117.748 3.352 116.564 3.352C112.884 3.352 110.42 5.688 110.42 9.192L110.436 9.208ZM127.297 11.704V6.568H127.137V7.128C127.137 8.664 126.225 8.824 125.233 8.824H124.529V4.632C124.529 4.28 124.353 3.992 124.145 3.8V3.784H126.625C128.321 3.784 129.233 4.376 129.345 6.104L129.409 7.224H129.729L129.409 2.888L129.249 2.904L129.313 3.64H129.281C129.169 3.528 128.913 3.496 128.641 3.496H121.617V3.64H122.225C123.073 3.64 123.169 3.72 123.169 4.488V14.008C123.169 14.776 123.073 14.856 122.225 14.856H121.617V15H129.585C129.873 15 130.113 14.968 130.241 14.856H130.257L130.209 15.592L130.353 15.608L130.657 11.272H130.385L130.273 12.552C130.145 14.088 129.345 14.712 127.649 14.712H124.145V14.696C124.353 14.504 124.529 14.216 124.529 13.864V9.112H125.233C126.225 9.112 127.137 9.288 127.137 10.824V11.704H127.297ZM141.111 15V14.856H140.135C139.287 14.856 139.207 14.76 139.207 13.864V3.368H138.983C138.983 3.704 138.231 4.696 136.887 6.28L136.199 7.064L136.311 7.16L137.495 5.944C137.751 5.72 137.863 5.544 137.943 5.448L138.007 5.48C137.975 5.704 137.959 6.04 137.959 6.408V13.896C137.959 14.792 137.847 14.888 136.999 14.888H135.879V15.032L141.111 15ZM142.593 13.992C143.009 14.296 143.873 15.112 145.265 15.128C147.649 15.128 149.249 12.584 149.249 8.76C149.249 5.528 147.777 3.368 145.569 3.368C143.377 3.368 141.889 4.728 141.889 6.984C141.889 9.24 143.217 10.744 145.185 10.744C146.257 10.744 147.313 10.136 147.857 8.904H147.937C147.937 12.216 147.009 14.84 145.265 14.84C143.601 14.84 142.977 13.544 142.753 12.568V12.344H142.593V13.992ZM143.233 6.984C143.233 4.824 144.065 3.656 145.569 3.656C146.881 3.656 147.665 4.904 147.857 7.08C147.841 9.096 146.513 10.456 145.297 10.456C143.953 10.456 143.233 9.24 143.233 6.984ZM151.187 13.992C151.603 14.296 152.467 15.112 153.859 15.128C156.243 15.128 157.843 12.584 157.843 8.76C157.843 5.528 156.371 3.368 154.163 3.368C151.971 3.368 150.483 4.728 150.483 6.984C150.483 9.24 151.811 10.744 153.779 10.744C154.851 10.744 155.907 10.136 156.451 8.904H156.531C156.531 12.216 155.603 14.84 153.859 14.84C152.195 14.84 151.571 13.544 151.347 12.568V12.344H151.187V13.992ZM151.827 6.984C151.827 4.824 152.659 3.656 154.163 3.656C155.475 3.656 156.259 4.904 156.451 7.08C156.435 9.096 155.107 10.456 153.891 10.456C152.547 10.456 151.827 9.24 151.827 6.984ZM163.877 15V14.856H162.901C162.053 14.856 161.973 14.76 161.973 13.864V3.368H161.749C161.749 3.704 160.997 4.696 159.653 6.28L158.965 7.064L159.077 7.16L160.261 5.944C160.517 5.72 160.629 5.544 160.709 5.448L160.773 5.48C160.741 5.704 160.725 6.04 160.725 6.408V13.896C160.725 14.792 160.613 14.888 159.765 14.888H158.645V15.032L163.877 15ZM184.414 10.6V10.168H169.054V10.6H184.414ZM189.902 11.08L190.126 15.448H190.286L190.238 14.44C190.222 14.248 190.222 13.912 190.158 13.752L190.238 13.736C190.286 13.88 190.542 14.184 190.67 14.264C191.566 14.84 192.366 15.128 193.454 15.128C195.886 15.128 197.374 14.088 197.374 12.168C197.374 8.408 191.502 8.44 191.502 5.608C191.502 4.344 192.318 3.656 193.742 3.656C195.486 3.656 196.302 4.904 196.382 6.168L196.414 6.84L196.734 6.824L196.542 3.048H196.366L196.414 3.896C196.43 4.12 196.446 4.296 196.478 4.408L196.366 4.44C196.334 4.392 196.206 4.152 196.078 4.072C195.534 3.704 194.798 3.368 193.742 3.368C191.662 3.368 190.27 4.408 190.27 5.96C190.27 9.512 196.062 9.512 196.062 12.44C196.062 14.008 195.022 14.856 193.422 14.856C191.742 14.856 190.334 13.64 190.238 11.752L190.206 11.096L189.902 11.08ZM198.148 15H202.628V14.856H202.02C201.172 14.856 201.06 14.792 201.06 14.024V4.504C201.06 3.736 201.172 3.672 202.02 3.672H202.628V3.496H198.148V3.64H198.756C199.604 3.64 199.7 3.704 199.7 4.472V14.024C199.7 14.792 199.604 14.856 198.756 14.856H198.148V15ZM206.378 15V14.856H205.914C205.066 14.856 204.97 14.776 204.97 14.008V5.368C204.97 5.096 204.97 4.856 204.938 4.68H205.034C205.034 4.744 205.21 5 205.386 5.304L210.842 14.312C211.066 14.696 211.338 15.096 211.338 15.304H211.466V4.648C211.466 3.88 211.753 3.64 212.602 3.64H212.874V3.496H209.258V3.64H210.042C210.89 3.64 211.178 3.88 211.178 4.648V11.48C211.178 11.752 211.178 11.976 211.194 12.152H211.082C211.082 12.088 210.97 11.864 210.778 11.56L205.946 3.496H203.258V3.64H203.706C204.554 3.64 204.666 3.72 204.666 4.488V14.008C204.666 14.776 204.554 14.856 203.706 14.856H203.258V15H206.378ZM213.639 9.208C213.639 12.76 216.119 15.128 219.815 15.128C221.655 15.128 223.367 14.36 224.055 12.76L223.751 12.648C223.127 13.992 221.495 14.824 219.831 14.824C216.823 14.824 215.191 12.76 215.191 8.936C215.191 5.48 216.743 3.624 219.639 3.624C221.367 3.624 223.079 4.744 223.175 6.184L223.223 7.672L223.543 7.656L223.383 3.032H223.223L223.255 4.2C223.255 4.36 223.271 4.536 223.303 4.664L223.191 4.696C223.143 4.584 223.079 4.456 222.999 4.376C222.087 3.688 220.951 3.352 219.767 3.352C216.087 3.352 213.623 5.688 213.623 9.192L213.639 9.208ZM230.5 11.704V6.568H230.34V7.128C230.34 8.664 229.428 8.824 228.436 8.824H227.732V4.632C227.732 4.28 227.556 3.992 227.348 3.8V3.784H229.828C231.524 3.784 232.436 4.376 232.548 6.104L232.612 7.224H232.932L232.612 2.888L232.452 2.904L232.516 3.64H232.484C232.372 3.528 232.116 3.496 231.844 3.496H224.82V3.64H225.428C226.276 3.64 226.372 3.72 226.372 4.488V14.008C226.372 14.776 226.276 14.856 225.428 14.856H224.82V15H232.788C233.076 15 233.316 14.968 233.444 14.856H233.46L233.412 15.592L233.556 15.608L233.86 11.272H233.588L233.476 12.552C233.348 14.088 232.548 14.712 230.852 14.712H227.348V14.696C227.556 14.504 227.732 14.216 227.732 13.864V9.112H228.436C229.428 9.112 230.34 9.288 230.34 10.824V11.704H230.5ZM244.314 15V14.856H243.338C242.49 14.856 242.41 14.76 242.41 13.864V3.368H242.186C242.186 3.704 241.434 4.696 240.09 6.28L239.402 7.064L239.514 7.16L240.698 5.944C240.954 5.72 241.066 5.544 241.146 5.448L241.21 5.48C241.178 5.704 241.162 6.04 241.162 6.408V13.896C241.162 14.792 241.05 14.888 240.202 14.888H239.082V15.032L244.314 15ZM245.796 13.992C246.212 14.296 247.076 15.112 248.468 15.128C250.852 15.128 252.452 12.584 252.452 8.76C252.452 5.528 250.98 3.368 248.772 3.368C246.58 3.368 245.092 4.728 245.092 6.984C245.092 9.24 246.42 10.744 248.388 10.744C249.46 10.744 250.516 10.136 251.06 8.904H251.14C251.14 12.216 250.212 14.84 248.468 14.84C246.804 14.84 246.18 13.544 245.956 12.568V12.344H245.796V13.992ZM246.436 6.984C246.436 4.824 247.268 3.656 248.772 3.656C250.084 3.656 250.868 4.904 251.06 7.08C251.044 9.096 249.716 10.456 248.5 10.456C247.156 10.456 246.436 9.24 246.436 6.984ZM254.39 13.992C254.806 14.296 255.67 15.112 257.062 15.128C259.446 15.128 261.046 12.584 261.046 8.76C261.046 5.528 259.574 3.368 257.366 3.368C255.174 3.368 253.686 4.728 253.686 6.984C253.686 9.24 255.014 10.744 256.982 10.744C258.054 10.744 259.11 10.136 259.654 8.904H259.734C259.734 12.216 258.806 14.84 257.062 14.84C255.398 14.84 254.774 13.544 254.55 12.568V12.344H254.39V13.992ZM255.03 6.984C255.03 4.824 255.862 3.656 257.366 3.656C258.678 3.656 259.462 4.904 259.654 7.08C259.638 9.096 258.31 10.456 257.094 10.456C255.75 10.456 255.03 9.24 255.03 6.984ZM267.08 15V14.856H266.104C265.256 14.856 265.176 14.76 265.176 13.864V3.368H264.952C264.952 3.704 264.2 4.696 262.856 6.28L262.168 7.064L262.28 7.16L263.464 5.944C263.72 5.72 263.832 5.544 263.912 5.448L263.976 5.48C263.944 5.704 263.928 6.04 263.928 6.408V13.896C263.928 14.792 263.816 14.888 262.968 14.888H261.848V15.032L267.08 15ZM292.305 10.6V10.168H276.945V10.6H292.305ZM297.793 11.08L298.017 15.448H298.177L298.129 14.44C298.113 14.248 298.113 13.912 298.049 13.752L298.129 13.736C298.177 13.88 298.433 14.184 298.561 14.264C299.457 14.84 300.257 15.128 301.345 15.128C303.777 15.128 305.265 14.088 305.265 12.168C305.265 8.408 299.393 8.44 299.393 5.608C299.393 4.344 300.209 3.656 301.633 3.656C303.377 3.656 304.193 4.904 304.273 6.168L304.305 6.84L304.625 6.824L304.433 3.048H304.257L304.305 3.896C304.321 4.12 304.337 4.296 304.369 4.408L304.257 4.44C304.225 4.392 304.097 4.152 303.969 4.072C303.425 3.704 302.689 3.368 301.633 3.368C299.553 3.368 298.161 4.408 298.161 5.96C298.161 9.512 303.953 9.512 303.953 12.44C303.953 14.008 302.913 14.856 301.313 14.856C299.633 14.856 298.225 13.64 298.129 11.752L298.097 11.096L297.793 11.08ZM306.039 15H310.519V14.856H309.911C309.063 14.856 308.951 14.792 308.951 14.024V4.504C308.951 3.736 309.063 3.672 309.911 3.672H310.519V3.496H306.039V3.64H306.647C307.495 3.64 307.591 3.704 307.591 4.472V14.024C307.591 14.792 307.495 14.856 306.647 14.856H306.039V15ZM314.268 15V14.856H313.804C312.956 14.856 312.86 14.776 312.86 14.008V5.368C312.86 5.096 312.86 4.856 312.828 4.68H312.924C312.924 4.744 313.1 5 313.276 5.304L318.732 14.312C318.956 14.696 319.228 15.096 319.228 15.304H319.356V4.648C319.356 3.88 319.644 3.64 320.492 3.64H320.764V3.496H317.148V3.64H317.932C318.78 3.64 319.068 3.88 319.068 4.648V11.48C319.068 11.752 319.068 11.976 319.084 12.152H318.972C318.972 12.088 318.86 11.864 318.668 11.56L313.836 3.496H311.148V3.64H311.596C312.444 3.64 312.556 3.72 312.556 4.488V14.008C312.556 14.776 312.444 14.856 311.596 14.856H311.148V15H314.268ZM321.53 9.208C321.53 12.76 324.01 15.128 327.706 15.128C329.546 15.128 331.258 14.36 331.946 12.76L331.642 12.648C331.018 13.992 329.386 14.824 327.722 14.824C324.714 14.824 323.082 12.76 323.082 8.936C323.082 5.48 324.634 3.624 327.53 3.624C329.258 3.624 330.97 4.744 331.066 6.184L331.114 7.672L331.434 7.656L331.274 3.032H331.114L331.146 4.2C331.146 4.36 331.162 4.536 331.194 4.664L331.082 4.696C331.034 4.584 330.97 4.456 330.89 4.376C329.978 3.688 328.842 3.352 327.658 3.352C323.978 3.352 321.514 5.688 321.514 9.192L321.53 9.208ZM338.391 11.704V6.568H338.231V7.128C338.231 8.664 337.319 8.824 336.327 8.824H335.623V4.632C335.623 4.28 335.447 3.992 335.239 3.8V3.784H337.719C339.415 3.784 340.327 4.376 340.439 6.104L340.503 7.224H340.823L340.503 2.888L340.343 2.904L340.407 3.64H340.375C340.263 3.528 340.007 3.496 339.735 3.496H332.711V3.64H333.319C334.167 3.64 334.263 3.72 334.263 4.488V14.008C334.263 14.776 334.167 14.856 333.319 14.856H332.711V15H340.679C340.967 15 341.207 14.968 341.335 14.856H341.351L341.303 15.592L341.447 15.608L341.751 11.272H341.479L341.367 12.552C341.239 14.088 340.439 14.712 338.743 14.712H335.239V14.696C335.447 14.504 335.623 14.216 335.623 13.864V9.112H336.327C337.319 9.112 338.231 9.288 338.231 10.824V11.704H338.391ZM352.205 15V14.856H351.229C350.381 14.856 350.301 14.76 350.301 13.864V3.368H350.077C350.077 3.704 349.325 4.696 347.981 6.28L347.293 7.064L347.405 7.16L348.589 5.944C348.845 5.72 348.957 5.544 349.037 5.448L349.101 5.48C349.069 5.704 349.053 6.04 349.053 6.408V13.896C349.053 14.792 348.941 14.888 348.093 14.888H346.973V15.032L352.205 15ZM353.687 13.992C354.103 14.296 354.967 15.112 356.359 15.128C358.743 15.128 360.343 12.584 360.343 8.76C360.343 5.528 358.871 3.368 356.663 3.368C354.471 3.368 352.983 4.728 352.983 6.984C352.983 9.24 354.311 10.744 356.279 10.744C357.351 10.744 358.407 10.136 358.951 8.904H359.031C359.031 12.216 358.103 14.84 356.359 14.84C354.695 14.84 354.071 13.544 353.847 12.568V12.344H353.687V13.992ZM354.327 6.984C354.327 4.824 355.159 3.656 356.663 3.656C357.975 3.656 358.759 4.904 358.951 7.08C358.935 9.096 357.607 10.456 356.391 10.456C355.047 10.456 354.327 9.24 354.327 6.984ZM362.281 13.992C362.697 14.296 363.561 15.112 364.953 15.128C367.337 15.128 368.937 12.584 368.937 8.76C368.937 5.528 367.465 3.368 365.257 3.368C363.065 3.368 361.577 4.728 361.577 6.984C361.577 9.24 362.905 10.744 364.873 10.744C365.945 10.744 367.001 10.136 367.545 8.904H367.625C367.625 12.216 366.697 14.84 364.953 14.84C363.289 14.84 362.665 13.544 362.441 12.568V12.344H362.281V13.992ZM362.921 6.984C362.921 4.824 363.753 3.656 365.257 3.656C366.569 3.656 367.353 4.904 367.545 7.08C367.529 9.096 366.201 10.456 364.985 10.456C363.641 10.456 362.921 9.24 362.921 6.984ZM374.971 15V14.856H373.995C373.147 14.856 373.067 14.76 373.067 13.864V3.368H372.843C372.843 3.704 372.091 4.696 370.747 6.28L370.059 7.064L370.171 7.16L371.355 5.944C371.611 5.72 371.723 5.544 371.803 5.448L371.867 5.48C371.835 5.704 371.819 6.04 371.819 6.408V13.896C371.819 14.792 371.707 14.888 370.859 14.888H369.739V15.032L374.971 15Z" fill="black"/>
</g>
</svg>
