<svg width="706" height="13" viewBox="0 0 706 13" fill="none" xmlns="http://www.w3.org/2000/svg">
<path d="M0 8.192L0.224 12.56H0.384L0.336 11.552C0.32 11.36 0.32 11.024 0.256 10.864L0.336 10.848C0.384 10.992 0.64 11.296 0.768 11.376C1.664 11.952 2.464 12.24 3.552 12.24C5.984 12.24 7.472 11.2 7.472 9.28C7.472 5.52 1.6 5.552 1.6 2.72C1.6 1.456 2.416 0.768 3.84 0.768C5.584 0.768 6.4 2.016 6.48 3.28L6.512 3.952L6.832 3.936L6.64 0.16H6.464L6.512 1.008C6.528 1.232 6.544 1.408 6.576 1.52L6.464 1.552C6.432 1.504 6.304 1.264 6.176 1.184C5.632 0.816 4.896 0.48 3.84 0.48C1.76 0.48 0.368 1.52 0.368 3.072C0.368 6.624 6.16 6.624 6.16 9.552C6.16 11.12 5.12 11.968 3.52 11.968C1.84 11.968 0.432 10.752 0.336 8.864L0.304 8.208L0 8.192Z" fill="black"/>
<path d="M8.24588 12.112H12.7259V11.968H12.1179C11.2699 11.968 11.1579 11.904 11.1579 11.136V1.616C11.1579 0.848 11.2699 0.784 12.1179 0.784H12.7259V0.608H8.24588V0.752H8.85388C9.70188 0.752 9.79788 0.816 9.79788 1.584V11.136C9.79788 11.904 9.70188 11.968 8.85388 11.968H8.24588V12.112Z" fill="black"/>
<path d="M16.4753 12.112V11.968H16.0112C15.1632 11.968 15.0673 11.888 15.0673 11.12V2.48C15.0673 2.208 15.0672 1.968 15.0352 1.792H15.1313C15.1313 1.856 15.3073 2.112 15.4833 2.416L20.9393 11.424C21.1633 11.808 21.4353 12.208 21.4353 12.416H21.5633V1.76C21.5633 0.992 21.8513 0.752 22.6993 0.752H22.9713V0.608H19.3552V0.752H20.1392C20.9872 0.752 21.2753 0.992 21.2753 1.76V8.592C21.2753 8.864 21.2753 9.088 21.2913 9.264H21.1793C21.1793 9.2 21.0673 8.976 20.8752 8.672L16.0433 0.608H13.3553V0.752H13.8033C14.6513 0.752 14.7633 0.832 14.7633 1.6V11.12C14.7633 11.888 14.6513 11.968 13.8033 11.968H13.3553V12.112H16.4753Z" fill="black"/>
<path d="M23.737 6.32C23.737 9.872 26.217 12.24 29.913 12.24C31.753 12.24 33.465 11.472 34.153 9.872L33.849 9.76C33.225 11.104 31.593 11.936 29.929 11.936C26.921 11.936 25.289 9.872 25.289 6.048C25.289 2.592 26.841 0.736 29.737 0.736C31.465 0.736 33.177 1.856 33.273 3.296L33.321 4.784L33.641 4.768L33.481 0.144H33.321L33.353 1.312C33.353 1.472 33.369 1.648 33.401 1.776L33.289 1.808C33.241 1.696 33.177 1.568 33.097 1.488C32.185 0.8 31.049 0.464 29.865 0.464C26.185 0.464 23.721 2.8 23.721 6.304L23.737 6.32Z" fill="black"/>
<path d="M40.5978 8.816V3.68H40.4378V4.24C40.4378 5.776 39.5257 5.936 38.5337 5.936H37.8298V1.744C37.8298 1.392 37.6538 1.104 37.4458 0.912V0.896H39.9258C41.6218 0.896 42.5338 1.488 42.6458 3.216L42.7098 4.336H43.0298L42.7098 0L42.5498 0.0159998L42.6138 0.752H42.5817C42.4697 0.64 42.2137 0.608 41.9417 0.608H34.9178V0.752H35.5257C36.3737 0.752 36.4697 0.832 36.4697 1.6V11.12C36.4697 11.888 36.3737 11.968 35.5257 11.968H34.9178V12.112H42.8857C43.1737 12.112 43.4138 12.08 43.5418 11.968H43.5578L43.5098 12.704L43.6538 12.72L43.9578 8.384H43.6857L43.5737 9.664C43.4457 11.2 42.6457 11.824 40.9497 11.824H37.4458V11.808C37.6538 11.616 37.8298 11.328 37.8298 10.976V6.224H38.5337C39.5257 6.224 40.4378 6.4 40.4378 7.936V8.816H40.5978Z" fill="black"/>
<path d="M54.412 12.112V11.968H53.436C52.588 11.968 52.508 11.872 52.508 10.976V0.48H52.284C52.284 0.816 51.532 1.808 50.188 3.392L49.5 4.176L49.612 4.272L50.796 3.056C51.052 2.832 51.164 2.656 51.244 2.56L51.308 2.592C51.276 2.816 51.26 3.152 51.26 3.52V11.008C51.26 11.904 51.148 12 50.3 12H49.18V12.144L54.412 12.112Z" fill="black"/>
<path d="M55.8941 11.104C56.3101 11.408 57.1741 12.224 58.5661 12.24C60.9501 12.24 62.5501 9.696 62.5501 5.872C62.5501 2.64 61.0781 0.48 58.8701 0.48C56.6781 0.48 55.1901 1.84 55.1901 4.096C55.1901 6.352 56.5181 7.856 58.4861 7.856C59.5581 7.856 60.6141 7.248 61.1581 6.016H61.2381C61.2381 9.328 60.3101 11.952 58.5661 11.952C56.9021 11.952 56.2781 10.656 56.0541 9.68V9.456H55.8941V11.104ZM56.5341 4.096C56.5341 1.936 57.3661 0.768 58.8701 0.768C60.1821 0.768 60.9661 2.016 61.1581 4.192C61.1421 6.208 59.8141 7.568 58.5981 7.568C57.2541 7.568 56.5341 6.352 56.5341 4.096Z" fill="black"/>
<path d="M64.4879 11.104C64.9039 11.408 65.7679 12.224 67.1599 12.24C69.5439 12.24 71.1439 9.696 71.1439 5.872C71.1439 2.64 69.6719 0.48 67.4639 0.48C65.2719 0.48 63.7839 1.84 63.7839 4.096C63.7839 6.352 65.1119 7.856 67.0799 7.856C68.1519 7.856 69.2079 7.248 69.7519 6.016H69.8319C69.8319 9.328 68.9039 11.952 67.1599 11.952C65.4959 11.952 64.8719 10.656 64.6479 9.68V9.456H64.4879V11.104ZM65.1279 4.096C65.1279 1.936 65.9599 0.768 67.4639 0.768C68.7759 0.768 69.5599 2.016 69.7519 4.192C69.7359 6.208 68.4079 7.568 67.1919 7.568C65.8479 7.568 65.1279 6.352 65.1279 4.096Z" fill="black"/>
<path d="M77.1776 12.112V11.968H76.2016C75.3536 11.968 75.2736 11.872 75.2736 10.976V0.48H75.0496C75.0496 0.816 74.2976 1.808 72.9536 3.392L72.2656 4.176L72.3776 4.272L73.5616 3.056C73.8176 2.832 73.9296 2.656 74.0096 2.56L74.0736 2.592C74.0416 2.816 74.0256 3.152 74.0256 3.52V11.008C74.0256 11.904 73.9136 12 73.0656 12H71.9456V12.144L77.1776 12.112Z" fill="black"/>
<path d="M97.7152 7.712V7.28H82.3552V7.712H97.7152Z" fill="black"/>
<path d="M103.203 8.192L103.427 12.56H103.587L103.539 11.552C103.523 11.36 103.523 11.024 103.459 10.864L103.539 10.848C103.587 10.992 103.843 11.296 103.971 11.376C104.867 11.952 105.667 12.24 106.755 12.24C109.187 12.24 110.675 11.2 110.675 9.28C110.675 5.52 104.803 5.552 104.803 2.72C104.803 1.456 105.619 0.768 107.043 0.768C108.787 0.768 109.603 2.016 109.683 3.28L109.715 3.952L110.035 3.936L109.843 0.16H109.667L109.715 1.008C109.731 1.232 109.747 1.408 109.779 1.52L109.667 1.552C109.635 1.504 109.507 1.264 109.379 1.184C108.835 0.816 108.099 0.48 107.043 0.48C104.963 0.48 103.571 1.52 103.571 3.072C103.571 6.624 109.363 6.624 109.363 9.552C109.363 11.12 108.323 11.968 106.723 11.968C105.043 11.968 103.635 10.752 103.539 8.864L103.507 8.208L103.203 8.192Z" fill="black"/>
<path d="M111.449 12.112H115.929V11.968H115.321C114.473 11.968 114.361 11.904 114.361 11.136V1.616C114.361 0.848 114.473 0.784 115.321 0.784H115.929V0.608H111.449V0.752H112.057C112.905 0.752 113.001 0.816 113.001 1.584V11.136C113.001 11.904 112.905 11.968 112.057 11.968H111.449V12.112Z" fill="black"/>
<path d="M119.678 12.112V11.968H119.214C118.366 11.968 118.27 11.888 118.27 11.12V2.48C118.27 2.208 118.27 1.968 118.238 1.792H118.334C118.334 1.856 118.51 2.112 118.686 2.416L124.142 11.424C124.366 11.808 124.638 12.208 124.638 12.416H124.766V1.76C124.766 0.992 125.054 0.752 125.902 0.752H126.174V0.608H122.558V0.752H123.342C124.19 0.752 124.478 0.992 124.478 1.76V8.592C124.478 8.864 124.478 9.088 124.494 9.264H124.382C124.382 9.2 124.27 8.976 124.078 8.672L119.246 0.608H116.558V0.752H117.006C117.854 0.752 117.966 0.832 117.966 1.6V11.12C117.966 11.888 117.854 11.968 117.006 11.968H116.558V12.112H119.678Z" fill="black"/>
<path d="M126.94 6.32C126.94 9.872 129.42 12.24 133.116 12.24C134.956 12.24 136.668 11.472 137.356 9.872L137.052 9.76C136.428 11.104 134.796 11.936 133.132 11.936C130.124 11.936 128.492 9.872 128.492 6.048C128.492 2.592 130.044 0.736 132.94 0.736C134.668 0.736 136.38 1.856 136.476 3.296L136.524 4.784L136.844 4.768L136.684 0.144H136.524L136.556 1.312C136.556 1.472 136.572 1.648 136.604 1.776L136.492 1.808C136.444 1.696 136.38 1.568 136.3 1.488C135.388 0.8 134.252 0.464 133.068 0.464C129.388 0.464 126.924 2.8 126.924 6.304L126.94 6.32Z" fill="black"/>
<path d="M143.801 8.816V3.68H143.641V4.24C143.641 5.776 142.729 5.936 141.737 5.936H141.033V1.744C141.033 1.392 140.857 1.104 140.649 0.912V0.896H143.129C144.825 0.896 145.737 1.488 145.849 3.216L145.913 4.336H146.233L145.913 0L145.753 0.0159998L145.817 0.752H145.785C145.673 0.64 145.417 0.608 145.145 0.608H138.121V0.752H138.729C139.577 0.752 139.673 0.832 139.673 1.6V11.12C139.673 11.888 139.577 11.968 138.729 11.968H138.121V12.112H146.089C146.377 12.112 146.617 12.08 146.745 11.968H146.761L146.713 12.704L146.857 12.72L147.161 8.384H146.889L146.777 9.664C146.649 11.2 145.849 11.824 144.153 11.824H140.649V11.808C140.857 11.616 141.033 11.328 141.033 10.976V6.224H141.737C142.729 6.224 143.641 6.4 143.641 7.936V8.816H143.801Z" fill="black"/>
<path d="M157.615 12.112V11.968H156.639C155.791 11.968 155.711 11.872 155.711 10.976V0.48H155.487C155.487 0.816 154.735 1.808 153.391 3.392L152.703 4.176L152.815 4.272L153.999 3.056C154.255 2.832 154.367 2.656 154.447 2.56L154.511 2.592C154.479 2.816 154.463 3.152 154.463 3.52V11.008C154.463 11.904 154.351 12 153.503 12H152.383V12.144L157.615 12.112Z" fill="black"/>
<path d="M159.097 11.104C159.513 11.408 160.377 12.224 161.769 12.24C164.153 12.24 165.753 9.696 165.753 5.872C165.753 2.64 164.281 0.48 162.073 0.48C159.881 0.48 158.393 1.84 158.393 4.096C158.393 6.352 159.721 7.856 161.689 7.856C162.761 7.856 163.817 7.248 164.361 6.016H164.441C164.441 9.328 163.513 11.952 161.769 11.952C160.105 11.952 159.481 10.656 159.257 9.68V9.456H159.097V11.104ZM159.737 4.096C159.737 1.936 160.569 0.768 162.073 0.768C163.385 0.768 164.169 2.016 164.361 4.192C164.345 6.208 163.017 7.568 161.801 7.568C160.457 7.568 159.737 6.352 159.737 4.096Z" fill="black"/>
<path d="M167.691 11.104C168.107 11.408 168.971 12.224 170.363 12.24C172.747 12.24 174.347 9.696 174.347 5.872C174.347 2.64 172.875 0.48 170.667 0.48C168.475 0.48 166.987 1.84 166.987 4.096C166.987 6.352 168.315 7.856 170.283 7.856C171.355 7.856 172.411 7.248 172.955 6.016H173.035C173.035 9.328 172.107 11.952 170.363 11.952C168.699 11.952 168.075 10.656 167.851 9.68V9.456H167.691V11.104ZM168.331 4.096C168.331 1.936 169.163 0.768 170.667 0.768C171.979 0.768 172.763 2.016 172.955 4.192C172.939 6.208 171.611 7.568 170.395 7.568C169.051 7.568 168.331 6.352 168.331 4.096Z" fill="black"/>
<path d="M180.381 12.112V11.968H179.405C178.557 11.968 178.477 11.872 178.477 10.976V0.48H178.253C178.253 0.816 177.501 1.808 176.157 3.392L175.469 4.176L175.581 4.272L176.765 3.056C177.021 2.832 177.133 2.656 177.213 2.56L177.277 2.592C177.245 2.816 177.229 3.152 177.229 3.52V11.008C177.229 11.904 177.117 12 176.269 12H175.149V12.144L180.381 12.112Z" fill="black"/>
<path d="M200.918 7.712V7.28H185.558V7.712H200.918Z" fill="black"/>
<path d="M206.406 8.192L206.63 12.56H206.79L206.742 11.552C206.726 11.36 206.726 11.024 206.662 10.864L206.742 10.848C206.79 10.992 207.046 11.296 207.174 11.376C208.07 11.952 208.87 12.24 209.958 12.24C212.39 12.24 213.878 11.2 213.878 9.28C213.878 5.52 208.006 5.552 208.006 2.72C208.006 1.456 208.822 0.768 210.246 0.768C211.99 0.768 212.806 2.016 212.886 3.28L212.918 3.952L213.238 3.936L213.046 0.16H212.87L212.918 1.008C212.934 1.232 212.95 1.408 212.982 1.52L212.87 1.552C212.838 1.504 212.71 1.264 212.582 1.184C212.038 0.816 211.302 0.48 210.246 0.48C208.166 0.48 206.774 1.52 206.774 3.072C206.774 6.624 212.566 6.624 212.566 9.552C212.566 11.12 211.526 11.968 209.926 11.968C208.246 11.968 206.838 10.752 206.742 8.864L206.71 8.208L206.406 8.192Z" fill="black"/>
<path d="M214.652 12.112H219.132V11.968H218.524C217.676 11.968 217.564 11.904 217.564 11.136V1.616C217.564 0.848 217.676 0.784 218.524 0.784H219.132V0.608H214.652V0.752H215.26C216.108 0.752 216.204 0.816 216.204 1.584V11.136C216.204 11.904 216.108 11.968 215.26 11.968H214.652V12.112Z" fill="black"/>
<path d="M222.882 12.112V11.968H222.417C221.569 11.968 221.473 11.888 221.473 11.12V2.48C221.473 2.208 221.473 1.968 221.441 1.792H221.538C221.538 1.856 221.713 2.112 221.889 2.416L227.346 11.424C227.57 11.808 227.842 12.208 227.842 12.416H227.969V1.76C227.969 0.992 228.257 0.752 229.105 0.752H229.378V0.608H225.762V0.752H226.546C227.394 0.752 227.682 0.992 227.682 1.76V8.592C227.682 8.864 227.681 9.088 227.697 9.264H227.585C227.585 9.2 227.473 8.976 227.281 8.672L222.449 0.608H219.762V0.752H220.21C221.058 0.752 221.169 0.832 221.169 1.6V11.12C221.169 11.888 221.058 11.968 220.21 11.968H219.762V12.112H222.882Z" fill="black"/>
<path d="M230.143 6.32C230.143 9.872 232.623 12.24 236.319 12.24C238.159 12.24 239.871 11.472 240.559 9.872L240.255 9.76C239.631 11.104 237.999 11.936 236.335 11.936C233.327 11.936 231.695 9.872 231.695 6.048C231.695 2.592 233.247 0.736 236.143 0.736C237.871 0.736 239.583 1.856 239.679 3.296L239.727 4.784L240.047 4.768L239.887 0.144H239.727L239.759 1.312C239.759 1.472 239.775 1.648 239.807 1.776L239.695 1.808C239.647 1.696 239.583 1.568 239.503 1.488C238.591 0.8 237.455 0.464 236.271 0.464C232.591 0.464 230.127 2.8 230.127 6.304L230.143 6.32Z" fill="black"/>
<path d="M247.004 8.816V3.68H246.844V4.24C246.844 5.776 245.932 5.936 244.94 5.936H244.236V1.744C244.236 1.392 244.06 1.104 243.852 0.912V0.896H246.332C248.028 0.896 248.94 1.488 249.052 3.216L249.116 4.336H249.436L249.116 0L248.956 0.0159998L249.02 0.752H248.988C248.876 0.64 248.62 0.608 248.348 0.608H241.324V0.752H241.932C242.78 0.752 242.876 0.832 242.876 1.6V11.12C242.876 11.888 242.78 11.968 241.932 11.968H241.324V12.112H249.292C249.58 12.112 249.82 12.08 249.948 11.968H249.964L249.916 12.704L250.06 12.72L250.364 8.384H250.092L249.98 9.664C249.852 11.2 249.052 11.824 247.356 11.824H243.852V11.808C244.06 11.616 244.236 11.328 244.236 10.976V6.224H244.94C245.932 6.224 246.844 6.4 246.844 7.936V8.816H247.004Z" fill="black"/>
<path d="M260.818 12.112V11.968H259.842C258.994 11.968 258.914 11.872 258.914 10.976V0.48H258.69C258.69 0.816 257.938 1.808 256.594 3.392L255.906 4.176L256.018 4.272L257.202 3.056C257.458 2.832 257.57 2.656 257.65 2.56L257.714 2.592C257.682 2.816 257.666 3.152 257.666 3.52V11.008C257.666 11.904 257.554 12 256.706 12H255.586V12.144L260.818 12.112Z" fill="black"/>
<path d="M262.3 11.104C262.716 11.408 263.58 12.224 264.972 12.24C267.356 12.24 268.956 9.696 268.956 5.872C268.956 2.64 267.484 0.48 265.276 0.48C263.084 0.48 261.596 1.84 261.596 4.096C261.596 6.352 262.924 7.856 264.892 7.856C265.964 7.856 267.02 7.248 267.564 6.016H267.644C267.644 9.328 266.716 11.952 264.972 11.952C263.308 11.952 262.684 10.656 262.46 9.68V9.456H262.3V11.104ZM262.94 4.096C262.94 1.936 263.772 0.768 265.276 0.768C266.588 0.768 267.372 2.016 267.564 4.192C267.548 6.208 266.22 7.568 265.004 7.568C263.66 7.568 262.94 6.352 262.94 4.096Z" fill="black"/>
<path d="M270.894 11.104C271.31 11.408 272.174 12.224 273.566 12.24C275.95 12.24 277.55 9.696 277.55 5.872C277.55 2.64 276.078 0.48 273.87 0.48C271.678 0.48 270.19 1.84 270.19 4.096C270.19 6.352 271.518 7.856 273.486 7.856C274.558 7.856 275.614 7.248 276.158 6.016H276.238C276.238 9.328 275.31 11.952 273.566 11.952C271.902 11.952 271.278 10.656 271.054 9.68V9.456H270.894V11.104ZM271.534 4.096C271.534 1.936 272.366 0.768 273.87 0.768C275.182 0.768 275.966 2.016 276.158 4.192C276.142 6.208 274.814 7.568 273.598 7.568C272.254 7.568 271.534 6.352 271.534 4.096Z" fill="black"/>
<path d="M283.584 12.112V11.968H282.608C281.76 11.968 281.68 11.872 281.68 10.976V0.48H281.456C281.456 0.816 280.704 1.808 279.36 3.392L278.672 4.176L278.784 4.272L279.968 3.056C280.224 2.832 280.336 2.656 280.416 2.56L280.48 2.592C280.448 2.816 280.432 3.152 280.432 3.52V11.008C280.432 11.904 280.32 12 279.472 12H278.352V12.144L283.584 12.112Z" fill="black"/>
<path d="M308.809 7.712V7.28H293.449V7.712H308.809Z" fill="black"/>
<path d="M314.297 8.192L314.521 12.56H314.681L314.633 11.552C314.617 11.36 314.617 11.024 314.553 10.864L314.633 10.848C314.681 10.992 314.937 11.296 315.065 11.376C315.961 11.952 316.761 12.24 317.849 12.24C320.281 12.24 321.769 11.2 321.769 9.28C321.769 5.52 315.897 5.552 315.897 2.72C315.897 1.456 316.713 0.768 318.137 0.768C319.881 0.768 320.697 2.016 320.777 3.28L320.809 3.952L321.129 3.936L320.937 0.16H320.761L320.809 1.008C320.825 1.232 320.841 1.408 320.873 1.52L320.761 1.552C320.729 1.504 320.601 1.264 320.473 1.184C319.929 0.816 319.193 0.48 318.137 0.48C316.057 0.48 314.665 1.52 314.665 3.072C314.665 6.624 320.457 6.624 320.457 9.552C320.457 11.12 319.417 11.968 317.817 11.968C316.137 11.968 314.729 10.752 314.633 8.864L314.601 8.208L314.297 8.192Z" fill="black"/>
<path d="M322.543 12.112H327.023V11.968H326.415C325.567 11.968 325.455 11.904 325.455 11.136V1.616C325.455 0.848 325.567 0.784 326.415 0.784H327.023V0.608H322.543V0.752H323.151C323.999 0.752 324.095 0.816 324.095 1.584V11.136C324.095 11.904 323.999 11.968 323.151 11.968H322.543V12.112Z" fill="black"/>
<path d="M330.772 12.112V11.968H330.308C329.46 11.968 329.364 11.888 329.364 11.12V2.48C329.364 2.208 329.364 1.968 329.332 1.792H329.428C329.428 1.856 329.604 2.112 329.78 2.416L335.236 11.424C335.46 11.808 335.732 12.208 335.732 12.416H335.86V1.76C335.86 0.992 336.148 0.752 336.996 0.752H337.268V0.608H333.652V0.752H334.436C335.284 0.752 335.572 0.992 335.572 1.76V8.592C335.572 8.864 335.572 9.088 335.588 9.264H335.476C335.476 9.2 335.364 8.976 335.172 8.672L330.34 0.608H327.652V0.752H328.1C328.948 0.752 329.06 0.832 329.06 1.6V11.12C329.06 11.888 328.948 11.968 328.1 11.968H327.652V12.112H330.772Z" fill="black"/>
<path d="M338.034 6.32C338.034 9.872 340.514 12.24 344.21 12.24C346.05 12.24 347.762 11.472 348.45 9.872L348.146 9.76C347.522 11.104 345.89 11.936 344.226 11.936C341.218 11.936 339.586 9.872 339.586 6.048C339.586 2.592 341.138 0.736 344.034 0.736C345.762 0.736 347.474 1.856 347.57 3.296L347.618 4.784L347.938 4.768L347.778 0.144H347.618L347.65 1.312C347.65 1.472 347.666 1.648 347.698 1.776L347.586 1.808C347.538 1.696 347.474 1.568 347.394 1.488C346.482 0.8 345.346 0.464 344.162 0.464C340.482 0.464 338.018 2.8 338.018 6.304L338.034 6.32Z" fill="black"/>
<path d="M354.895 8.816V3.68H354.735V4.24C354.735 5.776 353.823 5.936 352.831 5.936H352.127V1.744C352.127 1.392 351.951 1.104 351.743 0.912V0.896H354.223C355.919 0.896 356.831 1.488 356.943 3.216L357.007 4.336H357.327L357.007 0L356.847 0.0159998L356.911 0.752H356.879C356.767 0.64 356.511 0.608 356.239 0.608H349.215V0.752H349.823C350.671 0.752 350.767 0.832 350.767 1.6V11.12C350.767 11.888 350.671 11.968 349.823 11.968H349.215V12.112H357.183C357.471 12.112 357.711 12.08 357.839 11.968H357.855L357.807 12.704L357.951 12.72L358.255 8.384H357.983L357.871 9.664C357.743 11.2 356.943 11.824 355.247 11.824H351.743V11.808C351.951 11.616 352.127 11.328 352.127 10.976V6.224H352.831C353.823 6.224 354.735 6.4 354.735 7.936V8.816H354.895Z" fill="black"/>
<path d="M368.709 12.112V11.968H367.733C366.885 11.968 366.805 11.872 366.805 10.976V0.48H366.581C366.581 0.816 365.829 1.808 364.485 3.392L363.797 4.176L363.909 4.272L365.093 3.056C365.349 2.832 365.461 2.656 365.541 2.56L365.605 2.592C365.573 2.816 365.557 3.152 365.557 3.52V11.008C365.557 11.904 365.445 12 364.597 12H363.477V12.144L368.709 12.112Z" fill="black"/>
<path d="M370.191 11.104C370.607 11.408 371.471 12.224 372.863 12.24C375.247 12.24 376.847 9.696 376.847 5.872C376.847 2.64 375.375 0.48 373.167 0.48C370.975 0.48 369.487 1.84 369.487 4.096C369.487 6.352 370.815 7.856 372.783 7.856C373.855 7.856 374.911 7.248 375.455 6.016H375.535C375.535 9.328 374.607 11.952 372.863 11.952C371.199 11.952 370.575 10.656 370.351 9.68V9.456H370.191V11.104ZM370.831 4.096C370.831 1.936 371.663 0.768 373.167 0.768C374.479 0.768 375.263 2.016 375.455 4.192C375.439 6.208 374.111 7.568 372.895 7.568C371.551 7.568 370.831 6.352 370.831 4.096Z" fill="black"/>
<path d="M378.785 11.104C379.201 11.408 380.065 12.224 381.457 12.24C383.841 12.24 385.441 9.696 385.441 5.872C385.441 2.64 383.969 0.48 381.761 0.48C379.569 0.48 378.081 1.84 378.081 4.096C378.081 6.352 379.409 7.856 381.377 7.856C382.449 7.856 383.505 7.248 384.049 6.016H384.129C384.129 9.328 383.201 11.952 381.457 11.952C379.793 11.952 379.169 10.656 378.945 9.68V9.456H378.785V11.104ZM379.425 4.096C379.425 1.936 380.257 0.768 381.761 0.768C383.073 0.768 383.857 2.016 384.049 4.192C384.033 6.208 382.705 7.568 381.489 7.568C380.145 7.568 379.425 6.352 379.425 4.096Z" fill="black"/>
<path d="M391.474 12.112V11.968H390.499C389.651 11.968 389.57 11.872 389.57 10.976V0.48H389.346C389.346 0.816 388.594 1.808 387.25 3.392L386.562 4.176L386.674 4.272L387.858 3.056C388.114 2.832 388.226 2.656 388.306 2.56L388.371 2.592C388.339 2.816 388.323 3.152 388.323 3.52V11.008C388.323 11.904 388.21 12 387.362 12H386.242V12.144L391.474 12.112Z" fill="black"/>
<path d="M411.715 7.712V7.28H396.355V7.712H411.715Z" fill="black"/>
<path d="M417.203 8.192L417.427 12.56H417.587L417.539 11.552C417.523 11.36 417.523 11.024 417.459 10.864L417.539 10.848C417.587 10.992 417.843 11.296 417.971 11.376C418.867 11.952 419.667 12.24 420.755 12.24C423.187 12.24 424.675 11.2 424.675 9.28C424.675 5.52 418.803 5.552 418.803 2.72C418.803 1.456 419.619 0.768 421.043 0.768C422.787 0.768 423.603 2.016 423.683 3.28L423.715 3.952L424.035 3.936L423.843 0.16H423.667L423.715 1.008C423.731 1.232 423.747 1.408 423.779 1.52L423.667 1.552C423.635 1.504 423.507 1.264 423.379 1.184C422.835 0.816 422.099 0.48 421.043 0.48C418.963 0.48 417.571 1.52 417.571 3.072C417.571 6.624 423.363 6.624 423.363 9.552C423.363 11.12 422.323 11.968 420.723 11.968C419.043 11.968 417.635 10.752 417.539 8.864L417.507 8.208L417.203 8.192Z" fill="black"/>
<path d="M425.449 12.112H429.929V11.968H429.321C428.473 11.968 428.361 11.904 428.361 11.136V1.616C428.361 0.848 428.473 0.784 429.321 0.784H429.929V0.608H425.449V0.752H426.057C426.905 0.752 427.001 0.816 427.001 1.584V11.136C427.001 11.904 426.905 11.968 426.057 11.968H425.449V12.112Z" fill="black"/>
<path d="M433.678 12.112V11.968H433.214C432.366 11.968 432.27 11.888 432.27 11.12V2.48C432.27 2.208 432.27 1.968 432.238 1.792H432.334C432.334 1.856 432.51 2.112 432.686 2.416L438.142 11.424C438.366 11.808 438.638 12.208 438.638 12.416H438.766V1.76C438.766 0.992 439.054 0.752 439.902 0.752H440.174V0.608H436.558V0.752H437.342C438.19 0.752 438.478 0.992 438.478 1.76V8.592C438.478 8.864 438.478 9.088 438.494 9.264H438.382C438.382 9.2 438.27 8.976 438.078 8.672L433.246 0.608H430.558V0.752H431.006C431.854 0.752 431.966 0.832 431.966 1.6V11.12C431.966 11.888 431.854 11.968 431.006 11.968H430.558V12.112H433.678Z" fill="black"/>
<path d="M440.94 6.32C440.94 9.872 443.42 12.24 447.116 12.24C448.956 12.24 450.668 11.472 451.356 9.872L451.052 9.76C450.428 11.104 448.796 11.936 447.132 11.936C444.124 11.936 442.492 9.872 442.492 6.048C442.492 2.592 444.044 0.736 446.94 0.736C448.668 0.736 450.38 1.856 450.476 3.296L450.524 4.784L450.844 4.768L450.684 0.144H450.524L450.556 1.312C450.556 1.472 450.572 1.648 450.604 1.776L450.492 1.808C450.444 1.696 450.38 1.568 450.3 1.488C449.388 0.8 448.252 0.464 447.068 0.464C443.388 0.464 440.924 2.8 440.924 6.304L440.94 6.32Z" fill="black"/>
<path d="M457.801 8.816V3.68H457.641V4.24C457.641 5.776 456.729 5.936 455.737 5.936H455.033V1.744C455.033 1.392 454.857 1.104 454.649 0.912V0.896H457.129C458.825 0.896 459.737 1.488 459.849 3.216L459.913 4.336H460.233L459.913 0L459.753 0.0159998L459.817 0.752H459.785C459.673 0.64 459.417 0.608 459.145 0.608H452.121V0.752H452.729C453.577 0.752 453.673 0.832 453.673 1.6V11.12C453.673 11.888 453.577 11.968 452.729 11.968H452.121V12.112H460.089C460.377 12.112 460.617 12.08 460.745 11.968H460.761L460.713 12.704L460.857 12.72L461.161 8.384H460.889L460.777 9.664C460.649 11.2 459.849 11.824 458.153 11.824H454.649V11.808C454.857 11.616 455.033 11.328 455.033 10.976V6.224H455.737C456.729 6.224 457.641 6.4 457.641 7.936V8.816H457.801Z" fill="black"/>
<path d="M471.615 12.112V11.968H470.639C469.791 11.968 469.711 11.872 469.711 10.976V0.48H469.487C469.487 0.816 468.735 1.808 467.391 3.392L466.703 4.176L466.815 4.272L467.999 3.056C468.255 2.832 468.367 2.656 468.447 2.56L468.511 2.592C468.479 2.816 468.463 3.152 468.463 3.52V11.008C468.463 11.904 468.351 12 467.503 12H466.383V12.144L471.615 12.112Z" fill="black"/>
<path d="M473.097 11.104C473.513 11.408 474.377 12.224 475.769 12.24C478.153 12.24 479.753 9.696 479.753 5.872C479.753 2.64 478.281 0.48 476.073 0.48C473.881 0.48 472.393 1.84 472.393 4.096C472.393 6.352 473.721 7.856 475.689 7.856C476.761 7.856 477.817 7.248 478.361 6.016H478.441C478.441 9.328 477.513 11.952 475.769 11.952C474.105 11.952 473.481 10.656 473.257 9.68V9.456H473.097V11.104ZM473.737 4.096C473.737 1.936 474.569 0.768 476.073 0.768C477.385 0.768 478.169 2.016 478.361 4.192C478.345 6.208 477.017 7.568 475.801 7.568C474.457 7.568 473.737 6.352 473.737 4.096Z" fill="black"/>
<path d="M481.691 11.104C482.107 11.408 482.971 12.224 484.363 12.24C486.747 12.24 488.347 9.696 488.347 5.872C488.347 2.64 486.875 0.48 484.667 0.48C482.475 0.48 480.987 1.84 480.987 4.096C480.987 6.352 482.315 7.856 484.283 7.856C485.355 7.856 486.411 7.248 486.955 6.016H487.035C487.035 9.328 486.107 11.952 484.363 11.952C482.699 11.952 482.075 10.656 481.851 9.68V9.456H481.691V11.104ZM482.331 4.096C482.331 1.936 483.163 0.768 484.667 0.768C485.979 0.768 486.763 2.016 486.955 4.192C486.939 6.208 485.611 7.568 484.395 7.568C483.051 7.568 482.331 6.352 482.331 4.096Z" fill="black"/>
<path d="M494.381 12.112V11.968H493.405C492.557 11.968 492.477 11.872 492.477 10.976V0.48H492.253C492.253 0.816 491.501 1.808 490.157 3.392L489.469 4.176L489.581 4.272L490.765 3.056C491.021 2.832 491.133 2.656 491.213 2.56L491.277 2.592C491.245 2.816 491.229 3.152 491.229 3.52V11.008C491.229 11.904 491.117 12 490.269 12H489.149V12.144L494.381 12.112Z" fill="black"/>
<path d="M514.918 7.712V7.28H499.558V7.712H514.918Z" fill="black"/>
<path d="M520.406 8.192L520.63 12.56H520.79L520.742 11.552C520.726 11.36 520.726 11.024 520.662 10.864L520.742 10.848C520.79 10.992 521.046 11.296 521.174 11.376C522.07 11.952 522.87 12.24 523.958 12.24C526.39 12.24 527.878 11.2 527.878 9.28C527.878 5.52 522.006 5.552 522.006 2.72C522.006 1.456 522.822 0.768 524.246 0.768C525.99 0.768 526.806 2.016 526.886 3.28L526.918 3.952L527.238 3.936L527.046 0.16H526.87L526.918 1.008C526.934 1.232 526.95 1.408 526.982 1.52L526.87 1.552C526.838 1.504 526.71 1.264 526.582 1.184C526.038 0.816 525.302 0.48 524.246 0.48C522.166 0.48 520.774 1.52 520.774 3.072C520.774 6.624 526.566 6.624 526.566 9.552C526.566 11.12 525.526 11.968 523.926 11.968C522.246 11.968 520.838 10.752 520.742 8.864L520.71 8.208L520.406 8.192Z" fill="black"/>
<path d="M528.652 12.112H533.132V11.968H532.524C531.676 11.968 531.564 11.904 531.564 11.136V1.616C531.564 0.848 531.676 0.784 532.524 0.784H533.132V0.608H528.652V0.752H529.26C530.108 0.752 530.204 0.816 530.204 1.584V11.136C530.204 11.904 530.108 11.968 529.26 11.968H528.652V12.112Z" fill="black"/>
<path d="M536.881 12.112V11.968H536.417C535.569 11.968 535.474 11.888 535.474 11.12V2.48C535.474 2.208 535.474 1.968 535.442 1.792H535.537C535.537 1.856 535.714 2.112 535.89 2.416L541.346 11.424C541.57 11.808 541.842 12.208 541.842 12.416H541.969V1.76C541.969 0.992 542.257 0.752 543.105 0.752H543.378V0.608H539.761V0.752H540.546C541.394 0.752 541.682 0.992 541.682 1.76V8.592C541.682 8.864 541.682 9.088 541.698 9.264H541.586C541.586 9.2 541.473 8.976 541.281 8.672L536.449 0.608H533.761V0.752H534.209C535.057 0.752 535.169 0.832 535.169 1.6V11.12C535.169 11.888 535.057 11.968 534.209 11.968H533.761V12.112H536.881Z" fill="black"/>
<path d="M544.143 6.32C544.143 9.872 546.623 12.24 550.319 12.24C552.159 12.24 553.871 11.472 554.559 9.872L554.255 9.76C553.631 11.104 551.999 11.936 550.335 11.936C547.327 11.936 545.695 9.872 545.695 6.048C545.695 2.592 547.247 0.736 550.143 0.736C551.871 0.736 553.583 1.856 553.679 3.296L553.727 4.784L554.047 4.768L553.887 0.144H553.727L553.759 1.312C553.759 1.472 553.775 1.648 553.807 1.776L553.695 1.808C553.647 1.696 553.583 1.568 553.503 1.488C552.591 0.8 551.455 0.464 550.271 0.464C546.591 0.464 544.127 2.8 544.127 6.304L544.143 6.32Z" fill="black"/>
<path d="M561.004 8.816V3.68H560.844V4.24C560.844 5.776 559.932 5.936 558.94 5.936H558.236V1.744C558.236 1.392 558.06 1.104 557.852 0.912V0.896H560.332C562.028 0.896 562.94 1.488 563.052 3.216L563.116 4.336H563.436L563.116 0L562.956 0.0159998L563.02 0.752H562.988C562.876 0.64 562.62 0.608 562.348 0.608H555.324V0.752H555.932C556.78 0.752 556.876 0.832 556.876 1.6V11.12C556.876 11.888 556.78 11.968 555.932 11.968H555.324V12.112H563.292C563.58 12.112 563.82 12.08 563.948 11.968H563.964L563.916 12.704L564.06 12.72L564.364 8.384H564.092L563.98 9.664C563.852 11.2 563.052 11.824 561.356 11.824H557.852V11.808C558.06 11.616 558.236 11.328 558.236 10.976V6.224H558.94C559.932 6.224 560.844 6.4 560.844 7.936V8.816H561.004Z" fill="black"/>
<path d="M574.818 12.112V11.968H573.842C572.994 11.968 572.914 11.872 572.914 10.976V0.48H572.69C572.69 0.816 571.938 1.808 570.594 3.392L569.906 4.176L570.018 4.272L571.202 3.056C571.458 2.832 571.57 2.656 571.65 2.56L571.714 2.592C571.682 2.816 571.666 3.152 571.666 3.52V11.008C571.666 11.904 571.554 12 570.706 12H569.586V12.144L574.818 12.112Z" fill="black"/>
<path d="M576.3 11.104C576.716 11.408 577.58 12.224 578.972 12.24C581.356 12.24 582.956 9.696 582.956 5.872C582.956 2.64 581.484 0.48 579.276 0.48C577.084 0.48 575.596 1.84 575.596 4.096C575.596 6.352 576.924 7.856 578.892 7.856C579.964 7.856 581.02 7.248 581.564 6.016H581.644C581.644 9.328 580.716 11.952 578.972 11.952C577.308 11.952 576.684 10.656 576.46 9.68V9.456H576.3V11.104ZM576.94 4.096C576.94 1.936 577.772 0.768 579.276 0.768C580.588 0.768 581.372 2.016 581.564 4.192C581.548 6.208 580.22 7.568 579.004 7.568C577.66 7.568 576.94 6.352 576.94 4.096Z" fill="black"/>
<path d="M584.894 11.104C585.31 11.408 586.174 12.224 587.566 12.24C589.95 12.24 591.55 9.696 591.55 5.872C591.55 2.64 590.078 0.48 587.87 0.48C585.678 0.48 584.19 1.84 584.19 4.096C584.19 6.352 585.518 7.856 587.486 7.856C588.558 7.856 589.614 7.248 590.158 6.016H590.238C590.238 9.328 589.31 11.952 587.566 11.952C585.902 11.952 585.278 10.656 585.054 9.68V9.456H584.894V11.104ZM585.534 4.096C585.534 1.936 586.366 0.768 587.87 0.768C589.182 0.768 589.966 2.016 590.158 4.192C590.142 6.208 588.814 7.568 587.598 7.568C586.254 7.568 585.534 6.352 585.534 4.096Z" fill="black"/>
<path d="M597.584 12.112V11.968H596.608C595.76 11.968 595.68 11.872 595.68 10.976V0.48H595.456C595.456 0.816 594.704 1.808 593.36 3.392L592.672 4.176L592.784 4.272L593.968 3.056C594.224 2.832 594.336 2.656 594.416 2.56L594.48 2.592C594.448 2.816 594.432 3.152 594.432 3.52V11.008C594.432 11.904 594.32 12 593.472 12H592.352V12.144L597.584 12.112Z" fill="black"/>
<path d="M622.809 7.712V7.28H607.449V7.712H622.809Z" fill="black"/>
<path d="M628.297 8.192L628.521 12.56H628.681L628.633 11.552C628.617 11.36 628.617 11.024 628.553 10.864L628.633 10.848C628.681 10.992 628.937 11.296 629.065 11.376C629.961 11.952 630.761 12.24 631.849 12.24C634.281 12.24 635.769 11.2 635.769 9.28C635.769 5.52 629.897 5.552 629.897 2.72C629.897 1.456 630.713 0.768 632.137 0.768C633.881 0.768 634.697 2.016 634.777 3.28L634.809 3.952L635.129 3.936L634.937 0.16H634.761L634.809 1.008C634.825 1.232 634.841 1.408 634.873 1.52L634.761 1.552C634.729 1.504 634.601 1.264 634.473 1.184C633.929 0.816 633.193 0.48 632.137 0.48C630.057 0.48 628.665 1.52 628.665 3.072C628.665 6.624 634.457 6.624 634.457 9.552C634.457 11.12 633.417 11.968 631.817 11.968C630.137 11.968 628.729 10.752 628.633 8.864L628.601 8.208L628.297 8.192Z" fill="black"/>
<path d="M636.543 12.112H641.023V11.968H640.415C639.567 11.968 639.455 11.904 639.455 11.136V1.616C639.455 0.848 639.567 0.784 640.415 0.784H641.023V0.608H636.543V0.752H637.151C637.999 0.752 638.095 0.816 638.095 1.584V11.136C638.095 11.904 637.999 11.968 637.151 11.968H636.543V12.112Z" fill="black"/>
<path d="M644.772 12.112V11.968H644.308C643.46 11.968 643.364 11.888 643.364 11.12V2.48C643.364 2.208 643.364 1.968 643.332 1.792H643.428C643.428 1.856 643.604 2.112 643.78 2.416L649.236 11.424C649.46 11.808 649.732 12.208 649.732 12.416H649.86V1.76C649.86 0.992 650.148 0.752 650.996 0.752H651.268V0.608H647.652V0.752H648.436C649.284 0.752 649.572 0.992 649.572 1.76V8.592C649.572 8.864 649.572 9.088 649.588 9.264H649.476C649.476 9.2 649.364 8.976 649.172 8.672L644.34 0.608H641.652V0.752H642.1C642.948 0.752 643.06 0.832 643.06 1.6V11.12C643.06 11.888 642.948 11.968 642.1 11.968H641.652V12.112H644.772Z" fill="black"/>
<path d="M652.034 6.32C652.034 9.872 654.514 12.24 658.21 12.24C660.05 12.24 661.762 11.472 662.45 9.872L662.146 9.76C661.522 11.104 659.89 11.936 658.226 11.936C655.218 11.936 653.586 9.872 653.586 6.048C653.586 2.592 655.138 0.736 658.034 0.736C659.762 0.736 661.474 1.856 661.57 3.296L661.618 4.784L661.938 4.768L661.778 0.144H661.618L661.65 1.312C661.65 1.472 661.666 1.648 661.698 1.776L661.586 1.808C661.538 1.696 661.474 1.568 661.394 1.488C660.482 0.8 659.346 0.464 658.162 0.464C654.482 0.464 652.018 2.8 652.018 6.304L652.034 6.32Z" fill="black"/>
<path d="M668.895 8.816V3.68H668.735V4.24C668.735 5.776 667.823 5.936 666.831 5.936H666.127V1.744C666.127 1.392 665.951 1.104 665.743 0.912V0.896H668.223C669.919 0.896 670.831 1.488 670.943 3.216L671.007 4.336H671.327L671.007 0L670.847 0.0159998L670.911 0.752H670.879C670.767 0.64 670.511 0.608 670.239 0.608H663.215V0.752H663.823C664.671 0.752 664.767 0.832 664.767 1.6V11.12C664.767 11.888 664.671 11.968 663.823 11.968H663.215V12.112H671.183C671.471 12.112 671.711 12.08 671.839 11.968H671.855L671.807 12.704L671.951 12.72L672.255 8.384H671.983L671.871 9.664C671.743 11.2 670.943 11.824 669.247 11.824H665.743V11.808C665.951 11.616 666.127 11.328 666.127 10.976V6.224H666.831C667.823 6.224 668.735 6.4 668.735 7.936V8.816H668.895Z" fill="black"/>
<path d="M682.709 12.112V11.968H681.733C680.885 11.968 680.805 11.872 680.805 10.976V0.48H680.581C680.581 0.816 679.829 1.808 678.485 3.392L677.797 4.176L677.909 4.272L679.093 3.056C679.349 2.832 679.461 2.656 679.541 2.56L679.605 2.592C679.573 2.816 679.557 3.152 679.557 3.52V11.008C679.557 11.904 679.445 12 678.597 12H677.477V12.144L682.709 12.112Z" fill="black"/>
<path d="M684.191 11.104C684.607 11.408 685.471 12.224 686.863 12.24C689.247 12.24 690.847 9.696 690.847 5.872C690.847 2.64 689.375 0.48 687.167 0.48C684.975 0.48 683.487 1.84 683.487 4.096C683.487 6.352 684.815 7.856 686.783 7.856C687.855 7.856 688.911 7.248 689.455 6.016H689.535C689.535 9.328 688.607 11.952 686.863 11.952C685.199 11.952 684.575 10.656 684.351 9.68V9.456H684.191V11.104ZM684.831 4.096C684.831 1.936 685.663 0.768 687.167 0.768C688.479 0.768 689.263 2.016 689.455 4.192C689.439 6.208 688.111 7.568 686.895 7.568C685.551 7.568 684.831 6.352 684.831 4.096Z" fill="black"/>
<path d="M692.785 11.104C693.201 11.408 694.065 12.224 695.457 12.24C697.841 12.24 699.441 9.696 699.441 5.872C699.441 2.64 697.969 0.48 695.761 0.48C693.569 0.48 692.081 1.84 692.081 4.096C692.081 6.352 693.409 7.856 695.377 7.856C696.449 7.856 697.505 7.248 698.049 6.016H698.129C698.129 9.328 697.201 11.952 695.457 11.952C693.793 11.952 693.169 10.656 692.945 9.68V9.456H692.785V11.104ZM693.425 4.096C693.425 1.936 694.257 0.768 695.761 0.768C697.073 0.768 697.857 2.016 698.049 4.192C698.033 6.208 696.705 7.568 695.489 7.568C694.145 7.568 693.425 6.352 693.425 4.096Z" fill="black"/>
<path d="M705.474 12.112V11.968H704.499C703.651 11.968 703.57 11.872 703.57 10.976V0.48H703.346C703.346 0.816 702.594 1.808 701.25 3.392L700.562 4.176L700.674 4.272L701.859 3.056C702.115 2.832 702.227 2.656 702.307 2.56L702.37 2.592C702.338 2.816 702.323 3.152 702.323 3.52V11.008C702.323 11.904 702.21 12 701.362 12H700.242V12.144L705.474 12.112Z" fill="black"/>
</svg>
