<svg width="59" height="92" viewBox="0 0 59 92" fill="none" xmlns="http://www.w3.org/2000/svg">
<circle cx="29.5" cy="62.5" r="29" transform="rotate(90 29.5 62.5)" stroke="#E5E5E5"/>
<path d="M35.4318 60.942L35.1272 60.5455L35.4318 60.942ZM23.5682 60.942L23.8728 60.5455L23.5682 60.942ZM29 1.78873e-07L29 73L30 73L30 1.66948e-07L29 1.78873e-07ZM29.5 73C30 73 30 73.0002 30 73.0003C30 73.0003 30 73.0004 30 73.0004C30 73.0005 30 73.0004 30 73.0002C30 72.9998 30 72.999 30 72.9977C30 72.9951 30.0001 72.9908 30.0001 72.9847C30.0003 72.9725 30.0006 72.9533 30.0013 72.9276C30.0026 72.876 30.0053 72.7979 30.0109 72.6959C30.0219 72.4917 30.0442 72.1917 30.0891 71.8163C30.1791 71.0649 30.3593 70.0144 30.72 68.8254C31.442 66.4447 32.8787 63.5343 35.7365 61.3384L35.1272 60.5455C32.0531 62.9076 30.5239 66.0263 29.763 68.5351C29.3822 69.7908 29.1917 70.9002 29.0962 71.6975C29.0485 72.0964 29.0244 72.418 29.0123 72.6418C29.0063 72.7537 29.0032 72.8412 29.0016 72.9017C29.0008 72.932 29.0004 72.9556 29.0002 72.972C29.0001 72.9803 29.0001 72.9867 29 72.9914C29 72.9938 29 72.9956 29 72.9971C29 72.9978 29 72.9984 29 72.9989C29 72.9991 29 72.9994 29 72.9995C29 72.9998 29 73 29.5 73ZM35.7365 61.3384C37.3502 60.0984 39.4135 59.386 41.1024 58.9853C41.942 58.7861 42.6783 58.6664 43.2037 58.5966C43.4662 58.5618 43.6755 58.5394 43.8181 58.5259C43.8894 58.5191 43.944 58.5146 43.9801 58.5117C43.9982 58.5103 44.0117 58.5093 44.0204 58.5087C44.0247 58.5084 44.0278 58.5082 44.0297 58.5081C44.0306 58.508 44.0313 58.5079 44.0316 58.5079C44.0318 58.5079 44.0319 58.5079 44.0319 58.5079C44.0319 58.5079 44.0318 58.5079 44.0318 58.5079C44.0318 58.5079 44.0317 58.5079 44 58.0089C43.9683 57.5099 43.9682 57.5099 43.9681 57.51C43.968 57.51 43.9678 57.51 43.9677 57.51C43.9674 57.51 43.967 57.51 43.9665 57.5101C43.9656 57.5101 43.9643 57.5102 43.9628 57.5103C43.9597 57.5105 43.9553 57.5108 43.9497 57.5112C43.9386 57.512 43.9226 57.5132 43.9019 57.5148C43.8605 57.518 43.8005 57.5231 43.7236 57.5304C43.5698 57.545 43.348 57.5687 43.0721 57.6053C42.5205 57.6785 41.7503 57.8038 40.8715 58.0123C39.1237 58.427 36.9029 59.181 35.1272 60.5455L35.7365 61.3384ZM29.5 73C30 73 30 72.9998 30 72.9995C30 72.9994 30 72.9991 30 72.9989C30 72.9984 30 72.9978 30 72.9971C30 72.9957 30 72.9938 30 72.9914C29.9999 72.9867 29.9999 72.9803 29.9998 72.972C29.9996 72.9556 29.9992 72.932 29.9984 72.9017C29.9968 72.8412 29.9937 72.7537 29.9877 72.6418C29.9756 72.418 29.9515 72.0964 29.9038 71.6975C29.8083 70.9002 29.6178 69.7908 29.237 68.5351C28.4761 66.0263 26.9469 62.9076 23.8728 60.5455L23.2635 61.3384C26.1213 63.5343 27.558 66.4447 28.28 68.8254C28.6407 70.0144 28.8209 71.0649 28.9109 71.8163C28.9558 72.1917 28.9781 72.4917 28.9891 72.6959C28.9947 72.7979 28.9974 72.876 28.9987 72.9276C28.9994 72.9533 28.9997 72.9725 28.9999 72.9847C28.9999 72.9908 29 72.9951 29 72.9977C29 72.999 29 72.9998 29 73.0002C29 73.0004 29 73.0005 29 73.0004C29 73.0004 29 73.0003 29 73.0003C29 73.0002 29 73 29.5 73ZM23.8728 60.5455C22.0971 59.181 19.8763 58.427 18.1285 58.0123C17.2497 57.8038 16.4795 57.6785 15.9279 57.6053C15.652 57.5687 15.4302 57.545 15.2764 57.5304C15.1995 57.5231 15.1395 57.518 15.0981 57.5148C15.0774 57.5132 15.0614 57.512 15.0503 57.5112C15.0447 57.5108 15.0403 57.5105 15.0372 57.5103C15.0357 57.5102 15.0344 57.5101 15.0335 57.5101C15.033 57.51 15.0326 57.51 15.0323 57.51C15.0322 57.51 15.032 57.51 15.0319 57.51C15.0318 57.5099 15.0317 57.5099 15 58.0089C14.9683 58.5079 14.9682 58.5079 14.9682 58.5079C14.9682 58.5079 14.9681 58.5079 14.9681 58.5079C14.9681 58.5079 14.9682 58.5079 14.9684 58.5079C14.9687 58.508 14.9694 58.508 14.9703 58.5081C14.9722 58.5082 14.9753 58.5084 14.9796 58.5087C14.9883 58.5093 15.0018 58.5103 15.0199 58.5117C15.056 58.5146 15.1106 58.5191 15.1819 58.5259C15.3245 58.5394 15.5338 58.5618 15.7963 58.5966C16.3217 58.6664 17.058 58.7861 17.8976 58.9853C19.5865 59.386 21.6498 60.0984 23.2635 61.3384L23.8728 60.5455Z" fill="black"/>
</svg>
