<svg width="25" height="31" viewBox="0 0 25 31" fill="none" xmlns="http://www.w3.org/2000/svg">
<path d="M24.2647 8.85714H23.5294V2.21429C23.5294 0.993476 22.5397 0 21.3235 0C20.1074 0 19.1176 0.993476 19.1176 2.21429V8.85714H18.3824C17.9757 8.85714 17.6471 9.18781 17.6471 9.59524V22.1429C17.6471 22.5503 17.9757 22.881 18.3824 22.881H19.1176V24.3571C19.1176 24.7646 19.4463 25.0952 19.8529 25.0952H20.5882V27.3095C20.5882 28.5303 19.5985 29.5238 18.3824 29.5238H6.61765C5.40147 29.5238 4.41176 28.5303 4.41176 27.3095V25.0952H5.14706C5.55368 25.0952 5.88235 24.7646 5.88235 24.3571V22.881H6.61765C7.02426 22.881 7.35294 22.5503 7.35294 22.1429V9.59524C7.35294 9.18781 7.02426 8.85714 6.61765 8.85714H5.88235V2.21429C5.88235 0.993476 4.89265 0 3.67647 0C2.46029 0 1.47059 0.993476 1.47059 2.21429V8.85714H0.735294C0.328676 8.85714 0 9.18781 0 9.59524V22.1429C0 22.5503 0.328676 22.881 0.735294 22.881H1.47059V24.3571C1.47059 24.7646 1.79926 25.0952 2.20588 25.0952H2.94118V27.3095C2.94118 29.3445 4.59044 31 6.61765 31H18.3824C20.4096 31 22.0588 29.3445 22.0588 27.3095V25.0952H22.7941C23.2007 25.0952 23.5294 24.7646 23.5294 24.3571V22.881H24.2647C24.6713 22.881 25 22.5503 25 22.1429V9.59524C25 9.18781 24.6713 8.85714 24.2647 8.85714ZM3.67647 1.47619C4.08235 1.47619 4.41176 1.8076 4.41176 2.21429V5.16667H2.94118V2.21429C2.94118 1.8076 3.27059 1.47619 3.67647 1.47619ZM2.94118 6.64286H4.41176V8.85714H2.94118V6.64286ZM1.47059 10.3333H5.88235V21.4048H1.47059V10.3333ZM4.41176 22.881V23.619H2.94118V22.881H4.41176ZM21.3235 1.47619C21.7294 1.47619 22.0588 1.8076 22.0588 2.21429V5.16667H20.5882V2.21429C20.5882 1.8076 20.9176 1.47619 21.3235 1.47619ZM20.5882 6.64286H22.0588V8.85714H20.5882V6.64286ZM22.0588 23.619H20.5882V22.881H22.0588V23.619ZM23.5294 21.4048H19.1176V10.3333H23.5294V21.4048Z" fill="black"/>
</svg>
