<svg width="44" height="44" viewBox="0 0 44 44" fill="none" xmlns="http://www.w3.org/2000/svg">
<path d="M41.4667 28.1758H38.158C38.2772 27.1165 38.3413 26.0568 38.3413 25.0178C38.3413 13.0188 30.826 3.25684 21.5889 3.25684C19.1519 3.25684 16.8372 3.94189 14.7463 5.16259C14.6918 5.1825 14.6444 5.21312 14.5999 5.24873C13.3833 5.97744 12.2456 6.88965 11.2067 7.95879C11.1585 7.99375 11.1186 8.03472 11.0845 8.08356C10.1745 9.03793 9.34208 10.1117 8.60303 11.289C8.54831 11.3438 8.51021 11.4122 8.48348 11.4865C7.88658 12.46 7.34993 13.4983 6.88661 14.5968C6.87188 14.6242 6.86024 14.6514 6.85045 14.6814C6.41729 15.7194 6.0512 16.8103 5.75094 17.9408C5.7416 17.9617 5.74005 17.9855 5.73346 18.0077C5.15501 20.209 4.83643 22.5653 4.83643 25.0178C4.83643 26.0568 4.90058 27.1165 5.01977 28.1758H1.71105C1.41735 28.1758 1.17969 28.4138 1.17969 28.7072C1.17969 29.0007 1.41735 29.2386 1.71105 29.2386H28.9929L28.9947 29.2388L28.9959 29.2386H41.4667C41.7604 29.2386 41.998 29.0007 41.998 28.7072C41.998 28.4138 41.7604 28.1758 41.4667 28.1758ZM10.4979 28.1758C10.4977 28.1628 10.4967 28.15 10.4967 28.1369C10.4967 20.2228 14.8463 13.6895 20.4107 12.8725L13.1509 21.917C13.0642 22.025 13.0232 22.1625 13.0367 22.3003L13.5991 28.1758H10.4979ZM14.115 22.4139L19.3923 15.8388L14.5213 26.6614L14.115 22.4139ZM15.0055 28.1758L21.5889 13.5483L28.1722 28.1758H15.0055ZM32.6799 28.1758H29.3379L22.4327 12.834C28.1559 13.4333 32.6811 20.0653 32.6811 28.1369C32.6811 28.15 32.68 28.1628 32.6799 28.1758ZM37.0882 28.1758H33.7426C33.7428 28.1628 33.7438 28.15 33.7438 28.1369C33.7438 19.0859 28.2911 11.7223 21.5889 11.7223C21.5781 11.7223 21.5675 11.7234 21.5567 11.7234L21.5562 11.7233L21.5548 11.7235C14.8683 11.7485 9.43396 19.1013 9.43396 28.1369C9.43396 28.15 9.43497 28.1628 9.4351 28.1758H6.0895C5.98653 27.2959 5.92582 26.4168 5.90824 25.5491H7.34899C7.64269 25.5491 7.88035 25.3112 7.88035 25.0178C7.88035 24.7243 7.64269 24.4864 7.34899 24.4864H5.90937C5.92471 23.6894 5.97297 22.9033 6.05506 22.1308H7.54514C7.83884 22.1308 8.0765 21.8929 8.0765 21.5995C8.0765 21.306 7.83884 21.0681 7.54514 21.0681H6.1891C6.30845 20.2567 6.46341 19.4622 6.65255 18.6874H8.85486C9.14856 18.6874 9.38622 18.4494 9.38622 18.156C9.38622 17.8625 9.14856 17.6246 8.85486 17.6246H6.93772C7.1626 16.8516 7.42102 16.1008 7.71183 15.3754H10.3607C10.6544 15.3754 10.8921 15.1375 10.8921 14.8441C10.8921 14.5506 10.6544 14.3127 10.3607 14.3127H8.1653C8.50476 13.5747 8.88126 12.8701 9.28575 12.1961H13.1826C13.4763 12.1961 13.7139 11.9581 13.7139 11.6647C13.7139 11.3713 13.4763 11.1333 13.1826 11.1333H9.96328C10.5131 10.333 11.1111 9.59212 11.7485 8.91294H16.3396C16.6333 8.91294 16.871 8.67502 16.871 8.38157C16.871 8.08813 16.6333 7.85021 16.3396 7.85021H12.8335C13.5444 7.21718 14.2986 6.66383 15.0855 6.18893H20.5479C20.8416 6.18893 21.0793 5.95101 21.0793 5.65756C21.0793 5.36412 20.8416 5.1262 20.5479 5.1262H17.2626C18.6379 4.6048 20.0882 4.31956 21.5889 4.31956C30.2401 4.31956 37.2786 13.6046 37.2786 25.0178C37.2786 26.056 37.2123 27.1161 37.0882 28.1758Z" fill="black" stroke="black" stroke-width="0.6"/>
<path d="M38.8197 32.6211C38.2013 33.2807 37.7478 33.8166 36.7583 33.8166C35.7689 33.8166 35.2742 33.2807 34.697 32.6211C34.0374 31.9202 33.2541 31.0544 31.7287 31.0544C30.2033 31.0544 29.3788 31.9202 28.7604 32.6211C28.142 33.2807 27.6885 33.8166 26.699 33.8166C25.7096 33.8166 25.2149 33.2807 24.6377 32.6211C23.9781 31.9202 23.1948 31.0544 21.6694 31.0544C20.144 31.0544 19.3195 31.9202 18.7011 32.6211C18.0827 33.2807 17.6292 33.8166 16.6397 33.8166C15.6503 33.8166 15.1556 33.2807 14.5784 32.6211C13.9188 31.9202 13.1355 31.0544 11.6101 31.0544C10.0847 31.0544 9.26016 31.9202 8.64176 32.6211C8.02336 33.2807 7.56987 33.8166 6.58043 33.8166C5.59099 33.8166 5.09627 33.2807 4.5191 32.6211C3.85947 31.9202 3.07617 31.0544 1.55078 31.0544V32.2912C2.54022 32.2912 3.03494 32.8272 3.61211 33.4868C4.27174 34.1877 5.05505 35.0534 6.58043 35.0534C8.10582 35.0534 8.93035 34.1877 9.54875 33.4868C10.1671 32.8272 10.6206 32.2912 11.6101 32.2912C12.5995 32.2912 13.0942 32.8272 13.6714 33.4868C14.331 34.1877 15.1143 35.0534 16.6397 35.0534C18.1651 35.0534 18.9896 34.1877 19.608 33.4868C20.2264 32.8272 20.6799 32.2912 21.6694 32.2912C22.6588 32.2912 23.1535 32.8272 23.7307 33.4868C24.3903 34.1877 25.1736 35.0534 26.699 35.0534C28.2244 35.0534 29.0489 34.1877 29.6673 33.4868C30.2857 32.8272 30.7392 32.2912 31.7287 32.2912C32.7181 32.2912 33.2128 32.8272 33.79 33.4868C34.4496 34.1877 35.2329 35.0534 36.7583 35.0534C38.2837 35.0534 39.1082 34.1877 39.7266 33.4868C40.345 32.8272 40.7985 32.2912 41.788 32.2912V31.0544C40.2626 31.0544 39.4793 31.9202 38.8197 32.6211Z" fill="black" stroke="black" stroke-width="0.6"/>
<path d="M38.8197 37.6898C38.2013 38.3494 37.7478 38.8854 36.7583 38.8854C35.7689 38.8854 35.2742 38.3494 34.697 37.6898C34.0374 36.9889 33.2541 36.1232 31.7287 36.1232C30.2033 36.1232 29.3788 36.9889 28.7604 37.6898C28.142 38.3494 27.6885 38.8854 26.699 38.8854C25.7096 38.8854 25.2149 38.3494 24.6377 37.6898C23.9781 36.9889 23.1948 36.1232 21.6694 36.1232C20.144 36.1232 19.3195 36.9889 18.7011 37.6898C18.0827 38.3494 17.6292 38.8854 16.6397 38.8854C15.6503 38.8854 15.1556 38.3494 14.5784 37.6898C13.9188 36.9889 13.1355 36.1232 11.6101 36.1232C10.0847 36.1232 9.26016 36.9889 8.64176 37.6898C8.02336 38.3494 7.56987 38.8854 6.58043 38.8854C5.59099 38.8854 5.09627 38.3494 4.5191 37.6898C3.85947 36.9889 3.07617 36.1232 1.55078 36.1232V37.36C2.54022 37.36 3.03494 37.8959 3.61211 38.5555C4.27174 39.2564 5.05505 40.1222 6.58043 40.1222C8.10582 40.1222 8.93035 39.2564 9.54875 38.5555C10.1671 37.8959 10.6206 37.36 11.6101 37.36C12.5995 37.36 13.0942 37.8959 13.6714 38.5555C14.331 39.2564 15.1143 40.1222 16.6397 40.1222C18.1651 40.1222 18.9896 39.2564 19.608 38.5555C20.2264 37.8959 20.6799 37.36 21.6694 37.36C22.6588 37.36 23.1535 37.8959 23.7307 38.5555C24.3903 39.2564 25.1736 40.1222 26.699 40.1222C28.2244 40.1222 29.0489 39.2564 29.6673 38.5555C30.2857 37.8959 30.7392 37.36 31.7287 37.36C32.7181 37.36 33.2128 37.8959 33.79 38.5555C34.4496 39.2564 35.2329 40.1222 36.7583 40.1222C38.2837 40.1222 39.1082 39.2564 39.7266 38.5555C40.345 37.8959 40.7985 37.36 41.788 37.36V36.1232C40.2626 36.1232 39.4793 36.9889 38.8197 37.6898Z" fill="black" stroke="black" stroke-width="0.6"/>
</svg>
