<svg width="44" height="44" viewBox="0 0 44 44" fill="none" xmlns="http://www.w3.org/2000/svg">
<g clip-path="url(#clip0_3906_29009)">
<path d="M43.4959 36.8746H39.5643V35.8736L39.8549 33.7016C39.8877 33.4547 39.7379 33.2204 39.5003 33.1484C39.5003 33.1484 33.8861 31.4557 33.8367 31.4557H18.5543L18.4524 31.3548C18.466 31.3081 18.4811 31.262 18.4811 31.2118V15.3916C18.4811 15.3835 18.4771 15.3774 18.4766 15.3698C21.7039 15.3835 24.7723 15.5569 27.5945 15.8957C27.7009 15.9088 27.8089 15.8865 27.9017 15.8338C27.93 15.8176 30.7648 14.2268 33.0381 14.2268C33.2913 14.2268 33.5295 14.2471 33.7454 14.2871C33.7762 14.2927 33.8064 14.2957 33.8372 14.2957C33.8407 14.2957 33.8468 14.2947 33.8468 14.2957C34.1258 14.2957 34.3513 14.0686 34.3513 13.7886C34.3513 13.5488 34.1858 13.348 33.9633 13.2952L17.9231 7.36463C17.8101 7.32305 17.6865 7.32254 17.5745 7.36463L1.55249 13.3125C1.3184 13.3992 1.18269 13.6451 1.23314 13.8911C1.28359 14.1365 1.50103 14.3049 1.7548 14.2947C1.76186 14.2942 1.98586 14.2826 2.34507 14.2826C4.91551 14.2826 6.84474 14.811 7.50564 15.6969C7.54398 15.7486 7.59645 15.7841 7.64942 15.8171C7.66203 15.8247 7.67061 15.8389 7.68373 15.846C7.75335 15.881 7.83054 15.8997 7.90924 15.8997C7.90924 15.8997 7.90924 15.8997 7.90974 15.8997C7.92992 15.8997 7.95061 15.8987 7.97079 15.8962C8.01216 15.8911 12.028 15.4028 17.4761 15.3688C17.4756 15.3774 17.4711 15.384 17.4711 15.3926V30.3821L13.1833 26.1245C12.9866 25.9277 12.6687 25.9292 12.472 26.1265L11.077 27.5281C10.8813 27.7249 10.8798 28.0444 11.0745 28.2421C11.0745 28.2421 17.4565 34.7453 17.4726 34.7584C17.4726 34.7595 17.4721 34.7605 17.4721 34.7615V36.8746H5.40589C5.12741 36.8746 4.90139 37.1013 4.90139 37.3817C4.90139 37.6621 5.12741 37.8888 5.40589 37.8888H43.4959C43.7749 37.8888 44.0004 37.6621 44.0004 37.3817C44.0004 37.1013 43.7749 36.8746 43.4959 36.8746ZM31.3626 13.4134C29.6402 13.7947 28.0415 14.6071 27.5536 14.8693C27.3957 14.8505 27.2297 14.8378 27.0703 14.8206L20.4381 9.37479L31.3626 13.4134ZM4.29447 13.3753L15.7447 9.1253L7.97129 14.7232C7.09043 13.9068 5.63948 13.5331 4.29447 13.3753ZM9.73403 14.7019L18.0432 8.71809L25.2546 14.6391C22.9767 14.4474 20.5723 14.35 18.0745 14.35C14.545 14.35 11.5543 14.5463 9.73403 14.7019ZM38.5553 36.8746H18.4811V34.8756H33.5052L38.5553 36.2285V36.8746ZM38.5846 35.1869C38.5846 35.1869 33.6152 33.8614 33.5713 33.8614H17.9928L12.1445 27.8897L12.8322 27.199L17.9928 32.3233C18.0871 32.4177 18.2142 32.4699 18.3474 32.4699H33.763L38.798 33.9947C38.7975 33.9947 38.6007 35.1327 38.5846 35.1869Z" fill="black" stroke="black" stroke-width="0.7"/>
</g>
<defs>
<clipPath id="clip0_3906_29009">
<rect width="44" height="44" fill="white"/>
</clipPath>
</defs>
</svg>
