<svg width="44" height="44" viewBox="0 0 44 44" fill="none" xmlns="http://www.w3.org/2000/svg">
<path d="M38.5357 29.5401C37.9187 29.0173 37.156 28.726 36.3077 28.6489C35.9221 24.9898 33.5056 21.6907 29.7865 19.6855C31.8517 17.8345 33.1371 15.3323 33.1371 12.5731C33.1371 11.3562 32.8886 10.1737 32.4001 9.03398C33.4027 8.22848 33.994 7.02022 33.994 5.7177C33.994 3.35261 32.0745 1.43311 29.7094 1.43311C28.2955 1.43311 27.0016 2.12721 26.2046 3.24977C23.0426 1.98153 19.2379 1.98153 16.0673 3.24977C15.2789 2.12721 13.9849 1.43311 12.571 1.43311C10.2059 1.43311 8.28643 3.35261 8.28643 5.7177C8.28643 7.02022 8.8777 8.22848 9.8803 9.03398C9.39185 10.1651 9.14335 11.3562 9.14335 12.5731C9.14335 15.5637 10.6515 18.2544 13.0423 20.1311C9.71748 22.1791 7.63517 25.2726 7.2924 28.7003C6.60686 28.8288 5.98131 29.103 5.46716 29.5401C4.31889 30.4998 3.82188 32.0594 4.07038 33.9189C4.30175 35.6413 5.1501 37.4494 6.46119 39.009C7.77228 40.5772 9.40899 41.7255 11.0628 42.2482C11.7141 42.4538 12.3482 42.5567 12.9395 42.5567C13.9678 42.5567 14.8847 42.2482 15.6131 41.6398C15.8959 41.3998 16.1444 41.1256 16.35 40.8086C18.0896 41.3827 19.9148 41.6998 21.8086 41.6998C23.8395 41.6998 25.7762 41.3484 27.5928 40.6972C27.8071 41.0571 28.0727 41.3741 28.3983 41.6398C29.1267 42.2482 30.0436 42.5567 31.0719 42.5567C31.6632 42.5567 32.2973 42.4538 32.9486 42.2482C34.6024 41.7255 36.2306 40.5686 37.5502 39.009C38.8613 37.4409 39.7097 35.6328 39.941 33.9189C40.181 32.0594 39.684 30.4998 38.5357 29.5401ZM10.8572 12.5731C10.8572 11.3905 11.1485 10.2337 11.7312 9.13681C11.954 8.71692 11.7912 8.20277 11.3713 7.97997C10.5316 7.5258 10.0003 6.66031 10.0003 5.7177C10.0003 4.30379 11.1571 3.14694 12.571 3.14694C13.5908 3.14694 14.5162 3.75536 14.9276 4.6894C15.0218 4.90363 15.1932 5.06644 15.416 5.15214C15.6302 5.23783 15.8787 5.22069 16.0844 5.12643C19.1693 3.6611 23.1283 3.6611 26.2132 5.12643C26.4188 5.22926 26.6588 5.23783 26.8816 5.15214C27.0958 5.07501 27.2758 4.90363 27.37 4.6894C27.7642 3.75536 28.6897 3.14694 29.7094 3.14694C31.1233 3.14694 32.2802 4.30379 32.2802 5.7177C32.2802 6.66031 31.7489 7.5258 30.9091 7.97997C30.4892 8.20277 30.335 8.71692 30.5492 9.13681C31.1319 10.2251 31.4233 11.3819 31.4233 12.5731C31.4233 17.0547 27.2672 20.7395 21.9971 21.108V18.4515C23.471 18.0659 24.5679 16.7377 24.5679 15.1438C24.5679 13.4385 23.4111 12.5731 21.1402 12.5731C18.8694 12.5731 17.7125 13.4385 17.7125 15.1438C17.7125 16.7377 18.8094 18.0659 20.2833 18.4515V21.108C15.0132 20.7395 10.8572 17.0547 10.8572 12.5731ZM21.1402 16.8577C20.1976 16.8577 19.4264 16.0864 19.4264 15.1438C19.4264 14.7411 19.4264 14.2869 21.1402 14.2869C22.8541 14.2869 22.8541 14.7411 22.8541 15.1438C22.8541 16.0864 22.0828 16.8577 21.1402 16.8577ZM11.5684 40.62C10.2231 40.1916 8.86913 39.2318 7.76371 37.9122C6.65828 36.5925 5.94704 35.0929 5.75851 33.6961C5.58713 32.4365 5.87848 31.4253 6.55545 30.8597C6.96677 30.517 7.50663 30.3456 8.14075 30.3456C8.56064 30.3456 9.01481 30.4227 9.49468 30.5769C10.84 31.0054 12.194 31.9651 13.2994 33.2848C14.4048 34.6045 15.1161 36.1041 15.3046 37.5009C15.476 38.7605 15.1846 39.7717 14.5077 40.3373C13.8221 40.9028 12.7767 41.0057 11.5684 40.62ZM21.8 39.9945C20.1205 39.9945 18.5009 39.7288 16.967 39.2233C17.0784 38.6234 17.0956 37.9636 17.0013 37.2695C16.7699 35.5471 15.9216 33.739 14.6105 32.1794C13.2994 30.6112 11.6627 29.4629 10.0088 28.9402C9.66607 28.8288 9.34044 28.7603 9.00624 28.7089C9.37472 25.6582 11.4142 22.9161 14.6191 21.2022C16.5043 22.2391 18.7408 22.8561 21.1402 22.8561C23.8052 22.8561 26.2646 22.102 28.2527 20.8338C31.8517 22.5133 34.2168 25.4783 34.5939 28.7688C34.3882 28.8117 34.1911 28.8631 33.9769 28.9317C32.323 29.4544 30.6949 30.6112 29.3752 32.1708C28.0641 33.739 27.2158 35.5471 26.9844 37.2609C26.8987 37.9122 26.9073 38.5206 27.0016 39.0862C25.3734 39.6774 23.6253 39.9945 21.8 39.9945ZM38.2358 33.6961C38.0472 35.1015 37.336 36.5925 36.2306 37.9122C35.1252 39.2318 33.7712 40.1916 32.4259 40.62C31.2176 41.0057 30.1722 40.9028 29.4866 40.3287C28.8011 39.7545 28.5183 38.752 28.6897 37.4923C28.8782 36.0869 29.5894 34.5959 30.6949 33.2762C31.8003 31.9566 33.1542 30.9968 34.4996 30.5684C34.9795 30.4141 35.4336 30.337 35.8535 30.337C36.4877 30.337 37.0275 30.5084 37.4388 30.8512C38.1158 31.4253 38.3986 32.4365 38.2358 33.6961Z" fill="black"/>
<path d="M24.564 10.0022C25.0353 10.0022 25.4209 9.61654 25.4209 9.14524V8.28832C25.4209 7.81701 25.0353 7.4314 24.564 7.4314C24.0926 7.4314 23.707 7.81701 23.707 8.28832V9.14524C23.707 9.61654 24.0926 10.0022 24.564 10.0022Z" fill="black"/>
<path d="M17.7124 10.0022C18.1837 10.0022 18.5693 9.61654 18.5693 9.14524V8.28832C18.5693 7.81701 18.1837 7.4314 17.7124 7.4314C17.2411 7.4314 16.8555 7.81701 16.8555 8.28832V9.14524C16.8555 9.61654 17.2411 10.0022 17.7124 10.0022Z" fill="black"/>
<path fill-rule="evenodd" clip-rule="evenodd" d="M26.2385 16.9481C26.6618 17.1597 26.8334 17.6745 26.6217 18.0978L25.8553 17.7145C26.6217 18.0978 26.6219 18.0975 26.6217 18.0978L26.6213 18.0987L26.6208 18.0997L26.6196 18.102L26.6168 18.1075L26.6091 18.1223C26.6031 18.1338 26.5952 18.1485 26.5855 18.1661C26.5661 18.2013 26.5392 18.2482 26.5048 18.3042C26.4362 18.4157 26.3359 18.5659 26.2031 18.7319C25.9424 19.0577 25.5297 19.4781 24.9531 19.7664C24.1166 20.1846 23.0407 20.1531 22.3169 20.0766C21.9288 20.0355 21.5843 19.9743 21.3371 19.9235C21.2129 19.898 21.1119 19.8749 21.0404 19.8577C21.0047 19.8491 20.9762 19.842 20.9559 19.8369L20.9316 19.8306L20.9242 19.8286L20.9218 19.828L20.9208 19.8277C20.9207 19.8277 20.9201 19.8275 21.1399 19.0088L20.9208 19.8277C20.4637 19.705 20.1919 19.2349 20.3146 18.7778C20.4372 18.321 20.9067 18.0499 21.3635 18.172M21.3635 18.172L21.3657 18.1726L21.3792 18.1761C21.3922 18.1794 21.4128 18.1846 21.4404 18.1912C21.4956 18.2045 21.5781 18.2234 21.6818 18.2447C21.8902 18.2875 22.1781 18.3385 22.4973 18.3722C23.188 18.4453 23.8259 18.4138 24.1867 18.2335C24.4671 18.0933 24.697 17.871 24.8648 17.6612C24.9463 17.5594 25.0067 17.4686 25.0452 17.406C25.0643 17.375 25.0775 17.3516 25.0849 17.3382L25.0914 17.3263C25.3046 16.9067 25.8169 16.7373 26.2385 16.9481" fill="black"/>
<path fill-rule="evenodd" clip-rule="evenodd" d="M15.613 16.9481C15.1897 17.1597 15.0182 17.6745 15.2298 18.0978L15.9963 17.7145C15.2298 18.0978 15.2297 18.0975 15.2298 18.0978L15.2303 18.0987L15.2308 18.0997L15.232 18.102L15.2348 18.1075L15.2424 18.1223C15.2485 18.1338 15.2563 18.1485 15.2661 18.1661C15.2854 18.2013 15.3123 18.2482 15.3468 18.3042C15.4154 18.4157 15.5157 18.5659 15.6485 18.7319C15.9092 19.0577 16.3219 19.4781 16.8984 19.7664C17.7349 20.1846 18.8108 20.1531 19.5346 20.0766C19.9227 20.0355 20.2672 19.9743 20.5144 19.9235C20.6386 19.898 20.7397 19.8749 20.8111 19.8577C20.8469 19.8491 20.8753 19.842 20.8956 19.8369L20.9199 19.8306L20.9273 19.8286L20.9298 19.828L20.9307 19.8277C20.9309 19.8277 20.9315 19.8275 20.7117 19.0088L20.9307 19.8277C21.3878 19.705 21.6596 19.2349 21.537 18.7778C21.4143 18.321 20.9449 18.0499 20.4881 18.172M20.4881 18.172L20.4859 18.1726L20.4723 18.1761C20.4594 18.1794 20.4387 18.1846 20.4111 18.1912C20.3559 18.2045 20.2734 18.2234 20.1698 18.2447C19.9614 18.2875 19.6735 18.3385 19.3543 18.3722C18.6636 18.4453 18.0257 18.4138 17.6649 18.2335C17.3845 18.0933 17.1545 17.871 16.9868 17.6612C16.9053 17.5594 16.8449 17.4686 16.8064 17.406C16.7873 17.375 16.774 17.3516 16.7667 17.3382L16.7602 17.3263C16.547 16.9067 16.0347 16.7373 15.613 16.9481" fill="black"/>
</svg>
