<svg width="54" height="44" viewBox="0 0 54 44" fill="none" xmlns="http://www.w3.org/2000/svg">
<g clip-path="url(#clip0_3906_29032)">
<path fill-rule="evenodd" clip-rule="evenodd" d="M16.1217 33.286L16.065 33.2541L15.9672 33.2116C15.6846 33.0941 15.4561 33.0353 15.2767 33.0184C15.0784 32.9997 14.9609 33.0323 14.8852 33.0737C14.515 33.2758 14.0504 33.1396 13.8483 32.7694C13.6462 32.3992 13.7824 31.9346 14.1526 31.7325C14.5499 31.5155 14.9877 31.4557 15.4204 31.4968C15.794 31.5322 16.1767 31.6429 16.5598 31.8028C16.5758 31.6259 16.6529 31.4534 16.7915 31.3206L18.4994 29.6795C14.393 29.0855 10.2605 28.0249 6.10114 26.4745C5.96529 26.4239 5.84676 26.3356 5.75914 26.2201L0.155356 18.8333C-0.0997009 18.4974 -0.0338138 18.0179 0.302413 17.7628C0.322111 17.7479 0.342489 17.734 0.363206 17.721C0.445055 17.5832 0.573772 17.468 0.749357 17.4018C9.70658 14.0259 19.3916 12.5095 29.8513 13.0067C29.8883 12.9086 29.9464 12.8162 30.0259 12.7371L33.0825 9.68047C33.3807 9.38194 33.8647 9.38194 34.1628 9.68047C34.4614 9.97866 34.4614 10.4626 34.1628 10.7608L31.8014 13.1222C38.582 13.6021 45.6842 14.9168 53.1203 17.107C53.3302 17.0751 53.5519 17.1301 53.7268 17.2768C54.0502 17.5478 54.0926 18.0301 53.8213 18.3531L47.1986 26.2493C47.113 26.3516 47.0023 26.4297 46.877 26.4755C38.1867 29.672 29.3789 30.8998 20.4478 29.9264L18.4811 31.8161C18.8435 31.6171 19.3009 31.7427 19.5098 32.1021C19.7217 32.4668 19.5978 32.9348 19.233 33.1467C18.7708 33.4154 18.2573 33.613 17.6999 33.6487C17.1674 33.683 16.6376 33.5668 16.1217 33.286ZM43.9128 25.8836L46.1638 25.1058L50.9677 19.3781C43.8414 21.7269 35.7241 23.0477 27.4869 23.1638L21.8997 28.5316C29.3198 29.1609 36.6526 28.2317 43.9128 25.8836ZM19.9089 28.3258L25.279 23.1659C17.5009 23.0711 9.68518 21.8916 2.56261 19.4789L6.8371 25.1133L9.16692 25.9257C12.769 27.0957 16.3489 27.8907 19.9089 28.3258ZM26.8654 21.642L29.782 18.8394C30.086 18.5474 30.5703 18.5569 30.8624 18.8612C31.1545 19.1651 31.145 19.6494 30.8406 19.9415L29.1188 21.5958C30.1118 21.5622 31.1025 21.5106 32.0891 21.4416L32.5021 17.8759C32.5394 17.555 32.7741 17.2921 33.089 17.2194C34.4362 16.907 35.8304 16.8968 37.2663 17.2181C37.2925 17.2242 37.3183 17.2313 37.3492 17.2422C37.3519 17.2425 37.3546 17.2435 37.3981 17.2605C37.4008 17.2602 37.4419 17.2792 37.4854 17.3047C37.4864 17.305 37.4874 17.3057 37.4881 17.3064C37.5285 17.3298 37.5659 17.3566 37.5608 17.3546C37.5988 17.3852 37.5971 17.3838 37.6236 17.4079C37.6236 17.4066 37.6498 17.4327 37.6773 17.468C37.6939 17.483 37.7082 17.5006 37.7255 17.5298C37.7387 17.5451 37.7499 17.5624 37.7618 17.5886C37.7754 17.6063 37.7859 17.6266 37.7968 17.6575C37.8094 17.68 37.8185 17.7037 37.8236 17.7292C37.8311 17.7418 37.8352 17.7564 37.8393 17.771L38.6082 20.7237C42.52 20.1317 46.3003 19.2623 49.8402 18.1364L50.4403 17.9377L49.1365 17.5869C32.3397 13.2163 17.4004 13.4961 4.11061 17.8396L3.31453 18.1198C6.70974 19.2527 10.2676 20.1008 13.9033 20.6809L14.6308 17.7733C14.6352 17.7553 14.6403 17.7373 14.6488 17.7119C14.6705 17.646 14.7058 17.5767 14.753 17.5159C14.7592 17.502 14.7663 17.4925 14.7761 17.486C14.8362 17.4079 14.8964 17.3553 14.966 17.3152C14.9752 17.3057 14.985 17.2999 14.9965 17.2972C15.0706 17.2534 15.1324 17.23 15.1986 17.2143C16.639 16.8791 18.0379 16.8897 19.3896 17.2157C19.7024 17.2911 19.9343 17.5546 19.97 17.8742L20.3646 21.4277C22.527 21.5863 24.6992 21.6566 26.8654 21.642ZM37.0846 20.939L36.4811 18.621C35.7285 18.4947 34.9966 18.4774 34.2821 18.5606L33.956 18.6081L33.6425 21.3183C34.7979 21.2154 35.9462 21.0891 37.0846 20.939ZM18.8126 21.2986L18.5123 18.598L18.186 18.5484C17.4744 18.4621 16.7456 18.4801 15.9964 18.6112L15.4221 20.9071C16.5466 21.0626 17.6775 21.193 18.8126 21.2986ZM3.31453 18.1198L3.32234 18.1167L2.80985 17.9486C2.97762 18.0063 3.14608 18.0634 3.31453 18.1198Z" fill="black"/>
</g>
<defs>
<clipPath id="clip0_3906_29032">
<rect width="54" height="44" fill="white"/>
</clipPath>
</defs>
</svg>
