<svg width="32" height="25" viewBox="0 0 32 25" fill="none" xmlns="http://www.w3.org/2000/svg">
<path d="M6.95094 23.5694C3.52656 20.8822 1.5625 16.8475 1.5625 12.5C1.5625 8.15692 3.52344 4.12473 6.94219 1.43754C7.28125 1.17098 7.34031 0.679732 7.07344 0.34067C6.80656 0.0016071 6.31563 -0.0574554 5.97656 0.20942C2.17844 3.19442 0 7.67442 0 12.5C0 17.3307 2.18188 21.8135 5.98625 24.7985C6.12937 24.9107 6.29938 24.965 6.46812 24.965C6.69969 24.965 6.92906 24.8625 7.08313 24.666C7.34969 24.3269 7.29031 23.8357 6.95094 23.5694Z" fill="black"/>
<path d="M25.2769 0.212581C24.9378 -0.0539812 24.4466 0.00445621 24.1797 0.343519C23.9128 0.682581 23.9716 1.17383 24.3106 1.44039C27.7269 4.12789 29.6866 8.15883 29.6866 12.5001C29.6866 16.8432 27.7256 20.8757 24.3063 23.5629C23.9669 23.8298 23.9085 24.3207 24.1747 24.6601C24.3288 24.8563 24.5581 24.9585 24.7897 24.9585C24.9585 24.9585 25.1288 24.9038 25.2719 24.7916C29.0703 21.806 31.2491 17.3257 31.2491 12.5001C31.2491 7.67664 29.0722 3.19789 25.2769 0.212581Z" fill="black"/>
<path d="M28.125 12.5C28.125 5.6075 22.5175 0 15.625 0C8.7325 0 3.125 5.6075 3.125 12.5C3.125 19.3925 8.7325 25 15.625 25C22.5175 25 28.125 19.3925 28.125 12.5ZM15.625 23.4375C9.59406 23.4375 4.6875 18.5309 4.6875 12.5C4.6875 6.46906 9.59406 1.5625 15.625 1.5625C21.6559 1.5625 26.5625 6.46906 26.5625 12.5C26.5625 18.5309 21.6559 23.4375 15.625 23.4375Z" fill="black"/>
<path d="M15.897 4.42725H12.4648C12.0333 4.42725 11.6836 4.77693 11.6836 5.2085V19.7919C11.6836 20.2235 12.0333 20.5732 12.4648 20.5732C12.8964 20.5732 13.2461 20.2235 13.2461 19.7919V14.0616H16.2164C18.838 14.0616 20.8148 11.9963 20.8148 9.25756C20.8148 6.59412 18.6089 4.42725 15.897 4.42725ZM16.2167 12.4991H13.2461V5.98975H15.897C17.7158 5.98975 19.2523 7.48631 19.2523 9.25787C19.2523 11.136 17.9755 12.4991 16.2167 12.4991Z" fill="black"/>
</svg>
