<svg width="59" height="92" viewBox="0 0 59 92" fill="none" xmlns="http://www.w3.org/2000/svg">
<circle r="29" transform="matrix(1.19249e-08 -1 -1 -1.19249e-08 29.5 29.5)" stroke="#E5E5E5"/>
<path d="M35.4318 31.058L35.1272 31.4545L35.4318 31.058ZM23.5682 31.058L23.8728 31.4545L23.5682 31.058ZM29 92L29 19L30 19L30 92L29 92ZM29.5 19C30 19 30 18.9998 30 18.9997C30 18.9997 30 18.9996 30 18.9996C30 18.9995 30 18.9996 30 18.9998C30 19.0002 30 19.001 30 19.0023C30 19.0049 30.0001 19.0092 30.0001 19.0153C30.0003 19.0275 30.0006 19.0467 30.0013 19.0724C30.0026 19.124 30.0053 19.2021 30.0109 19.3041C30.0219 19.5083 30.0442 19.8083 30.0891 20.1837C30.1791 20.9351 30.3593 21.9856 30.72 23.1746C31.442 25.5553 32.8787 28.4657 35.7365 30.6616L35.1272 31.4545C32.0531 29.0924 30.5239 25.9737 29.763 23.4649C29.3822 22.2092 29.1917 21.0998 29.0962 20.3025C29.0485 19.9036 29.0244 19.582 29.0123 19.3582C29.0063 19.2463 29.0032 19.1588 29.0016 19.0983C29.0008 19.068 29.0004 19.0444 29.0002 19.028C29.0001 19.0197 29.0001 19.0133 29 19.0086C29 19.0062 29 19.0044 29 19.0029C29 19.0022 29 19.0016 29 19.0011C29 19.0009 29 19.0006 29 19.0005C29 19.0002 29 19 29.5 19ZM35.7365 30.6616C37.3502 31.9016 39.4135 32.614 41.1024 33.0147C41.942 33.2139 42.6783 33.3336 43.2037 33.4034C43.4662 33.4382 43.6755 33.4606 43.8181 33.4741C43.8894 33.4809 43.944 33.4854 43.9801 33.4883C43.9982 33.4897 44.0117 33.4907 44.0204 33.4913C44.0247 33.4916 44.0278 33.4918 44.0297 33.4919C44.0306 33.492 44.0313 33.4921 44.0316 33.4921C44.0318 33.4921 44.0319 33.4921 44.0319 33.4921C44.0319 33.4921 44.0318 33.4921 44.0318 33.4921C44.0318 33.4921 44.0317 33.4921 44 33.9911C43.9683 34.4901 43.9682 34.4901 43.9681 34.49C43.968 34.49 43.9678 34.49 43.9677 34.49C43.9674 34.49 43.967 34.49 43.9665 34.4899C43.9656 34.4899 43.9643 34.4898 43.9628 34.4897C43.9597 34.4895 43.9553 34.4892 43.9497 34.4888C43.9386 34.488 43.9226 34.4868 43.9019 34.4852C43.8605 34.482 43.8005 34.4769 43.7236 34.4696C43.5698 34.455 43.348 34.4313 43.0721 34.3947C42.5205 34.3215 41.7503 34.1962 40.8715 33.9877C39.1237 33.573 36.9029 32.819 35.1272 31.4545L35.7365 30.6616ZM29.5 19C30 19 30 19.0002 30 19.0005C30 19.0006 30 19.0009 30 19.0011C30 19.0016 30 19.0022 30 19.0029C30 19.0043 30 19.0062 30 19.0086C29.9999 19.0133 29.9999 19.0197 29.9998 19.028C29.9996 19.0444 29.9992 19.068 29.9984 19.0983C29.9968 19.1588 29.9937 19.2463 29.9877 19.3582C29.9756 19.582 29.9515 19.9036 29.9038 20.3025C29.8083 21.0998 29.6178 22.2092 29.237 23.4649C28.4761 25.9737 26.9469 29.0924 23.8728 31.4545L23.2635 30.6616C26.1213 28.4657 27.558 25.5553 28.28 23.1746C28.6407 21.9856 28.8209 20.9351 28.9109 20.1837C28.9558 19.8083 28.9781 19.5083 28.9891 19.3041C28.9947 19.2021 28.9974 19.124 28.9987 19.0724C28.9994 19.0467 28.9997 19.0275 28.9999 19.0153C28.9999 19.0092 29 19.0049 29 19.0023C29 19.001 29 19.0002 29 18.9998C29 18.9996 29 18.9995 29 18.9996C29 18.9996 29 18.9997 29 18.9997C29 18.9998 29 19 29.5 19ZM23.8728 31.4545C22.0971 32.819 19.8763 33.573 18.1285 33.9877C17.2497 34.1962 16.4795 34.3215 15.9279 34.3947C15.652 34.4313 15.4302 34.455 15.2764 34.4696C15.1995 34.4769 15.1395 34.482 15.0981 34.4852C15.0774 34.4868 15.0614 34.488 15.0503 34.4888C15.0447 34.4892 15.0403 34.4895 15.0372 34.4897C15.0357 34.4898 15.0344 34.4899 15.0335 34.4899C15.033 34.49 15.0326 34.49 15.0323 34.49C15.0322 34.49 15.032 34.49 15.0319 34.49C15.0318 34.4901 15.0317 34.4901 15 33.9911C14.9683 33.4921 14.9682 33.4921 14.9682 33.4921C14.9682 33.4921 14.9681 33.4921 14.9681 33.4921C14.9681 33.4921 14.9682 33.4921 14.9684 33.4921C14.9687 33.492 14.9694 33.492 14.9703 33.4919C14.9722 33.4918 14.9753 33.4916 14.9796 33.4913C14.9883 33.4907 15.0018 33.4897 15.0199 33.4883C15.056 33.4854 15.1106 33.4809 15.1819 33.4741C15.3245 33.4606 15.5338 33.4382 15.7963 33.4034C16.3217 33.3336 17.058 33.2139 17.8976 33.0147C19.5865 32.614 21.6498 31.9016 23.2635 30.6616L23.8728 31.4545Z" fill="black"/>
</svg>
