<svg width="434" height="434" viewBox="0 0 434 434" fill="none" xmlns="http://www.w3.org/2000/svg">
<path d="M382.418 17.719H428.807C430.538 17.6025 431.923 16.7865 432.731 15.0379C433.654 13.4059 434 11.3075 434 8.85952C434 6.4115 433.654 4.31319 432.731 2.68117C431.807 1.04915 430.538 0.116573 428.807 0H319.759C318.028 0.116573 316.759 1.04915 315.951 2.79774C315.028 4.66291 314.566 6.64464 314.566 8.74295C314.566 11.191 315.028 13.2893 315.951 14.9213C316.874 16.5533 318.028 17.4859 319.759 17.6025H364.994V257.975L133.512 0.116572H5.19277C3.46185 0.233145 2.1925 1.16573 1.38474 2.79774C0.461579 4.42976 0 6.52807 0 8.97609C0 11.4241 0.461579 13.5224 1.38474 15.1544C2.1925 16.7865 3.46185 17.6025 5.19277 17.719H51.0045V416.281H5.19277C3.46185 416.398 2.1925 417.214 1.38474 418.962C0.461579 420.594 0 422.692 0 425.14C0 427.589 0.461579 429.57 1.38474 431.319C2.3079 432.951 3.46185 433.883 5.19277 434H114.241C115.972 433.883 117.357 433.067 118.164 431.319C119.087 429.687 119.434 427.589 119.434 425.14C119.434 422.692 119.087 420.711 118.164 418.962C117.241 417.33 115.972 416.398 114.241 416.281H68.4291V103.283L364.994 433.883H382.418V17.719Z" fill="black"/>
</svg>
